<svg width="156" height="44" viewBox="0 0 156 44" fill="none" xmlns="http://www.w3.org/2000/svg">
<g clip-path="url(#clip0_43327_43232)">
<path d="M0 9.64912C0 4.32007 4.32007 0 9.64912 0H34.3509C39.6799 0 44 4.32007 44 9.64912V34.3509C44 39.6799 39.6799 44 34.3509 44H9.64912C4.32007 44 0 39.6799 0 34.3509V9.64912Z" fill="black"/>
<path fill-rule="evenodd" clip-rule="evenodd" d="M33.1447 18.4217C33.1447 20.5324 31.9115 21.5822 30.5257 21.9469C32.1844 22.4441 33.3848 23.8034 33.3848 25.9583V29.9144H27.0553V26.1572C27.0553 25.0078 26.3787 24.5437 25.222 24.5437H17.7141V29.9144H11.3848V14.0898H26.4225C30.1982 14.0898 33.1447 14.9076 33.1447 18.4217ZM17.7169 18.5111H26.2736V18.5117C26.2863 18.5113 26.2992 18.5111 26.312 18.5111C26.9004 18.5111 27.3774 18.994 27.3774 19.5898C27.3774 20.1856 26.9004 20.6686 26.312 20.6686C26.2992 20.6686 26.2863 20.6684 26.2736 20.668V20.6686H17.7169V18.5111Z" fill="white"/>
<path fill-rule="evenodd" clip-rule="evenodd" d="M131.428 25.3463C131.428 29.963 128.752 33.1409 124.212 33.1409C122.348 33.1409 120.634 32.3614 119.882 31.1622V32.901H116.094V11.6758H119.882V19.4704C120.754 18.3312 122.378 17.5517 124.272 17.5517C128.752 17.5517 131.428 20.7296 131.428 25.3463ZM119.642 25.3463C119.642 28.0743 121.235 29.8731 123.671 29.8731C126.076 29.8731 127.67 28.0743 127.67 25.3463C127.67 22.6181 126.076 20.8195 123.671 20.8195C121.235 20.8195 119.642 22.6181 119.642 25.3463Z" fill="black"/>
<path fill-rule="evenodd" clip-rule="evenodd" d="M77.7942 32.8995L73.1667 23.5161C75.2414 22.4967 76.474 20.4882 76.474 18.1198C76.474 14.3424 73.7981 11.9141 69.6789 11.9141H59.6309L59.661 32.8995H63.7501V24.2955H68.9872L73.0437 32.8995H77.7942ZM63.7501 15.4216H69.0474C71.1521 15.4216 72.3548 16.4409 72.3548 18.1198C72.3548 19.7987 71.1521 20.7879 69.0474 20.7879H63.7501V15.4216Z" fill="black"/>
<path fill-rule="evenodd" clip-rule="evenodd" d="M90.0459 17.7906H93.8344V32.9001H90.0459V31.1613C89.2943 32.3605 87.6105 33.1399 85.7162 33.1399C81.1761 33.1399 78.5 29.9621 78.5 25.3454C78.5 20.7287 81.1761 17.5508 85.656 17.5508C87.5503 17.5508 89.1739 18.3302 90.0459 19.4695V17.7906ZM82.2585 25.3454C82.2585 28.0734 83.852 29.8722 86.2573 29.8722C88.6929 29.8722 90.2864 28.0734 90.2864 25.3454C90.2864 22.6172 88.6929 20.8186 86.2573 20.8186C83.852 20.8186 82.2585 22.6172 82.2585 25.3454Z" fill="black"/>
<path d="M107.036 17.7906L106.795 21.4481C106.254 21.2082 105.532 21.0884 104.871 21.0884C102.736 21.0884 100.812 22.8571 100.812 27.3539V32.9001H97.0234V17.7906H100.812V20.5486C101.564 18.8399 103.548 17.5508 105.382 17.5508C105.923 17.5508 106.585 17.6407 107.036 17.7906Z" fill="black"/>
<path d="M112.917 32.9005H109.129V17.791H112.917V32.9005Z" fill="black"/>
<path d="M134.189 32.901H137.978V11.6758H134.189V32.901Z" fill="black"/>
<path fill-rule="evenodd" clip-rule="evenodd" d="M155.824 24.8357C155.824 21.3281 153.329 17.5508 148.217 17.5508C143.196 17.5508 140.73 21.4182 140.73 25.3454C140.73 29.2726 143.407 33.1399 148.428 33.1399C151.976 33.1399 154.622 31.4612 155.464 28.6132L151.916 27.6538C151.525 29.1228 150.262 29.9621 148.488 29.9621C146.323 29.9621 144.85 28.6132 144.519 26.3346H155.764C155.794 26.0349 155.824 25.3753 155.824 24.8357ZM144.609 23.5765C145.03 21.538 146.353 20.4288 148.217 20.4288C150.412 20.4288 151.585 21.7779 151.765 23.5765H144.609Z" fill="black"/>
<path d="M110.483 11.002C109.544 11.002 108.783 11.7475 108.783 12.6671V13.7754C108.783 14.695 109.544 15.4405 110.483 15.4405H111.581C112.52 15.4405 113.281 14.695 113.281 13.7754V12.6671C113.281 11.7475 112.52 11.002 111.581 11.002H110.483Z" fill="black"/>
</g>
<defs>
<clipPath id="clip0_43327_43232">
<rect width="155.93" height="44" fill="white"/>
</clipPath>
</defs>
</svg>
