<svg width="181" height="26" viewBox="0 0 181 26" fill="none" xmlns="http://www.w3.org/2000/svg">
<path opacity="0.9" fill-rule="evenodd" clip-rule="evenodd" d="M96.7844 0H103.356L99.1967 20.4431H92.625L96.7844 0ZM130.045 5.39788H133.307C135.009 5.39788 136.283 6.95745 135.944 8.62475L132.441 25.841H125.87L128.873 11.0769C128.922 10.3166 128.318 9.64873 127.531 9.64864H122.44C121.612 9.68462 120.76 10.3556 120.541 11.2477L119.865 14.5789C119.695 15.4125 120.332 16.1923 121.183 16.1923H126.389L125.703 20.4431H118.669H116.534H115.39C113.689 20.4431 112.415 18.8835 112.754 17.2162L114.37 9.27515C114.829 7.01895 116.813 5.39788 119.115 5.39788H120.907H121.73H130.029H130.045ZM147.684 0H141.112L136.953 20.4431H143.525L145.721 9.64864H152.508C153.306 9.64873 153.917 10.3361 153.848 11.1101L151.949 20.4431H158.521L160.925 8.62473C161.264 6.95744 159.99 5.39788 158.289 5.39788H157.973H155.01H146.586L147.684 0ZM166.839 0H173.411L172.313 5.39788H180.808L179.943 9.64864H171.448L169.252 20.4431H162.68L164.876 9.64864H162.192L163.057 5.39788H165.741L166.839 0ZM106.498 0H113.069L112.271 3.92334H105.7L106.498 0ZM105.365 5.56807H111.936L108.91 20.4431H102.339L105.365 5.56807Z" fill="black"/>
<path opacity="0.9" fill-rule="evenodd" clip-rule="evenodd" d="M47.0744 0H53.6458L50.6327 14.8109C50.6111 15.5516 51.2065 16.1923 51.9776 16.1923H57.2669C58.0601 16.1923 58.8917 15.5964 59.182 14.7709L59.9763 10.8667C59.9135 10.1976 59.3504 9.64872 58.6365 9.64864H53.2882L54.1602 5.39788H61.089H61.152H64.3677C66.0692 5.39788 67.3432 6.95747 67.004 8.62477L65.3884 16.5658C64.9292 18.822 62.9452 20.4431 60.6428 20.4431H59.9952H58.028H49.4866H47.3287H46.2079C44.5064 20.4431 43.2323 18.8835 43.5715 17.2162L47.0744 0ZM86.1118 5.39788H92.6832L88.524 25.841H81.9524L83.0506 20.4431H74.2323H72.0973H70.9535C69.252 20.4431 67.978 18.8835 68.3172 17.2162L70.7218 5.39788H77.2932L75.428 14.5789C75.2585 15.4125 75.8954 16.1923 76.7462 16.1923H83.9156L86.1118 5.39788ZM17.9473 5.39788H9.63258H8.80916H7.01779C4.7154 5.39788 2.73145 7.01895 2.27218 9.27515L0 20.4431H6.57166L8.47259 11.0995C8.75319 10.2588 9.59501 9.64873 10.3977 9.64864H17.0726L17.9473 5.39788ZM35.8972 20.4431H35.0503H33.2824H24.5189H22.3839H21.2402C19.5387 20.4431 18.2647 18.8835 18.6039 17.2162L21.0085 5.39788H27.5798L25.7147 14.5789C25.5452 15.4125 26.1821 16.1923 27.0328 16.1923H32.5212C33.3144 16.1923 34.1463 15.5963 34.4363 14.7706L36.3433 5.39788H42.915L40.6428 16.5658C40.1835 18.822 38.1996 20.4431 35.8972 20.4431Z" fill="black"/>
</svg>
