<svg width="16" height="16" viewBox="0 0 16 16" fill="none" xmlns="http://www.w3.org/2000/svg">
<path fill-rule="evenodd" clip-rule="evenodd" d="M7.9845 14.3988C7.9845 14.3988 13.0992 12.8501 13.0992 8.58079C13.0992 4.31079 13.2845 3.97746 12.8745 3.56679C12.4638 3.15613 8.65517 1.82812 7.9845 1.82812C7.31384 1.82812 3.50517 3.15613 3.09517 3.56679C2.6845 3.97746 2.86984 4.31079 2.86984 8.58079C2.86984 12.8501 7.9845 14.3988 7.9845 14.3988Z" fill="#DC2626" stroke="#DC2626" stroke-width="1.33333" stroke-linecap="round" stroke-linejoin="round"/>
<path fill-rule="evenodd" clip-rule="evenodd" d="M8.00149 4.00968C8.73606 4.00645 8.93023 4.30756 8.93056 4.67575L8.67184 8.1117C8.672 8.28872 8.60175 8.45853 8.47658 8.5837L8.4742 8.58608C8.21385 8.84643 7.79174 8.84643 7.53139 8.58608C7.387 8.44169 7.32269 8.24753 7.33846 8.05881L7.04334 4.67035C7.04301 4.30216 7.26692 4.0129 8.00149 4.00968Z" fill="white"/>
<circle cx="8" cy="10.9922" r="0.953125" fill="white"/>
</svg>
