<svg width="123" height="123" viewBox="0 0 123 123" fill="none" xmlns="http://www.w3.org/2000/svg">
<path d="M35.43 15.3594C51.7749 5.92264 71.9126 5.92264 88.2575 15.3594C104.602 24.7961 114.671 42.2359 114.671 61.1094C114.671 79.9828 104.602 97.4226 88.2575 106.859C71.9126 116.296 51.7749 116.296 35.43 106.859C19.0851 97.4226 9.0162 79.9828 9.0162 61.1094C9.0162 42.2359 19.0851 24.7961 35.43 15.3594Z" fill="#F7931A"/>
<path opacity="0.1" d="M104.115 50.32C105.846 38.75 97.0363 32.5307 84.9898 28.3818L88.8978 12.7092L79.3563 10.3319L75.552 25.5919C73.0436 24.9663 70.4677 24.3769 67.9074 23.7926L71.7393 8.43192L62.2038 6.05469L58.2937 21.7222C56.2179 21.2496 54.1792 20.7826 52.2012 20.2905L52.2122 20.2412L39.0543 16.9558L36.5162 27.1455C36.5162 27.1455 43.5952 28.768 43.446 28.8679C47.3097 29.8321 48.0085 32.3896 47.8924 34.4166L43.4409 52.2714C43.7069 52.339 44.052 52.4367 44.4328 52.5897C44.1145 52.5107 43.7758 52.4244 43.4243 52.3403L37.1847 77.3522C36.7125 78.526 35.514 80.2874 32.8127 79.6186C32.9083 79.7571 25.8778 77.8881 25.8778 77.8881L21.1406 88.8088L33.5573 91.9038C35.8672 92.483 38.1308 93.089 40.36 93.6589L36.4116 109.511L45.9421 111.888L49.8521 96.2044C52.4558 96.9111 54.9824 97.563 57.456 98.1775L53.5591 113.788L63.101 116.165L67.0489 100.342C83.3191 103.421 95.553 102.18 100.702 87.465C104.852 75.618 100.496 68.7846 91.9362 64.3284C98.1706 62.8908 102.867 58.7908 104.119 50.3213L104.116 50.3191L104.115 50.32ZM82.3152 80.8858C79.3665 92.7329 59.4174 86.3287 52.9496 84.7228L58.1891 63.7212C64.6565 65.3356 85.397 68.5304 82.3156 80.8858H82.3152ZM85.2661 50.1483C82.5762 60.9245 65.9723 55.4497 60.5862 54.1072L65.3365 35.06C70.7227 36.4025 88.0682 38.9081 85.2669 50.1483H85.2661Z" fill="white"/>
<path fill-rule="evenodd" clip-rule="evenodd" d="M60.0997 29.5391C60.0997 28.0893 61.2748 26.9141 62.7247 26.9141C78.1538 26.9141 91.6927 37.2635 95.6758 52.2063C99.6563 67.1054 93.1384 82.8779 79.7506 90.5782C66.3646 98.3127 49.489 96.0734 38.5703 85.1169C37.547 84.09 37.5498 82.4279 38.5767 81.4045C39.6037 80.3812 41.2657 80.3841 42.289 81.411C51.5298 90.6838 65.8027 92.5751 77.1263 86.0312L77.1311 86.0285C88.4518 79.5183 93.9727 66.1718 90.6037 53.5617C87.2361 40.9253 75.785 32.1641 62.7247 32.1641C61.2748 32.1641 60.0997 30.9888 60.0997 29.5391Z" fill="white"/>
<path fill-rule="evenodd" clip-rule="evenodd" d="M28.6172 60.9922C28.6172 59.5423 29.7924 58.3672 31.2422 58.3672H31.2772C32.7269 58.3672 33.9022 59.5423 33.9022 60.9922C33.9022 62.4418 32.7269 63.6172 31.2772 63.6172H31.2422C29.7924 63.6172 28.6172 62.4418 28.6172 60.9922Z" fill="white"/>
<path fill-rule="evenodd" clip-rule="evenodd" d="M47.8516 31.25C47.8516 29.8002 49.0269 28.625 50.4766 28.625H50.5116C51.9615 28.625 53.1366 29.8002 53.1366 31.25C53.1366 32.6997 51.9615 33.875 50.5116 33.875H50.4766C49.0269 33.875 47.8516 32.6997 47.8516 31.25Z" fill="white"/>
<path fill-rule="evenodd" clip-rule="evenodd" d="M30.9844 72.8203C30.9844 71.3707 32.1596 70.1953 33.6094 70.1953H33.6444C35.0941 70.1953 36.2694 71.3707 36.2694 72.8203C36.2694 74.2702 35.0941 75.4453 33.6444 75.4453H33.6094C32.1596 75.4453 30.9844 74.2702 30.9844 72.8203Z" fill="white"/>
<path fill-rule="evenodd" clip-rule="evenodd" d="M30.9844 48.8594C30.9844 47.4097 32.1596 46.2344 33.6094 46.2344H33.6444C35.0941 46.2344 36.2694 47.4097 36.2694 48.8594C36.2694 50.3092 35.0941 51.4844 33.6444 51.4844H33.6094C32.1596 51.4844 30.9844 50.3092 30.9844 48.8594Z" fill="white"/>
<path fill-rule="evenodd" clip-rule="evenodd" d="M37.7812 38.6719C37.7812 37.2221 38.9565 36.0469 40.4062 36.0469H40.4413C41.891 36.0469 43.0662 37.2221 43.0662 38.6719C43.0662 40.1216 41.891 41.2968 40.4413 41.2968H40.4062C38.9565 41.2968 37.7812 40.1216 37.7812 38.6719Z" fill="white"/>
<path fill-rule="evenodd" clip-rule="evenodd" d="M60.3594 45.7812C61.809 45.7812 62.9844 46.9564 62.9844 48.4062V61.4911L71.6971 70.1717C72.724 71.1948 72.7271 72.857 71.7038 73.8839C70.6807 74.911 69.0185 74.9139 67.9916 73.8908L58.5065 64.4408C58.0122 63.9483 57.7344 63.2791 57.7344 62.5812V48.4062C57.7344 46.9564 58.9095 45.7812 60.3594 45.7812Z" fill="white"/>
</svg>
