<svg width="25" height="24" viewBox="0 0 25 24" fill="none" xmlns="http://www.w3.org/2000/svg">
<path d="M8 7L15 7" stroke="white" stroke-width="2" stroke-linecap="round"/>
<path d="M8 15L12 15" stroke="white" stroke-width="2" stroke-linecap="round"/>
<path d="M8 11L12 11" stroke="white" stroke-width="2" stroke-linecap="round"/>
<path d="M19 14V9C19 6.17157 19 4.75736 18.1213 3.87868C17.2426 3 15.8284 3 13 3H10C7.17157 3 5.75736 3 4.87868 3.87868C4 4.75736 4 6.17157 4 9V15C4 17.8284 4 19.2426 4.87868 20.1213C5.75736 21 7.17157 21 10 21H15.5" stroke="white" stroke-width="2"/>
<circle cx="19" cy="18" r="5" stroke="black" stroke-width="2"/>
<circle cx="19" cy="18" r="3" stroke="white" stroke-width="2"/>
</svg>
