<svg width="44" height="44" viewBox="0 0 44 44" fill="none" xmlns="http://www.w3.org/2000/svg">
<g clip-path="url(#clip0_72621_9007)">
<path d="M19.2995 7.15751L5.92327 31.5017C5.64748 32.0224 5.50156 32.6127 5.50001 33.2139C5.49847 33.8152 5.64136 34.4064 5.91447 34.9287C6.18757 35.451 6.58138 35.8863 7.05671 36.1912C7.53203 36.4961 8.07231 36.6601 8.62378 36.6667H35.3762C35.9277 36.6601 36.468 36.4961 36.9433 36.1912C37.4186 35.8863 37.8124 35.451 38.0855 34.9287C38.3586 34.4064 38.5015 33.8152 38.5 33.2139C38.4984 32.6127 38.3525 32.0224 38.0767 31.5017L24.7005 7.15751C24.419 6.65153 24.0226 6.23319 23.5496 5.94286C23.0765 5.65252 22.5428 5.5 22 5.5C21.4572 5.5 20.9235 5.65252 20.4505 5.94286C19.9774 6.23319 19.581 6.65153 19.2995 7.15751Z" stroke="#FB923C" stroke-width="3.66667" stroke-linecap="round" stroke-linejoin="round"/>
<path d="M22 29.3359H22.0183" stroke="#FB923C" stroke-width="4.58333" stroke-linecap="round" stroke-linejoin="round"/>
<path d="M22 17.4141V23.8307" stroke="#FB923C" stroke-width="3.66667" stroke-linecap="round" stroke-linejoin="round"/>
</g>
<defs>
<clipPath id="clip0_72621_9007">
<rect width="44" height="44" fill="white"/>
</clipPath>
</defs>
</svg>
