<svg width="564" height="564" viewBox="0 0 564 564" fill="none" xmlns="http://www.w3.org/2000/svg">
<g filter="url(#filter0_d_5208_16807)">
<path d="M245.28 122.15C267.603 109.262 295.106 109.262 317.429 122.15L401.37 170.613C423.693 183.502 437.445 207.32 437.445 233.096V330.023C437.445 355.8 423.693 379.618 401.37 392.506L317.429 440.97C295.106 453.858 267.603 453.858 245.28 440.97L161.339 392.506C139.016 379.618 125.264 355.8 125.264 330.023V233.096C125.264 207.32 139.016 183.502 161.339 170.613L245.28 122.15Z" fill="url(#paint0_linear_5208_16807)"/>
<path d="M248.659 128.003C268.891 116.323 293.818 116.322 314.049 128.003L397.99 176.467C418.222 188.148 430.686 209.735 430.686 233.096V330.023C430.686 353.385 418.222 374.972 397.991 386.653L314.05 435.116C293.818 446.797 268.891 446.797 248.659 435.116L164.718 386.653C144.486 374.972 132.023 353.385 132.023 330.023V233.096C132.023 209.735 144.486 188.148 164.718 176.467L248.659 128.003Z" stroke="url(#paint1_linear_5208_16807)" stroke-width="13.5178"/>
</g>
<path d="M251.315 134.069C269.904 123.337 292.806 123.337 311.394 134.069L394.067 181.8C412.656 192.533 424.107 212.366 424.107 233.83V329.293C424.107 350.758 412.656 370.591 394.067 381.323L311.394 429.055C292.806 439.787 269.904 439.787 251.315 429.055L168.642 381.323C150.053 370.591 138.602 350.758 138.602 329.293V233.83C138.602 212.366 150.053 192.533 168.642 181.8L251.315 134.069Z" fill="url(#paint2_radial_5208_16807)"/>
<g style="mix-blend-mode:overlay" opacity="0.3" filter="url(#filter1_d_5208_16807)">
<path fill-rule="evenodd" clip-rule="evenodd" d="M125.264 322.646V330.026C125.264 355.802 139.016 379.621 161.339 392.509L245.28 440.972C267.603 453.861 295.106 453.861 317.429 440.972L401.37 392.509C423.693 379.621 437.445 355.802 437.445 330.026V233.099C437.445 216.737 431.904 201.163 422.146 188.674C399.531 211.754 366.679 238.839 318.821 268.838C235.425 321.114 178.546 321.905 127.528 322.614C126.772 322.625 126.017 322.635 125.264 322.646Z" fill="url(#paint3_linear_5208_16807)" shape-rendering="crispEdges"/>
</g>
<mask id="mask0_5208_16807" style="mask-type:alpha" maskUnits="userSpaceOnUse" x="138" y="126" width="287" height="312">
<path d="M251.426 134.068C270.014 123.336 292.916 123.336 311.505 134.068L394.217 181.822C412.806 192.554 424.257 212.388 424.257 233.852V329.36C424.257 350.824 412.806 370.658 394.217 381.39L311.505 429.144C292.916 439.876 270.014 439.876 251.426 429.144L168.713 381.39C150.125 370.658 138.674 350.824 138.674 329.36V233.852C138.674 212.388 150.125 192.554 168.713 181.822L251.426 134.068Z" fill="#1B1313"/>
</mask>
<g mask="url(#mask0_5208_16807)">
<path fill-rule="evenodd" clip-rule="evenodd" d="M238.048 402.541C232.349 419.94 217.174 449.073 207.468 464.261C205.211 467.791 202.363 471.789 199.664 475.577C195.176 481.878 191.098 487.6 190.839 489.636C188.24 489.414 183.774 488.568 178.174 487.507C171.276 486.2 162.657 484.568 153.686 483.373C153.738 483.346 153.79 483.322 153.84 483.302C93.027 475.71 77.3803 479.973 70.1775 486.26C54.8446 499.642 47.2852 507.041 43.234 526.578C43.3176 537.556 42.774 543.072 58.9149 549.352C73.7814 550.738 82.4854 549.269 91.1752 538.376C101.592 522.623 112.214 519.503 120.223 521.351C120.732 521.468 121.249 521.515 121.77 521.496C139.291 525.905 165.05 530.374 182.018 533.059C201.751 536.18 214.747 536.291 225.667 535.323C234.578 530.739 273.809 495.322 286.669 480.084C287.727 478.83 288.907 477.45 290.182 475.958C308.27 454.798 345.622 411.102 330.611 382.987C314.543 352.891 254.334 350.523 238.048 402.541Z" fill="url(#paint4_linear_5208_16807)"/>
<path d="M403.864 349.877C408.683 368.161 438.134 391.486 448.35 396.607L522.115 516.889C513.352 552.343 515.055 618.811 490.485 611.736C459.773 602.891 421.992 587.006 394.68 570.866C367.368 554.726 298.893 554.323 261.342 513.848C223.792 473.372 243.761 423.237 255.17 392.324C266.579 361.41 262.165 346.155 257.26 310.723C253.336 282.377 240.014 233.012 233.844 211.872C237.663 202.146 247.923 180.52 258.413 171.82C271.525 160.945 304.4 157.961 335.638 168.939C366.875 179.916 378.885 213.297 383.266 231.18C387.648 249.064 392.573 281.498 394.708 289.628C397.956 301.991 405.531 309.932 408.53 312.802C407.996 313.003 406.891 315.057 401.926 314.594C399.672 314.384 397.373 312.893 396.501 312.216C396.947 317.151 399.044 331.592 403.864 349.877Z" fill="url(#paint5_linear_5208_16807)"/>
<path fill-rule="evenodd" clip-rule="evenodd" d="M258.145 341.674C258.589 330.84 255.157 316.026 253.386 309.974C287.53 305.199 316.937 323.425 319.692 327.673C319.214 327.593 318.478 327.418 317.537 327.195C314.241 326.413 308.433 325.034 302.435 325.013C294.727 324.984 290.5 325.075 288.392 325.962C288.422 325.964 288.458 325.967 288.499 325.971C289.35 326.039 292.317 326.277 295.57 328.427C298.977 330.678 299.561 331.48 300.061 332.735C295.389 331.4 289.148 331.866 283.425 332.877C277.701 333.888 274.292 335.288 272.107 336.527C273.076 342.252 273.989 354.41 268.367 367.925C268.781 367.612 270.069 366.831 271.909 366.206C273.749 365.581 276.105 365.072 277.053 364.896C272.995 372.484 263.369 391.288 257.329 405.796C249.8 423.88 246.644 456.417 251.174 472.81C251.661 471.291 252.291 469.959 252.729 469.187C252.734 469.947 252.799 471.867 253.017 473.471C253.234 475.075 253.831 477.067 254.102 477.863C254.712 477.58 256.711 475.988 259.831 471.889C262.951 467.79 264.692 462.885 265.173 460.946C265.464 461.529 266.288 463.318 267.253 465.811C268.218 468.305 268.705 470.051 268.828 470.612C269.588 470.068 271.676 468.013 273.351 464.089C275.299 459.522 276.648 456.024 276.854 452.865C280.303 462.444 274.336 474.02 266.974 481.331C266.978 481.282 266.988 481.21 267 481.118C267.095 480.4 267.354 478.436 266.796 476.31C266.454 475.01 266.322 474.624 266.145 474.112C266.065 473.879 265.976 473.62 265.854 473.237C265.806 473.345 265.75 473.475 265.685 473.626C265.216 474.719 264.279 476.905 262.347 479.552C260.784 481.693 258.417 484.595 256.352 486.514C264.371 503.032 276.331 513.248 284.207 519.405C284.009 518.701 283.558 516.691 283.335 514.237C283.113 511.784 283.664 506.753 284.134 505.67C284.355 505.928 284.597 506.211 284.858 506.518C289.612 512.09 300.837 525.248 312.241 532.982C323.532 540.64 340.06 546.072 364.808 554.206L364.809 554.206L364.81 554.207C373.021 556.905 382.136 559.901 392.265 563.375C410.02 569.463 433.235 580.229 452.328 590.887C452.271 590.223 452.219 589.518 452.173 588.771C451.77 582.138 454.329 576.857 455.658 575.046C455.146 580.546 459.299 590.958 461.865 596.412C473.297 603.307 482.222 609.793 485.909 614.508L471.842 616.044C468.316 612.039 463.957 609.49 454.492 603.956L454.492 603.955C449.134 600.822 442.14 596.733 432.735 590.881C417.098 581.15 392.657 573.371 366.377 565.006L366.377 565.006C339.376 556.412 310.434 547.2 287.104 534.619C261.112 520.604 249.413 505.347 241.502 491.46C235.539 480.993 233.032 465.279 232.192 460.013C232.14 459.69 232.095 459.406 232.055 459.165C231.199 460.731 229.354 464.449 228.83 466.79C228.305 469.13 227.831 472.901 227.66 474.494C226.08 472.725 221.427 464.808 223.902 437.639C226.324 411.053 246.22 382.582 257.037 372.64C256.112 373.245 253.417 374.513 250.036 374.738C246.654 374.963 243.835 373.951 242.849 373.417C244.116 372.569 247.48 369.964 250.802 366.324C254.955 361.775 257.591 355.218 258.145 341.674Z" fill="url(#paint6_linear_5208_16807)"/>
<path d="M351.916 402.302C355.748 393.321 358.4 386.443 358.804 380.231C365.586 399.067 353.853 421.832 339.376 436.208C339.455 435.372 340.266 431.055 339.026 426.334C338.05 422.615 337.941 422.7 337.174 420.292C336.392 422.035 334.601 426.786 330.277 432.709C325.954 438.632 318.505 447.511 313.973 449.818C313.484 448.582 307.698 435.299 306.975 429.235C306.251 423.172 309.6 415.437 311.365 412.328C311.375 413.821 311.502 417.596 311.93 420.751C312.358 423.906 313.532 427.823 314.065 429.387C315.264 428.83 319.195 425.702 325.331 417.64C331.466 409.579 334.889 399.936 335.834 396.121C336.407 397.268 338.027 400.786 339.924 405.689C341.822 410.592 342.78 414.026 343.021 415.13C344.518 414.061 348.623 410.02 351.916 402.302Z" fill="#E13031"/>
<path d="M184.288 248.354C185.868 247.273 188.62 245.28 189.492 244.006C190.232 244.104 191.168 244.452 191.986 246.507C192.523 247.856 192.271 249.595 191.973 250.335C190.055 252.148 184.059 255.384 180.758 255.958C173.256 257.261 165.733 256.217 159.079 250.204C153.756 245.394 152.951 238.236 153.562 236.936C153.923 237.236 154.092 239.873 156.797 243.226C159.148 246.142 164.155 250.451 170.717 251.063C175.741 251.531 180.913 250.663 184.288 248.354Z" fill="#020202"/>
<path d="M570.004 477.15C528.639 417.272 469.422 417.912 422.831 375.104C419.94 372.448 415.825 369.339 414.009 367.327C412.618 376.917 410.632 395.304 396.43 413.62C382.227 431.937 365.526 437.845 352.155 441.343C361.367 448.18 364.375 449.664 374.246 451.14C385.191 452.778 390.708 450.763 393.135 448.956C392.068 453.789 389.875 460.737 384.339 465.893C377.138 472.599 371.283 475.81 365.647 476.401C367.847 481.844 379.101 488.049 380.856 505.497C382.483 521.672 382.592 531.211 383.201 538.783L393.554 521.659C399.522 529.469 413.768 545.927 457.971 563.775C502.174 581.623 573.052 584.308 601.438 571.609C600.904 557.889 598.881 518.95 570.004 477.15Z" fill="url(#paint7_linear_5208_16807)"/>
<path d="M223.083 290.948C237.583 288.183 249.046 280.587 252.966 277.134L289.439 257.275C288.036 264.897 283.735 282.371 277.753 291.285C270.276 302.428 256.593 308.836 244.435 312.271C232.276 315.707 224.912 318.533 217.846 329.6C211.575 339.423 205.277 347.738 191 342.968C180.293 339.39 185.438 321.309 189.648 314.017C193.859 306.725 204.959 294.404 223.083 290.948Z" fill="url(#paint8_linear_5208_16807)"/>
<path d="M169.707 232.023C172.626 229.486 183.895 227.22 189.165 226.404C205.811 235.437 207.121 254.904 205.695 263.509C200.948 265.614 189.339 267.21 178.146 261.759C168.083 256.86 166.315 242.641 166.108 239.813C165.829 235.976 166.059 235.194 169.707 232.023Z" fill="#88B6D0"/>
<path d="M234.868 287.378C243.14 284.959 249.686 276.114 252.165 271.837C259.654 266.307 277.451 262.694 285.414 261.578C286.884 264.08 289.292 270.822 287.167 277.776C284.512 286.468 281.013 292.04 270.403 303.873C261.914 313.34 246.841 314.428 240.365 313.788C240.319 309.343 245.107 304.658 250.887 302.054C263.314 296.456 265.33 292.804 265.536 290.597C264.673 291.191 258.463 294.961 253.534 296.38C246.506 298.403 242.273 299.353 230.011 301.017C211.311 303.555 201.548 320.3 198.269 327.432C198.266 325.949 199.475 316.286 203.752 310.374C210.831 300.59 219.632 296.764 225.304 294.677C225.304 294.677 223.237 294.149 218.631 294.055C214.024 293.961 212.049 294.412 212.049 294.412C212.371 294.207 214.497 293.176 218.503 291.774C223.51 290.021 224.528 290.403 234.868 287.378Z" fill="url(#paint9_linear_5208_16807)"/>
<path d="M216.215 297.987C212.122 292.651 211.165 284.39 211.197 280.927C216.55 280.719 221.954 281.85 223.988 282.441C222.902 287.565 220.742 298.113 220.789 299.317C220.847 300.822 221.331 304.656 216.215 297.987Z" fill="url(#paint10_linear_5208_16807)"/>
<path d="M188.225 281.034C184.132 275.698 183.175 267.438 183.208 263.975C188.56 263.767 193.965 264.898 195.998 265.489C194.912 270.612 192.753 281.16 192.799 282.365C192.858 283.87 193.341 287.704 188.225 281.034Z" fill="url(#paint11_linear_5208_16807)"/>
<path d="M245.406 173.419C259.171 159.683 288.204 160.563 301 162.721C298.013 194.748 317.774 217.347 331.693 260.512C342.828 295.045 334.499 322.098 328.942 331.308C323.485 328.329 311.1 321.785 305.215 319.433C297.86 316.493 266.561 311.841 249.665 318.65C236.148 324.098 226.748 323.862 222.588 322.874C223.165 321.995 225.61 319.11 228.975 316.498C237.956 309.525 257.749 305.798 269.68 298.133C281.611 290.467 284.405 271.848 276.303 268.182C272.806 266.6 264.806 275.757 254.574 280.899C244.341 286.041 228.702 287.193 214.025 285.093C202.283 283.413 193.839 276.032 192.105 271.969C188.805 273.368 183.274 273.887 179.399 269.429C174.554 263.857 171.352 251.123 170.253 241.999C169.373 234.7 171.836 231.987 173.178 231.543C175.695 229.827 183.004 225.535 192.103 222.092C201.201 218.649 216.276 214.755 222.675 213.238C224.517 205.689 231.642 187.156 245.406 173.419Z" fill="#FF7417"/>
<path d="M203.504 242.482C203.071 238.762 191.395 232.605 187.969 231.619C170.346 228.19 172.921 241.976 176.842 248.526C182.013 257.163 191.426 259.086 196.342 256.243C201.257 253.401 204.046 247.133 203.504 242.482Z" fill="#220503"/>
<path d="M276.398 169.57C255.585 167.63 240.304 169.536 236.487 171.269C220.465 183.94 219.828 198.608 218.007 218.124L218.064 218.098C219.813 217.291 223.721 215.489 230.864 217.549C266.684 227.885 282.127 263.311 282.127 263.311C327.23 252.006 340.923 197.67 339.12 184.258C326.867 179.852 297.211 171.511 276.398 169.57Z" fill="#519BC4"/>
<path d="M215.896 266.759C200.28 253.84 207.601 236.286 180.059 233.718C172.912 233.051 169.884 234.202 168.166 236.337C166.974 238.384 167.415 244.837 169.634 250.487C171.852 256.138 172.554 256.174 173.693 257.911C173.854 258.372 174.431 259.998 174.515 260.283C172.506 258.755 168.788 253.351 167.359 247.339C165.93 241.326 165.337 237.002 167.188 234.569C173.777 223.883 206.87 215.966 216.851 214.051C224.047 211.603 235.15 214.76 245.07 219.813C268.126 233.637 282.94 260.688 267.807 268.671C252.673 276.654 233.425 281.26 215.896 266.759Z" fill="#519BC3"/>
<path d="M274.739 167.788C254.572 165.907 239.765 167.754 236.066 169.434C220.541 181.712 219.924 195.925 218.16 214.835C219.827 214.067 223.034 213.289 229.988 215.449C261.389 225.203 280.499 260.215 280.499 260.215C324.202 249.26 337.314 195.942 335.567 182.947C323.694 178.677 294.906 169.668 274.739 167.788Z" fill="url(#paint12_linear_5208_16807)"/>
<path d="M307.079 195.864C318.204 201.234 321.553 210.645 321.838 214.678C297.397 228.57 273.596 218.817 264.405 210.65C264.389 208.931 261.097 206.629 262.044 199.02C263.289 189.025 269.966 187.738 272.65 187.284C279.15 186.525 295.953 190.493 307.079 195.864Z" fill="url(#paint13_linear_5208_16807)"/>
<path d="M222.411 188.196C222.305 188.264 220.339 194.466 219.898 199.192C229.75 211.728 239.303 206.94 245.398 203.492C250.222 201.617 252.9 197.145 253.78 192.349C254.937 186.049 247.404 186.203 246.131 185.479C242.987 183.934 228.086 184.588 222.411 188.196Z" fill="url(#paint14_linear_5208_16807)"/>
<path d="M297.035 188.631C312.14 193.609 319.117 206.215 320.819 210.351C303.676 189.584 283.196 192.632 275.292 196.249C267.389 199.867 263.787 196.005 264.692 192.021C265.533 188.322 277.75 182.275 297.035 188.631Z" fill="#020202"/>
<path d="M241.505 182.737C246.736 183.563 250.104 185.073 252.648 187.39C254.841 189.387 254.736 193.447 252.056 194.215C246.406 195.834 245.5 190.515 237.606 188.163C227.94 185.283 222.369 188.578 222.369 188.578C221.928 188.258 221.44 187.51 222.073 186.119C222.527 185.122 223.15 184.618 223.798 184.383C223.798 184.383 229.781 180.886 241.505 182.737Z" fill="#020202"/>
<ellipse cx="281.727" cy="214.056" rx="19.1692" ry="5.39603" transform="rotate(19.3888 281.727 214.056)" fill="#020202"/>
<ellipse cx="233.231" cy="200.759" rx="13.2192" ry="4.82641" transform="rotate(5.91037 233.231 200.759)" fill="#020202"/>
<path d="M180.831 231.286C169.687 230.247 165.801 234.983 166.043 238.54C163.977 226.109 207.036 212.569 218.395 210.39C225.577 207.946 236.659 211.098 246.56 216.142C269.572 229.938 280.971 258.725 269.253 264.906C257.535 271.087 240.558 280.677 219.196 266.359C202.362 255.076 208.321 233.849 180.831 231.286Z" fill="url(#paint15_linear_5208_16807)"/>
<ellipse cx="223.236" cy="251.103" rx="2.61643" ry="3.95154" transform="rotate(17.5783 223.236 251.103)" fill="#D2702E"/>
<path d="M228.427 252.466C227.074 251.112 224.737 248.645 224.117 247.232C223.371 247.19 222.387 247.36 221.203 249.228C220.426 250.454 220.352 252.21 220.508 252.992C222.057 255.129 227.353 259.418 230.49 260.591C237.623 263.259 245.209 263.624 252.859 258.945C258.979 255.201 261.094 248.316 260.734 246.925C260.324 247.154 259.67 249.713 256.392 252.509C253.542 254.94 247.826 258.249 241.263 257.637C236.239 257.168 231.317 255.36 228.427 252.466Z" fill="#020202"/>
<path d="M272.601 230.309C267.464 224.839 263.664 217.6 262.406 214.664C261.929 213.551 260.294 213.125 259.035 214.331C258.21 215.121 258.191 216.877 258.516 217.865C259.113 219.682 262.119 224.949 269.363 231.484C276.607 238.018 287.782 240.636 292.465 241.128C287.984 239.801 277.738 235.78 272.601 230.309Z" fill="url(#paint16_linear_5208_16807)"/>
</g>
<path d="M286.912 126.914C272.932 97.0133 263.976 97.4093 262.34 101.091C254.284 118.51 258.433 159.512 260.42 178.089C261.564 182.001 265.919 193.64 274.19 208.894C282.461 224.148 301.241 243.497 309.08 250.26C309.321 245.711 309.848 235.772 309.315 224.24C308.497 206.512 304.386 164.291 286.912 126.914Z" fill="url(#paint17_linear_5208_16807)"/>
<path d="M279.102 135.37C268.752 111.029 262.052 111.38 260.815 114.388C254.726 128.619 257.683 162.044 259.103 177.188C259.944 180.375 263.16 189.853 269.292 202.267C275.424 214.681 290.156 234.27 295.995 239.761C296.191 236.051 295.868 224.074 295.511 214.671C294.963 200.216 292.039 165.797 279.102 135.37Z" fill="url(#paint18_linear_5208_16807)"/>
<path d="M184.288 248.354C185.868 247.273 188.62 245.28 189.492 244.006C190.232 244.104 191.168 244.452 191.987 246.507C192.523 247.856 192.271 249.595 191.974 250.335C190.056 252.148 184.059 255.384 180.759 255.958C173.256 257.261 165.733 256.217 159.079 250.204C153.757 245.394 152.951 238.236 153.562 236.936C153.923 237.236 154.092 239.873 156.797 243.226C159.149 246.142 164.155 250.451 170.717 251.063C175.742 251.531 180.913 250.663 184.288 248.354Z" fill="#020202"/>
<path d="M350.756 118.488C336.67 89.1385 327.025 89.0182 325.149 92.4452C315.929 108.641 319.088 148.05 320.635 165.912C321.74 169.714 326.054 181.078 334.465 196.114C342.876 211.15 362.461 230.685 370.677 237.584C371.081 233.251 371.964 223.782 371.758 212.733C371.442 195.748 368.363 155.176 350.756 118.488Z" fill="url(#paint19_linear_5208_16807)"/>
<path d="M342.079 126.145C331.72 102.31 324.503 102.272 323.077 105.078C316.075 118.337 318.192 150.44 319.238 164.99C320.041 168.082 323.199 177.318 329.399 189.521C335.6 201.724 350.823 221.263 356.928 226.835C357.258 223.3 357.29 211.838 357.206 202.833C357.076 188.991 355.026 155.939 342.079 126.145Z" fill="url(#paint20_linear_5208_16807)"/>
<path d="M169.707 232.025C172.626 229.488 183.895 227.222 189.165 226.406C205.811 235.438 207.121 254.906 205.695 263.511C200.948 265.616 189.339 267.212 178.146 261.761C168.083 256.862 166.315 242.643 166.109 239.815C165.829 235.978 166.059 235.196 169.707 232.025Z" fill="#88B6D0"/>
<path d="M216.214 297.99C212.121 292.655 211.164 284.394 211.197 280.931C216.549 280.723 221.954 281.854 223.987 282.445C222.901 287.569 220.742 298.116 220.788 299.321C220.847 300.826 221.33 304.66 216.214 297.99Z" fill="url(#paint21_linear_5208_16807)"/>
<path d="M188.225 281.038C184.132 275.702 183.175 267.442 183.208 263.979C188.56 263.771 193.965 264.902 195.998 265.493C194.912 270.616 192.753 281.164 192.799 282.369C192.858 283.874 193.341 287.708 188.225 281.038Z" fill="url(#paint22_linear_5208_16807)"/>
<path d="M245.406 173.42C259.171 159.684 288.204 160.564 301 162.722C298.014 194.749 317.775 217.348 331.693 260.513C342.828 295.046 334.499 322.099 328.942 331.309C323.485 328.33 311.1 321.786 305.215 319.434C297.86 316.494 266.561 311.842 249.665 318.651C236.148 324.099 226.748 323.863 222.589 322.875C223.165 321.996 225.61 319.111 228.975 316.499C237.956 309.526 257.749 305.799 269.68 298.134C281.611 290.468 284.405 271.849 276.303 268.183C272.806 266.601 264.807 275.758 254.574 280.9C244.341 286.041 228.703 287.194 214.025 285.094C202.283 283.414 193.839 276.032 192.105 271.97C188.805 273.369 183.274 273.888 179.399 269.43C174.554 263.858 171.353 251.124 170.253 242C169.373 234.701 171.837 231.988 173.178 231.544C175.695 229.828 183.004 225.536 192.103 222.093C201.201 218.65 216.276 214.756 222.675 213.239C224.517 205.69 231.642 187.157 245.406 173.42Z" fill="#FF7417"/>
<path d="M203.505 242.484C203.071 238.764 191.395 232.607 187.969 231.621C170.346 228.192 172.921 241.978 176.842 248.528C182.013 257.165 191.426 259.088 196.342 256.245C201.257 253.402 204.046 247.135 203.505 242.484Z" fill="#220503"/>
<path d="M276.398 169.571C255.585 167.63 240.304 169.536 236.487 171.27C220.465 183.941 219.828 198.609 218.007 218.125L218.064 218.099C219.813 217.292 223.722 215.49 230.864 217.55C266.685 227.886 282.128 263.312 282.128 263.312C327.23 252.007 340.924 197.671 339.12 184.259C326.867 179.853 297.211 171.512 276.398 169.571Z" fill="#519BC4"/>
<path d="M215.896 266.761C200.28 253.842 207.602 236.288 180.06 233.72C172.912 233.053 169.884 234.204 168.167 236.339C166.974 238.386 167.416 244.839 169.634 250.489C171.852 256.14 172.554 256.176 173.693 257.913C173.855 258.374 174.432 260 174.515 260.285C172.506 258.757 168.788 253.353 167.359 247.34C165.93 241.328 165.337 237.004 167.189 234.571C173.777 223.885 206.87 215.968 216.852 214.053C224.048 211.605 235.15 214.762 245.071 219.815C268.126 233.639 282.94 260.69 267.807 268.673C252.673 276.656 233.425 281.262 215.896 266.761Z" fill="#519BC3"/>
<path d="M274.739 167.791C254.572 165.91 239.765 167.757 236.066 169.436C220.541 181.715 219.924 195.928 218.16 214.838C219.827 214.07 223.034 213.292 229.988 215.452C261.389 225.206 280.499 260.218 280.499 260.218C324.202 249.263 337.314 195.945 335.567 182.95C323.694 178.68 294.906 169.671 274.739 167.791Z" fill="url(#paint23_linear_5208_16807)"/>
<path d="M307.079 195.865C318.204 201.235 321.553 210.646 321.838 214.679C297.397 228.571 273.596 218.818 264.405 210.651C264.389 208.932 261.097 206.63 262.044 199.021C263.289 189.026 269.966 187.739 272.65 187.285C279.15 186.526 295.953 190.494 307.079 195.865Z" fill="url(#paint24_linear_5208_16807)"/>
<path d="M222.411 188.196C222.305 188.264 220.339 194.466 219.898 199.192C229.75 211.728 239.303 206.94 245.398 203.492C250.222 201.617 252.9 197.145 253.78 192.349C254.937 186.049 247.404 186.203 246.131 185.479C242.987 183.934 228.086 184.588 222.411 188.196Z" fill="url(#paint25_linear_5208_16807)"/>
<path d="M297.035 188.633C312.14 193.611 319.117 206.217 320.819 210.353C303.676 189.586 283.196 192.634 275.292 196.251C267.389 199.869 263.787 196.007 264.692 192.023C265.533 188.324 277.75 182.277 297.035 188.633Z" fill="#020202"/>
<path d="M241.505 182.738C246.737 183.564 250.104 185.074 252.648 187.391C254.841 189.388 254.736 193.448 252.056 194.216C246.406 195.835 245.5 190.516 237.606 188.164C227.94 185.284 222.369 188.579 222.369 188.579C221.928 188.259 221.44 187.511 222.073 186.12C222.527 185.123 223.15 184.619 223.798 184.384C223.798 184.384 229.781 180.887 241.505 182.738Z" fill="#020202"/>
<ellipse cx="281.728" cy="214.057" rx="19.1692" ry="5.39603" transform="rotate(19.3888 281.728 214.057)" fill="#020202"/>
<ellipse cx="233.231" cy="200.76" rx="13.2192" ry="4.82641" transform="rotate(5.91037 233.231 200.76)" fill="#020202"/>
<path d="M180.831 231.29C169.687 230.25 165.801 234.987 166.043 238.544C163.977 226.113 207.036 212.573 218.395 210.393C225.578 207.95 236.659 211.102 246.56 216.145C269.572 229.942 280.971 258.729 269.253 264.91C257.536 271.091 240.559 280.681 219.196 266.362C202.363 255.08 208.321 233.853 180.831 231.29Z" fill="url(#paint26_linear_5208_16807)"/>
<ellipse cx="223.237" cy="251.104" rx="2.61643" ry="3.95154" transform="rotate(17.5783 223.237 251.104)" fill="#D2702E"/>
<path d="M228.427 252.469C227.074 251.115 224.737 248.648 224.117 247.234C223.371 247.193 222.387 247.363 221.203 249.231C220.426 250.457 220.352 252.213 220.508 252.995C222.057 255.131 227.353 259.421 230.49 260.594C237.623 263.262 245.209 263.627 252.859 258.947C258.979 255.204 261.094 248.319 260.734 246.928C260.324 247.157 259.67 249.716 256.392 252.512C253.542 254.943 247.826 258.252 241.263 257.64C236.239 257.171 231.317 255.363 228.427 252.469Z" fill="#020202"/>
<path d="M272.6 230.311C267.463 224.841 263.663 217.602 262.405 214.666C261.928 213.553 260.294 213.127 259.035 214.333C258.21 215.123 258.191 216.879 258.515 217.867C259.113 219.684 262.118 224.951 269.362 231.485C276.606 238.02 287.782 240.638 292.464 241.129C287.983 239.803 277.737 235.782 272.6 230.311Z" fill="url(#paint27_linear_5208_16807)"/>
<defs>
<filter id="filter0_d_5208_16807" x="59.1769" y="70.428" width="444.355" height="470.327" filterUnits="userSpaceOnUse" color-interpolation-filters="sRGB">
<feFlood flood-opacity="0" result="BackgroundImageFix"/>
<feColorMatrix in="SourceAlpha" type="matrix" values="0 0 0 0 0 0 0 0 0 0 0 0 0 0 0 0 0 0 127 0" result="hardAlpha"/>
<feOffset dy="24.0317"/>
<feGaussianBlur stdDeviation="33.0435"/>
<feComposite in2="hardAlpha" operator="out"/>
<feColorMatrix type="matrix" values="0 0 0 0 0.975 0 0 0 0 0.329062 0 0 0 0 0.639112 0 0 0 0.66 0"/>
<feBlend mode="normal" in2="BackgroundImageFix" result="effect1_dropShadow_5208_16807"/>
<feBlend mode="normal" in="SourceGraphic" in2="effect1_dropShadow_5208_16807" result="shape"/>
</filter>
<filter id="filter1_d_5208_16807" x="53.1149" y="140.574" width="456.479" height="406.263" filterUnits="userSpaceOnUse" color-interpolation-filters="sRGB">
<feFlood flood-opacity="0" result="BackgroundImageFix"/>
<feColorMatrix in="SourceAlpha" type="matrix" values="0 0 0 0 0 0 0 0 0 0 0 0 0 0 0 0 0 0 127 0" result="hardAlpha"/>
<feOffset dy="24.0497"/>
<feGaussianBlur stdDeviation="36.0746"/>
<feComposite in2="hardAlpha" operator="out"/>
<feColorMatrix type="matrix" values="0 0 0 0 0.879167 0 0 0 0 0.454236 0 0 0 0 0.760186 0 0 0 0.66 0"/>
<feBlend mode="normal" in2="BackgroundImageFix" result="effect1_dropShadow_5208_16807"/>
<feBlend mode="normal" in="SourceGraphic" in2="effect1_dropShadow_5208_16807" result="shape"/>
</filter>
<linearGradient id="paint0_linear_5208_16807" x1="349.824" y1="151.668" x2="197.781" y2="415.479" gradientUnits="userSpaceOnUse">
<stop stop-color="#4550FB"/>
<stop offset="1" stop-color="#D334EE"/>
</linearGradient>
<linearGradient id="paint1_linear_5208_16807" x1="212.221" y1="124.098" x2="396.142" y2="461.797" gradientUnits="userSpaceOnUse">
<stop stop-color="white"/>
<stop offset="0.526047" stop-color="#F0D1FF"/>
<stop offset="1" stop-color="#E1A3FF"/>
</linearGradient>
<radialGradient id="paint2_radial_5208_16807" cx="0" cy="0" r="1" gradientUnits="userSpaceOnUse" gradientTransform="translate(369.262 418.21) rotate(-112.225) scale(198.081)">
<stop stop-color="#FF3767"/>
<stop offset="1" stop-color="#FF3767" stop-opacity="0"/>
</radialGradient>
<linearGradient id="paint3_linear_5208_16807" x1="254.299" y1="281.498" x2="312.419" y2="396.737" gradientUnits="userSpaceOnUse">
<stop/>
<stop offset="1" stop-opacity="0"/>
</linearGradient>
<linearGradient id="paint4_linear_5208_16807" x1="245.783" y1="433.835" x2="162.718" y2="614.481" gradientUnits="userSpaceOnUse">
<stop stop-color="#F7A02C"/>
<stop offset="1" stop-color="#E15D84"/>
</linearGradient>
<linearGradient id="paint5_linear_5208_16807" x1="286.137" y1="324.185" x2="428.397" y2="622.819" gradientUnits="userSpaceOnUse">
<stop offset="0.0583122" stop-color="#FF7517"/>
<stop offset="0.456819" stop-color="#FF9900"/>
<stop offset="1" stop-color="#FF255A"/>
</linearGradient>
<linearGradient id="paint6_linear_5208_16807" x1="297.713" y1="304.837" x2="456" y2="641.852" gradientUnits="userSpaceOnUse">
<stop offset="0.0643896" stop-color="#E13031"/>
<stop offset="0.240604" stop-color="#E92F2F"/>
<stop offset="0.937479" stop-color="#D2490E"/>
</linearGradient>
<linearGradient id="paint7_linear_5208_16807" x1="336.452" y1="360.095" x2="537.471" y2="514.423" gradientUnits="userSpaceOnUse">
<stop offset="0.250261" stop-color="#E62F2F"/>
<stop offset="1" stop-color="#4E1F00"/>
</linearGradient>
<linearGradient id="paint8_linear_5208_16807" x1="270.104" y1="275.03" x2="232.052" y2="347.546" gradientUnits="userSpaceOnUse">
<stop stop-color="#FF2525"/>
<stop offset="1" stop-color="#FF6CA1"/>
</linearGradient>
<linearGradient id="paint9_linear_5208_16807" x1="270.178" y1="266.974" x2="198.243" y2="335.258" gradientUnits="userSpaceOnUse">
<stop stop-color="#DF1414"/>
<stop offset="1" stop-color="#FF617A"/>
</linearGradient>
<linearGradient id="paint10_linear_5208_16807" x1="217.542" y1="280.681" x2="218.962" y2="297.994" gradientUnits="userSpaceOnUse">
<stop stop-color="#CEEDFF"/>
<stop offset="1" stop-color="#F9FDFF"/>
</linearGradient>
<linearGradient id="paint11_linear_5208_16807" x1="189.552" y1="263.729" x2="190.972" y2="281.042" gradientUnits="userSpaceOnUse">
<stop stop-color="#CEEDFF"/>
<stop offset="1" stop-color="#F9FDFF"/>
</linearGradient>
<linearGradient id="paint12_linear_5208_16807" x1="221.872" y1="193.64" x2="307.068" y2="229.028" gradientUnits="userSpaceOnUse">
<stop stop-color="#E7F4FB"/>
<stop offset="1" stop-color="white"/>
</linearGradient>
<linearGradient id="paint13_linear_5208_16807" x1="291.095" y1="193.351" x2="287.549" y2="213.354" gradientUnits="userSpaceOnUse">
<stop stop-color="#CDE2EF"/>
<stop offset="1" stop-color="#E9F2F8" stop-opacity="0"/>
</linearGradient>
<linearGradient id="paint14_linear_5208_16807" x1="241.139" y1="190.83" x2="239.157" y2="196.687" gradientUnits="userSpaceOnUse">
<stop stop-color="#CDE2EF"/>
<stop offset="1" stop-color="#E9F2F8" stop-opacity="0"/>
</linearGradient>
<linearGradient id="paint15_linear_5208_16807" x1="248.24" y1="249.534" x2="233.322" y2="214.411" gradientUnits="userSpaceOnUse">
<stop stop-color="#F7FCFF"/>
<stop offset="0.596186" stop-color="white"/>
<stop offset="1" stop-color="#E8F4FB"/>
</linearGradient>
<linearGradient id="paint16_linear_5208_16807" x1="259.794" y1="216.609" x2="296.401" y2="241.729" gradientUnits="userSpaceOnUse">
<stop stop-color="#E9F2F8" stop-opacity="0.963542"/>
<stop offset="1" stop-color="#F7FCFF"/>
</linearGradient>
<linearGradient id="paint17_linear_5208_16807" x1="277.401" y1="102.962" x2="293.923" y2="167.787" gradientUnits="userSpaceOnUse">
<stop stop-color="#FCA643"/>
<stop offset="1" stop-color="#E54033"/>
</linearGradient>
<linearGradient id="paint18_linear_5208_16807" x1="251.833" y1="134.443" x2="269.054" y2="165.572" gradientUnits="userSpaceOnUse">
<stop stop-color="#FDA84C"/>
<stop offset="1" stop-color="#FF7417"/>
</linearGradient>
<linearGradient id="paint19_linear_5208_16807" x1="362.856" y1="244.14" x2="304.489" y2="80.72" gradientUnits="userSpaceOnUse">
<stop stop-color="#E13031"/>
<stop offset="1" stop-color="#FFB545"/>
</linearGradient>
<linearGradient id="paint20_linear_5208_16807" x1="314.919" y1="137.091" x2="331.863" y2="173.097" gradientUnits="userSpaceOnUse">
<stop stop-color="#FDA94C"/>
<stop offset="1" stop-color="#FF7417"/>
</linearGradient>
<linearGradient id="paint21_linear_5208_16807" x1="217.541" y1="280.685" x2="218.961" y2="297.998" gradientUnits="userSpaceOnUse">
<stop stop-color="#CEEDFF"/>
<stop offset="1" stop-color="#F9FDFF"/>
</linearGradient>
<linearGradient id="paint22_linear_5208_16807" x1="189.552" y1="263.733" x2="190.972" y2="281.046" gradientUnits="userSpaceOnUse">
<stop stop-color="#CEEDFF"/>
<stop offset="1" stop-color="#F9FDFF"/>
</linearGradient>
<linearGradient id="paint23_linear_5208_16807" x1="221.872" y1="193.643" x2="307.068" y2="229.031" gradientUnits="userSpaceOnUse">
<stop stop-color="#E7F4FB"/>
<stop offset="1" stop-color="white"/>
</linearGradient>
<linearGradient id="paint24_linear_5208_16807" x1="291.095" y1="193.352" x2="287.549" y2="213.355" gradientUnits="userSpaceOnUse">
<stop stop-color="#CDE2EF"/>
<stop offset="1" stop-color="#E9F2F8" stop-opacity="0"/>
</linearGradient>
<linearGradient id="paint25_linear_5208_16807" x1="241.139" y1="190.83" x2="239.157" y2="196.687" gradientUnits="userSpaceOnUse">
<stop stop-color="#CDE2EF"/>
<stop offset="1" stop-color="#E9F2F8" stop-opacity="0"/>
</linearGradient>
<linearGradient id="paint26_linear_5208_16807" x1="248.24" y1="249.538" x2="233.322" y2="214.415" gradientUnits="userSpaceOnUse">
<stop stop-color="#F7FCFF"/>
<stop offset="0.596186" stop-color="white"/>
<stop offset="1" stop-color="#E8F4FB"/>
</linearGradient>
<linearGradient id="paint27_linear_5208_16807" x1="259.794" y1="216.611" x2="296.4" y2="241.731" gradientUnits="userSpaceOnUse">
<stop stop-color="#E9F2F8" stop-opacity="0.963542"/>
<stop offset="1" stop-color="#F7FCFF"/>
</linearGradient>
</defs>
</svg>
