<svg width="16" height="16" viewBox="0 0 16 16" fill="none" xmlns="http://www.w3.org/2000/svg">
<path fill-rule="evenodd" clip-rule="evenodd" d="M7.98841 14.3988C7.98841 14.3988 13.1031 12.8501 13.1031 8.58079C13.1031 4.31079 13.2884 3.97746 12.8784 3.56679C12.4677 3.15613 8.65908 1.82812 7.98841 1.82812C7.31774 1.82812 3.50908 3.15613 3.09908 3.56679C2.68841 3.97746 2.87374 4.31079 2.87374 8.58079C2.87374 12.8501 7.98841 14.3988 7.98841 14.3988Z" fill="#DC2626" stroke="#DC2626" stroke-width="1.33333" stroke-linecap="round" stroke-linejoin="round"/>
<path fill-rule="evenodd" clip-rule="evenodd" d="M8.0054 4.00968C8.73997 4.00645 8.93414 4.30756 8.93447 4.67575L8.67575 8.1117C8.67591 8.28872 8.60566 8.45853 8.48049 8.5837L8.47811 8.58608C8.21776 8.84643 7.79565 8.84643 7.5353 8.58608C7.39091 8.44169 7.32659 8.24753 7.34237 8.05881L7.04725 4.67035C7.04692 4.30216 7.27082 4.0129 8.0054 4.00968Z" fill="white"/>
<circle cx="8" cy="10.9922" r="0.953125" fill="white"/>
</svg>
