<svg width="220" height="40" viewBox="0 0 220 40" fill="none" xmlns="http://www.w3.org/2000/svg">
<path d="M15.4129 11.3865C15.7622 11.3865 15.9369 11.3865 16.0704 11.4543C16.1877 11.5139 16.2831 11.609 16.343 11.726C16.4109 11.8591 16.4109 12.0332 16.4109 12.3815V27.5878C16.4109 27.9361 16.4109 28.1103 16.343 28.2433C16.2831 28.3603 16.1877 28.4554 16.0704 28.5151C15.9369 28.5828 15.7622 28.5828 15.4129 28.5828H12.8637C12.6912 28.5828 12.605 28.5828 12.5251 28.5613C12.4544 28.5423 12.3875 28.511 12.3277 28.4688C12.2601 28.4212 12.2051 28.355 12.0951 28.2226L5.31035 20.0574C5.14721 19.8611 5.06565 19.763 4.99436 19.7527C4.93263 19.7437 4.87049 19.7661 4.82867 19.8122C4.78036 19.8655 4.78036 19.9929 4.78036 20.2479V27.5878C4.78036 27.9361 4.78036 28.1103 4.71238 28.2433C4.65257 28.3603 4.55715 28.4554 4.43978 28.5151C4.30634 28.5828 4.13167 28.5828 3.78232 28.5828H0.998042C0.648694 28.5828 0.47402 28.5828 0.340587 28.5151C0.223217 28.4554 0.127791 28.3603 0.0679875 28.2433C0 28.1103 0 27.9361 0 27.5878V12.3815C0 12.0332 0 11.8591 0.0679875 11.726C0.127791 11.609 0.223217 11.5139 0.340587 11.4543C0.47402 11.3865 0.648694 11.3865 0.998041 11.3865H3.54726C3.71972 11.3865 3.80595 11.3865 3.88581 11.408C3.95657 11.427 4.02341 11.4583 4.08326 11.5005C4.15081 11.5481 4.20582 11.6143 4.31583 11.7467L11.1006 19.9119C11.2637 20.1082 11.3453 20.2064 11.4166 20.2167C11.4783 20.2256 11.5404 20.2033 11.5823 20.1571C11.6306 20.1038 11.6306 19.9764 11.6306 19.7214V12.3815C11.6306 12.0332 11.6306 11.8591 11.6986 11.726C11.7584 11.609 11.8538 11.5139 11.9712 11.4543C12.1046 11.3865 12.2793 11.3865 12.6286 11.3865H15.4129Z" fill="black"/>
<path d="M24.765 15.1451C24.6602 15.1451 24.6078 15.1451 24.5678 15.1654C24.5326 15.1833 24.504 15.2119 24.486 15.247C24.4656 15.2869 24.4656 15.3391 24.4656 15.4436V18.6298C24.4656 18.7343 24.4656 18.7865 24.486 18.8264C24.504 18.8615 24.5326 18.8901 24.5678 18.908C24.6078 18.9283 24.6602 18.9283 24.765 18.9283H31.0817C31.431 18.9283 31.6057 18.9283 31.7391 18.9961C31.8565 19.0557 31.9519 19.1508 32.0117 19.2679C32.0797 19.4009 32.0797 19.575 32.0797 19.9233V21.6919C32.0797 22.0402 32.0797 22.2144 32.0117 22.3474C31.9519 22.4644 31.8565 22.5595 31.7391 22.6192C31.6057 22.6869 31.431 22.6869 31.0817 22.6869H24.765C24.6602 22.6869 24.6078 22.6869 24.5678 22.7073C24.5326 22.7252 24.504 22.7537 24.486 22.7888C24.4656 22.8287 24.4656 22.881 24.4656 22.9854V27.5878C24.4656 27.9361 24.4656 28.1103 24.3976 28.2433C24.3378 28.3603 24.2424 28.4554 24.125 28.5151C23.9916 28.5828 23.8169 28.5828 23.4676 28.5828H20.5847C20.2354 28.5828 20.0607 28.5828 19.9273 28.5151C19.8099 28.4554 19.7145 28.3603 19.6547 28.2433C19.5867 28.1103 19.5867 27.9361 19.5867 27.5878V12.3815C19.5867 12.0332 19.5867 11.8591 19.6547 11.726C19.7145 11.609 19.8099 11.5139 19.9273 11.4543C20.0607 11.3865 20.2354 11.3865 20.5847 11.3865H32.1166C32.4659 11.3865 32.6406 11.3865 32.7741 11.4543C32.8914 11.5139 32.9868 11.609 33.0466 11.726C33.1146 11.8591 33.1146 12.0332 33.1146 12.3815V14.1501C33.1146 14.4984 33.1146 14.6725 33.0466 14.8056C32.9868 14.9226 32.8914 15.0177 32.7741 15.0773C32.6406 15.1451 32.4659 15.1451 32.1166 15.1451H24.765Z" fill="black"/>
<path fill-rule="evenodd" clip-rule="evenodd" d="M48.9489 2.98425C49.4627 2.92963 49.8349 2.47007 49.7801 1.95779C49.7253 1.4455 49.2643 1.0745 48.7505 1.12911L46.8396 1.33223C45.8606 1.43628 45.0754 1.51974 44.4377 1.63501C43.7807 1.75376 43.2177 1.91608 42.6947 2.20825C41.8457 2.68262 41.1419 3.37774 40.6584 4.21953C40.3606 4.73811 40.1929 5.29772 40.0682 5.95113C39.9472 6.5853 39.857 7.36659 39.7445 8.3405L39.7396 8.38245L39.552 10.2428C39.5003 10.7554 39.8752 11.2127 40.3894 11.2642C40.9035 11.3158 41.3622 10.942 41.4139 10.4294L41.6002 8.58251C41.7173 7.56881 41.8002 6.85751 41.9066 6.29974C42.011 5.75233 42.1276 5.41602 42.2824 5.14656C42.5973 4.59814 43.056 4.14504 43.6096 3.83574C43.8817 3.68369 44.2207 3.57028 44.7715 3.47073C45.3339 3.36908 46.0509 3.29228 47.0733 3.1836L48.9489 2.98425ZM67.1522 1.9578C67.0974 2.47008 67.4695 2.92965 67.9834 2.98426L69.8589 3.18362C70.8814 3.2923 71.5984 3.3691 72.1608 3.47075C72.7115 3.5703 73.0505 3.68371 73.3226 3.83576C73.8762 4.14506 74.3349 4.59816 74.6499 5.14658C74.8047 5.41604 74.9212 5.75235 75.0257 6.29976C75.1321 6.85753 75.2149 7.56883 75.332 8.58253L75.5183 10.4295C75.57 10.942 76.0287 11.3158 76.5429 11.2643C77.057 11.2127 77.4319 10.7554 77.3802 10.2428L77.1926 8.38247L77.1878 8.34052C77.0753 7.36661 76.985 6.58532 76.864 5.95114C76.7394 5.29774 76.5717 4.73813 76.2739 4.21955C75.7904 3.37776 75.0865 2.68263 74.2375 2.20827C73.7146 1.9161 73.1516 1.75378 72.4946 1.63503C71.8569 1.51976 71.0717 1.4363 70.0926 1.33225L68.1818 1.12913C67.6679 1.07451 67.207 1.44552 67.1522 1.9578ZM67.1522 38.0144C67.0974 37.5021 67.4695 37.0426 67.9834 36.9879L69.8589 36.7886C70.8814 36.6799 71.5984 36.6031 72.1608 36.5015C72.7115 36.4019 73.0505 36.2885 73.3226 36.1364C73.8762 35.8271 74.3349 35.374 74.6499 34.8256C74.8047 34.5562 74.9212 34.2199 75.0257 33.6725C75.1321 33.1147 75.2149 32.4034 75.332 31.3897L75.5183 29.5428C75.57 29.0302 76.0287 28.6564 76.5429 28.7079C77.057 28.7595 77.4319 29.2168 77.3802 29.7294L77.1926 31.5897L77.1878 31.6317C77.0753 32.6056 76.985 33.3869 76.864 34.0211C76.7394 34.6745 76.5717 35.2341 76.2739 35.7527C75.7904 36.5945 75.0865 37.2896 74.2375 37.7639C73.7146 38.0561 73.1516 38.2184 72.4946 38.3372C71.8569 38.4524 71.0717 38.5359 70.0926 38.64L68.1818 38.8431C67.6679 38.8977 67.207 38.5267 67.1522 38.0144ZM49.7801 38.0144C49.8349 37.5021 49.4627 37.0426 48.9489 36.9879L47.0733 36.7886C46.0509 36.6799 45.3339 36.6031 44.7715 36.5015C44.2207 36.4019 43.8817 36.2885 43.6096 36.1364C43.056 35.8271 42.5973 35.374 42.2824 34.8256C42.1276 34.5562 42.011 34.2199 41.9066 33.6725C41.8002 33.1147 41.7173 32.4034 41.6002 31.3897L41.414 29.5428C41.3623 29.0302 40.9035 28.6564 40.3894 28.7079C39.8752 28.7595 39.5003 29.2168 39.552 29.7294L39.7396 31.5897L39.7445 31.6317C39.857 32.6056 39.9472 33.3869 40.0682 34.0211C40.1929 34.6745 40.3606 35.2341 40.6584 35.7527C41.1419 36.5945 41.8457 37.2896 42.6947 37.7639C43.2177 38.0561 43.7807 38.2184 44.4377 38.3372C45.0754 38.4524 45.8605 38.5359 46.8395 38.6399L46.8396 38.64H46.8396L48.7505 38.8431C49.2643 38.8977 49.7253 38.5267 49.7801 38.0144ZM49.2695 12.7922C48.8249 12.7922 48.4644 13.1527 48.4644 13.5973V26.6468C48.4644 27.0915 48.8249 27.4519 49.2695 27.4519H51.8186C52.2632 27.4519 52.6237 27.0915 52.6237 26.6468V13.5973C52.6237 13.1527 52.2632 12.7922 51.8186 12.7922H49.2695ZM56.1613 12.7922C55.7167 12.7922 55.3562 13.1527 55.3562 13.5973V26.6468C55.3562 27.0915 55.7167 27.4519 56.1613 27.4519H62.3093C63.9198 27.4519 65.3482 27.1517 66.5945 26.5514C67.8409 25.951 68.8072 25.0994 69.4934 23.9964C70.1796 22.8934 70.5227 21.602 70.5227 20.1221C70.5227 18.6421 70.1796 17.3507 69.4934 16.2477C68.8072 15.1447 67.8409 14.2931 66.5945 13.6927C65.3482 13.0924 63.9198 12.7922 62.3093 12.7922H56.1613ZM65.1661 23.0749C64.4099 23.787 63.4016 24.143 62.1412 24.143H59.757C59.6236 24.143 59.5155 24.0349 59.5155 23.9015V16.3426C59.5155 16.2093 59.6236 16.1011 59.757 16.1011H62.1412C63.4016 16.1011 64.4099 16.4571 65.1661 17.1692C65.9363 17.8812 66.3215 18.8655 66.3215 20.1221C66.3215 21.3786 65.9363 22.3629 65.1661 23.0749Z" fill="url(#paint0_linear_69771_18616)"/>
<path d="M212.251 28.7924C211.271 28.7924 210.382 28.5402 209.587 28.0359C208.797 27.526 208.169 26.7779 207.704 25.7916C207.244 24.7998 207.015 23.5838 207.015 22.1436C207.015 20.6642 207.253 19.4342 207.729 18.4536C208.205 17.4673 208.839 16.7304 209.629 16.2429C210.424 15.7498 211.296 15.5032 212.243 15.5032C212.966 15.5032 213.568 15.6265 214.05 15.8731C214.538 16.114 214.93 16.4166 215.227 16.7809C215.518 17.1261 215.742 17.4662 215.898 17.801C215.909 17.8247 215.933 17.84 215.959 17.84C215.996 17.84 216.025 17.8102 216.025 17.7736V11.8938C216.025 11.6032 216.261 11.3677 216.552 11.3677H219.072C219.362 11.3677 219.598 11.6033 219.598 11.8938V28.0561C219.598 28.3467 219.362 28.5823 219.072 28.5823H216.594C216.303 28.5823 216.067 28.3467 216.067 28.0561V26.607C216.067 26.5559 216.026 26.5145 215.975 26.5145C215.939 26.5145 215.906 26.5353 215.891 26.5675C215.724 26.9082 215.495 27.2464 215.202 27.582C214.899 27.9294 214.504 28.218 214.016 28.4478C213.535 28.6775 212.946 28.7924 212.251 28.7924ZM213.386 25.9429C213.963 25.9429 214.451 25.786 214.849 25.4722C215.252 25.1528 215.56 24.7073 215.773 24.1357C215.992 23.5642 216.101 22.8945 216.101 22.1268C216.101 21.3591 215.995 20.6922 215.782 20.1263C215.569 19.5603 215.26 19.1232 214.857 18.815C214.454 18.5068 213.963 18.3527 213.386 18.3527C212.798 18.3527 212.302 18.5124 211.898 18.8318C211.495 19.1512 211.189 19.5939 210.982 20.1599C210.775 20.7259 210.671 21.3815 210.671 22.1268C210.671 22.8777 210.775 23.5417 210.982 24.1189C211.195 24.6905 211.5 25.1388 211.898 25.4638C212.302 25.7832 212.798 25.9429 213.386 25.9429Z" fill="black"/>
<path d="M196.35 21.1181V28.0561C196.35 28.3467 196.114 28.5822 195.824 28.5822H193.295C193.005 28.5822 192.769 28.3467 192.769 28.0561V16.1975C192.769 15.9069 193.005 15.6713 193.295 15.6713H195.656C195.946 15.6713 196.182 15.9069 196.182 16.1975V17.8596C196.182 17.9091 196.222 17.9492 196.271 17.9492C196.309 17.9492 196.342 17.9262 196.356 17.8916C196.644 17.1679 197.115 16.5931 197.771 16.1672C198.443 15.7245 199.258 15.5032 200.217 15.5032C201.113 15.5032 201.895 15.6993 202.562 16.0916C203.229 16.4838 203.747 17.0442 204.117 17.7727C204.487 18.4956 204.672 19.3585 204.672 20.3616V28.0561C204.672 28.3467 204.436 28.5822 204.145 28.5822H201.617C201.326 28.5822 201.091 28.3467 201.091 28.0561V21.0004C201.096 20.2103 200.895 19.5939 200.486 19.1512C200.076 18.7029 199.513 18.4787 198.796 18.4787C198.314 18.4787 197.888 18.5824 197.518 18.7897C197.154 18.9971 196.868 19.2997 196.661 19.6976C196.459 20.0898 196.356 20.5633 196.35 21.1181Z" fill="black"/>
<path d="M186.324 23.0851V16.1976C186.324 15.907 186.56 15.6714 186.85 15.6714H189.379C189.669 15.6714 189.905 15.907 189.905 16.1976V28.0562C189.905 28.3468 189.669 28.5823 189.379 28.5823H186.993C186.703 28.5823 186.467 28.3468 186.467 28.0562V26.3169C186.467 26.2729 186.431 26.2372 186.387 26.2372C186.354 26.2372 186.325 26.2576 186.313 26.2882C186.019 27.0211 185.541 27.6121 184.879 28.0612C184.206 28.5207 183.385 28.7504 182.416 28.7504C181.553 28.7504 180.793 28.5543 180.138 28.1621C179.482 27.7698 178.969 27.2122 178.6 26.4894C178.235 25.7665 178.05 24.9007 178.045 23.892V16.1976C178.045 15.907 178.28 15.6714 178.571 15.6714H181.099C181.39 15.6714 181.626 15.907 181.626 16.1976V23.2532C181.631 24.0153 181.836 24.6177 182.239 25.0604C182.643 25.5031 183.183 25.7244 183.861 25.7244C184.293 25.7244 184.696 25.6264 185.072 25.4302C185.447 25.2285 185.75 24.9315 185.98 24.5393C186.215 24.147 186.33 23.6623 186.324 23.0851Z" fill="black"/>
<path d="M169.362 28.8344C168.056 28.8344 166.927 28.557 165.974 28.0022C165.027 27.4419 164.296 26.663 163.781 25.6655C163.265 24.6624 163.007 23.4997 163.007 22.1772C163.007 20.8435 163.265 19.6779 163.781 18.6805C164.296 17.6774 165.027 16.8985 165.974 16.3437C166.927 15.7834 168.056 15.5032 169.362 15.5032C170.668 15.5032 171.794 15.7834 172.741 16.3437C173.694 16.8985 174.428 17.6774 174.943 18.6805C175.459 19.6779 175.716 20.8435 175.716 22.1772C175.716 23.4997 175.459 24.6624 174.943 25.6655C174.428 26.663 173.694 27.4419 172.741 28.0022C171.794 28.557 170.668 28.8344 169.362 28.8344ZM169.379 26.0606C169.973 26.0606 170.469 25.8925 170.866 25.5562C171.264 25.2144 171.564 24.7493 171.766 24.1609C171.973 23.5725 172.077 22.9029 172.077 22.152C172.077 21.4011 171.973 20.7314 171.766 20.143C171.564 19.5547 171.264 19.0895 170.866 18.7477C170.469 18.4059 169.973 18.235 169.379 18.235C168.779 18.235 168.275 18.4059 167.866 18.7477C167.462 19.0895 167.157 19.5547 166.949 20.143C166.748 20.7314 166.647 21.4011 166.647 22.152C166.647 22.9029 166.748 23.5725 166.949 24.1609C167.157 24.7493 167.462 25.2144 167.866 25.5562C168.275 25.8925 168.779 26.0606 169.379 26.0606Z" fill="black"/>
<path d="M154.97 28.5822C154.68 28.5822 154.444 28.3466 154.444 28.056V16.1974C154.444 15.9068 154.68 15.6713 154.97 15.6713H157.389C157.68 15.6713 157.916 15.9068 157.916 16.1974V17.847C157.916 17.8895 157.95 17.9239 157.993 17.9239C158.027 17.9239 158.057 17.9014 158.067 17.8687C158.304 17.0948 158.693 16.508 159.235 16.1083C159.79 15.6937 160.429 15.4863 161.152 15.4863C161.331 15.4863 161.524 15.4975 161.732 15.52C161.781 15.5252 161.828 15.531 161.874 15.5372C162.114 15.5695 162.278 15.7818 162.278 16.0232V18.0825C162.278 18.435 161.93 18.7014 161.58 18.6552C161.283 18.616 161.012 18.5964 160.765 18.5964C160.238 18.5964 159.768 18.7113 159.353 18.941C158.944 19.1652 158.619 19.479 158.378 19.8824C158.143 20.2859 158.025 20.751 158.025 21.2778V28.056C158.025 28.3466 157.789 28.5822 157.499 28.5822H154.97Z" fill="black"/>
<path d="M145.282 33.6928C144.122 33.6928 143.127 33.5331 142.298 33.2137C141.474 32.8999 140.819 32.4712 140.331 31.9276C139.978 31.534 139.715 31.105 139.541 30.6408C139.433 30.3535 139.641 30.0603 139.945 30.0194L142.284 29.7048C142.524 29.6725 142.75 29.813 142.883 30.0158C142.964 30.1391 143.061 30.2581 143.172 30.3726C143.391 30.5968 143.679 30.7761 144.038 30.9106C144.402 31.0507 144.845 31.1207 145.366 31.1207C146.145 31.1207 146.787 30.9302 147.291 30.5491C147.801 30.1737 148.056 29.5433 148.056 28.6579V26.3874C148.056 26.3369 148.015 26.2959 147.964 26.2959C147.928 26.2959 147.895 26.3175 147.88 26.3505C147.724 26.689 147.496 27.0098 147.199 27.313C146.885 27.6324 146.481 27.893 145.988 28.0947C145.495 28.2964 144.907 28.3973 144.223 28.3973C143.253 28.3973 142.371 28.1732 141.575 27.7249C140.785 27.271 140.155 26.5789 139.684 25.6487C139.219 24.7129 138.986 23.5305 138.986 22.1015C138.986 20.639 139.224 19.4174 139.701 18.4367C140.177 17.4561 140.81 16.722 141.6 16.2345C142.396 15.7469 143.267 15.5032 144.215 15.5032C144.937 15.5032 145.543 15.6265 146.03 15.873C146.518 16.114 146.91 16.4166 147.207 16.7808C147.496 17.1232 147.721 17.4605 147.882 17.7927C147.896 17.8214 147.925 17.8399 147.957 17.8399C148.002 17.8399 148.039 17.8031 148.039 17.7577V16.1975C148.039 15.9069 148.275 15.6713 148.565 15.6713H151.068C151.359 15.6713 151.595 15.9069 151.595 16.1975V28.7083C151.595 29.8066 151.326 30.7257 150.788 31.4653C150.25 32.205 149.504 32.7598 148.552 33.1296C147.605 33.5051 146.515 33.6928 145.282 33.6928ZM145.358 25.7075C145.935 25.7075 146.422 25.5646 146.82 25.2788C147.224 24.9875 147.532 24.5728 147.745 24.0348C147.963 23.4913 148.073 22.8412 148.073 22.0847C148.073 21.3282 147.966 20.6726 147.753 20.1178C147.54 19.5575 147.232 19.1232 146.829 18.815C146.425 18.5068 145.935 18.3527 145.358 18.3527C144.769 18.3527 144.273 18.5124 143.87 18.8318C143.466 19.1456 143.161 19.5827 142.954 20.143C142.746 20.7034 142.643 21.3506 142.643 22.0847C142.643 22.83 142.746 23.4745 142.954 24.018C143.167 24.556 143.472 24.9734 143.87 25.2704C144.273 25.5618 144.769 25.7075 145.358 25.7075Z" fill="black"/>
<path d="M128.223 33.4239C127.769 33.4239 127.343 33.3875 126.945 33.3147C126.755 33.2821 126.581 33.2449 126.423 33.2032C126.161 33.1342 126.03 32.8567 126.108 32.5977L126.624 30.8871C126.709 30.608 127.003 30.4546 127.289 30.5133C127.51 30.5588 127.718 30.5848 127.912 30.5913C128.254 30.6025 128.548 30.524 128.795 30.3559C129.047 30.1878 129.251 29.902 129.408 29.4985L129.549 29.1322C129.594 29.016 129.596 28.8876 129.555 28.7701L125.231 16.3708C125.111 16.0288 125.365 15.6714 125.728 15.6714H128.354C128.59 15.6714 128.797 15.828 128.861 16.0548L131.407 25.0881C131.418 25.1264 131.453 25.1529 131.493 25.1529C131.533 25.1529 131.567 25.1265 131.578 25.0883L134.149 16.0535C134.214 15.8274 134.42 15.6714 134.655 15.6714H137.307C137.669 15.6714 137.923 16.0296 137.803 16.3717L133.031 29.9777C132.79 30.6725 132.462 31.2777 132.047 31.7933C131.638 32.3144 131.12 32.7151 130.492 32.9953C129.865 33.281 129.108 33.4239 128.223 33.4239Z" fill="black"/>
<path d="M116.426 28.826C115.602 28.826 114.868 28.6831 114.223 28.3973C113.579 28.1059 113.069 27.6772 112.694 27.1113C112.324 26.5397 112.139 25.828 112.139 24.9762C112.139 24.259 112.271 23.6566 112.534 23.169C112.797 22.6815 113.156 22.2893 113.61 21.9923C114.064 21.6953 114.579 21.4711 115.156 21.3198C115.739 21.1685 116.35 21.0621 116.989 21.0004C117.74 20.922 118.345 20.8491 118.804 20.7819C119.264 20.709 119.597 20.6025 119.805 20.4625C120.012 20.3224 120.116 20.115 120.116 19.8404V19.79C120.116 19.2577 119.948 18.8458 119.611 18.5544C119.281 18.263 118.81 18.1173 118.199 18.1173C117.555 18.1173 117.042 18.2602 116.661 18.546C116.405 18.734 116.208 18.9548 116.068 19.2084C115.947 19.4276 115.725 19.5905 115.476 19.5703L113.19 19.3846C112.874 19.3589 112.649 19.0591 112.752 18.7586C112.939 18.2138 113.217 17.7283 113.585 17.302C114.078 16.7248 114.714 16.2821 115.493 15.9739C116.277 15.6601 117.185 15.5032 118.216 15.5032C118.933 15.5032 119.62 15.5872 120.275 15.7553C120.937 15.9235 121.522 16.184 122.032 16.5371C122.548 16.8901 122.954 17.344 123.251 17.8988C123.548 18.4479 123.697 19.1064 123.697 19.8741V28.0561C123.697 28.3467 123.461 28.5822 123.17 28.5822H120.827C120.536 28.5822 120.301 28.3467 120.301 28.0561V26.8545C120.301 26.8199 120.273 26.7918 120.238 26.7918C120.215 26.7918 120.193 26.805 120.182 26.8258C119.977 27.2153 119.705 27.5598 119.368 27.8594C119.02 28.162 118.603 28.4001 118.115 28.5738C117.628 28.7419 117.065 28.826 116.426 28.826ZM117.451 26.3548C117.978 26.3548 118.443 26.2511 118.847 26.0438C119.25 25.8308 119.567 25.545 119.796 25.1864C120.026 24.8277 120.141 24.4215 120.141 23.9676V23.1033C120.141 22.8855 119.886 22.7339 119.679 22.7992C119.488 22.8552 119.272 22.9085 119.031 22.9589C118.79 23.0037 118.55 23.0458 118.309 23.085C118.068 23.1186 117.849 23.1494 117.653 23.1775C117.233 23.2391 116.866 23.3372 116.552 23.4716C116.238 23.6061 115.994 23.7883 115.821 24.018C115.647 24.2422 115.56 24.5223 115.56 24.8586C115.56 25.3461 115.736 25.7187 116.089 25.9765C116.448 26.2287 116.902 26.3548 117.451 26.3548Z" fill="black"/>
<path d="M109.35 11.3677C109.64 11.3677 109.876 11.6033 109.876 11.8938V28.0561C109.876 28.3467 109.64 28.5823 109.35 28.5823H106.821C106.53 28.5823 106.295 28.3467 106.295 28.0561V11.8938C106.295 11.6033 106.53 11.3677 106.821 11.3677H109.35Z" fill="black"/>
<path d="M91.5629 28.5823C91.2723 28.5823 91.0367 28.3467 91.0367 28.0561V11.8938C91.0367 11.6033 91.2723 11.3677 91.5629 11.3677H97.8284C99.1341 11.3677 100.246 11.617 101.165 12.1158C102.084 12.6089 102.785 13.2954 103.267 14.1751C103.754 15.0493 103.998 16.058 103.998 17.2011C103.998 18.3443 103.752 19.353 103.258 20.2271C102.765 21.1013 102.051 21.7822 101.115 22.2697C100.185 22.7572 99.0584 23.001 97.7359 23.001H93.9333C93.6427 23.001 93.4071 22.7654 93.4071 22.4748V20.6104C93.4071 20.3198 93.6427 20.0842 93.9333 20.0842H97.1476C97.848 20.0842 98.4252 19.9638 98.8791 19.7228C99.3386 19.4762 99.6804 19.1372 99.9046 18.7057C100.134 18.2686 100.249 17.7671 100.249 17.2011C100.249 16.6296 100.134 16.1308 99.9046 15.7049C99.6804 15.2735 99.3386 14.94 98.8791 14.7047C98.4196 14.4637 97.8368 14.3432 97.1307 14.3432H95.2025C94.9119 14.3432 94.6763 14.5788 94.6763 14.8694V28.0561C94.6763 28.3467 94.4407 28.5823 94.1502 28.5823H91.5629Z" fill="black"/>
<defs>
<linearGradient id="paint0_linear_69771_18616" x1="40" y1="1.12374" x2="76.9852" y2="39.1382" gradientUnits="userSpaceOnUse">
<stop stop-color="#008A7A"/>
<stop offset="1" stop-color="#00655A"/>
</linearGradient>
</defs>
</svg>
