<svg width="410" height="246" viewBox="0 0 410 246" fill="none" xmlns="http://www.w3.org/2000/svg">
<g clip-path="url(#clip0_77259_92135)">
<g clip-path="url(#clip1_77259_92135)">
<path opacity="0.25" fill-rule="evenodd" clip-rule="evenodd" d="M92.4151 110.139C92.4033 110.132 92.3888 110.132 92.377 110.139C92.3516 110.154 92.3516 110.191 92.377 110.205L117.525 124.701C117.537 124.708 117.551 124.708 117.563 124.701C117.589 124.686 117.589 124.649 117.563 124.635L92.4151 110.139ZM115.641 180.632C115.668 180.616 115.668 180.578 115.641 180.562L44.9854 139.835C38.3121 135.989 34.9755 134.066 33.8301 131.567C32.7867 129.291 32.7858 126.674 33.8276 124.397C34.9712 121.898 38.3065 119.972 44.9771 116.121L52.8493 111.576C59.5199 107.724 62.8551 105.799 63.9988 103.299C65.0406 101.023 65.0397 98.4054 63.9963 96.1294C62.8509 93.6309 59.5142 91.7076 52.841 87.861L44.3572 82.9709C41.891 81.5493 40.6579 80.8385 39.3489 80.5538C38.1411 80.2911 36.8908 80.2915 35.6832 80.5551C34.3744 80.8408 33.1418 81.5524 30.6766 82.9757L10.9151 94.385C8.44994 95.8083 7.21733 96.5199 5.90857 96.8056C4.70093 97.0691 3.4507 97.0696 2.24288 96.8069C0.933907 96.5221 -0.299196 95.8114 -2.7654 94.3898L-15.6787 86.9464C-22.3519 83.0999 -25.6886 81.1766 -26.834 78.6781C-27.8774 76.4021 -27.8783 73.7847 -26.8365 71.508C-25.6928 69.0086 -22.3576 67.083 -15.687 63.2318L64.0456 17.1981C66.5108 15.7748 67.7434 15.0632 69.0522 14.7775C70.2598 14.514 71.51 14.5135 72.7179 14.7762C74.0268 15.061 75.2599 15.7717 77.7261 17.1933L100.559 30.3544C103.025 31.776 104.258 32.4868 105.567 32.7715C106.775 33.0342 108.025 33.0338 109.233 32.7702C110.542 32.4846 111.774 31.7729 114.24 30.3496L142.224 14.1926C143.22 13.6177 143.718 13.3302 144.215 13.1211C146.35 12.2219 148.757 12.221 150.892 13.1187C151.389 13.3275 151.887 13.6146 152.883 14.1889C153.88 14.7631 154.378 15.0502 154.874 15.259C157.01 16.1567 159.417 16.1558 161.552 15.2566C162.049 15.0475 162.547 14.7601 163.543 14.1851L165.012 13.3369C167.437 11.9369 168.649 11.2369 169.935 10.9495C171.169 10.6735 172.45 10.6731 173.685 10.9482C174.971 11.2347 176.184 11.9338 178.61 13.3321L205.807 29.009C208.273 30.4306 209.506 31.1414 210.815 31.4261C212.023 31.6888 213.273 31.6884 214.481 31.4248C215.79 31.1391 217.022 30.4275 219.488 29.0042L242.483 15.7279C244.948 14.3046 246.181 13.593 247.489 13.3074C248.697 13.0438 249.947 13.0433 251.155 13.3061C252.464 13.5908 253.697 14.3016 256.163 15.7231L294.668 37.9176C297.134 39.3392 298.367 40.0499 299.676 40.3347C300.884 40.5974 302.134 40.5969 303.342 40.3334C304.651 40.0477 305.883 39.3361 308.348 37.9128L324.436 28.6245C326.901 27.2012 328.134 26.4895 329.443 26.2039C330.65 25.9403 331.901 25.9399 333.108 26.2026C334.417 26.4873 335.651 27.1981 338.117 28.6197L377.687 51.4287C384.361 55.2752 387.697 57.1985 388.843 59.6971C389.886 61.973 389.887 64.5904 388.845 66.8671C387.702 69.3665 384.366 71.2921 377.696 75.1434L366.984 81.3277C360.314 85.179 356.978 87.1046 355.835 89.6039C354.793 91.8806 354.794 94.4981 355.837 96.774C356.983 99.2726 360.319 101.196 366.992 105.042L377.265 110.964C383.939 114.81 387.275 116.734 388.421 119.232C389.464 121.508 389.465 124.126 388.423 126.402C387.28 128.902 383.944 130.827 377.274 134.678L357.741 145.956C351.07 149.807 347.735 151.733 346.591 154.232C345.55 156.509 345.551 159.126 346.594 161.402C347.739 163.901 351.076 165.824 357.749 169.67L362.259 172.27C368.933 176.117 372.269 178.04 373.415 180.538C374.458 182.814 374.459 185.432 373.417 187.709C372.274 190.208 368.938 192.134 362.268 195.985L329.76 214.753C327.295 216.176 326.062 216.888 324.753 217.174C323.546 217.437 322.296 217.438 321.088 217.175C319.779 216.89 318.546 216.18 316.079 214.758L292.618 201.234C290.151 199.813 288.918 199.102 287.609 198.817C286.401 198.555 285.151 198.555 283.944 198.819C282.635 199.104 281.402 199.816 278.937 201.239L260.039 212.15C257.574 213.573 256.342 214.285 255.033 214.57C253.825 214.834 252.575 214.834 251.367 214.572C250.058 214.287 248.825 213.576 246.359 212.155L224.252 199.412C221.786 197.99 220.553 197.28 219.244 196.995C218.036 196.732 216.786 196.733 215.578 196.996C214.269 197.282 213.037 197.994 210.572 199.417L186.205 213.485C183.739 214.908 182.507 215.62 181.198 215.906C179.99 216.169 178.74 216.17 177.532 215.907C176.223 215.622 174.99 214.911 172.524 213.49L115.641 180.702C115.614 180.686 115.614 180.647 115.641 180.632Z" fill="url(#paint0_radial_77259_92135)"/>
<path opacity="0.6" d="M295.894 138.687C299.71 140.887 301.618 141.987 302.35 143.251C303.022 144.413 303.023 145.668 302.352 146.83C301.62 148.095 299.713 149.197 295.898 151.399L282.993 158.85C279.179 161.052 277.271 162.153 275.078 162.576C273.065 162.964 270.888 162.965 268.875 162.578C266.682 162.157 264.774 161.057 260.957 158.857L244.465 149.351C240.649 147.152 238.741 146.052 238.009 144.787C237.337 143.626 237.336 142.37 238.007 141.208C238.739 139.943 240.646 138.842 244.461 136.639L257.366 129.189C261.181 126.986 263.088 125.885 265.281 125.462C267.294 125.074 269.471 125.073 271.484 125.46C273.677 125.881 275.586 126.981 279.402 129.181L295.894 138.687Z" fill="white"/>
<path opacity="0.3" d="M50.3469 160.577C54.1632 162.777 56.0714 163.877 56.8036 165.142C57.4756 166.303 57.476 167.559 56.8048 168.72C56.0735 169.986 54.1661 171.087 50.3513 173.29L45.8971 175.861C42.0823 178.064 40.1749 179.165 37.9818 179.588C35.9688 179.976 33.7921 179.977 31.7789 179.59C29.5855 179.169 27.6773 178.069 23.8609 175.869L16.6895 171.735C12.8731 169.536 10.965 168.436 10.2328 167.171C9.56077 166.01 9.56033 164.754 10.2315 163.592C10.9628 162.327 12.8702 161.226 16.685 159.023L21.1393 156.452C24.9541 154.249 26.8615 153.148 29.0546 152.725C31.0676 152.337 33.2443 152.336 35.2575 152.723C37.4509 153.144 39.3591 154.244 43.1754 156.444L50.3469 160.577Z" fill="url(#paint1_linear_77259_92135)"/>
<path d="M105.847 86.7024C109.663 88.9022 111.571 90.0021 112.304 91.2671C112.976 92.4282 112.976 93.6839 112.305 94.8455C111.574 96.111 109.666 97.2122 105.851 99.4147L82.2698 113.029C78.455 115.232 76.5476 116.333 74.3545 116.756C72.3416 117.144 70.1649 117.145 68.1516 116.758C65.9582 116.337 64.05 115.237 60.2337 113.037L42.6094 102.878C38.7931 100.679 36.8849 99.5787 36.1527 98.3137C35.4807 97.1526 35.4802 95.8969 36.1515 94.7354C36.8827 93.4699 38.7901 92.3686 42.6049 90.1661L66.1864 76.5514C70.0012 74.3489 71.9086 73.2476 74.1018 72.8247C76.1147 72.4366 78.2914 72.4358 80.3047 72.8226C82.4981 73.2439 84.4062 74.3438 88.2226 76.5436L105.847 86.7024Z" fill="white"/>
<path opacity="0.15" d="M62.8859 76.7728C66.7023 78.9725 68.6105 80.0724 69.3426 81.3374C70.0147 82.4985 70.0151 83.7542 69.3439 84.9158C68.6126 86.1813 66.7052 87.2825 62.8904 89.485L54.8797 94.11C51.0649 96.3124 49.1575 97.4137 46.9644 97.8366C44.9515 98.2247 42.7748 98.2255 40.7615 97.8387C38.5681 97.4174 36.6599 96.3175 32.8436 94.1177L21.7497 87.7231C17.9333 85.5233 16.0252 84.4234 15.293 83.1584C14.621 81.9973 14.6205 80.7416 15.2917 79.58C16.023 78.3145 17.9304 77.2133 21.7452 75.0108L29.7559 70.3859C33.5707 68.1834 35.4781 67.0821 37.6712 66.6593C39.6842 66.2711 41.8609 66.2703 43.8741 66.6571C46.0675 67.0784 47.9757 68.1783 51.792 70.3781L62.8859 76.7728Z" fill="url(#paint2_linear_77259_92135)"/>
<path d="M264.472 60.0774C268.288 62.2772 270.196 63.3771 270.929 64.6421C271.601 65.8032 271.601 67.0589 270.93 68.2205C270.199 69.486 268.291 70.5872 264.476 72.7897L255.815 77.7905C252 79.993 250.093 81.0942 247.899 81.5171C245.886 81.9052 243.71 81.906 241.696 81.5193C239.503 81.0979 237.595 79.998 233.779 77.7982L221.967 70.9897C218.15 68.7899 216.242 67.6901 215.51 66.4251C214.838 65.264 214.838 64.0083 215.509 62.8467C216.24 61.5812 218.147 60.48 221.962 58.2775L230.624 53.2767C234.439 51.0742 236.346 49.973 238.539 49.5501C240.552 49.1619 242.729 49.1612 244.742 49.5479C246.935 49.9693 248.844 51.0691 252.66 53.2689L264.472 60.0774Z" fill="white"/>
<mask id="mask0_77259_92135" style="mask-type:alpha" maskUnits="userSpaceOnUse" x="105" y="115" width="168" height="97">
<path opacity="0.2" d="M272.203 147.133L159.912 211.964L105.575 180.644L217.866 115.812L272.203 147.133Z" fill="#838CA1"/>
</mask>
<g mask="url(#mask0_77259_92135)">
<g filter="url(#filter0_f_77259_92135)">
<path d="M150.297 168.747L135.86 183.659L113.317 194.822L105.31 212.643C105.311 212.643 105.312 212.643 105.312 212.642L125.844 205.047L139.57 188.189L161.371 177.618L169.017 163.019L150.297 168.747Z" fill="#79818F"/>
</g>
</g>
<g opacity="0.2" filter="url(#filter1_f_77259_92135)">
<path d="M155.052 183.444L138.284 196.59L137.139 200.17L144.155 204.037L148.165 202.891L166.425 192.554L174.278 177.561L155.052 183.444Z" fill="#79818F"/>
</g>
<g opacity="0.1" filter="url(#filter2_f_77259_92135)">
<path d="M155.052 183.444L138.284 196.59L137.139 200.17L144.155 204.037L148.165 202.891L166.425 192.554L174.278 177.561L155.052 183.444Z" fill="#79818F"/>
</g>
<path opacity="0.3" d="M313.602 -10.7945C313.602 -13.5225 313.602 -14.8864 314.054 -15.6705C314.469 -16.3901 315.143 -16.7787 315.973 -16.7778C316.879 -16.7768 318.059 -16.094 320.421 -14.7284L418.154 41.7894C420.515 43.1551 421.696 43.8379 422.601 44.8838C423.432 45.8438 424.105 47.0114 424.521 48.2112C424.973 49.5183 424.973 50.8823 424.973 53.6102L424.973 133.804C424.973 136.532 424.973 137.896 424.521 138.68C424.105 139.4 423.432 139.788 422.601 139.788C421.696 139.787 420.515 139.104 418.154 137.738L320.421 81.2203C318.059 79.8547 316.879 79.1719 315.973 78.126C315.143 77.166 314.469 75.9984 314.054 74.7986C313.602 73.4914 313.602 72.1275 313.602 69.3995L313.602 -10.7945Z" stroke="url(#paint3_linear_77259_92135)" stroke-width="0.66" stroke-linecap="round" stroke-dasharray="3.96 3.96"/>
<path opacity="0.4" d="M298.109 -1.49765C298.109 -4.22559 298.109 -5.58956 298.562 -6.37361C298.977 -7.09326 299.65 -7.48185 300.481 -7.48095C301.386 -7.47997 302.567 -6.79715 304.929 -5.43152L402.661 51.0863C405.023 52.4519 406.204 53.1347 407.109 54.1806C407.94 55.1406 408.613 56.3083 409.028 57.5081C409.481 58.8152 409.481 60.1792 409.481 62.9071L409.481 143.101C409.481 145.829 409.481 147.193 409.028 147.977C408.613 148.697 407.94 149.085 407.109 149.084C406.204 149.083 405.023 148.401 402.661 147.035L304.929 90.5172C302.567 89.1516 301.386 88.4688 300.481 87.4229C299.65 86.4629 298.977 85.2952 298.562 84.0954C298.109 82.7883 298.109 81.4243 298.109 78.6964L298.109 -1.49765Z" stroke="url(#paint4_linear_77259_92135)" stroke-width="0.66" stroke-linecap="round" stroke-dasharray="3.96 3.96"/>
<path opacity="0.8" d="M282.156 7.49454C282.156 4.7666 282.156 3.40263 282.609 2.61858C283.024 1.89892 283.697 1.51034 284.528 1.51124C285.433 1.51222 286.614 2.19503 288.975 3.56066L386.708 60.0785C389.07 61.4441 390.251 62.1269 391.156 63.1728C391.986 64.1328 392.66 65.3005 393.075 66.5002C393.527 67.8074 393.527 69.1714 393.527 71.8993L393.527 152.093C393.527 154.821 393.527 156.185 393.075 156.969C392.66 157.689 391.986 158.078 391.156 158.077C390.251 158.076 389.07 157.393 386.708 156.027L288.975 99.5094C286.614 98.1438 285.433 97.461 284.528 96.4151C283.697 95.4551 283.024 94.2874 282.609 93.0876C282.156 91.7805 282.156 90.4165 282.156 87.6886L282.156 7.49454Z" stroke="url(#paint5_linear_77259_92135)" stroke-width="0.66" stroke-linecap="round" stroke-dasharray="3.96 3.96"/>
<path fill-rule="evenodd" clip-rule="evenodd" d="M324.306 131.719L354.746 149.284L325.369 165.482C323.527 166.498 320.616 166.479 318.813 165.439L290.881 149.319C289.976 148.797 289.525 148.123 289.507 147.449H289.5V145.899H290.294C290.601 145.634 290.997 145.394 291.479 145.196L324.306 131.719Z" fill="#D9D9D9"/>
<path fill-rule="evenodd" clip-rule="evenodd" d="M324.306 131.719L354.746 149.284L325.369 165.482C323.527 166.498 320.616 166.479 318.813 165.439L290.881 149.319C289.976 148.797 289.525 148.123 289.507 147.449H289.5V145.899H290.294C290.601 145.634 290.997 145.394 291.479 145.196L324.306 131.719Z" fill="url(#paint6_linear_77259_92135)"/>
<path d="M355.164 147.641L324.256 130.168L291.47 143.629C289.09 144.606 288.818 146.588 290.902 147.769L319.232 163.828C321.038 164.853 323.927 164.864 325.758 163.855L355.164 147.641Z" fill="#D9D9D9"/>
<path d="M355.164 147.641L324.256 130.168L291.47 143.629C289.09 144.606 288.818 146.588 290.902 147.769L319.232 163.828C321.038 164.853 323.927 164.864 325.758 163.855L355.164 147.641Z" fill="url(#paint7_linear_77259_92135)"/>
<path fill-rule="evenodd" clip-rule="evenodd" d="M269.005 8.37995V8.37051L265.695 10.2315V15.1666L267.55 14.1236C267.549 14.4816 267.549 14.8626 267.549 15.2685L267.549 94.1792C267.549 97.4967 267.549 99.1554 268.099 100.745C268.604 102.204 269.423 103.624 270.434 104.792C271.534 106.063 272.97 106.894 275.842 108.555L373.013 164.747L373.014 164.748C374.421 165.562 375.484 166.176 376.331 166.592V169.029L379.547 167.012C380.044 166.792 380.456 166.414 380.756 165.893C381.306 164.94 381.306 163.281 381.306 159.963L381.306 81.0527C381.306 77.7352 381.306 76.0765 380.756 74.4869C380.251 73.0278 379.432 71.6078 378.422 70.4404C377.321 69.1685 375.885 68.3381 373.013 66.6774L373.013 66.6773L373.013 66.6773L275.842 10.4845C272.97 8.82376 271.534 7.99338 270.434 7.99219C269.898 7.99161 269.415 8.1244 269.005 8.37995Z" fill="#D7DEE3"/>
<path fill-rule="evenodd" clip-rule="evenodd" d="M269.005 8.37995V8.37051L265.695 10.2315V15.1666L267.55 14.1236C267.549 14.4816 267.549 14.8626 267.549 15.2685L267.549 94.1792C267.549 97.4967 267.549 99.1554 268.099 100.745C268.604 102.204 269.423 103.624 270.434 104.792C271.534 106.063 272.97 106.894 275.842 108.555L373.013 164.747L373.014 164.748C374.421 165.562 375.484 166.176 376.331 166.592V169.029L379.547 167.012C380.044 166.792 380.456 166.414 380.756 165.893C381.306 164.94 381.306 163.281 381.306 159.963L381.306 81.0527C381.306 77.7352 381.306 76.0765 380.756 74.4869C380.251 73.0278 379.432 71.6078 378.422 70.4404C377.321 69.1685 375.885 68.3381 373.013 66.6774L373.013 66.6773L373.013 66.6773L275.842 10.4845C272.97 8.82376 271.534 7.99338 270.434 7.99219C269.898 7.99161 269.415 8.1244 269.005 8.37995Z" fill="url(#paint8_linear_77259_92135)"/>
<g filter="url(#filter3_d_77259_92135)">
<path d="M264.164 17.1657C264.164 13.8482 264.164 12.1895 264.714 11.236C265.219 10.3608 266.038 9.88821 267.048 9.88931C268.149 9.8905 269.585 10.7209 272.457 12.3816L369.628 68.5744C372.5 70.2352 373.936 71.0656 375.036 72.3375C376.047 73.5049 376.866 74.9249 377.371 76.384C377.921 77.9736 377.921 79.6324 377.921 82.9498L377.921 161.594C377.921 164.912 377.921 166.571 377.371 167.524C376.866 168.399 376.047 168.872 375.036 168.871C373.935 168.87 372.5 168.039 369.628 166.378L272.457 110.186C269.585 108.525 268.149 107.695 267.048 106.423C266.038 105.255 265.219 103.835 264.714 102.376C264.164 100.786 264.164 99.1277 264.164 95.8102L264.164 17.1657Z" fill="url(#paint9_linear_77259_92135)"/>
</g>
<path d="M266.016 15.3836C266.016 13.7249 266.016 12.8955 266.291 12.4188C266.543 11.9812 266.953 11.7449 267.458 11.7454C268.008 11.746 268.726 12.1612 270.162 12.9916L369.151 70.2358C371.544 71.6198 372.741 72.3117 373.658 73.3717C374.5 74.3445 375.183 75.5279 375.603 76.7438C376.062 78.0685 376.062 79.4507 376.062 82.2153L376.062 163.823C376.062 165.482 376.062 166.312 375.787 166.788C375.534 167.226 375.125 167.462 374.62 167.462C374.069 167.461 373.351 167.046 371.915 166.215L270.162 107.373C268.726 106.542 268.008 106.127 267.458 105.491C266.953 104.907 266.543 104.197 266.291 103.468C266.016 102.673 266.016 101.844 266.016 100.185L266.016 15.3836Z" fill="url(#paint10_linear_77259_92135)"/>
<path opacity="0.4" d="M266.008 16.7281C266.008 13.8879 266.008 12.4678 266.772 12.0266C267.536 11.5855 268.766 12.2955 271.226 13.7156L371.009 71.3254C373.468 72.7455 374.698 73.4556 375.462 74.7791C376.226 76.1026 376.226 77.5227 376.226 80.3629L376.226 144.962C376.226 147.803 376.226 149.223 375.462 149.664C374.698 150.105 373.468 149.395 371.009 147.975L271.226 90.3652C268.766 88.9451 267.536 88.235 266.772 86.9115C266.008 85.588 266.008 84.1679 266.008 81.3277L266.008 16.7281Z" fill="url(#paint11_linear_77259_92135)"/>
<path d="M264.18 85.9297L377.936 151.714L377.936 162.914C377.936 165.783 377.936 167.218 377.461 168.042C377.024 168.799 376.316 169.208 375.442 169.207C374.49 169.206 373.248 168.488 370.765 167.051L271.351 109.562C268.868 108.125 267.626 107.407 266.674 106.307C265.8 105.298 265.092 104.07 264.655 102.808C264.18 101.433 264.18 99.999 264.18 97.1301L264.18 85.9297Z" fill="url(#paint12_linear_77259_92135)"/>
<g clip-path="url(#clip2_77259_92135)">
<g opacity="0.2" filter="url(#filter4_f_77259_92135)">
<path d="M228.733 181.462L154.486 138.602C153.404 137.976 153.546 136.884 154.79 136.157L202.434 108.648C203.079 108.298 203.798 108.103 204.532 108.08C205.266 108.058 205.995 108.207 206.66 108.516L280.938 151.376C282.02 152.003 281.888 153.094 280.635 153.812L232.96 181.28C232.319 181.638 231.602 181.841 230.868 181.873C230.134 181.905 229.403 181.764 228.733 181.462Z" fill="#A1A6B3"/>
</g>
<path d="M279.779 138.668L206.735 96.5253C206.071 96.2245 205.346 96.0835 204.617 96.1133C203.888 96.1431 203.177 96.3431 202.539 96.6971L155.32 123.983L153.742 123.347L154.187 125.55C154.233 125.741 154.32 125.919 154.442 126.073C154.565 126.227 154.719 126.352 154.895 126.439L228.707 168.996C229.372 169.297 230.097 169.438 230.826 169.408C231.554 169.378 232.266 169.178 232.903 168.824L280.234 141.538C280.477 141.426 280.693 141.263 280.867 141.061C281.041 140.859 281.171 140.622 281.246 140.365L281.69 138.213L279.779 138.668Z" fill="url(#paint13_linear_77259_92135)"/>
<path d="M279.779 138.668L206.735 96.5253C206.071 96.2245 205.346 96.0835 204.617 96.1133C203.888 96.1431 203.177 96.3431 202.539 96.6971L155.32 123.983L153.742 123.347L154.187 125.55C154.233 125.741 154.32 125.919 154.442 126.073C154.565 126.227 154.719 126.352 154.895 126.439L228.707 168.996C229.372 169.297 230.097 169.438 230.826 169.408C231.554 169.378 232.266 169.178 232.903 168.824L280.234 141.538C280.477 141.426 280.693 141.263 280.867 141.061C281.041 140.859 281.171 140.622 281.246 140.365L281.69 138.213L279.779 138.668Z" fill="url(#paint14_linear_77259_92135)"/>
<path d="M228.733 167.056L154.486 124.196C153.404 123.569 153.546 122.478 154.79 121.75L202.434 94.2415C203.079 93.8913 203.798 93.697 204.532 93.6741C205.266 93.6513 205.995 93.8007 206.66 94.1101L280.938 136.97C282.02 137.597 281.888 138.688 280.635 139.406L232.96 166.874C232.319 167.232 231.602 167.435 230.868 167.467C230.134 167.498 229.403 167.358 228.733 167.056Z" fill="url(#paint15_linear_77259_92135)"/>
<path d="M228.733 167.056L154.486 124.196C153.404 123.569 153.546 122.478 154.79 121.75L202.434 94.2415C203.079 93.8913 203.798 93.697 204.532 93.6741C205.266 93.6513 205.995 93.8007 206.66 94.1101L280.938 136.97C282.02 137.597 281.888 138.688 280.635 139.406L232.96 166.874C232.319 167.232 231.602 167.435 230.868 167.467C230.134 167.498 229.403 167.358 228.733 167.056Z" fill="url(#paint16_linear_77259_92135)"/>
<path d="M154.481 122.947L228.758 165.807C229.427 166.113 230.158 166.256 230.892 166.226C231.626 166.197 232.343 165.994 232.985 165.635L280.659 138.126C280.987 137.948 281.267 137.695 281.478 137.389C281.923 138.005 281.65 138.803 280.659 139.41L232.954 166.878C232.312 167.235 231.595 167.436 230.862 167.466C230.128 167.496 229.397 167.353 228.728 167.05L154.481 124.2C154.321 124.137 154.178 124.038 154.062 123.912C153.946 123.785 153.861 123.634 153.812 123.469C153.763 123.305 153.753 123.131 153.781 122.962C153.809 122.793 153.876 122.632 153.975 122.492C154.109 122.679 154.281 122.834 154.481 122.947Z" fill="url(#paint17_linear_77259_92135)"/>
<path fill-rule="evenodd" clip-rule="evenodd" d="M207.91 35.4921C207.842 35.9007 207.842 36.4949 207.842 37.3926L207.842 86.8124C207.842 88.14 207.842 88.8038 208.062 89.44C208.264 90.0239 208.592 90.5921 208.996 91.0593C209.437 91.5683 210.011 91.9007 211.161 92.5653L281.689 133.351L281.807 133.419L279.981 135.727L282.256 137.038C282.256 137.038 282.672 136.805 283.58 135.637C284.488 134.468 284.811 133.782 284.811 133.782L284.804 133.779C285.007 133.393 285.007 132.729 285.007 131.436L285.007 82.0166C285.007 80.689 285.007 80.0252 284.787 79.389C284.585 78.8051 284.258 78.2369 283.853 77.7697C283.413 77.2607 282.838 76.9284 281.689 76.2637L211.161 35.4781C210.053 34.8378 209.48 34.506 209.045 34.482C208.951 34.4732 208.508 34.4371 207.531 34.4302C206.418 34.4224 206.031 34.4996 206.031 34.4996L207.91 35.4921Z" fill="url(#paint18_linear_77259_92135)"/>
<path d="M205.086 37.3962C205.086 36.0686 205.086 35.4048 205.306 35.0232C205.508 34.673 205.836 34.4838 206.24 34.4843C206.681 34.4848 207.255 34.8171 208.405 35.4817L279.47 76.5778C280.619 77.2425 281.194 77.5748 281.634 78.0838C282.039 78.551 282.366 79.1192 282.568 79.7031C282.788 80.3393 282.788 81.0031 282.788 82.3307L282.788 134.311C282.788 135.639 282.788 136.303 282.568 136.684C282.366 137.035 282.039 137.224 281.634 137.223C281.194 137.223 280.619 136.89 279.47 136.226L208.405 95.1297C207.255 94.465 206.681 94.1327 206.24 93.6237C205.836 93.1565 205.508 92.5883 205.306 92.0044C205.086 91.3682 205.086 90.7044 205.086 89.3768L205.086 37.3962Z" fill="url(#paint19_linear_77259_92135)"/>
<path d="M207.32 41.8962C207.32 40.5686 207.32 39.9048 207.54 39.5232C207.742 39.173 208.07 38.9838 208.475 38.9843C208.915 38.9848 209.49 39.3171 210.639 39.9817L277.233 78.4925C278.383 79.1571 278.957 79.4894 279.398 79.9985C279.802 80.4657 280.13 81.0339 280.332 81.6178C280.552 82.254 280.552 82.9178 280.552 84.2454L280.552 129.81C280.552 131.138 280.552 131.802 280.332 132.183C280.13 132.534 279.802 132.723 279.398 132.722C278.957 132.722 278.383 132.39 277.233 131.725L210.639 93.2141C209.49 92.5494 208.915 92.2171 208.475 91.7081C208.07 91.2409 207.742 90.6727 207.54 90.0888C207.32 89.4526 207.32 88.7888 207.32 87.4612L207.32 41.8962Z" fill="url(#paint20_linear_77259_92135)"/>
<path opacity="0.2" d="M199.727 31.1113C199.727 28.8381 199.727 27.7015 200.338 27.3484C200.95 26.9953 201.934 27.5636 203.903 28.7002L283.767 74.8099C285.736 75.9465 286.72 76.5148 287.332 77.5741C287.943 78.6334 287.943 79.77 287.943 82.0433L287.943 133.747C287.943 136.021 287.943 137.157 287.332 137.51C286.72 137.863 285.736 137.295 283.767 136.159L203.903 90.0489C201.934 88.9123 200.95 88.344 200.338 87.2846C199.727 86.2253 199.727 85.0887 199.727 82.8155L199.727 31.1113Z" fill="url(#paint21_linear_77259_92135)"/>
<path fill-rule="evenodd" clip-rule="evenodd" d="M210.933 105.442L208.476 104.027C208.284 103.906 208.304 103.714 208.537 103.583L209.336 103.118C209.454 103.056 209.586 103.023 209.72 103.023C209.854 103.023 209.985 103.056 210.104 103.118L212.561 104.533C212.763 104.644 212.733 104.846 212.561 104.977L211.752 105.442C211.626 105.51 211.486 105.546 211.343 105.546C211.2 105.546 211.059 105.51 210.933 105.442ZM204.593 106.241L207.071 107.686C207.187 107.739 207.313 107.766 207.441 107.764C207.568 107.762 207.694 107.732 207.809 107.676L210.245 106.271C210.478 106.139 210.498 105.947 210.296 105.826L207.849 104.411C207.728 104.352 207.595 104.321 207.46 104.321C207.325 104.321 207.192 104.352 207.071 104.411L204.654 105.796C204.421 105.927 204.401 106.129 204.593 106.241ZM200.63 108.262L204.927 110.718C205.049 110.773 205.182 110.798 205.315 110.793C205.448 110.788 205.579 110.752 205.696 110.687L208.132 109.333C208.355 109.202 208.385 109 208.183 108.888L203.896 106.412C203.775 106.35 203.642 106.318 203.507 106.318C203.371 106.318 203.238 106.35 203.117 106.412L200.691 107.817C200.458 107.948 200.438 108.141 200.63 108.262ZM202.227 113.426L196.939 110.394C196.747 110.273 196.767 110.081 197 109.95L199.426 108.545C199.546 108.486 199.677 108.455 199.811 108.455C199.944 108.455 200.075 108.486 200.195 108.545L205.493 111.577C205.685 111.688 205.665 111.88 205.433 112.011L203.026 113.386C202.906 113.457 202.771 113.497 202.632 113.504C202.492 113.511 202.354 113.484 202.227 113.426ZM203.602 114.234L206.059 115.649C206.178 115.711 206.309 115.743 206.443 115.745C206.576 115.747 206.708 115.717 206.828 115.659L209.265 114.255C209.437 114.123 209.457 113.921 209.265 113.81L206.808 112.385C206.688 112.325 206.557 112.294 206.423 112.294C206.29 112.294 206.159 112.325 206.039 112.385L203.602 113.79C203.431 113.921 203.4 114.113 203.602 114.234ZM191.509 116.347L189.052 114.932C188.86 114.81 188.88 114.618 189.113 114.487L192.015 112.809C192.134 112.75 192.266 112.719 192.399 112.719C192.532 112.719 192.664 112.75 192.783 112.809L195.24 114.224C195.432 114.336 195.412 114.538 195.18 114.669L192.288 116.347C192.167 116.406 192.034 116.437 191.899 116.437C191.764 116.437 191.63 116.406 191.509 116.347ZM195.311 118.519L192.854 117.105C192.652 116.993 192.682 116.791 192.905 116.66L195.807 114.992C195.925 114.93 196.057 114.898 196.191 114.898C196.325 114.898 196.457 114.93 196.575 114.992L199.032 116.347C199.224 116.458 199.204 116.66 198.972 116.791L196.08 118.459C195.966 118.53 195.837 118.573 195.703 118.584C195.569 118.594 195.435 118.572 195.311 118.519ZM196.646 119.298L199.103 120.712C199.229 120.781 199.37 120.816 199.513 120.816C199.656 120.816 199.796 120.781 199.922 120.712L202.824 119.035C202.996 118.903 203.026 118.711 202.824 118.59L200.367 117.175C200.248 117.116 200.116 117.085 199.983 117.085C199.849 117.085 199.718 117.116 199.599 117.175L196.697 118.853C196.474 118.984 196.444 119.186 196.646 119.298ZM204.351 118.903L201.894 117.489C201.692 117.377 201.722 117.175 201.894 117.044L204.331 115.639C204.45 115.58 204.581 115.549 204.715 115.549C204.848 115.549 204.98 115.58 205.099 115.639L207.556 117.054C207.748 117.165 207.728 117.367 207.506 117.499L205.119 118.873C205.002 118.938 204.872 118.974 204.739 118.979C204.605 118.984 204.472 118.958 204.351 118.903ZM205.685 119.682L208.142 121.096C208.254 121.15 208.376 121.178 208.5 121.18C208.624 121.182 208.747 121.157 208.86 121.107L211.297 119.702C211.52 119.57 211.55 119.368 211.348 119.257L208.891 117.832C208.771 117.773 208.64 117.743 208.506 117.743C208.373 117.743 208.242 117.773 208.122 117.832L205.685 119.237C205.513 119.368 205.483 119.56 205.685 119.682ZM211.934 123.279L209.477 121.865C209.285 121.753 209.305 121.551 209.538 121.42L211.964 120.015C212.084 119.956 212.215 119.925 212.349 119.925C212.482 119.925 212.614 119.956 212.733 120.015L215.16 121.4C215.362 121.521 215.332 121.713 215.109 121.844L212.672 123.249C212.56 123.311 212.435 123.346 212.307 123.351C212.179 123.356 212.051 123.332 211.934 123.279ZM213.269 124.027L215.726 125.442C215.845 125.502 215.977 125.533 216.11 125.533C216.244 125.533 216.375 125.502 216.494 125.442L218.931 124.037C219.164 123.906 219.184 123.704 218.992 123.593L216.535 122.178C216.414 122.116 216.281 122.083 216.146 122.083C216.01 122.083 215.877 122.116 215.756 122.178L213.33 123.583C213.097 123.714 213.077 123.916 213.269 124.027ZM219.518 127.665L217.06 126.24C216.868 126.129 216.889 125.927 217.121 125.796L219.558 124.431C219.677 124.372 219.809 124.341 219.942 124.341C220.076 124.341 220.207 124.372 220.326 124.431L222.783 125.856C222.976 125.968 222.955 126.17 222.723 126.301L220.296 127.706C220.172 127.759 220.037 127.784 219.902 127.777C219.767 127.77 219.635 127.732 219.518 127.665ZM220.862 128.474L223.32 129.848C223.428 129.909 223.55 129.943 223.674 129.95C223.798 129.957 223.922 129.936 224.037 129.889L226.464 128.484C226.697 128.353 226.717 128.151 226.525 128.039L224.068 126.625C223.948 126.565 223.817 126.534 223.684 126.534C223.55 126.534 223.419 126.565 223.299 126.625L220.862 128.029C220.691 128.161 220.66 128.363 220.862 128.474ZM227.111 132.041L224.654 130.627C224.452 130.505 224.482 130.313 224.654 130.182L227.091 128.777C227.21 128.715 227.342 128.683 227.475 128.683C227.609 128.683 227.741 128.715 227.86 128.777L230.327 130.162C230.529 130.273 230.499 130.475 230.276 130.606L227.88 132.011C227.763 132.075 227.633 132.112 227.499 132.117C227.366 132.122 227.233 132.096 227.111 132.041ZM228.446 132.809L230.903 134.224C231.015 134.278 231.138 134.306 231.262 134.306C231.386 134.306 231.509 134.278 231.621 134.224L234.058 132.82C234.28 132.688 234.311 132.496 234.108 132.375L231.651 130.96C231.532 130.9 231.401 130.869 231.267 130.869C231.134 130.869 231.002 130.9 230.883 130.96L228.446 132.365C228.274 132.496 228.254 132.698 228.446 132.809ZM234.695 136.417L232.238 135.002C232.045 134.891 232.066 134.689 232.298 134.558L234.725 133.153C234.844 133.093 234.976 133.062 235.109 133.062C235.243 133.062 235.374 133.093 235.493 133.153L237.95 134.538C238.153 134.649 238.132 134.851 237.9 134.982L235.463 136.387C235.346 136.451 235.216 136.488 235.082 136.493C234.949 136.498 234.816 136.472 234.695 136.417ZM236.029 137.155L238.486 138.58C238.606 138.64 238.737 138.671 238.871 138.671C239.004 138.671 239.136 138.64 239.255 138.58L241.692 137.185C241.924 137.054 241.945 136.852 241.752 136.741L239.295 135.316C239.176 135.256 239.045 135.225 238.911 135.225C238.778 135.225 238.646 135.256 238.527 135.316L236.09 136.721C235.858 136.852 235.837 137.044 236.029 137.155ZM209.932 117.873L207.485 116.448C207.283 116.337 207.303 116.134 207.536 116.003L209.973 114.598C210.092 114.539 210.224 114.508 210.357 114.508C210.49 114.508 210.622 114.539 210.741 114.598L213.198 116.023C213.39 116.134 213.37 116.337 213.138 116.468L210.711 117.873C210.59 117.932 210.457 117.963 210.322 117.963C210.187 117.963 210.053 117.932 209.932 117.873ZM213.734 120.056L211.277 118.641C211.075 118.53 211.105 118.327 211.328 118.196L213.764 116.791C213.884 116.732 214.015 116.701 214.149 116.701C214.282 116.701 214.414 116.732 214.533 116.791L216.99 118.206C217.182 118.317 217.162 118.519 216.929 118.651L214.503 120.056C214.384 120.118 214.252 120.15 214.118 120.15C213.984 120.15 213.853 120.118 213.734 120.056ZM215.069 120.834L217.526 122.249C217.647 122.304 217.78 122.329 217.913 122.324C218.047 122.319 218.177 122.283 218.294 122.218L220.781 120.834C220.953 120.702 220.984 120.5 220.781 120.389L218.324 118.984C218.206 118.922 218.074 118.89 217.94 118.89C217.806 118.89 217.675 118.922 217.556 118.984L215.119 120.389C214.897 120.52 214.866 120.712 215.069 120.834ZM221.317 124.432L218.86 123.017C218.668 122.906 218.688 122.703 218.921 122.572L221.348 121.167C221.467 121.108 221.599 121.077 221.732 121.077C221.865 121.077 221.997 121.108 222.116 121.167L224.573 122.582C224.775 122.703 224.745 122.895 224.573 123.027L222.086 124.432C221.967 124.494 221.835 124.526 221.702 124.526C221.568 124.526 221.436 124.494 221.317 124.432ZM222.652 125.21L225.109 126.625C225.231 126.679 225.364 126.705 225.497 126.7C225.63 126.695 225.761 126.659 225.878 126.594L228.315 125.22C228.547 125.088 228.567 124.886 228.375 124.775L225.918 123.36C225.797 123.301 225.664 123.269 225.529 123.269C225.394 123.269 225.261 123.301 225.14 123.36L222.713 124.765C222.48 124.896 222.46 125.099 222.652 125.21ZM228.901 128.818L226.444 127.393C226.252 127.281 226.272 127.089 226.504 126.958L228.941 125.553C229.061 125.494 229.192 125.463 229.325 125.463C229.459 125.463 229.59 125.494 229.71 125.553L232.167 126.978C232.359 127.089 232.339 127.292 232.106 127.423L229.679 128.828C229.558 128.886 229.424 128.915 229.289 128.913C229.154 128.912 229.021 128.879 228.901 128.818ZM230.246 129.586L232.703 131C232.815 131.054 232.937 131.082 233.062 131.082C233.186 131.082 233.309 131.054 233.421 131L235.847 129.596C236.08 129.464 236.1 129.272 235.908 129.151L233.451 127.736C233.332 127.677 233.2 127.646 233.067 127.646C232.933 127.646 232.802 127.677 232.683 127.736L230.246 129.141C230.074 129.272 230.044 129.474 230.246 129.586ZM236.495 133.193L234.038 131.779C233.835 131.657 233.866 131.465 234.038 131.334L236.474 129.929C236.593 129.867 236.725 129.835 236.859 129.835C236.992 129.835 237.124 129.867 237.243 129.929L239.7 131.344C239.902 131.455 239.872 131.657 239.7 131.789L237.263 133.193C237.144 133.253 237.012 133.284 236.879 133.284C236.745 133.284 236.614 133.253 236.495 133.193ZM237.829 133.962L240.286 135.386C240.409 135.44 240.542 135.464 240.675 135.457C240.809 135.45 240.938 135.412 241.055 135.346L243.542 133.972C243.714 133.84 243.744 133.648 243.542 133.527L241.034 132.112C240.915 132.053 240.784 132.022 240.65 132.022C240.517 132.022 240.385 132.053 240.266 132.112L237.829 133.517C237.657 133.648 237.637 133.85 237.829 133.962ZM244.078 137.569L241.621 136.155C241.429 136.043 241.449 135.841 241.682 135.71L244.108 134.305C244.228 134.246 244.359 134.215 244.492 134.215C244.626 134.215 244.757 134.246 244.877 134.305L247.334 135.72C247.536 135.831 247.506 136.033 247.334 136.165L244.846 137.569C244.727 137.629 244.596 137.66 244.462 137.66C244.329 137.66 244.197 137.629 244.078 137.569ZM245.494 138.368L250.822 141.46C250.939 141.513 251.067 141.537 251.195 141.532C251.323 141.527 251.448 141.492 251.56 141.43L254.108 140.055C254.28 139.924 254.311 139.722 254.108 139.611L248.749 136.518C248.63 136.459 248.499 136.428 248.365 136.428C248.232 136.428 248.1 136.459 247.981 136.518L245.554 137.923C245.322 138.054 245.302 138.257 245.494 138.368ZM258.213 137.206L253.684 134.588C253.491 134.477 253.512 134.275 253.744 134.143L256.171 132.739C256.29 132.679 256.422 132.648 256.555 132.648C256.689 132.648 256.82 132.679 256.939 132.739L261.469 135.346C261.661 135.467 261.641 135.659 261.409 135.791L258.982 137.195C258.863 137.256 258.732 137.288 258.599 137.29C258.466 137.292 258.334 137.263 258.213 137.206ZM217.92 118.216L220.377 119.631C220.511 119.705 220.662 119.743 220.815 119.739C220.968 119.736 221.117 119.691 221.247 119.611L223.684 118.206C223.855 118.075 223.876 117.873 223.684 117.762L221.227 116.347C221.102 116.276 220.961 116.239 220.817 116.239C220.673 116.239 220.532 116.276 220.408 116.347L217.971 117.772C217.748 117.903 217.718 118.095 217.92 118.216ZM216.484 117.357L214.027 115.942C213.835 115.821 213.855 115.629 214.088 115.498L216.515 114.093C216.635 114.031 216.768 113.999 216.904 113.999C217.039 113.999 217.173 114.031 217.293 114.093L219.74 115.508C219.942 115.619 219.922 115.821 219.74 115.953L217.253 117.357C217.133 117.417 217.002 117.448 216.868 117.448C216.735 117.448 216.604 117.417 216.484 117.357ZM210.104 113.729L212.602 115.144C212.719 115.207 212.85 115.241 212.983 115.245C213.117 115.248 213.249 115.221 213.37 115.164L215.797 113.759C216.029 113.628 216.05 113.426 215.857 113.315L213.36 111.88C213.241 111.818 213.11 111.785 212.976 111.785C212.842 111.785 212.71 111.818 212.592 111.88L210.155 113.285C209.932 113.416 209.902 113.608 210.104 113.729ZM208.709 112.9L206.252 111.486C206.059 111.364 206.08 111.172 206.312 111.041L208.739 109.636C208.857 109.574 208.989 109.542 209.123 109.542C209.257 109.542 209.389 109.574 209.507 109.636L211.964 111.051C212.167 111.162 212.136 111.364 211.914 111.496L209.477 112.9C209.358 112.96 209.226 112.991 209.093 112.991C208.959 112.991 208.828 112.96 208.709 112.9ZM221.712 120.389L224.169 121.814C224.288 121.874 224.42 121.905 224.554 121.903C224.688 121.902 224.819 121.867 224.937 121.804L227.374 120.399C227.546 120.268 227.576 120.076 227.374 119.955L224.917 118.54C224.798 118.48 224.666 118.449 224.533 118.449C224.399 118.449 224.268 118.48 224.149 118.54L221.712 119.944C221.54 120.076 221.51 120.278 221.712 120.389ZM227.961 124.007L225.504 122.592C225.311 122.481 225.332 122.279 225.564 122.148L227.991 120.743C228.11 120.683 228.242 120.652 228.375 120.652C228.508 120.652 228.64 120.683 228.759 120.743L231.216 122.158C231.419 122.269 231.388 122.471 231.216 122.602L228.78 124.007C228.654 124.075 228.513 124.111 228.37 124.111C228.227 124.111 228.086 124.075 227.961 124.007ZM229.315 124.775L231.752 126.2C231.873 126.265 232.008 126.299 232.145 126.301C232.283 126.303 232.418 126.272 232.541 126.21L234.978 124.805C235.21 124.674 235.231 124.472 235.038 124.361L232.581 122.936C232.46 122.877 232.327 122.846 232.192 122.846C232.057 122.846 231.924 122.877 231.803 122.936L229.376 124.341C229.144 124.472 229.123 124.664 229.315 124.775ZM235.544 128.383L233.087 126.968C232.895 126.857 232.915 126.655 233.148 126.523L235.584 125.119C235.704 125.059 235.835 125.028 235.969 125.028C236.102 125.028 236.234 125.059 236.353 125.119L238.81 126.534C239.002 126.655 238.982 126.847 238.749 126.978L236.322 128.383C236.202 128.445 236.069 128.477 235.933 128.477C235.798 128.477 235.664 128.445 235.544 128.383ZM236.889 129.161L239.346 130.576C239.472 130.644 239.612 130.68 239.755 130.68C239.898 130.68 240.039 130.644 240.165 130.576L242.592 129.171C242.824 129.04 242.844 128.838 242.652 128.727L240.195 127.312C240.077 127.25 239.945 127.217 239.811 127.217C239.677 127.217 239.545 127.25 239.427 127.312L236.939 128.716C236.717 128.848 236.687 129.04 236.889 129.161ZM243.138 132.769L240.681 131.344C240.478 131.233 240.509 131.031 240.731 130.899L243.168 129.485C243.287 129.425 243.419 129.394 243.552 129.394C243.686 129.394 243.817 129.425 243.936 129.485L246.394 130.899C246.596 131.021 246.565 131.213 246.394 131.344L243.957 132.749C243.832 132.819 243.693 132.858 243.55 132.861C243.407 132.865 243.265 132.833 243.138 132.769ZM244.483 133.527L246.929 134.952C247.057 135.02 247.2 135.055 247.345 135.053C247.49 135.052 247.632 135.013 247.759 134.942L250.195 133.537C250.367 133.406 250.398 133.204 250.195 133.092L247.738 131.678C247.619 131.618 247.488 131.587 247.354 131.587C247.221 131.587 247.089 131.618 246.97 131.678L244.543 133.082C244.311 133.214 244.29 133.416 244.483 133.527ZM250.721 137.145L248.264 135.73C248.072 135.609 248.092 135.417 248.325 135.285L250.751 133.881C250.873 133.822 251.006 133.791 251.141 133.791C251.276 133.791 251.409 133.822 251.53 133.881L253.977 135.306C254.179 135.417 254.159 135.619 253.977 135.75L251.54 137.155C251.413 137.222 251.272 137.256 251.129 137.254C250.986 137.252 250.846 137.215 250.721 137.145ZM252.056 137.913L254.513 139.328C254.631 139.39 254.763 139.422 254.897 139.422C255.031 139.422 255.163 139.39 255.281 139.328L257.718 137.923C257.951 137.792 257.971 137.6 257.779 137.478L255.322 136.064C255.202 136.004 255.071 135.973 254.938 135.973C254.804 135.973 254.673 136.004 254.553 136.064L252.117 137.468C251.884 137.6 251.864 137.802 252.056 137.913ZM218.375 114.214L215.918 112.799C215.726 112.688 215.746 112.486 215.979 112.355L218.405 110.95C218.525 110.89 218.656 110.859 218.79 110.859C218.923 110.859 219.055 110.89 219.174 110.95L221.631 112.304C221.833 112.415 221.803 112.617 221.58 112.749L219.144 114.154C219.029 114.223 218.9 114.264 218.767 114.275C218.633 114.285 218.499 114.265 218.375 114.214ZM212.126 110.616L214.604 112.041C214.726 112.094 214.859 112.118 214.993 112.111C215.126 112.104 215.256 112.066 215.372 112.001L217.738 110.627C217.961 110.495 217.991 110.303 217.789 110.192L215.332 108.767C215.212 108.707 215.081 108.676 214.947 108.676C214.814 108.676 214.682 108.707 214.563 108.767L212.126 110.172C211.954 110.303 211.924 110.505 212.126 110.616ZM210.832 109.859L208.375 108.444C208.173 108.333 208.203 108.13 208.426 107.999L210.862 106.594C210.981 106.532 211.113 106.5 211.247 106.5C211.38 106.5 211.512 106.532 211.631 106.594L214.088 108.009C214.28 108.12 214.26 108.322 214.027 108.454L211.601 109.859C211.481 109.918 211.35 109.949 211.216 109.949C211.083 109.949 210.951 109.918 210.832 109.859ZM213.4 106.847L215.857 108.262C215.983 108.33 216.124 108.366 216.267 108.366C216.41 108.366 216.551 108.33 216.676 108.262L217.485 107.797C217.657 107.666 217.687 107.463 217.485 107.352L215.028 105.937C214.909 105.878 214.777 105.847 214.644 105.847C214.511 105.847 214.379 105.878 214.26 105.937L213.461 106.402C213.228 106.534 213.208 106.736 213.4 106.847ZM219.619 110.455L217.182 109.04C216.99 108.919 217.01 108.727 217.243 108.595L218.041 108.13C218.161 108.072 218.292 108.041 218.426 108.041C218.559 108.041 218.69 108.072 218.81 108.13L221.226 109.515C221.429 109.626 221.398 109.828 221.226 109.96L220.418 110.424C220.297 110.494 220.161 110.533 220.022 110.538C219.883 110.543 219.744 110.515 219.619 110.455ZM220.923 111.203L223.38 112.617C223.492 112.671 223.615 112.699 223.739 112.699C223.863 112.699 223.986 112.671 224.098 112.617L224.897 112.153C225.13 112.021 225.15 111.829 224.958 111.708L222.501 110.293C222.381 110.234 222.25 110.202 222.116 110.202C221.983 110.202 221.851 110.234 221.732 110.293L220.923 110.758C220.751 110.889 220.721 111.091 220.923 111.203ZM227.142 114.79L224.685 113.375C224.482 113.264 224.513 113.062 224.685 112.931L225.493 112.466C225.612 112.404 225.744 112.372 225.878 112.372C226.011 112.372 226.143 112.404 226.262 112.466L228.719 113.881C228.911 113.992 228.891 114.194 228.658 114.325L227.859 114.79C227.747 114.842 227.624 114.869 227.501 114.869C227.377 114.869 227.254 114.842 227.142 114.79ZM245.665 125.442L248.123 126.897C248.251 126.962 248.394 126.993 248.537 126.985C248.681 126.978 248.82 126.934 248.942 126.857L249.75 126.392C249.922 126.261 249.953 126.069 249.75 125.947L247.293 124.533C247.174 124.473 247.043 124.442 246.909 124.442C246.776 124.442 246.644 124.473 246.525 124.533L245.726 124.997C245.494 125.129 245.473 125.331 245.665 125.442ZM251.884 129.07L249.427 127.655C249.225 127.534 249.255 127.342 249.427 127.211L250.236 126.746C250.354 126.684 250.486 126.651 250.62 126.651C250.754 126.651 250.886 126.684 251.004 126.746L253.461 128.161C253.653 128.272 253.633 128.474 253.401 128.605L252.602 129.07C252.489 129.122 252.367 129.149 252.243 129.149C252.119 129.149 251.997 129.122 251.884 129.07ZM253.148 129.818L255.605 131.243C255.718 131.293 255.841 131.317 255.965 131.315C256.089 131.314 256.211 131.286 256.323 131.233L257.122 130.778C257.354 130.647 257.374 130.445 257.182 130.333L254.725 128.909C254.606 128.849 254.474 128.818 254.341 128.818C254.208 128.818 254.076 128.849 253.957 128.909L253.148 129.373C252.976 129.505 252.946 129.707 253.148 129.818ZM259.397 133.406L256.94 131.991C256.748 131.88 256.768 131.678 257 131.546L257.799 131.081C257.92 131.022 258.053 130.991 258.188 130.991C258.323 130.991 258.457 131.022 258.578 131.081L261.025 132.496C261.227 132.607 261.207 132.809 261.025 132.941L260.216 133.406C260.091 133.477 259.95 133.514 259.806 133.514C259.663 133.514 259.522 133.477 259.397 133.406ZM219.71 114.982L222.167 116.407C222.291 116.458 222.425 116.478 222.558 116.468C222.692 116.457 222.821 116.416 222.935 116.347L225.402 115.013C225.635 114.881 225.655 114.679 225.463 114.568L223.006 113.143C222.887 113.083 222.755 113.052 222.622 113.052C222.488 113.052 222.357 113.083 222.237 113.143L219.77 114.548C219.538 114.679 219.518 114.871 219.71 114.982ZM225.969 118.59L223.512 117.175C223.309 117.064 223.34 116.862 223.512 116.731L225.999 115.336C226.118 115.276 226.25 115.245 226.383 115.245C226.517 115.245 226.648 115.276 226.767 115.336L229.225 116.751C229.417 116.872 229.396 117.064 229.164 117.196L226.737 118.6C226.618 118.661 226.486 118.691 226.352 118.69C226.218 118.688 226.086 118.654 225.969 118.59ZM227.293 119.378L229.76 120.783C229.882 120.838 230.015 120.864 230.148 120.859C230.281 120.854 230.412 120.817 230.529 120.753L232.955 119.389C233.127 119.257 233.148 119.055 232.955 118.944L230.498 117.529C230.38 117.467 230.248 117.435 230.114 117.435C229.98 117.435 229.849 117.467 229.73 117.529L227.293 118.934C227.121 119.065 227.091 119.257 227.293 119.378ZM233.552 122.976L231.095 121.551C230.893 121.44 230.923 121.238 231.095 121.107L233.532 119.702C233.651 119.642 233.783 119.611 233.916 119.611C234.049 119.611 234.181 119.642 234.3 119.702L236.757 121.117C236.96 121.238 236.929 121.43 236.757 121.561L234.371 122.936C234.248 123.009 234.11 123.052 233.967 123.059C233.824 123.066 233.681 123.037 233.552 122.976ZM234.887 123.744L237.344 125.159C237.465 125.214 237.598 125.24 237.732 125.235C237.865 125.229 237.995 125.193 238.112 125.129L240.63 123.754C240.802 123.623 240.832 123.421 240.63 123.31L238.173 121.895C238.054 121.835 237.922 121.804 237.789 121.804C237.655 121.804 237.524 121.835 237.404 121.895L234.947 123.3C234.715 123.431 234.695 123.633 234.887 123.744ZM241.136 127.352L238.679 125.937C238.487 125.816 238.507 125.624 238.739 125.493L241.166 124.088C241.287 124.029 241.42 123.998 241.555 123.998C241.69 123.998 241.823 124.029 241.945 124.088L244.402 125.442C244.594 125.553 244.574 125.755 244.341 125.887L241.904 127.292C241.79 127.361 241.66 127.402 241.527 127.413C241.394 127.423 241.26 127.403 241.136 127.352ZM242.46 128.12L244.927 129.535C245.052 129.589 245.187 129.613 245.323 129.604C245.458 129.596 245.59 129.555 245.706 129.485L248.122 128.13C248.355 127.999 248.375 127.807 248.183 127.686L245.726 126.271C245.607 126.211 245.475 126.18 245.342 126.18C245.208 126.18 245.077 126.211 244.958 126.271L242.521 127.676C242.288 127.807 242.268 128.009 242.46 128.12ZM248.729 131.728L246.272 130.313C246.07 130.192 246.1 130 246.272 129.869L248.76 128.474C248.879 128.41 249.013 128.377 249.149 128.377C249.285 128.377 249.418 128.41 249.538 128.474L251.995 129.889C252.187 130 252.167 130.202 251.935 130.333L249.538 131.698C249.416 131.769 249.279 131.809 249.137 131.814C248.996 131.819 248.856 131.79 248.729 131.728ZM250.064 132.516L252.572 133.921C252.695 133.982 252.83 134.012 252.967 134.011C253.104 134.009 253.239 133.975 253.36 133.911L255.797 132.506C255.969 132.375 255.999 132.183 255.797 132.072L253.34 130.647C253.221 130.587 253.089 130.556 252.956 130.556C252.822 130.556 252.691 130.587 252.572 130.647L250.064 132.072C249.892 132.203 249.862 132.405 250.064 132.516ZM200.478 116.67L193.249 112.496C193.046 112.385 193.077 112.183 193.299 112.052L195.736 110.647C195.855 110.587 195.987 110.556 196.12 110.556C196.254 110.556 196.385 110.587 196.504 110.647L203.744 114.821C203.936 114.942 203.916 115.134 203.683 115.265L201.247 116.67C201.128 116.732 200.996 116.764 200.862 116.764C200.729 116.764 200.597 116.732 200.478 116.67ZM239.851 139.399L247.091 143.572C247.211 143.631 247.342 143.662 247.475 143.662C247.609 143.662 247.74 143.631 247.86 143.572L250.286 142.168C250.519 142.036 250.539 141.844 250.347 141.733L243.107 137.549C242.988 137.49 242.856 137.46 242.723 137.46C242.59 137.46 242.458 137.49 242.339 137.549L239.912 138.954C239.68 139.085 239.659 139.277 239.851 139.399ZM231.914 139.651L229.457 138.236C229.265 138.115 229.285 137.923 229.518 137.792L232.41 136.114C232.531 136.054 232.664 136.023 232.799 136.023C232.934 136.023 233.067 136.054 233.188 136.114L235.635 137.529C235.837 137.64 235.817 137.842 235.635 137.974L232.683 139.591C232.568 139.66 232.439 139.701 232.306 139.712C232.172 139.722 232.038 139.702 231.914 139.651ZM200.438 121.481L204.371 123.754C204.493 123.809 204.625 123.835 204.759 123.83C204.892 123.825 205.022 123.788 205.139 123.724L208.021 122.046C208.254 121.915 208.274 121.713 208.082 121.602L204.159 119.378C204.039 119.319 203.908 119.288 203.774 119.288C203.641 119.288 203.509 119.319 203.39 119.378L200.488 121.046C200.266 121.177 200.245 121.369 200.438 121.481ZM228.305 137.569L224.371 135.306C224.179 135.194 224.199 134.992 224.432 134.861L227.293 133.153C227.413 133.093 227.544 133.062 227.678 133.062C227.811 133.062 227.943 133.093 228.062 133.153L231.995 135.417C232.187 135.538 232.167 135.73 231.995 135.861L229.093 137.539C228.974 137.607 228.84 137.645 228.703 137.65C228.565 137.655 228.429 137.628 228.305 137.569ZM226.747 132.365L209.659 122.511L205.938 124.654L223.016 134.538C223.136 134.597 223.267 134.628 223.401 134.628C223.534 134.628 223.665 134.597 223.785 134.538L226.747 132.809C226.795 132.795 226.837 132.765 226.866 132.725C226.896 132.685 226.912 132.637 226.912 132.587C226.912 132.537 226.896 132.489 226.866 132.449C226.837 132.409 226.795 132.379 226.747 132.365ZM242.521 143.633L245.251 145.21C245.413 145.301 245.393 145.462 245.251 145.573L244.068 146.261C243.968 146.307 243.86 146.332 243.749 146.332C243.639 146.332 243.531 146.307 243.431 146.261L240.701 144.684C240.539 144.593 240.559 144.431 240.701 144.32L241.884 143.633C241.982 143.581 242.091 143.554 242.202 143.554C242.314 143.554 242.423 143.581 242.521 143.633ZM241.449 142.986L238.689 141.41C238.593 141.362 238.487 141.337 238.38 141.337C238.273 141.337 238.168 141.362 238.072 141.41L236.889 142.087C236.747 142.198 236.727 142.36 236.889 142.451L239.629 144.037C239.726 144.087 239.834 144.113 239.943 144.113C240.052 144.113 240.159 144.087 240.256 144.037L241.449 143.35C241.591 143.249 241.611 143.087 241.449 142.986ZM234.897 139.227L237.637 140.803C237.799 140.894 237.779 141.056 237.637 141.167L236.454 141.854C236.356 141.902 236.249 141.926 236.141 141.926C236.032 141.926 235.925 141.902 235.827 141.854L233.087 140.278C232.925 140.187 232.945 140.025 233.087 139.914L234.27 139.227C234.366 139.175 234.474 139.147 234.583 139.147C234.693 139.147 234.801 139.175 234.897 139.227ZM243.522 141.784L240.792 140.207C240.693 140.153 240.581 140.125 240.468 140.125C240.355 140.125 240.244 140.153 240.145 140.207L238.962 140.894C238.82 141.005 238.8 141.167 238.962 141.258L241.702 142.835C241.8 142.882 241.907 142.907 242.015 142.907C242.124 142.907 242.231 142.882 242.329 142.835L243.522 142.147C243.663 142.036 243.684 141.875 243.522 141.784Z" fill="url(#paint22_linear_77259_92135)"/>
<path opacity="0.1" d="M208.504 146.876C209.061 147.125 209.668 147.241 210.278 147.213C210.887 147.185 211.482 147.014 212.013 146.714L221.821 141.055C222.028 140.966 222.21 140.828 222.349 140.651C222.489 140.475 222.582 140.266 222.62 140.044C222.604 139.886 222.547 139.734 222.455 139.605C222.363 139.476 222.238 139.373 222.094 139.306L203.014 128.311C202.459 128.062 201.854 127.946 201.247 127.972C200.639 127.999 200.046 128.167 199.515 128.462L189.697 134.122C189.49 134.21 189.308 134.349 189.169 134.525C189.029 134.702 188.936 134.911 188.898 135.132C188.916 135.291 188.975 135.443 189.068 135.572C189.162 135.702 189.289 135.804 189.434 135.87L208.504 146.876Z" fill="#FDFDFD"/>
<path opacity="0.5" d="M210.013 147.678C209.408 147.693 208.809 147.554 208.274 147.274L189.214 136.289C188.995 136.185 188.807 136.025 188.672 135.824C188.537 135.622 188.459 135.389 188.445 135.147C188.478 134.844 188.588 134.554 188.765 134.307C188.942 134.059 189.18 133.861 189.456 133.732L199.275 128.062C199.876 127.726 200.549 127.537 201.238 127.511C201.927 127.485 202.612 127.622 203.238 127.911L222.298 138.916C222.516 139.018 222.703 139.177 222.838 139.376C222.974 139.576 223.052 139.808 223.066 140.048C223.036 140.352 222.927 140.642 222.749 140.89C222.572 141.138 222.333 141.336 222.055 141.463L212.237 147.133C211.555 147.504 210.789 147.692 210.013 147.678ZM208.506 146.88C209.063 147.13 209.67 147.245 210.28 147.217C210.889 147.189 211.483 147.018 212.015 146.718L221.823 141.059C222.03 140.971 222.212 140.832 222.351 140.655C222.491 140.479 222.584 140.27 222.621 140.048C222.606 139.89 222.549 139.739 222.457 139.609C222.365 139.48 222.24 139.377 222.096 139.31L203.016 128.315C202.461 128.066 201.856 127.95 201.248 127.977C200.641 128.003 200.048 128.171 199.517 128.467L189.699 134.126C189.492 134.214 189.31 134.353 189.171 134.529C189.031 134.706 188.938 134.915 188.9 135.137C188.918 135.296 188.976 135.447 189.07 135.577C189.164 135.706 189.29 135.809 189.436 135.874L208.506 146.88Z" fill="#FDFDFD"/>
</g>
<path opacity="0.3" d="M183.219 25.2235C183.219 23.4146 183.219 22.5102 183.519 21.9902C183.794 21.513 184.241 21.2554 184.792 21.256C185.392 21.2566 186.175 21.7094 187.741 22.615L203.657 31.8192C205.223 32.7248 206.006 33.1776 206.606 33.8711C207.157 34.5077 207.604 35.282 207.879 36.0776C208.179 36.9443 208.179 37.8488 208.179 39.6577L208.179 80.0509C208.179 81.8599 208.179 82.7643 207.879 83.2842C207.604 83.7614 207.157 84.0191 206.606 84.0185C206.006 84.0179 205.223 83.5651 203.657 82.6595L187.741 73.4552C186.175 72.5497 185.392 72.0969 184.792 71.4033C184.241 70.7668 183.794 69.9925 183.519 69.1969C183.219 68.3301 183.219 67.4257 183.219 65.6167L183.219 25.2235Z" stroke="url(#paint23_linear_77259_92135)" stroke-width="0.657049" stroke-linecap="round" stroke-dasharray="2.63 2.63"/>
<path opacity="0.4" d="M171.242 30.9579C171.242 29.149 171.242 28.2445 171.542 27.7246C171.817 27.2474 172.264 26.9897 172.815 26.9903C173.415 26.991 174.198 27.4438 175.764 28.3493L191.68 37.5536C193.246 38.4592 194.029 38.912 194.63 39.6055C195.18 40.2421 195.627 41.0164 195.902 41.8119C196.202 42.6787 196.202 43.5832 196.202 45.3921L196.202 85.7853C196.202 87.5942 196.202 88.4987 195.902 89.0186C195.627 89.4958 195.18 89.7535 194.63 89.7529C194.029 89.7522 193.246 89.2995 191.68 88.3939L175.764 79.1896C174.198 78.284 173.415 77.8313 172.815 77.1377C172.264 76.5011 171.817 75.7269 171.542 74.9313C171.242 74.0645 171.242 73.16 171.242 71.3511L171.242 30.9579Z" stroke="url(#paint24_linear_77259_92135)" stroke-width="0.657049" stroke-linecap="round" stroke-dasharray="2.63 2.63"/>
<path opacity="0.8" d="M159.172 37.3642C159.172 35.5552 159.172 34.6508 159.472 34.1309C159.747 33.6537 160.194 33.396 160.745 33.3966C161.345 33.3972 162.128 33.85 163.694 34.7556L179.61 43.9599C181.176 44.8654 181.959 45.3182 182.559 46.0117C183.11 46.6483 183.557 47.4226 183.832 48.2182C184.132 49.085 184.132 49.9894 184.132 51.7984L184.132 92.1916C184.132 94.0005 184.132 94.9049 183.832 95.4248C183.557 95.9021 183.11 96.1597 182.559 96.1591C181.959 96.1585 181.176 95.7057 179.61 94.8001L163.694 85.5959C162.128 84.6903 161.345 84.2375 160.745 83.544C160.194 82.9074 159.747 82.1331 159.472 81.3375C159.172 80.4707 159.172 79.5663 159.172 77.7574L159.172 37.3642Z" stroke="url(#paint25_linear_77259_92135)" stroke-width="0.657049" stroke-linecap="round" stroke-dasharray="2.63 2.63"/>
<path opacity="0.6" d="M147.156 43.5595C147.156 41.7506 147.156 40.8461 147.456 40.3262C147.731 39.849 148.178 39.5913 148.729 39.5919C149.329 39.5925 150.112 40.0453 151.678 40.9509L167.595 50.1552C169.16 51.0607 169.943 51.5135 170.544 52.2071C171.095 52.8436 171.541 53.6179 171.817 54.4135C172.116 55.2803 172.116 56.1847 172.116 57.9937L172.116 98.3869C172.116 100.196 172.116 101.1 171.817 101.62C171.541 102.097 171.095 102.355 170.544 102.354C169.943 102.354 169.16 101.901 167.595 100.995L151.678 91.7912C150.112 90.8856 149.329 90.4328 148.729 89.7393C148.178 89.1027 147.731 88.3284 147.456 87.5328C147.156 86.6661 147.156 85.7616 147.156 83.9527L147.156 43.5595Z" stroke="url(#paint26_linear_77259_92135)" stroke-width="0.657049" stroke-linecap="round" stroke-dasharray="2.63 2.63"/>
<path fill-rule="evenodd" clip-rule="evenodd" d="M146.919 42.1865C146.918 42.4159 146.918 42.6628 146.918 42.9289L146.918 84.1473C146.918 85.9932 146.918 86.9161 147.224 87.8006C147.505 88.6124 147.961 89.4025 148.523 90.0521C149.136 90.7598 149.935 91.2219 151.533 92.1459L167.769 101.535C168.393 101.896 168.895 102.186 169.312 102.406L169.803 103.727L171.443 102.783L171.441 102.779C171.701 102.654 171.918 102.449 172.077 102.173C172.383 101.642 172.383 100.719 172.383 98.8733L172.383 57.6549C172.383 55.8091 172.383 54.8861 172.077 54.0016C171.796 53.1898 171.34 52.3997 170.778 51.7501C170.166 51.0424 169.367 50.5804 167.769 49.6563L151.533 40.267C149.935 39.3429 149.136 38.8809 148.523 38.8803C148.209 38.8799 147.928 38.9619 147.692 39.1194L146.113 40.0185L146.919 42.1865Z" fill="url(#paint27_linear_77259_92135)"/>
<path d="M145.273 43.8771C145.273 42.0313 145.273 41.1083 145.579 40.5778C145.86 40.0908 146.316 39.8279 146.878 39.8285C147.491 39.8292 148.29 40.2912 149.888 41.2153L166.129 50.6076C167.727 51.5316 168.526 51.9937 169.139 52.7014C169.701 53.351 170.157 54.1411 170.437 54.9529C170.744 55.8374 170.744 56.7603 170.744 58.6062L170.744 99.8246C170.744 101.67 170.744 102.593 170.437 103.124C170.157 103.611 169.701 103.874 169.139 103.873C168.526 103.873 167.727 103.411 166.129 102.487L149.888 93.0942C148.29 92.1701 147.491 91.7081 146.878 91.0004C146.316 90.3508 145.86 89.5607 145.579 88.7489C145.273 87.8644 145.273 86.9414 145.273 85.0955L145.273 43.8771Z" fill="url(#paint28_linear_77259_92135)"/>
<path d="M145.273 43.8771C145.273 42.0313 145.273 41.1083 145.579 40.5778C145.86 40.0908 146.316 39.8279 146.878 39.8285C147.491 39.8292 148.29 40.2912 149.888 41.2153L166.129 50.6076C167.727 51.5316 168.526 51.9937 169.139 52.7014C169.701 53.351 170.157 54.1411 170.437 54.9529C170.744 55.8374 170.744 56.7603 170.744 58.6062L170.744 99.8246C170.744 101.67 170.744 102.593 170.437 103.124C170.157 103.611 169.701 103.874 169.139 103.873C168.526 103.873 167.727 103.411 166.129 102.487L149.888 93.0942C148.29 92.1701 147.491 91.7081 146.878 91.0004C146.316 90.3508 145.86 89.5607 145.579 88.7489C145.273 87.8644 145.273 86.9414 145.273 85.0955L145.273 43.8771Z" fill="url(#paint29_linear_77259_92135)"/>
<path fill-rule="evenodd" clip-rule="evenodd" d="M145.844 40.2207C146.063 40.0942 146.318 40.0286 146.599 40.0289C147.211 40.0296 148.01 40.4916 149.608 41.4157L165.85 50.808C167.448 51.7321 168.246 52.1941 168.859 52.9018C169.421 53.5514 169.877 54.3415 170.158 55.1533C170.464 56.0378 170.464 56.9608 170.464 58.8066L170.464 100.025C170.464 101.871 170.464 102.794 170.158 103.324C170.078 103.462 169.985 103.582 169.879 103.683C170.098 103.557 170.282 103.369 170.423 103.126C170.729 102.595 170.729 101.672 170.729 99.8264L170.729 58.608C170.729 56.7621 170.729 55.8392 170.423 54.9547C170.142 54.1429 169.686 53.3528 169.124 52.7032C168.511 51.9955 167.712 51.5334 166.114 50.6094L149.873 41.217C148.275 40.293 147.476 39.8309 146.864 39.8303C146.461 39.8298 146.112 39.9649 145.844 40.2207Z" fill="url(#paint30_linear_77259_92135)"/>
<path d="M146.992 45.6244C146.992 43.728 146.992 42.7798 147.502 42.4853C148.013 42.1907 148.834 42.6648 150.476 43.613L165.414 52.2373C167.056 53.1855 167.877 53.6596 168.388 54.5433C168.898 55.427 168.898 56.3752 168.898 58.2716L168.898 98.0675C168.898 99.9639 168.898 100.912 168.388 101.207C167.877 101.501 167.056 101.027 165.414 100.079L150.476 91.4545C148.834 90.5064 148.013 90.0323 147.502 89.1486C146.992 88.2649 146.992 87.3167 146.992 85.4203L146.992 45.6244Z" fill="url(#paint31_linear_77259_92135)"/>
<path opacity="0.2" d="M146.984 45.6244C146.984 43.728 146.984 42.7798 147.495 42.4853C148.005 42.1907 148.826 42.6648 150.468 43.613L165.406 52.2373C167.048 53.1855 167.87 53.6596 168.38 54.5433C168.89 55.427 168.89 56.3752 168.89 58.2716L168.89 98.0675C168.89 99.9639 168.89 100.912 168.38 101.207C167.87 101.501 167.048 101.027 165.406 100.079L150.468 91.4545C148.826 90.5064 148.005 90.0323 147.495 89.1486C146.984 88.2649 146.984 87.3167 146.984 85.4203L146.984 45.6244Z" fill="url(#paint32_linear_77259_92135)"/>
<g opacity="0.3" filter="url(#filter5_f_77259_92135)">
<rect width="26.5047" height="3.62609" transform="matrix(0.866025 0.5 -0.866025 0.5 149.109 99.0156)" fill="#A1ADBB"/>
</g>
<path opacity="0.2" d="M304.984 94.8125L262.022 73.1232L262.022 144.688L304.984 166.378L304.984 94.8125Z" fill="url(#paint33_linear_77259_92135)"/>
<path opacity="0.4" d="M297.797 98.3047L269.2 83.8678L269.2 131.503L297.797 145.94L297.797 98.3047Z" fill="url(#paint34_linear_77259_92135)"/>
<path fill-rule="evenodd" clip-rule="evenodd" d="M287.226 55.1366C285.899 53.577 284.321 52.6659 282.995 52.6934L279.871 52.7582C279.424 52.7674 278.942 52.67 278.444 52.4698L274.966 51.0703C273.987 50.6766 273.097 50.6901 272.413 51.0799L272.384 51.0307L269.202 52.8839L269.91 54.1105L270.499 53.7677L269.966 54.6876C269.74 55.077 269.443 55.3784 269.084 55.5797L266.58 56.9873C265.517 57.5851 265.029 59.0365 265.273 60.8794L265.846 65.2186C265.928 65.8394 265.928 66.4245 265.846 66.9505L265.273 70.6275C265.029 72.1892 265.517 74.2036 266.58 76.0295L269.084 80.3287C269.443 80.9438 269.74 81.589 269.966 82.2388L271.542 86.7807C272.212 88.7098 273.488 90.5178 274.966 91.6294L278.444 94.2464C278.942 94.6208 279.424 95.0798 279.871 95.6051L282.995 99.2771C284.321 100.837 285.899 101.748 287.226 101.72L290.35 101.656C290.797 101.646 291.279 101.744 291.777 101.944L295.165 103.307L293.834 104.076L294.542 105.303L297.873 103.379L297.837 103.317C298.173 103.119 298.459 102.828 298.679 102.448L300.255 99.7261C300.48 99.3367 300.778 99.0353 301.136 98.834L303.641 97.4264C304.704 96.8286 305.192 95.3773 304.948 93.5343L304.375 89.1951C304.293 88.5743 304.293 87.9893 304.375 87.4632L304.948 83.7863C305.192 82.2246 304.704 80.2101 303.641 78.3842L301.136 74.085C300.778 73.4699 300.48 72.8247 300.255 72.1749L298.679 67.633C298.009 65.7039 296.732 63.8959 295.255 62.7843L291.777 60.1673C291.279 59.7929 290.797 59.3339 290.35 58.8086L287.226 55.1366Z" fill="url(#paint35_linear_77259_92135)"/>
<path d="M279.8 54.5412C281.127 54.5137 282.705 55.4248 284.031 56.9844L287.155 60.6564C287.602 61.1817 288.084 61.6407 288.582 62.0151L292.06 64.6321C293.538 65.7437 294.814 67.5517 295.484 69.4808L297.06 74.0227C297.286 74.6724 297.583 75.3177 297.942 75.9328L300.446 80.2319C301.51 82.0579 301.997 84.0723 301.754 85.634L301.18 89.311C301.098 89.837 301.098 90.4221 301.18 91.0429L301.754 95.3821C301.997 97.225 301.51 98.6764 300.446 99.2742L297.942 100.682C297.583 100.883 297.286 101.185 297.06 101.574L295.484 104.296C294.814 105.452 293.538 105.786 292.06 105.191L288.582 103.792C288.084 103.591 287.602 103.494 287.155 103.503L284.031 103.568C282.705 103.596 281.127 102.685 279.8 101.125L276.676 97.4529C276.229 96.9276 275.747 96.4686 275.249 96.0942L271.771 93.4771C270.294 92.3656 269.017 90.5576 268.348 88.6285L266.771 84.0866C266.546 83.4368 266.248 82.7916 265.89 82.1765L263.385 77.8773C262.322 76.0514 261.834 74.0369 262.078 72.4752L262.651 68.7983C262.733 68.2722 262.733 67.6872 262.651 67.0664L262.078 62.7272C261.834 60.8842 262.322 59.4329 263.385 58.8351L265.89 57.4275C266.248 57.2262 266.546 56.9248 266.771 56.5354L268.348 53.8136C269.017 52.6576 270.294 52.3237 271.771 52.9181L275.249 54.3176C275.747 54.5178 276.229 54.6152 276.676 54.606L279.8 54.5412Z" fill="url(#paint36_linear_77259_92135)"/>
<path fill-rule="evenodd" clip-rule="evenodd" d="M284.044 56.9881C282.717 55.4285 281.139 54.5175 279.812 54.545L276.688 54.6097C276.241 54.619 275.759 54.5216 275.262 54.3214L271.783 52.9218C270.695 52.4842 269.716 52.5498 269.009 53.0763C269.673 52.7568 270.512 52.7687 271.427 53.137L274.906 54.5366C275.403 54.7368 275.885 54.8342 276.332 54.8249L279.456 54.7602C280.783 54.7327 282.361 55.6437 283.688 57.2033L286.812 60.8753C287.259 61.4007 287.741 61.8597 288.238 62.2341L291.717 64.8511C293.194 65.9626 294.471 67.7707 295.14 69.6997L296.716 74.2416C296.942 74.8914 297.24 75.5367 297.598 76.1517L300.102 80.4509C301.166 82.2769 301.653 84.2913 301.41 85.853L300.836 89.53C300.754 90.056 300.754 90.6411 300.836 91.2619L301.41 95.601C301.637 97.3229 301.227 98.7029 300.304 99.3644L300.458 99.278C301.522 98.6802 302.009 97.2288 301.766 95.3858L301.192 91.0467C301.11 90.4259 301.11 89.8408 301.192 89.3148L301.766 85.6378C302.009 84.0761 301.522 82.0617 300.458 80.2357L297.954 75.9366C297.596 75.3215 297.298 74.6762 297.072 74.0264L295.496 69.4845C294.826 67.5555 293.55 65.7474 292.072 64.6359L288.594 62.0189C288.096 61.6445 287.615 61.1855 287.168 60.6601L284.044 56.9881ZM297.752 100.814L297.598 100.901C297.24 101.102 296.942 101.403 296.716 101.793L295.14 104.515C294.964 104.819 294.745 105.067 294.491 105.256C294.899 105.06 295.241 104.739 295.496 104.299L297.072 101.578C297.254 101.264 297.482 101.007 297.752 100.814ZM263.195 58.9677L265.546 57.6465C265.616 57.6073 265.683 57.5644 265.748 57.5178L263.398 58.8388C263.328 58.8781 263.26 58.9211 263.195 58.9677Z" fill="url(#paint37_linear_77259_92135)"/>
<g filter="url(#filter6_d_77259_92135)">
<path fill-rule="evenodd" clip-rule="evenodd" d="M287.565 75.5234C287.565 79.1959 284.987 80.6856 281.807 78.8493L281.766 78.8259C278.598 76.9841 276.037 72.5275 276.047 68.8736C276.047 65.201 278.626 63.7134 281.807 65.5497C284.987 67.3859 287.565 71.8508 287.565 75.5234ZM281.725 80.1011C276.854 77.2892 272.695 75.9257 272.695 80.0821C272.695 84.2385 276.828 87.6996 281.725 90.5267L281.814 90.5778L281.902 90.6293C286.799 93.4564 290.932 94.7674 290.932 90.611C290.932 86.4546 286.773 83.0155 281.902 80.2037L281.814 80.1525L281.725 80.1011Z" fill="url(#paint38_linear_77259_92135)"/>
</g>
<g opacity="0.3" filter="url(#filter7_f_77259_92135)">
<rect width="39.4964" height="3.62609" transform="matrix(0.866025 0.5 -0.866025 0.5 343.891 156.109)" fill="#A1ADBB"/>
</g>
<g opacity="0.3" filter="url(#filter8_f_77259_92135)">
<rect width="24.1578" height="3.62609" transform="matrix(0.866025 0.5 -0.866025 0.5 287.984 125.422)" fill="#A1ADBB"/>
</g>
<path fill-rule="evenodd" clip-rule="evenodd" d="M100.696 204.609C104.452 204.985 109.79 203.848 114.145 201.316C119.048 198.476 125.954 193.992 129.996 188.452C134.037 182.912 137.145 176.575 138.91 170.274L146.652 166.453L132.839 199.968L147.632 191.462L153.965 175.652L161.361 171.399L170.145 178.426L174.259 176.022L179.436 166.869L185.816 163.171L190.068 165.575L196.263 162.015L204.807 140.612L204.807 124.61L194.474 118.452L138.578 149.673C136.711 146.208 132.478 143.615 128.869 142.885C125.259 142.156 120.539 142.384 115.796 144.18C110.417 146.216 103.594 150.081 99.7208 154.615C95.5687 159.474 91.578 164.676 89.2568 170.271C86.9355 175.866 85.9228 181.82 85.8006 186.916C85.6784 192.013 88.5638 195.998 90.6747 199.177C92.7855 202.357 96.94 204.233 100.696 204.609ZM112.974 169.461C113.737 170.34 114.145 171.655 114.145 173.242C114.145 175.369 113.413 177.832 112.11 180.088C110.807 182.345 107.981 184.21 106.139 185.274C104.765 186.067 103.422 186.372 102.279 186.15C101.137 185.928 100.247 185.189 99.7208 184.027C99.195 182.865 99.0574 181.332 99.3254 179.621C99.5935 177.91 100.255 176.099 101.227 174.417C102.198 172.734 103.436 171.255 104.783 170.168C106.131 169.08 107.528 168.433 109.856 168.307C111.126 168.181 112.211 168.583 112.974 169.461Z" fill="url(#paint39_linear_77259_92135)"/>
<path fill-rule="evenodd" clip-rule="evenodd" d="M104.365 212.041L103.703 213.187L99.4645 210.724C97.6607 209.795 96.1209 208.398 94.9068 206.569C92.7959 203.39 91.7468 199.024 91.869 193.927C91.9911 188.83 93.2802 183.19 95.6014 177.595C97.9226 172.001 101.191 166.657 105.064 162.124C108.938 157.59 113.275 154.032 117.622 151.822C121.969 149.612 126.166 148.831 129.776 149.56C130.921 149.791 132.037 150.283 133.087 150.956L138.95 154.356L138.176 155.696L137.477 155.29C137.881 155.869 138.249 156.465 138.572 157.065L194.469 125.844L197.536 127.632L175.271 156.52L157.938 164.591L146.647 173.845L138.904 177.665C137.139 183.967 134.032 190.304 129.99 195.844C125.948 201.384 121.162 205.868 116.258 208.708C112.094 211.129 107.999 212.274 104.365 212.041ZM116.258 180.633C116.258 179.047 115.851 177.731 115.087 176.853C114.324 175.975 113.239 175.573 111.97 175.699C110.7 175.824 109.304 176.472 107.956 177.559C106.609 178.647 105.371 180.126 104.399 181.808C103.428 183.491 102.766 185.302 102.498 187.013C102.23 188.724 102.368 190.257 102.893 191.419C103.419 192.581 104.31 193.32 105.452 193.542C106.594 193.763 107.937 193.459 109.311 192.665C111.154 191.602 112.921 189.736 114.223 187.48C115.526 185.224 116.258 182.761 116.258 180.633Z" fill="url(#paint40_linear_77259_92135)"/>
<path fill-rule="evenodd" clip-rule="evenodd" d="M104.365 212.041L103.703 213.187L99.4645 210.724C97.6607 209.795 96.1209 208.398 94.9068 206.569C92.7959 203.39 91.7468 199.024 91.869 193.927C91.9911 188.83 93.2802 183.19 95.6014 177.595C97.9226 172.001 101.191 166.657 105.064 162.124C108.938 157.59 113.275 154.032 117.622 151.822C121.969 149.612 126.166 148.831 129.776 149.56C130.921 149.791 132.037 150.283 133.087 150.956L138.95 154.356L138.176 155.696L137.477 155.29C137.881 155.869 138.249 156.465 138.572 157.065L194.469 125.844L197.536 127.632L175.271 156.52L157.938 164.591L146.647 173.845L138.904 177.665C137.139 183.967 134.032 190.304 129.99 195.844C125.948 201.384 121.162 205.868 116.258 208.708C112.094 211.129 107.999 212.274 104.365 212.041ZM116.258 180.633C116.258 179.047 115.851 177.731 115.087 176.853C114.324 175.975 113.239 175.573 111.97 175.699C110.7 175.824 109.304 176.472 107.956 177.559C106.609 178.647 105.371 180.126 104.399 181.808C103.428 183.491 102.766 185.302 102.498 187.013C102.23 188.724 102.368 190.257 102.893 191.419C103.419 192.581 104.31 193.32 105.452 193.542C106.594 193.763 107.937 193.459 109.311 192.665C111.154 191.602 112.921 189.736 114.223 187.48C115.526 185.224 116.258 182.761 116.258 180.633Z" fill="url(#paint41_linear_77259_92135)"/>
<path fill-rule="evenodd" clip-rule="evenodd" d="M108.619 214.753C112.375 215.129 116.653 213.992 121.008 211.46C125.912 208.62 130.698 204.136 134.74 198.596C137.983 194.151 140.624 189.194 142.453 184.153L143.059 182.742L147.008 180.482L153.593 176.666L158.393 164.846L164.037 161.579L170.587 166.828L173.584 165.103L177.491 158.239L182.315 155.452L185.545 157.324L190.323 154.56L197.51 136.585L197.51 133.987L196.759 133.568L196.759 131.172L197.545 130.71L197.545 127.606L177.491 138.749L142.89 158.72C141.024 155.255 138.135 153.042 134.526 152.312C130.916 151.583 126.719 152.364 122.372 154.574C118.025 156.784 113.688 160.342 109.814 164.876C105.941 169.41 102.673 174.753 100.351 180.348C98.0302 185.942 96.7411 191.582 96.619 196.679C96.4968 201.776 97.5459 206.142 99.6568 209.322C101.768 212.501 104.863 214.377 108.619 214.753ZM119.837 179.605C120.601 180.484 121.008 181.799 121.008 183.386C121.008 185.513 120.276 187.976 118.973 190.232C117.671 192.489 115.904 194.354 114.061 195.418C112.687 196.211 111.344 196.516 110.202 196.294C109.06 196.072 108.169 195.334 107.643 194.171C107.118 193.009 106.98 191.476 107.248 189.765C107.516 188.055 108.178 186.243 109.149 184.561C110.121 182.878 111.359 181.399 112.706 180.312C114.054 179.224 115.45 178.577 116.72 178.451C117.989 178.325 119.074 178.727 119.837 179.605Z" fill="url(#paint42_linear_77259_92135)"/>
<path fill-rule="evenodd" clip-rule="evenodd" d="M108.619 214.753C112.375 215.129 116.653 213.992 121.008 211.46C125.912 208.62 130.698 204.136 134.74 198.596C137.983 194.151 140.624 189.194 142.453 184.153L143.228 182.235L147.008 180.482L153.593 176.666L158.393 164.846L164.037 161.579L170.587 166.828L173.584 165.103L177.491 158.239L182.315 155.452L185.545 157.324L190.323 154.56L197.51 136.585L197.51 133.987L196.759 133.568L196.759 131.172L197.545 130.71L197.545 127.606L177.491 138.749L142.89 158.72C141.024 155.255 138.135 153.042 134.526 152.312C130.916 151.583 126.719 152.364 122.372 154.574C118.025 156.784 113.688 160.342 109.814 164.876C105.941 169.41 102.673 174.753 100.351 180.348C98.0302 185.942 96.7411 191.582 96.619 196.679C96.4968 201.776 97.5459 206.142 99.6568 209.322C101.768 212.501 104.863 214.377 108.619 214.753ZM119.837 179.605C120.601 180.484 121.008 181.799 121.008 183.386C121.008 185.513 120.276 187.976 118.973 190.232C117.671 192.489 115.904 194.354 114.061 195.418C112.687 196.211 111.344 196.516 110.202 196.294C109.06 196.072 108.169 195.334 107.643 194.171C107.118 193.009 106.98 191.476 107.248 189.765C107.516 188.055 108.178 186.243 109.149 184.561C110.121 182.878 111.359 181.399 112.706 180.312C114.054 179.224 115.45 178.577 116.72 178.451C117.989 178.325 119.074 178.727 119.837 179.605Z" fill="url(#paint43_linear_77259_92135)"/>
<path fill-rule="evenodd" clip-rule="evenodd" d="M197.497 127.646L143.115 159.347C141.248 155.882 138.359 153.669 134.75 152.939C131.141 152.21 126.943 152.991 122.596 155.201C118.249 157.411 113.912 160.969 110.039 165.503C106.165 170.037 102.897 175.38 100.576 180.974C98.2546 186.569 96.9656 192.209 96.8434 197.306C96.7609 200.744 97.2114 203.849 98.1611 206.482C97.0477 203.72 96.5142 200.393 96.6033 196.677C96.7255 191.58 98.0146 185.94 100.336 180.345C102.657 174.751 105.925 169.408 109.799 164.874C113.672 160.34 118.009 156.782 122.356 154.572C126.703 152.362 130.901 151.581 134.51 152.31C138.119 153.04 141.008 155.253 142.875 158.718L197.12 127.375L197.538 127.615L197.497 127.646ZM120.691 181.221C121.047 181.994 121.232 182.942 121.232 184.013C121.232 186.14 120.501 188.603 119.198 190.859C117.895 193.116 116.128 194.981 114.286 196.045C112.912 196.838 111.569 197.143 110.426 196.921C109.284 196.699 108.394 195.961 107.868 194.798C107.781 194.608 107.706 194.407 107.64 194.197C108.168 195.343 109.053 196.072 110.186 196.292C111.329 196.514 112.672 196.209 114.046 195.416C115.888 194.352 117.655 192.487 118.958 190.23C120.261 187.974 120.992 185.511 120.992 183.384C120.992 182.588 120.89 181.86 120.691 181.221Z" fill="white"/>
<path opacity="0.3" d="M196.764 133.581L197.513 133.992L144.674 164.58L144.536 163.862L196.764 133.581Z" fill="url(#paint44_linear_77259_92135)"/>
<path opacity="0.2" d="M196.753 133.58L196.753 131.175L143.933 161.768C144.233 162.592 144.522 163.868 144.522 163.868L144.52 163.866L196.753 133.58Z" fill="url(#paint45_linear_77259_92135)"/>
<path opacity="0.5" d="M197.516 136.568L197.518 134.001L144.672 164.602C144.844 165.075 145.012 166.116 145.125 166.915L145.123 166.913L197.516 136.568Z" fill="#A3ACB9"/>
<path fill-rule="evenodd" clip-rule="evenodd" d="M94.9455 198.976C95.3084 198.811 95.5368 198.397 95.5368 197.79C95.5368 196.659 94.7441 195.284 93.7663 194.719C93.2127 194.399 92.7184 194.407 92.3938 194.679L84.2891 199.235L86.8018 203.566L94.9455 198.976Z" fill="url(#paint46_linear_77259_92135)"/>
<ellipse cx="2.04525" cy="2.04774" rx="2.04525" ry="2.04774" transform="matrix(0.865673 0.500609 0 1 83.7422 198.328)" fill="#727688"/>
<path fill-rule="evenodd" clip-rule="evenodd" d="M86.2557 203.31C86.5868 203.21 86.8005 202.872 86.8005 202.353C86.8005 201.47 86.1815 200.396 85.4179 199.955C85.0681 199.752 84.7486 199.718 84.5051 199.825L84.5015 199.819L80.9531 201.887L82.9141 205.267L86.2557 203.31Z" fill="#656B81"/>
<path fill-rule="evenodd" clip-rule="evenodd" d="M86.2557 203.31C86.5868 203.21 86.8005 202.872 86.8005 202.353C86.8005 201.47 86.1815 200.396 85.4179 199.955C85.0681 199.752 84.7486 199.718 84.5051 199.825L84.5015 199.819L80.9531 201.887L82.9141 205.267L86.2557 203.31Z" fill="url(#paint47_linear_77259_92135)"/>
<ellipse cx="1.59708" cy="1.59903" rx="1.59708" ry="1.59903" transform="matrix(0.865673 0.500609 0 1 80.5 201.188)" fill="#707588"/>
<path fill-rule="evenodd" clip-rule="evenodd" d="M82.2895 204.804C82.4912 204.73 82.6198 204.514 82.6198 204.19C82.6198 203.616 82.2175 202.918 81.7212 202.631C81.467 202.484 81.2375 202.473 81.074 202.575L81.0714 202.57L72.5469 207.484L73.8259 209.689L82.2895 204.804Z" fill="#656B81"/>
<path fill-rule="evenodd" clip-rule="evenodd" d="M82.2895 204.804C82.4912 204.73 82.6198 204.514 82.6198 204.19C82.6198 203.616 82.2175 202.918 81.7212 202.631C81.467 202.484 81.2375 202.473 81.074 202.575L81.0714 202.57L72.5469 207.484L73.8259 209.689L82.2895 204.804Z" fill="url(#paint48_linear_77259_92135)"/>
<ellipse cx="1.04269" cy="1.04396" rx="1.04269" ry="1.04396" transform="matrix(0.865673 0.500609 0 1 72.2578 207.023)" fill="#797F94"/>
<ellipse cx="0.422273" cy="0.422788" rx="0.422273" ry="0.422788" transform="matrix(0.865673 0.500609 0 1 72.7969 207.961)" fill="#636B81"/>
<path d="M73.1882 208.566L61.8393 214.994C56.7768 217.861 50.5755 217.837 45.5351 214.932L30.7735 206.422C26.6402 204.039 26.6662 198.065 30.8201 195.719L67.2049 175.163C71.362 172.815 71.384 166.835 67.2443 164.456L53.1712 156.368C49.3706 154.184 44.693 154.195 40.9032 156.398V156.398L36.8641 158.746C31.7836 161.699 25.5127 161.715 20.4179 158.786L11.725 153.79C6.60646 150.848 0.3031 150.878 -4.78715 153.868L-15.1562 159.96" stroke="url(#paint49_linear_77259_92135)" stroke-width="1.02699"/>
</g>
</g>
<defs>
<filter id="filter0_f_77259_92135" x="90.3125" y="148.016" width="93.7031" height="79.625" filterUnits="userSpaceOnUse" color-interpolation-filters="sRGB">
<feFlood flood-opacity="0" result="BackgroundImageFix"/>
<feBlend mode="normal" in="SourceGraphic" in2="BackgroundImageFix" result="shape"/>
<feGaussianBlur stdDeviation="7.5" result="effect1_foregroundBlur_77259_92135"/>
</filter>
<filter id="filter1_f_77259_92135" x="114.741" y="155.163" width="81.9406" height="71.2766" filterUnits="userSpaceOnUse" color-interpolation-filters="sRGB">
<feFlood flood-opacity="0" result="BackgroundImageFix"/>
<feBlend mode="normal" in="SourceGraphic" in2="BackgroundImageFix" result="shape"/>
<feGaussianBlur stdDeviation="11.2" result="effect1_foregroundBlur_77259_92135"/>
</filter>
<filter id="filter2_f_77259_92135" x="130.141" y="170.562" width="51.1406" height="40.4766" filterUnits="userSpaceOnUse" color-interpolation-filters="sRGB">
<feFlood flood-opacity="0" result="BackgroundImageFix"/>
<feBlend mode="normal" in="SourceGraphic" in2="BackgroundImageFix" result="shape"/>
<feGaussianBlur stdDeviation="3.5" result="effect1_foregroundBlur_77259_92135"/>
</filter>
<filter id="filter3_d_77259_92135" x="264.164" y="9.38854" width="114.26" height="159.479" filterUnits="userSpaceOnUse" color-interpolation-filters="sRGB">
<feFlood flood-opacity="0" result="BackgroundImageFix"/>
<feColorMatrix in="SourceAlpha" type="matrix" values="0 0 0 0 0 0 0 0 0 0 0 0 0 0 0 0 0 0 127 0" result="hardAlpha"/>
<feOffset dx="0.502082" dy="-0.502082"/>
<feComposite in2="hardAlpha" operator="out"/>
<feColorMatrix type="matrix" values="0 0 0 0 1 0 0 0 0 1 0 0 0 0 1 0 0 0 0.8 0"/>
<feBlend mode="normal" in2="BackgroundImageFix" result="effect1_dropShadow_77259_92135"/>
<feBlend mode="normal" in="SourceGraphic" in2="effect1_dropShadow_77259_92135" result="shape"/>
</filter>
<filter id="filter4_f_77259_92135" x="141.62" y="95.9404" width="152.189" height="98.0722" filterUnits="userSpaceOnUse" color-interpolation-filters="sRGB">
<feFlood flood-opacity="0" result="BackgroundImageFix"/>
<feBlend mode="normal" in="SourceGraphic" in2="BackgroundImageFix" result="shape"/>
<feGaussianBlur stdDeviation="6.06884" result="effect1_foregroundBlur_77259_92135"/>
</filter>
<filter id="filter5_f_77259_92135" x="140.605" y="93.6518" width="36.8213" height="25.7901" filterUnits="userSpaceOnUse" color-interpolation-filters="sRGB">
<feFlood flood-opacity="0" result="BackgroundImageFix"/>
<feBlend mode="normal" in="SourceGraphic" in2="BackgroundImageFix" result="shape"/>
<feGaussianBlur stdDeviation="2.68189" result="effect1_foregroundBlur_77259_92135"/>
</filter>
<filter id="filter6_d_77259_92135" x="272.563" y="64.7656" width="18.3672" height="28.8242" filterUnits="userSpaceOnUse" color-interpolation-filters="sRGB">
<feFlood flood-opacity="0" result="BackgroundImageFix"/>
<feColorMatrix in="SourceAlpha" type="matrix" values="0 0 0 0 0 0 0 0 0 0 0 0 0 0 0 0 0 0 127 0" result="hardAlpha"/>
<feOffset dx="-0.132803" dy="0.332007"/>
<feComposite in2="hardAlpha" operator="out"/>
<feColorMatrix type="matrix" values="0 0 0 0 0.867802 0 0 0 0 0.896793 0 0 0 0 0.9175 0 0 0 0.5 0"/>
<feBlend mode="normal" in2="BackgroundImageFix" result="effect1_dropShadow_77259_92135"/>
<feBlend mode="normal" in="SourceGraphic" in2="effect1_dropShadow_77259_92135" result="shape"/>
</filter>
<filter id="filter7_f_77259_92135" x="333.39" y="148.749" width="52.0638" height="36.2825" filterUnits="userSpaceOnUse" color-interpolation-filters="sRGB">
<feFlood flood-opacity="0" result="BackgroundImageFix"/>
<feBlend mode="normal" in="SourceGraphic" in2="BackgroundImageFix" result="shape"/>
<feGaussianBlur stdDeviation="3.68" result="effect1_foregroundBlur_77259_92135"/>
</filter>
<filter id="filter8_f_77259_92135" x="277.484" y="118.062" width="38.7825" height="28.6106" filterUnits="userSpaceOnUse" color-interpolation-filters="sRGB">
<feFlood flood-opacity="0" result="BackgroundImageFix"/>
<feBlend mode="normal" in="SourceGraphic" in2="BackgroundImageFix" result="shape"/>
<feGaussianBlur stdDeviation="3.68" result="effect1_foregroundBlur_77259_92135"/>
</filter>
<radialGradient id="paint0_radial_77259_92135" cx="0" cy="0" r="1" gradientUnits="userSpaceOnUse" gradientTransform="translate(192.374 224.276) rotate(-114.902) scale(199.648 215.704)">
<stop stop-color="#576380"/>
<stop offset="0.952725" stop-color="#68738E" stop-opacity="0"/>
</radialGradient>
<linearGradient id="paint1_linear_77259_92135" x1="60.3864" y1="195.788" x2="49.8533" y2="137.433" gradientUnits="userSpaceOnUse">
<stop stop-color="#838CA1"/>
<stop offset="1" stop-color="#838CA1" stop-opacity="0"/>
</linearGradient>
<linearGradient id="paint2_linear_77259_92135" x1="92.1271" y1="122.867" x2="68.7292" y2="43.0454" gradientUnits="userSpaceOnUse">
<stop stop-color="#838CA1"/>
<stop offset="1" stop-color="#838CA1" stop-opacity="0"/>
</linearGradient>
<linearGradient id="paint3_linear_77259_92135" x1="559.475" y1="246.56" x2="508.891" y2="-55.4603" gradientUnits="userSpaceOnUse">
<stop stop-color="#888EA3"/>
<stop offset="1" stop-color="#888EA3" stop-opacity="0"/>
</linearGradient>
<linearGradient id="paint4_linear_77259_92135" x1="543.983" y1="255.857" x2="493.399" y2="-46.1635" gradientUnits="userSpaceOnUse">
<stop stop-color="#888EA3"/>
<stop offset="1" stop-color="#888EA3" stop-opacity="0"/>
</linearGradient>
<linearGradient id="paint5_linear_77259_92135" x1="419.412" y1="169.309" x2="375.571" y2="-24.9667" gradientUnits="userSpaceOnUse">
<stop stop-color="#888EA3"/>
<stop offset="1" stop-color="#888EA3" stop-opacity="0"/>
</linearGradient>
<linearGradient id="paint6_linear_77259_92135" x1="299.391" y1="160.939" x2="350.79" y2="147.414" gradientUnits="userSpaceOnUse">
<stop stop-color="#9AA6B4"/>
<stop offset="0.966441" stop-color="#DCE3E7"/>
</linearGradient>
<linearGradient id="paint7_linear_77259_92135" x1="347.345" y1="159.226" x2="310.712" y2="129.193" gradientUnits="userSpaceOnUse">
<stop stop-color="#A1AEBB"/>
<stop offset="1" stop-color="#DBE2E7"/>
</linearGradient>
<linearGradient id="paint8_linear_77259_92135" x1="389.595" y1="133.193" x2="250.993" y2="25.8769" gradientUnits="userSpaceOnUse">
<stop stop-color="#747F98"/>
<stop offset="0.447917" stop-color="#D7E2EB"/>
<stop offset="0.984375" stop-color="#F3FAFF"/>
</linearGradient>
<linearGradient id="paint9_linear_77259_92135" x1="261.655" y1="54.0328" x2="432.157" y2="16.759" gradientUnits="userSpaceOnUse">
<stop stop-color="#929EB3"/>
<stop offset="1" stop-color="#E3EAED"/>
</linearGradient>
<linearGradient id="paint10_linear_77259_92135" x1="237.05" y1="98.7964" x2="322.372" y2="32.5589" gradientUnits="userSpaceOnUse">
<stop stop-color="#A0A9BE"/>
<stop offset="1" stop-color="#DCE8EC"/>
</linearGradient>
<linearGradient id="paint11_linear_77259_92135" x1="307.46" y1="18.2344" x2="323.741" y2="88.3476" gradientUnits="userSpaceOnUse">
<stop stop-color="white"/>
<stop offset="1" stop-color="white" stop-opacity="0"/>
</linearGradient>
<linearGradient id="paint12_linear_77259_92135" x1="152.51" y1="102.203" x2="389.35" y2="142.064" gradientUnits="userSpaceOnUse">
<stop stop-color="#99A9BB"/>
<stop offset="1" stop-color="#EAF0F2"/>
</linearGradient>
<linearGradient id="paint13_linear_77259_92135" x1="225.633" y1="132.766" x2="279.092" y2="132.766" gradientUnits="userSpaceOnUse">
<stop stop-color="#3DB7FF"/>
<stop offset="1" stop-color="#2F79BE"/>
</linearGradient>
<linearGradient id="paint14_linear_77259_92135" x1="152.506" y1="132.761" x2="294.849" y2="149.341" gradientUnits="userSpaceOnUse">
<stop stop-color="#B5C1CE"/>
<stop offset="0.509564" stop-color="#B3BDCC"/>
<stop offset="0.568709" stop-color="#8F96AA"/>
<stop offset="1" stop-color="#FBFDFF"/>
</linearGradient>
<linearGradient id="paint15_linear_77259_92135" x1="246.754" y1="83.9224" x2="168.936" y2="141.622" gradientUnits="userSpaceOnUse">
<stop stop-color="#F0FAFF"/>
<stop offset="1" stop-color="#7DD2FF"/>
</linearGradient>
<linearGradient id="paint16_linear_77259_92135" x1="68.3607" y1="113.905" x2="263.662" y2="79.4435" gradientUnits="userSpaceOnUse">
<stop stop-color="#909EAE"/>
<stop offset="1" stop-color="#E4EBEE"/>
</linearGradient>
<linearGradient id="paint17_linear_77259_92135" x1="229.909" y1="170.4" x2="142.534" y2="122.492" gradientUnits="userSpaceOnUse">
<stop stop-color="white"/>
<stop offset="1" stop-color="#DCE6ED"/>
</linearGradient>
<linearGradient id="paint18_linear_77259_92135" x1="280.617" y1="140.861" x2="201.008" y2="39.7754" gradientUnits="userSpaceOnUse">
<stop stop-color="#A1ADC9"/>
<stop offset="0.294594" stop-color="#B1BCD5"/>
<stop offset="0.448221" stop-color="#E3ECF4"/>
<stop offset="0.984375" stop-color="#CBD6DE"/>
</linearGradient>
<linearGradient id="paint19_linear_77259_92135" x1="199.392" y1="50.832" x2="301.474" y2="52.3287" gradientUnits="userSpaceOnUse">
<stop stop-color="#8798AC"/>
<stop offset="1" stop-color="#D7E1E5"/>
</linearGradient>
<linearGradient id="paint20_linear_77259_92135" x1="186.825" y1="85.8533" x2="260.266" y2="51.0837" gradientUnits="userSpaceOnUse">
<stop stop-color="#939DB2"/>
<stop offset="1" stop-color="#E1EAED"/>
</linearGradient>
<linearGradient id="paint21_linear_77259_92135" x1="232.904" y1="32.3169" x2="245.935" y2="88.434" gradientUnits="userSpaceOnUse">
<stop stop-color="white"/>
<stop offset="1" stop-color="white" stop-opacity="0"/>
</linearGradient>
<linearGradient id="paint22_linear_77259_92135" x1="183.632" y1="103.023" x2="260.244" y2="146.332" gradientUnits="userSpaceOnUse">
<stop stop-color="#A5B0BB"/>
<stop offset="1" stop-color="#A2B2C5"/>
</linearGradient>
<linearGradient id="paint23_linear_77259_92135" x1="204.971" y1="73.9633" x2="170.014" y2="49.0222" gradientUnits="userSpaceOnUse">
<stop stop-color="#888EA3"/>
<stop offset="1" stop-color="#888EA3" stop-opacity="0"/>
</linearGradient>
<linearGradient id="paint24_linear_77259_92135" x1="193.818" y1="82.4698" x2="157.305" y2="55.258" gradientUnits="userSpaceOnUse">
<stop stop-color="#888EA3"/>
<stop offset="1" stop-color="#888EA3" stop-opacity="0"/>
</linearGradient>
<linearGradient id="paint25_linear_77259_92135" x1="181.748" y1="88.8761" x2="145.235" y2="61.6642" gradientUnits="userSpaceOnUse">
<stop stop-color="#555C73"/>
<stop offset="1" stop-color="#888EA3" stop-opacity="0"/>
</linearGradient>
<linearGradient id="paint26_linear_77259_92135" x1="169.732" y1="95.0714" x2="133.219" y2="67.8595" gradientUnits="userSpaceOnUse">
<stop stop-color="#888EA3"/>
<stop offset="1" stop-color="#888EA3" stop-opacity="0"/>
</linearGradient>
<linearGradient id="paint27_linear_77259_92135" x1="168.764" y1="108.089" x2="169.874" y2="34.6682" gradientUnits="userSpaceOnUse">
<stop stop-color="#6D748F"/>
<stop offset="0.74875" stop-color="#D9DFE6"/>
<stop offset="1" stop-color="#E8ECF5"/>
</linearGradient>
<linearGradient id="paint28_linear_77259_92135" x1="143.918" y1="68.1793" x2="172.61" y2="63.6996" gradientUnits="userSpaceOnUse">
<stop stop-color="#A0ACBA"/>
<stop offset="1" stop-color="#ECF1F3"/>
</linearGradient>
<linearGradient id="paint29_linear_77259_92135" x1="143.918" y1="68.1793" x2="172.61" y2="63.6996" gradientUnits="userSpaceOnUse">
<stop stop-color="#96A4B5"/>
<stop offset="1" stop-color="#E5ECEE"/>
</linearGradient>
<linearGradient id="paint30_linear_77259_92135" x1="167.884" y1="58.7822" x2="149.789" y2="77.4232" gradientUnits="userSpaceOnUse">
<stop stop-color="white"/>
<stop offset="1" stop-color="#DEE6F2"/>
</linearGradient>
<linearGradient id="paint31_linear_77259_92135" x1="213.727" y1="30.5878" x2="162.482" y2="11.0297" gradientUnits="userSpaceOnUse">
<stop stop-color="white"/>
<stop offset="1" stop-color="white" stop-opacity="0"/>
</linearGradient>
<linearGradient id="paint32_linear_77259_92135" x1="146.984" y1="57.5432" x2="156.847" y2="69.4328" gradientUnits="userSpaceOnUse">
<stop stop-color="white"/>
<stop offset="1" stop-color="white" stop-opacity="0"/>
</linearGradient>
<linearGradient id="paint33_linear_77259_92135" x1="289.487" y1="82.1063" x2="289.487" y2="177.359" gradientUnits="userSpaceOnUse">
<stop stop-color="white"/>
<stop offset="1" stop-color="#ECF1F3" stop-opacity="0"/>
<stop offset="1" stop-color="white" stop-opacity="0"/>
</linearGradient>
<linearGradient id="paint34_linear_77259_92135" x1="287.481" y1="89.8471" x2="288.282" y2="127.926" gradientUnits="userSpaceOnUse">
<stop stop-color="white"/>
<stop offset="1" stop-color="#ECF1F3" stop-opacity="0"/>
</linearGradient>
<linearGradient id="paint35_linear_77259_92135" x1="286.143" y1="112.395" x2="256.195" y2="60.5047" gradientUnits="userSpaceOnUse">
<stop offset="0.0395738" stop-color="#757A8E"/>
<stop offset="0.0852358" stop-color="#9BA6B3"/>
<stop offset="0.234399" stop-color="#A7B4BF"/>
<stop offset="0.304414" stop-color="#D1D7E3"/>
<stop offset="0.493151" stop-color="#C7D3DE"/>
<stop offset="0.572917" stop-color="#DCE5EE"/>
<stop offset="0.817654" stop-color="#DDE8F1"/>
<stop offset="1" stop-color="#BECBD7"/>
</linearGradient>
<linearGradient id="paint36_linear_77259_92135" x1="283.721" y1="112.78" x2="259.937" y2="61.9074" gradientUnits="userSpaceOnUse">
<stop stop-color="#98A6B6"/>
<stop offset="1" stop-color="#E4EBED"/>
</linearGradient>
<linearGradient id="paint37_linear_77259_92135" x1="298.753" y1="70.2928" x2="286.503" y2="77.4034" gradientUnits="userSpaceOnUse">
<stop stop-color="white"/>
<stop offset="1" stop-color="white" stop-opacity="0"/>
</linearGradient>
<linearGradient id="paint38_linear_77259_92135" x1="278.899" y1="90.2603" x2="293.621" y2="50.5015" gradientUnits="userSpaceOnUse">
<stop stop-color="#7E8EA9"/>
<stop offset="1" stop-color="#D6DFEA"/>
</linearGradient>
<linearGradient id="paint39_linear_77259_92135" x1="167.538" y1="122.219" x2="170.092" y2="166.98" gradientUnits="userSpaceOnUse">
<stop stop-color="white"/>
<stop offset="1" stop-color="white" stop-opacity="0"/>
</linearGradient>
<linearGradient id="paint40_linear_77259_92135" x1="146.881" y1="214.025" x2="167.686" y2="110.83" gradientUnits="userSpaceOnUse">
<stop stop-color="#5E6986"/>
<stop offset="1" stop-color="#A2A9B9"/>
</linearGradient>
<linearGradient id="paint41_linear_77259_92135" x1="83.8381" y1="215.774" x2="223.795" y2="161.934" gradientUnits="userSpaceOnUse">
<stop stop-color="#464D66"/>
<stop offset="0.472364" stop-color="#B7C1CA"/>
<stop offset="0.488748" stop-color="#7A869A"/>
<stop offset="1" stop-color="#B3BDC7"/>
</linearGradient>
<linearGradient id="paint42_linear_77259_92135" x1="136.734" y1="207.989" x2="112.829" y2="171.444" gradientUnits="userSpaceOnUse">
<stop stop-color="#69738A"/>
<stop offset="1" stop-color="#B5BEC8"/>
</linearGradient>
<linearGradient id="paint43_linear_77259_92135" x1="136.734" y1="207.989" x2="112.829" y2="171.444" gradientUnits="userSpaceOnUse">
<stop stop-color="#69738A"/>
<stop offset="1" stop-color="#B5BEC8"/>
</linearGradient>
<linearGradient id="paint44_linear_77259_92135" x1="145.533" y1="164.068" x2="198.09" y2="133.784" gradientUnits="userSpaceOnUse">
<stop stop-color="white"/>
<stop offset="1" stop-color="#D0DAE6"/>
</linearGradient>
<linearGradient id="paint45_linear_77259_92135" x1="259.718" y1="97.7272" x2="145.044" y2="161.5" gradientUnits="userSpaceOnUse">
<stop stop-color="#A8B2BE"/>
<stop offset="1" stop-color="#7C889B"/>
</linearGradient>
<linearGradient id="paint46_linear_77259_92135" x1="87.3991" y1="197.467" x2="90.1586" y2="202.286" gradientUnits="userSpaceOnUse">
<stop stop-color="#8189A2"/>
<stop offset="0.34375" stop-color="#AFB8C9"/>
<stop offset="0.755208" stop-color="#7C839C"/>
<stop offset="0.958333" stop-color="#6A728F"/>
</linearGradient>
<linearGradient id="paint47_linear_77259_92135" x1="82.3252" y1="200.741" x2="84.5888" y2="204.357" gradientUnits="userSpaceOnUse">
<stop stop-color="#848BA2"/>
<stop offset="0.34375" stop-color="#BCC3D1"/>
<stop offset="0.755208" stop-color="#9198AE"/>
<stop offset="0.958333" stop-color="#7B8199"/>
</linearGradient>
<linearGradient id="paint48_linear_77259_92135" x1="75.3934" y1="205.608" x2="76.8248" y2="208.124" gradientUnits="userSpaceOnUse">
<stop stop-color="#878A95"/>
<stop offset="0.34375" stop-color="#B8C1D2"/>
<stop offset="0.755208" stop-color="#8A90A5"/>
<stop offset="0.958333" stop-color="#6A718C"/>
</linearGradient>
<linearGradient id="paint49_linear_77259_92135" x1="73.5039" y1="209.018" x2="-18.3795" y2="152.208" gradientUnits="userSpaceOnUse">
<stop stop-color="#636B81"/>
<stop offset="1" stop-color="#66708C" stop-opacity="0"/>
</linearGradient>
<clipPath id="clip0_77259_92135">
<rect width="410" height="224" fill="white" transform="translate(0 0.40625)"/>
</clipPath>
<clipPath id="clip1_77259_92135">
<rect width="410" height="224" fill="white" transform="translate(0 0.40625)"/>
</clipPath>
<clipPath id="clip2_77259_92135">
<rect width="163.153" height="163.957" fill="white" transform="translate(138.82 23.8281)"/>
</clipPath>
</defs>
</svg>
