<svg width="410" height="224" viewBox="0 0 410 224" fill="none" xmlns="http://www.w3.org/2000/svg">
<g clip-path="url(#clip0_77315_54918)">
<path opacity="0.25" fill-rule="evenodd" clip-rule="evenodd" d="M92.4152 109.733C92.4034 109.726 92.3888 109.726 92.377 109.733C92.3516 109.748 92.3516 109.784 92.377 109.799L117.525 124.295C117.537 124.301 117.551 124.301 117.563 124.295C117.589 124.28 117.589 124.243 117.563 124.229L92.4152 109.733ZM115.641 180.226C115.668 180.21 115.668 180.171 115.641 180.156L44.9854 139.429C38.3121 135.583 34.9755 133.659 33.8301 131.161C32.7867 128.885 32.7858 126.267 33.8276 123.991C34.9712 121.491 38.3065 119.566 44.9771 115.715L52.8493 111.169C59.5199 107.318 62.8551 105.393 63.9988 102.893C65.0406 100.617 65.0397 97.9991 63.9963 95.7232C62.8509 93.2246 59.5142 91.3013 52.841 87.4548L44.3572 82.5646C41.891 81.1431 40.6579 80.4323 39.3489 80.1476C38.1411 79.8849 36.8908 79.8853 35.6832 80.1489C34.3744 80.4345 33.1418 81.1462 30.6766 82.5695L10.9151 93.9787C8.44994 95.402 7.21734 96.1137 5.90857 96.3993C4.70093 96.6629 3.4507 96.6633 2.24288 96.4006C0.933908 96.1159 -0.299196 95.4051 -2.76541 93.9836L-15.6787 86.5402C-22.3519 82.6936 -25.6886 80.7704 -26.834 78.2718C-27.8774 75.9959 -27.8783 73.3784 -26.8365 71.1017C-25.6928 68.6024 -22.3576 66.6768 -15.687 62.8255L64.0456 16.7919C66.5108 15.3686 67.7434 14.6569 69.0522 14.3713C70.2598 14.1077 71.51 14.1073 72.7179 14.37C74.0268 14.6547 75.2599 15.3655 77.7261 16.787L100.559 29.9482C103.025 31.3697 104.258 32.0805 105.567 32.3652C106.775 32.628 108.025 32.6275 109.233 32.364C110.542 32.0783 111.774 31.3667 114.24 29.9434L142.224 13.7864C143.22 13.2114 143.718 12.9239 144.215 12.7148C146.35 11.8156 148.757 11.8148 150.892 12.7125C151.389 12.9212 151.887 13.2084 152.883 13.7826C153.88 14.3569 154.378 14.644 154.874 14.8527C157.01 15.7504 159.417 15.7496 161.552 14.8504C162.049 14.6413 162.547 14.3538 163.543 13.7789L165.012 12.9307C167.437 11.5307 168.649 10.8307 169.935 10.5433C171.169 10.2673 172.45 10.2668 173.685 10.542C174.971 10.8284 176.184 11.5276 178.61 12.9259L205.807 28.6028C208.273 30.0243 209.506 30.7351 210.815 31.0198C212.023 31.2826 213.273 31.2821 214.481 31.0185C215.79 30.7329 217.022 30.0213 219.488 28.598L242.483 15.3217C244.948 13.8984 246.181 13.1868 247.489 12.9011C248.697 12.6375 249.947 12.6371 251.155 12.8998C252.464 13.1845 253.697 13.8953 256.163 15.3169L294.668 37.5114C297.134 38.9329 298.367 39.6437 299.676 39.9284C300.884 40.1911 302.134 40.1907 303.342 39.9271C304.651 39.6415 305.883 38.9298 308.348 37.5066L324.436 28.2182C326.901 26.7949 328.134 26.0833 329.443 25.7977C330.65 25.5341 331.901 25.5337 333.108 25.7964C334.417 26.0811 335.651 26.7919 338.117 28.2134L377.687 51.0224C384.361 54.869 387.697 56.7923 388.843 59.2908C389.886 61.5668 389.887 64.1842 388.845 66.4609C387.702 68.9602 384.366 70.8859 377.696 74.7371L366.984 80.9215C360.314 84.7727 356.978 86.6983 355.835 89.1977C354.793 91.4744 354.794 94.0918 355.837 96.3678C356.983 98.8663 360.319 100.79 366.993 104.636L377.265 110.558C383.939 114.404 387.275 116.327 388.421 118.826C389.464 121.102 389.465 123.719 388.423 125.996C387.28 128.495 383.944 130.421 377.274 134.272L357.741 145.549C351.07 149.401 347.735 151.326 346.591 153.826C345.55 156.102 345.551 158.72 346.594 160.996C347.739 163.494 351.076 165.418 357.749 169.264L362.259 171.864C368.933 175.71 372.269 177.634 373.415 180.132C374.458 182.408 374.459 185.026 373.417 187.302C372.274 189.802 368.938 191.727 362.268 195.579L329.76 214.347C327.295 215.77 326.062 216.482 324.753 216.768C323.546 217.031 322.296 217.032 321.088 216.769C319.779 216.484 318.546 215.773 316.079 214.352L292.618 200.828C290.151 199.407 288.918 198.696 287.609 198.411C286.402 198.148 285.151 198.149 283.944 198.412C282.635 198.698 281.402 199.41 278.937 200.833L260.039 211.743C257.574 213.167 256.342 213.878 255.033 214.164C253.825 214.428 252.575 214.428 251.367 214.165C250.058 213.881 248.825 213.17 246.359 211.748L224.252 199.006C221.786 197.584 220.553 196.873 219.244 196.589C218.036 196.326 216.786 196.326 215.578 196.59C214.269 196.876 213.037 197.587 210.572 199.011L186.205 213.079C183.739 214.502 182.507 215.214 181.198 215.499C179.99 215.763 178.74 215.763 177.532 215.501C176.223 215.216 174.99 214.505 172.524 213.084L115.641 180.295C115.614 180.28 115.614 180.241 115.641 180.226Z" fill="url(#paint0_radial_77315_54918)"/>
<path opacity="0.6" d="M199.417 155.288C203.234 157.488 205.142 158.588 205.874 159.853C206.546 161.014 206.546 162.27 205.875 163.431C205.144 164.697 203.236 165.798 199.422 168.001L186.517 175.451C182.702 177.654 180.795 178.755 178.602 179.178C176.589 179.566 174.412 179.567 172.399 179.18C170.205 178.759 168.297 177.659 164.481 175.459L147.989 165.953C144.173 163.753 142.264 162.653 141.532 161.388C140.86 160.227 140.86 158.971 141.531 157.81C142.262 156.544 144.17 155.443 147.984 153.241L160.889 145.79C164.704 143.588 166.611 142.486 168.805 142.063C170.818 141.675 172.994 141.675 175.007 142.061C177.201 142.483 179.109 143.583 182.925 145.782L199.417 155.288Z" fill="white"/>
<path opacity="0.3" d="M50.3469 160.171C54.1632 162.371 56.0714 163.471 56.8036 164.736C57.4756 165.897 57.476 167.153 56.8048 168.314C56.0735 169.58 54.1661 170.681 50.3513 172.883L45.8971 175.455C42.0823 177.658 40.1749 178.759 37.9818 179.182C35.9688 179.57 33.7921 179.571 31.7789 179.184C29.5855 178.763 27.6773 177.663 23.8609 175.463L16.6895 171.329C12.8731 169.129 10.965 168.029 10.2328 166.764C9.56077 165.603 9.56033 164.348 10.2315 163.186C10.9628 161.921 12.8702 160.819 16.685 158.617L21.1393 156.045C24.9541 153.843 26.8615 152.742 29.0546 152.319C31.0676 151.93 33.2443 151.93 35.2575 152.316C37.4509 152.738 39.3591 153.838 43.1754 156.037L50.3469 160.171Z" fill="url(#paint1_linear_77315_54918)"/>
<path d="M105.847 86.2884C109.663 88.4882 111.571 89.5881 112.304 90.8531C112.976 92.0141 112.976 93.2698 112.305 94.4314C111.574 95.6969 109.666 96.7981 105.851 99.0006L82.2698 112.615C78.455 114.818 76.5476 115.919 74.3545 116.342C72.3416 116.73 70.1649 116.731 68.1516 116.344C65.9582 115.923 64.05 114.823 60.2337 112.623L42.6094 102.464C38.7931 100.265 36.8849 99.1646 36.1527 97.8996C35.4807 96.7386 35.4802 95.4829 36.1515 94.3213C36.8827 93.0558 38.7901 91.9546 42.6049 89.7521L66.1864 76.1373C70.0012 73.9348 71.9086 72.8336 74.1018 72.4107C76.1147 72.0225 78.2914 72.0218 80.3047 72.4085C82.4981 72.8298 84.4062 73.9297 88.2226 76.1295L105.847 86.2884Z" fill="white"/>
<path opacity="0.15" d="M62.8859 76.3665C66.7023 78.5663 68.6105 79.6662 69.3426 80.9312C70.0147 82.0923 70.0151 83.348 69.3439 84.5095C68.6126 85.775 66.7052 86.8763 62.8904 89.0788L54.8797 93.7037C51.0649 95.9062 49.1575 97.0074 46.9644 97.4303C44.9515 97.8185 42.7748 97.8192 40.7615 97.4325C38.5681 97.0112 36.6599 95.9113 32.8436 93.7115L21.7497 87.3168C17.9333 85.117 16.0252 84.0171 15.293 82.7521C14.621 81.5911 14.6205 80.3353 15.2917 79.1738C16.023 77.9083 17.9304 76.8071 21.7452 74.6046L29.7559 69.9796C33.5707 67.7771 35.4781 66.6759 37.6712 66.253C39.6842 65.8649 41.8609 65.8641 43.8741 66.2508C46.0675 66.6722 47.9757 67.7721 51.792 69.9719L62.8859 76.3665Z" fill="url(#paint2_linear_77315_54918)"/>
<path d="M264.472 59.6712C268.288 61.871 270.196 62.9709 270.929 64.2359C271.601 65.397 271.601 66.6527 270.93 67.8142C270.199 69.0797 268.291 70.181 264.476 72.3834L255.815 77.3842C252 79.5867 250.093 80.688 247.899 81.1108C245.886 81.499 243.71 81.4998 241.696 81.113C239.503 80.6917 237.595 79.5918 233.779 77.392L221.967 70.5835C218.15 68.3837 216.242 67.2838 215.51 66.0188C214.838 64.8577 214.838 63.602 215.509 62.4405C216.24 61.175 218.147 60.0737 221.962 57.8712L230.624 52.8704C234.439 50.668 236.346 49.5667 238.539 49.1438C240.552 48.7557 242.729 48.7549 244.742 49.1417C246.935 49.563 248.844 50.6629 252.66 52.8627L264.472 59.6712Z" fill="white"/>
<g style="mix-blend-mode:multiply" opacity="0.5">
<g filter="url(#filter0_f_77315_54918)">
<path d="M208.807 118.046C191.721 108.193 164.11 108.193 147.136 118.046C133.758 125.811 130.982 137.378 138.437 146.944L63.6328 190.365L72.5999 195.536H95.3821L104.913 190.005L104.357 185.37L112.315 180.751L122.685 179.545L126.305 177.444L124.849 168.149L131.394 164.39L146.343 166.253L159.415 158.663C175.647 163.138 195.628 161.493 209.007 153.727C225.981 143.874 225.891 127.899 208.807 118.046ZM190.032 127.535C184.613 127.535 180.219 126.062 180.219 124.246C180.219 122.431 184.456 120.314 189.876 120.314C195.295 120.314 199.846 122.433 199.846 124.246C199.846 126.06 195.452 127.535 190.032 127.535Z" fill="#B3B3B3"/>
</g>
</g>
<path d="M217.999 107.107L249.764 88.9571C254.941 85.9993 255.109 81.2017 250.143 78.1256L246.394 75.803C241.839 72.9807 234.182 72.8258 229.296 75.457L228.846 75.6993C224.206 78.1979 216.935 78.0495 212.612 75.3681L208.105 72.5729C206.414 71.5237 206.463 69.89 208.216 68.8751V68.8751C210.763 67.4005 210.761 65.0135 208.211 63.5403L205.915 62.2132C203.258 60.6781 198.964 60.6497 196.247 62.1492L189.971 65.6125C187.671 66.8819 184.049 66.882 181.748 65.6128V65.6128C179.4 64.3173 175.686 64.3481 173.404 65.682L113.573 100.644C110.046 102.705 110.252 106.055 114.023 107.966V107.966C117.187 109.57 117.654 112.315 115.093 114.243L112.128 116.475C107.676 119.826 108.284 124.572 113.54 127.509L117.45 129.693C122.873 132.723 122.929 137.734 117.573 140.803L106.15 147.349L102.545 149.431C96.9823 152.644 88.0244 152.757 82.2233 149.688L79.0397 148.004C76.0013 146.397 74.2712 144.127 74.2712 141.748L74.2712 75.8107" stroke="url(#paint3_linear_77315_54918)"/>
<path fill-rule="evenodd" clip-rule="evenodd" d="M228.071 102.898C228.272 102.824 228.401 102.608 228.401 102.284C228.401 101.709 227.999 101.011 227.502 100.724C227.248 100.577 227.019 100.567 226.855 100.669L226.853 100.664L218.328 105.578L219.607 107.783L228.071 102.898Z" fill="#656B81"/>
<path fill-rule="evenodd" clip-rule="evenodd" d="M228.071 102.898C228.272 102.824 228.401 102.608 228.401 102.284C228.401 101.709 227.999 101.011 227.502 100.724C227.248 100.577 227.019 100.567 226.855 100.669L226.853 100.664L218.328 105.578L219.607 107.783L228.071 102.898Z" fill="url(#paint4_linear_77315_54918)"/>
<ellipse cx="2.04525" cy="2.04774" rx="2.04525" ry="2.04774" transform="matrix(0.865673 0.500609 0 1 207.992 109.086)" fill="#727688"/>
<path fill-rule="evenodd" clip-rule="evenodd" d="M220.279 108.256C220.61 108.155 220.824 107.817 220.824 107.299C220.824 106.415 220.205 105.342 219.441 104.9C219.092 104.698 218.772 104.663 218.529 104.77L218.525 104.764L214.977 106.832L216.937 110.212L220.279 108.256Z" fill="#656B81"/>
<path fill-rule="evenodd" clip-rule="evenodd" d="M220.279 108.256C220.61 108.155 220.824 107.817 220.824 107.299C220.824 106.415 220.205 105.342 219.441 104.9C219.092 104.698 218.772 104.663 218.529 104.77L218.525 104.764L214.977 106.832L216.937 110.212L220.279 108.256Z" fill="url(#paint5_linear_77315_54918)"/>
<ellipse cx="1.04269" cy="1.04396" rx="1.04269" ry="1.04396" transform="matrix(0.865673 0.500609 0 1 209.602 110.047)" fill="#797F94"/>
<ellipse cx="0.421745" cy="0.422259" rx="0.421745" ry="0.422259" transform="matrix(0.865673 0.500609 0 1 210.141 110.977)" fill="#636B81"/>
<path fill-rule="evenodd" clip-rule="evenodd" d="M217.321 110.64C217.683 110.475 217.912 110.062 217.912 109.454C217.912 108.324 217.119 106.948 216.141 106.383C215.588 106.063 215.093 106.071 214.769 106.343L206.664 110.899L209.177 115.23L217.321 110.64Z" fill="url(#paint6_linear_77315_54918)"/>
<g style="mix-blend-mode:lighten" opacity="0.4">
<path fill-rule="evenodd" clip-rule="evenodd" d="M228.398 102.284C228.398 102.608 228.27 102.824 228.068 102.898L220.815 107.084C220.823 107.16 220.827 107.234 220.827 107.307C220.827 107.84 220.602 108.182 220.255 108.272L217.904 109.648C217.859 110.148 217.643 110.49 217.321 110.637L209.178 115.226L206.665 110.895L214.77 106.34C215.054 106.101 215.467 106.065 215.937 106.274L218.528 104.765L218.536 104.777C218.779 104.672 219.097 104.708 219.445 104.909C219.451 104.913 219.458 104.917 219.465 104.921L226.85 100.664L226.853 100.669C227.016 100.567 227.246 100.577 227.5 100.724C227.996 101.011 228.398 101.709 228.398 102.284Z" fill="white"/>
</g>
<path d="M201.812 119.356C201.809 120.317 201.462 121.278 200.768 122.168C199.219 120.198 196.232 119.114 194.007 118.605C190.234 117.746 186.182 118.057 182.619 119.585C181.453 120.084 180.325 120.716 179.442 121.622C179.281 121.788 179.13 121.96 178.993 122.142C177.015 119.605 177.816 116.521 181.406 114.438C186.052 111.74 193.609 111.74 198.287 114.438C200.565 115.748 201.738 117.457 201.809 119.176C201.812 119.237 201.812 119.298 201.812 119.356Z" fill="url(#paint7_linear_77315_54918)"/>
<mask id="mask0_77315_54918" style="mask-type:luminance" maskUnits="userSpaceOnUse" x="132" y="126" width="5" height="18">
<path d="M132.422 132.399L132.438 126.68C132.426 130.52 133.891 134.363 136.827 137.9L136.811 143.619C133.875 140.082 132.41 136.239 132.422 132.399Z" fill="white"/>
</mask>
<g mask="url(#mask0_77315_54918)">
<path d="M132.438 126.68L132.422 132.399C132.41 136.237 133.875 140.082 136.811 143.619L136.827 137.9C133.891 134.363 132.426 130.52 132.438 126.68Z" fill="url(#paint8_linear_77315_54918)"/>
</g>
<path d="M142.892 141.728L142.877 147.449L139.555 145.531L139.57 139.812L142.892 141.728Z" fill="#6B6F7B"/>
<path d="M221.456 127.45C221.323 131.737 218.943 135.963 216.12 139.084C213.2 142.314 209.476 144.742 205.533 146.593C195.688 151.214 184.688 152.989 173.862 152.517C168.48 152.278 163.103 151.506 157.906 150.073L157.891 155.792C157.891 156.272 164.787 157.289 165.463 157.395C168.16 157.813 170.881 158.087 173.608 158.214C184.369 158.715 195.555 157.105 205.324 152.408C206.273 151.95 207.212 151.462 208.13 150.946C211.539 149.029 214.743 146.661 217.199 143.621C218.966 141.435 220.329 138.89 221.009 136.157C221.75 133.177 221.45 129.99 221.46 126.945C221.46 127.114 221.46 127.282 221.454 127.452L221.456 127.45Z" fill="url(#paint9_linear_77315_54918)"/>
<path d="M157.911 150.07L157.896 155.791L144.555 163.535L144.57 157.816L157.911 150.07Z" fill="#9AA0AE"/>
<path d="M144.565 157.814L144.55 163.533L129.289 161.635L129.305 155.914L144.565 157.814Z" fill="#838897"/>
<path d="M129.304 155.914L129.289 161.635L122.609 165.47L122.625 159.751L129.304 155.914Z" fill="#9AA0AE"/>
<path d="M124.11 169.234L124.095 174.953L120.398 177.1L120.414 171.381L124.11 169.234Z" fill="#9AA0AE"/>
<path d="M120.417 171.383L120.401 177.102L109.82 178.33L109.836 172.612L120.417 171.383Z" fill="#838897"/>
<path d="M109.846 172.617L109.83 178.336L101.703 183.053L101.721 177.334L109.846 172.617Z" fill="#9AA0AE"/>
<path d="M139.573 139.812L139.557 145.531L63.1406 189.89L63.1563 184.171L139.573 139.812Z" fill="url(#paint10_linear_77315_54918)"/>
<path d="M142.895 143.626L66.4783 187.985L63.1562 186.069L139.573 141.711L142.895 143.626Z" fill="#C0C7D1"/>
<path d="M142.901 141.727L142.885 147.447L66.4688 191.806L66.4844 186.085L142.901 141.727Z" fill="#B58E20"/>
<path d="M102.276 182.062L102.26 187.781L92.5312 193.428L92.5469 187.709L102.276 182.062Z" fill="#9AA0AE"/>
<path d="M92.5472 187.711L92.5315 193.43H69.2734L69.2911 187.711H92.5472Z" fill="#838897"/>
<path d="M208.323 108.614C190.885 98.5559 162.7 98.5559 145.377 108.612C131.719 116.54 128.887 128.348 136.833 137.917L60.1406 182.432L63.1551 184.169L139.572 139.811L142.895 141.729L66.4752 186.087L69.2938 187.713H92.55L102.279 182.066L101.711 177.335L109.836 172.618L120.417 171.389L124.111 169.245L122.628 159.756L129.308 155.919L144.57 157.819L157.911 150.073C174.482 154.642 194.875 152.961 208.529 145.035C225.856 134.981 225.764 118.671 208.323 108.616V108.614ZM212.176 126.464C211.923 131.373 208.582 136.233 202.143 139.972C188.683 147.784 166.712 147.788 153.163 139.972C146.603 136.188 143.201 131.257 142.968 126.29C142.956 126.029 142.954 125.771 142.96 125.509C142.962 125.431 142.962 125.352 142.966 125.274C142.968 125.192 142.974 125.112 142.98 125.03C142.986 124.951 142.988 124.873 142.993 124.795C143.001 124.713 143.011 124.632 143.019 124.55C143.025 124.472 143.033 124.394 143.04 124.317C143.052 124.235 143.062 124.155 143.074 124.073C143.085 123.995 143.095 123.916 143.111 123.836C143.123 123.754 143.138 123.676 143.154 123.596C143.168 123.517 143.181 123.439 143.199 123.361C143.217 123.279 143.236 123.198 143.252 123.12C143.27 123.042 143.285 122.964 143.305 122.887C143.324 122.805 143.348 122.725 143.369 122.643C143.389 122.566 143.409 122.488 143.432 122.41C143.458 122.332 143.483 122.249 143.509 122.169C143.53 122.093 143.556 122.015 143.581 121.938C143.607 121.856 143.638 121.778 143.665 121.698C143.691 121.621 143.718 121.543 143.748 121.467C143.779 121.385 143.81 121.306 143.844 121.226C143.871 121.15 143.902 121.076 143.934 120.999C143.967 120.917 144.004 120.839 144.037 120.761C144.071 120.684 144.104 120.606 144.139 120.53C144.177 120.451 144.216 120.373 144.255 120.295C144.292 120.219 144.327 120.144 144.367 120.068C144.406 119.99 144.449 119.911 144.49 119.833C144.529 119.757 144.568 119.682 144.611 119.606C144.654 119.528 144.701 119.452 144.746 119.373C144.79 119.297 144.831 119.223 144.876 119.146C144.923 119.07 144.974 118.992 145.023 118.914C145.068 118.841 145.113 118.765 145.16 118.692C145.211 118.614 145.264 118.538 145.316 118.46C145.364 118.387 145.414 118.313 145.465 118.241C145.518 118.162 145.575 118.086 145.632 118.008C145.685 117.937 145.736 117.865 145.789 117.792C145.845 117.716 145.906 117.638 145.965 117.562C146.018 117.491 146.075 117.419 146.131 117.346C146.194 117.27 146.255 117.196 146.319 117.119C146.376 117.049 146.435 116.977 146.494 116.906C146.558 116.83 146.625 116.756 146.693 116.679C146.756 116.609 146.815 116.538 146.88 116.468C146.946 116.396 147.017 116.319 147.087 116.247C147.152 116.176 147.215 116.106 147.281 116.036C147.352 115.963 147.428 115.889 147.5 115.814C147.567 115.748 147.632 115.677 147.702 115.609C147.779 115.533 147.859 115.46 147.935 115.384C148.006 115.319 148.072 115.253 148.143 115.184C148.225 115.108 148.311 115.036 148.394 114.959C148.464 114.895 148.535 114.83 148.607 114.768C148.691 114.691 148.782 114.617 148.868 114.541C148.94 114.478 149.011 114.417 149.087 114.355C149.173 114.279 149.267 114.208 149.357 114.136C149.434 114.071 149.508 114.009 149.589 113.944C149.681 113.874 149.777 113.801 149.869 113.729C149.951 113.67 150.029 113.606 150.11 113.547C150.207 113.471 150.311 113.396 150.415 113.322C150.493 113.265 150.57 113.206 150.648 113.152C150.756 113.075 150.864 113.001 150.971 112.927C151.05 112.87 151.128 112.817 151.206 112.76C151.324 112.682 151.445 112.604 151.563 112.526C151.639 112.479 151.712 112.43 151.788 112.379C151.923 112.293 152.064 112.205 152.203 112.119C152.266 112.081 152.325 112.042 152.386 112.003C152.587 111.88 152.795 111.757 153.005 111.635C166.465 103.823 188.436 103.823 201.987 111.635C202.198 111.759 202.408 111.882 202.614 112.005C202.68 112.048 202.745 112.089 202.813 112.132C202.95 112.216 203.086 112.301 203.221 112.385C203.305 112.437 203.389 112.494 203.472 112.551C203.583 112.623 203.699 112.698 203.808 112.77C203.891 112.827 203.969 112.88 204.049 112.936C204.159 113.013 204.269 113.087 204.374 113.163C204.457 113.22 204.531 113.275 204.61 113.334C204.713 113.406 204.821 113.482 204.921 113.559C205.003 113.621 205.082 113.682 205.162 113.744C205.258 113.817 205.354 113.891 205.448 113.964C205.526 114.026 205.603 114.087 205.679 114.151C205.771 114.224 205.867 114.298 205.957 114.372C206.034 114.437 206.106 114.5 206.182 114.562C206.269 114.639 206.359 114.711 206.443 114.787C206.519 114.852 206.59 114.916 206.658 114.981C206.743 115.057 206.831 115.132 206.911 115.208C206.982 115.272 207.052 115.339 207.123 115.407C207.201 115.484 207.283 115.556 207.362 115.634C207.428 115.701 207.497 115.769 207.563 115.836C207.64 115.912 207.714 115.987 207.789 116.063C207.855 116.133 207.918 116.2 207.984 116.27C208.055 116.347 208.127 116.421 208.196 116.497C208.261 116.568 208.319 116.638 208.382 116.709C208.449 116.785 208.519 116.859 208.588 116.939C208.647 117.01 208.703 117.08 208.762 117.151C208.827 117.229 208.893 117.307 208.956 117.384C209.013 117.456 209.068 117.526 209.122 117.599C209.185 117.677 209.246 117.753 209.305 117.832C209.361 117.904 209.412 117.978 209.465 118.051C209.522 118.129 209.581 118.205 209.634 118.284C209.685 118.356 209.736 118.432 209.785 118.505C209.837 118.583 209.892 118.661 209.941 118.739C209.988 118.812 210.033 118.886 210.082 118.959C210.133 119.037 210.184 119.119 210.231 119.197C210.276 119.274 210.317 119.346 210.362 119.422C210.407 119.501 210.454 119.579 210.499 119.661C210.543 119.737 210.582 119.812 210.621 119.886C210.666 119.968 210.707 120.046 210.75 120.127C210.789 120.203 210.823 120.277 210.862 120.352C210.901 120.434 210.94 120.514 210.977 120.596C211.015 120.672 211.048 120.747 211.081 120.823C211.118 120.901 211.154 120.984 211.189 121.064C211.222 121.14 211.252 121.218 211.281 121.295C211.314 121.377 211.348 121.457 211.379 121.539C211.406 121.616 211.432 121.694 211.461 121.77C211.493 121.852 211.52 121.932 211.547 122.015C211.573 122.091 211.598 122.169 211.62 122.247C211.645 122.33 211.673 122.408 211.696 122.488C211.722 122.566 211.741 122.645 211.761 122.723C211.782 122.805 211.806 122.885 211.827 122.967C211.847 123.046 211.865 123.122 211.88 123.2C211.9 123.282 211.92 123.367 211.937 123.447C211.955 123.523 211.969 123.601 211.982 123.68C211.996 123.762 212.014 123.842 212.027 123.926C212.041 124.004 212.049 124.083 212.061 124.159C212.074 124.243 212.086 124.325 212.098 124.406C212.106 124.484 212.115 124.562 212.123 124.644C212.131 124.726 212.141 124.807 212.149 124.889C212.155 124.967 212.16 125.045 212.166 125.124C212.168 125.208 212.178 125.29 212.18 125.37C212.182 125.448 212.182 125.527 212.186 125.607C212.188 125.689 212.188 125.773 212.192 125.853C212.192 126.059 212.184 126.26 212.174 126.466L212.176 126.464Z" fill="url(#paint11_linear_77315_54918)"/>
<path d="M66.4772 186.083L66.4713 187.982L63.1552 186.069V184.167L60.1407 182.43L60.125 188.149L63.1395 189.886L66.4615 191.803V191.706V191.803L69.2762 193.427L69.2939 187.708L66.4772 186.083Z" fill="#636772"/>
<path d="M212.186 125.615C212.182 125.535 212.182 125.457 212.18 125.379C212.18 125.297 212.168 125.216 212.166 125.132C212.16 125.054 212.154 124.976 212.148 124.895C212.141 124.815 212.133 124.733 212.123 124.653C212.115 124.571 212.107 124.492 212.097 124.414C212.088 124.332 212.076 124.25 212.062 124.166C212.05 124.091 212.043 124.013 212.029 123.933C212.013 123.849 211.998 123.769 211.984 123.686C211.968 123.608 211.955 123.53 211.939 123.454C211.921 123.371 211.902 123.287 211.882 123.207C211.864 123.129 211.849 123.052 211.829 122.974C211.806 122.892 211.784 122.812 211.761 122.73C211.741 122.651 211.721 122.573 211.696 122.495C211.674 122.413 211.645 122.334 211.622 122.252C211.598 122.174 211.573 122.096 211.547 122.019C211.52 121.939 211.492 121.857 211.461 121.775C211.432 121.7 211.408 121.62 211.379 121.546C211.347 121.464 211.314 121.384 211.281 121.301C211.249 121.225 211.222 121.147 211.189 121.07C211.153 120.99 211.118 120.908 211.081 120.83C211.048 120.754 211.014 120.677 210.977 120.603C210.94 120.521 210.901 120.44 210.862 120.358C210.822 120.286 210.789 120.21 210.75 120.133C210.707 120.053 210.666 119.973 210.621 119.893C210.581 119.82 210.542 119.744 210.499 119.668C210.454 119.585 210.407 119.507 210.362 119.429C210.317 119.353 210.274 119.28 210.229 119.204C210.182 119.126 210.131 119.045 210.08 118.965C210.033 118.893 209.988 118.82 209.941 118.748C209.89 118.668 209.837 118.59 209.782 118.511C209.733 118.439 209.682 118.363 209.631 118.29C209.579 118.212 209.52 118.136 209.463 118.057C209.41 117.983 209.359 117.911 209.302 117.838C209.244 117.76 209.181 117.684 209.12 117.605C209.067 117.531 209.011 117.463 208.954 117.388C208.893 117.314 208.824 117.234 208.76 117.155C208.701 117.085 208.644 117.017 208.585 116.946C208.519 116.868 208.448 116.792 208.382 116.715C208.319 116.645 208.26 116.574 208.196 116.506C208.129 116.43 208.055 116.353 207.984 116.277C207.918 116.207 207.855 116.14 207.788 116.07C207.716 115.993 207.639 115.919 207.563 115.843C207.496 115.776 207.428 115.708 207.361 115.641C207.283 115.563 207.201 115.489 207.122 115.414C207.052 115.346 206.981 115.279 206.911 115.215C206.83 115.138 206.742 115.062 206.658 114.988C206.59 114.923 206.519 114.859 206.443 114.794C206.358 114.718 206.268 114.643 206.182 114.569C206.106 114.504 206.031 114.442 205.957 114.377C205.867 114.303 205.771 114.229 205.679 114.156C205.602 114.092 205.526 114.029 205.448 113.968C205.352 113.896 205.258 113.822 205.162 113.749C205.079 113.687 205.001 113.626 204.919 113.563C204.819 113.489 204.711 113.413 204.607 113.338C204.529 113.28 204.453 113.225 204.372 113.168C204.264 113.092 204.155 113.017 204.045 112.941C203.965 112.884 203.886 112.832 203.804 112.775C203.694 112.702 203.579 112.63 203.467 112.556C203.385 112.501 203.301 112.444 203.217 112.391C203.081 112.307 202.948 112.223 202.809 112.139C202.743 112.096 202.678 112.055 202.609 112.012C202.406 111.889 202.194 111.765 201.985 111.642C188.432 103.828 166.461 103.828 153 111.642C152.793 111.761 152.585 111.887 152.383 112.01C152.321 112.049 152.262 112.088 152.199 112.123C152.06 112.211 151.919 112.297 151.784 112.385C151.708 112.436 151.635 112.483 151.559 112.53C151.441 112.61 151.32 112.689 151.202 112.767C151.124 112.824 151.045 112.877 150.967 112.931C150.859 113.006 150.75 113.082 150.644 113.156C150.564 113.213 150.489 113.272 150.411 113.329C150.305 113.401 150.201 113.477 150.103 113.552C150.023 113.612 149.943 113.677 149.862 113.735C149.77 113.808 149.674 113.88 149.58 113.951C149.502 114.015 149.428 114.078 149.351 114.142C149.261 114.215 149.169 114.285 149.081 114.362C149.004 114.422 148.934 114.485 148.861 114.545C148.775 114.622 148.685 114.698 148.601 114.772C148.529 114.835 148.458 114.9 148.387 114.964C148.305 115.04 148.219 115.113 148.137 115.189C148.066 115.256 148 115.324 147.929 115.389C147.853 115.463 147.772 115.537 147.696 115.612C147.626 115.68 147.561 115.751 147.494 115.817C147.42 115.894 147.345 115.966 147.275 116.038C147.206 116.109 147.146 116.179 147.081 116.25C147.01 116.322 146.94 116.398 146.873 116.471C146.809 116.541 146.75 116.612 146.687 116.682C146.621 116.758 146.552 116.833 146.487 116.909C146.429 116.979 146.37 117.052 146.313 117.122C146.249 117.199 146.188 117.275 146.125 117.349C146.068 117.424 146.013 117.496 145.959 117.566C145.9 117.641 145.839 117.721 145.782 117.795C145.729 117.87 145.679 117.942 145.626 118.012C145.569 118.091 145.512 118.167 145.459 118.245C145.408 118.318 145.357 118.39 145.31 118.464C145.257 118.543 145.205 118.619 145.154 118.697C145.105 118.77 145.06 118.846 145.015 118.918C144.968 118.997 144.917 119.075 144.87 119.151C144.825 119.227 144.781 119.304 144.74 119.378C144.695 119.456 144.648 119.533 144.605 119.611C144.564 119.687 144.523 119.764 144.484 119.84C144.443 119.918 144.399 119.996 144.36 120.075C144.321 120.151 144.286 120.227 144.249 120.302C144.209 120.38 144.17 120.46 144.133 120.538C144.1 120.613 144.066 120.693 144.031 120.767C143.998 120.847 143.963 120.926 143.927 121.006C143.898 121.082 143.867 121.159 143.837 121.233C143.804 121.315 143.773 121.393 143.743 121.475C143.714 121.552 143.686 121.63 143.661 121.704C143.634 121.787 143.602 121.865 143.577 121.947C143.551 122.023 143.526 122.102 143.504 122.176C143.479 122.258 143.453 122.34 143.428 122.419C143.406 122.497 143.387 122.575 143.367 122.651C143.344 122.732 143.322 122.814 143.303 122.896C143.281 122.97 143.265 123.05 143.248 123.129C143.232 123.207 143.212 123.287 143.195 123.369C143.177 123.448 143.164 123.526 143.15 123.606C143.136 123.686 143.118 123.765 143.109 123.847C143.093 123.925 143.083 124.003 143.071 124.082C143.06 124.164 143.048 124.246 143.038 124.326C143.028 124.402 143.021 124.481 143.015 124.559C143.007 124.641 142.999 124.721 142.989 124.804C142.983 124.882 142.981 124.96 142.975 125.04C142.97 125.12 142.964 125.203 142.962 125.283C142.962 125.361 142.962 125.441 142.956 125.52C142.95 125.78 142.954 126.038 142.964 126.3C143.197 131.266 146.601 136.198 153.161 139.98C166.71 147.797 188.681 147.795 202.141 139.98C208.582 136.243 211.921 131.381 212.174 126.472C212.182 126.269 212.192 126.067 212.192 125.862C212.188 125.78 212.188 125.696 212.186 125.615ZM200.764 122.182C200.192 122.919 199.383 123.61 198.339 124.217C193.693 126.917 186.134 126.917 181.457 124.217C180.393 123.604 179.571 122.904 178.989 122.156C177.011 119.619 177.812 116.535 181.402 114.452C186.048 111.754 193.605 111.754 198.282 114.452C200.561 115.762 201.734 117.47 201.804 119.19C201.808 119.251 201.808 119.312 201.808 119.37C201.804 120.331 201.458 121.292 200.764 122.182Z" fill="url(#paint12_linear_77315_54918)"/>
<g opacity="0.3" filter="url(#filter1_f_77315_54918)">
<path d="M285.675 159.521L228.406 150.133L276.54 198.577L348.439 194.077L285.675 159.521Z" fill="#D9D9D9"/>
</g>
<g filter="url(#filter2_f_77315_54918)">
<path d="M286.988 165.535L257.086 160.633L282.218 185.928L319.759 183.578L286.988 165.535Z" fill="#D1D5DC"/>
</g>
<g clip-path="url(#clip1_77315_54918)">
<path d="M332.267 58.8966L250.976 11.0757C250.38 10.6341 249.673 10.3611 248.93 10.2865C248.188 10.2118 247.438 10.3385 246.764 10.6525L237.477 15.8631C238.156 15.5496 238.909 15.4234 239.656 15.498C240.403 15.5725 241.115 15.8451 241.715 16.2863L322.979 64.1072C324.725 65.2668 326.17 66.8111 327.196 68.6163C328.223 70.4214 328.804 72.4372 328.892 74.5019L328.73 136.394C328.73 153.533 322.817 166.309 312.693 172.313L318.093 169.139C328.217 163.135 338.017 148.323 338.071 131.183L338.179 69.2913C338.079 67.2293 337.493 65.2181 336.467 63.4148C335.441 61.6115 334.004 60.0652 332.267 58.8966Z" fill="url(#paint13_linear_77315_54918)" stroke="white" stroke-width="0.464459"/>
<path d="M332.267 58.8966L250.976 11.0757C250.38 10.6341 249.673 10.3611 248.93 10.2865C248.188 10.2118 247.438 10.3385 246.764 10.6525L237.477 15.8631C238.156 15.5496 238.909 15.4234 239.656 15.498C240.403 15.5725 241.115 15.8451 241.715 16.2863L322.979 64.1072C324.725 65.2668 326.17 66.8111 327.196 68.6163C328.223 70.4214 328.804 72.4372 328.892 74.5019L328.73 136.394C328.73 153.533 322.817 166.309 312.693 172.313L318.093 169.139C328.217 163.135 338.017 148.323 338.071 131.183L338.179 69.2913C338.079 67.2293 337.493 65.2181 336.467 63.4148C335.441 61.6115 334.004 60.0652 332.267 58.8966Z" fill="url(#paint14_linear_77315_54918)" stroke="white" stroke-width="0.464459"/>
<path d="M322.979 64.0919C324.725 65.2515 326.169 66.7958 327.196 68.601C328.222 70.4062 328.803 72.4219 328.891 74.4867L328.729 136.379C328.729 158.015 319.307 172.747 303.81 175.577L281.969 179.518L260.181 149.921C244.765 128.92 235.586 103.237 235.586 81.6545L235.748 19.7095C235.748 15.9007 238.448 14.4196 241.714 16.271L322.979 64.0919Z" fill="url(#paint15_linear_77315_54918)" stroke="white" stroke-width="0.464459"/>
<g opacity="0.6" filter="url(#filter3_f_77315_54918)">
<path d="M279.25 41.9153L241.629 19.9161C240.26 19.116 238.54 20.1035 238.541 21.6886L238.579 86.0969C238.579 86.0969 240.769 107.712 250.482 127.012C260.195 146.311 278.373 167.483 278.373 167.483L279.25 41.9153Z" fill="url(#paint16_linear_77315_54918)"/>
</g>
<path d="M259.883 87.6581C259.883 99.6663 267.982 114.293 278.349 120.35C288.717 126.407 296.951 121.567 296.951 109.532C296.951 97.4974 288.636 82.8972 278.349 76.8402C268.063 70.7833 259.883 75.65 259.883 87.6581Z" fill="url(#paint17_linear_77315_54918)"/>
<path d="M267.25 89.5969L271.57 87.0312L279.264 100.309L299.216 89.0414L301.672 93.3263L277.374 107.186L267.25 89.5969Z" fill="white"/>
</g>
<path opacity="0.2" d="M47.4297 79.1641L100.497 52.3733L100.497 140.771L47.4297 167.562L47.4297 79.1641Z" fill="url(#paint18_linear_77315_54918)"/>
<path opacity="0.4" d="M56.2969 83.4844L91.6199 65.6518L91.6199 124.491L56.2969 142.324L56.2969 83.4844Z" fill="url(#paint19_linear_77315_54918)"/>
<path fill-rule="evenodd" clip-rule="evenodd" d="M69.369 30.1766C71.0079 28.2502 72.957 27.1249 74.596 27.1588L78.4547 27.2388C79.0068 27.2502 79.602 27.1299 80.2167 26.8826L84.5133 25.1539C85.7252 24.6663 86.8277 24.6844 87.6739 25.1699L87.7134 25.1014L91.6444 27.3904L90.7697 28.9055L90.0218 28.47L90.689 29.622C90.9676 30.103 91.3354 30.4753 91.778 30.724L94.8712 32.4626C96.185 33.201 96.7873 34.9938 96.4864 37.2702L95.778 42.63C95.6767 43.3968 95.6767 44.1195 95.778 44.7693L96.4864 49.3111C96.7873 51.2401 96.185 53.7283 94.8712 55.9838L91.778 61.2942C91.3354 62.0539 90.9676 62.8509 90.689 63.6535L88.742 69.2637C87.915 71.6465 86.3381 73.8798 84.5133 75.2528L80.2167 78.4854C79.602 78.9478 79.0068 79.5148 78.4547 80.1637L74.596 84.6994C72.957 86.6258 71.0079 87.7511 69.369 87.7172L65.5102 87.6372C64.9582 87.6258 64.363 87.7461 63.7483 87.9934L59.5664 89.6759L61.2106 90.6252L60.3359 92.1403L56.2216 89.7649L56.2644 89.6906C55.8481 89.4453 55.495 89.0856 55.223 88.6159L53.276 85.254C52.9974 84.773 52.6295 84.4007 52.187 84.152L49.0938 82.4134C47.78 81.675 47.1777 79.8822 47.4785 77.6058L48.1869 72.246C48.2883 71.4792 48.2883 70.7565 48.1869 70.1067L47.4785 65.5649C47.1777 63.6359 47.78 61.1477 49.0938 58.8922L52.187 53.5818C52.6295 52.8221 52.9974 52.0251 53.276 51.2225L55.223 45.6123C56.05 43.2294 57.6268 40.9962 59.4517 39.6232L63.7483 36.3906C64.363 35.9282 64.9582 35.3612 65.5102 34.7123L69.369 30.1766Z" fill="url(#paint20_linear_77315_54918)"/>
<path d="M78.5394 29.424C76.9004 29.39 74.9513 30.5153 73.3124 32.4417L69.4536 36.9774C68.9016 37.6263 68.3064 38.1933 67.6917 38.6558L63.3951 41.8883C61.5702 43.2613 59.9934 45.4946 59.1664 47.8774L57.2194 53.4876C56.9408 54.2902 56.5729 55.0873 56.1304 55.847L53.0372 61.1573C51.7234 63.4128 51.1211 65.901 51.4219 67.8301L52.1303 72.3719C52.2317 73.0216 52.2317 73.7443 52.1303 74.5111L51.4219 79.8709C51.1211 82.1473 51.7234 83.9401 53.0372 84.6785L56.1304 86.4171C56.5729 86.6659 56.9408 87.0381 57.2194 87.5191L59.1664 90.8811C59.9934 92.309 61.5702 92.7215 63.3951 91.9872L67.6917 90.2585C68.3064 90.0112 68.9016 89.8909 69.4536 89.9023L73.3124 89.9823C74.9513 90.0163 76.9004 88.8909 78.5394 86.9645L82.3981 82.4288C82.9502 81.7799 83.5454 81.213 84.1601 80.7505L88.4567 77.5179C90.2815 76.145 91.8584 73.9117 92.6854 71.5289L94.6324 65.9187C94.9109 65.116 95.2788 64.319 95.7213 63.5593L98.8146 58.2489C100.128 55.9934 100.731 53.5052 100.43 51.5762L99.7214 47.0344C99.6201 46.3846 99.6201 45.6619 99.7214 44.8951L100.43 39.5353C100.731 37.2589 100.128 35.4662 98.8146 34.7277L95.7213 32.9891C95.2788 32.7404 94.9109 32.3681 94.6324 31.8872L92.6854 28.5252C91.8584 27.0973 90.2815 26.6848 88.4567 27.419L84.1601 29.1477C83.5454 29.395 82.9502 29.5154 82.3981 29.5039L78.5394 29.424Z" fill="url(#paint21_linear_77315_54918)"/>
<path fill-rule="evenodd" clip-rule="evenodd" d="M73.3132 32.4422C74.9522 30.5158 76.9013 29.3905 78.5402 29.4245L82.399 29.5044C82.951 29.5159 83.5462 29.3955 84.1609 29.1482L88.4575 27.4195C89.8001 26.8793 91.0085 26.9599 91.8828 27.6088C91.0619 27.2148 90.0266 27.2295 88.8962 27.6844L84.5996 29.4131C83.9849 29.6604 83.3897 29.7807 82.8376 29.7693L78.9789 29.6893C77.3399 29.6553 75.3908 30.7807 73.7519 32.7071L69.8931 37.2428C69.3411 37.8917 68.7459 38.4587 68.1312 38.9211L63.8346 42.1537C62.0097 43.5266 60.4329 45.7599 59.6059 48.1427L57.6589 53.7529C57.3803 54.5556 57.0124 55.3526 56.5699 56.1123L53.4767 61.4227C52.1629 63.6782 51.5606 66.1664 51.8614 68.0954L52.5698 72.6372C52.6712 73.287 52.6712 74.0097 52.5698 74.7765L51.8615 80.1363C51.5801 82.2648 52.0884 83.9704 53.2296 84.7867L53.038 84.679C51.7242 83.9406 51.1219 82.1478 51.4228 79.8714L52.1312 74.5116C52.2325 73.7448 52.2325 73.0221 52.1312 72.3724L51.4228 67.8306C51.1219 65.9015 51.7242 63.4133 53.038 61.1578L56.1312 55.8475C56.5738 55.0878 56.9416 54.2907 57.2202 53.4881L59.1672 47.8779C59.9942 45.4951 61.5711 43.2618 63.3959 41.8888L67.6925 38.6563C68.3072 38.1938 68.9024 37.6268 69.4545 36.9779L73.3132 32.4422ZM56.378 86.5746L56.5699 86.6825C57.0124 86.9312 57.3803 87.3035 57.6589 87.7845L59.6059 91.1464C59.8244 91.5238 60.0954 91.8302 60.4094 92.0633C59.9052 91.8212 59.4819 91.4249 59.1672 90.8816L57.2202 87.5196C56.9952 87.1311 56.7119 86.8135 56.378 86.5746ZM99.0625 34.8854L96.1609 33.2545C96.0758 33.2067 95.9935 33.1543 95.9141 33.0975L98.8154 34.7282C98.9008 34.7762 98.9832 34.8287 99.0625 34.8854Z" fill="url(#paint22_linear_77315_54918)"/>
<g filter="url(#filter4_d_77315_54918)">
<path fill-rule="evenodd" clip-rule="evenodd" d="M68.9389 55.3445C68.9389 59.8808 72.123 61.7209 76.0516 59.4528L76.1017 59.4238C80.0155 57.1489 83.179 51.644 83.1658 47.1306C83.1658 42.5943 79.9802 40.7568 76.0516 43.0249C72.123 45.2931 68.9389 50.8082 68.9389 55.3445ZM76.1592 61C82.1751 57.5268 87.3125 55.8426 87.3125 60.9766C87.3125 66.1106 82.2077 70.3857 76.1592 73.8778L76.0495 73.941L75.9398 74.0045C69.8913 77.4966 64.7865 79.116 64.7865 73.982C64.7865 68.848 69.9239 64.6 75.9398 61.1267L76.0495 61.0635L76.1592 61Z" fill="url(#paint23_linear_77315_54918)"/>
</g>
<g style="mix-blend-mode:hue">
<path fill-rule="evenodd" clip-rule="evenodd" d="M283.332 37.7756L236.898 10.4599C236.336 10.0431 235.668 9.78543 234.967 9.71499C234.266 9.64455 233.559 9.76406 232.923 10.0605L224.156 14.9788C224.229 14.9453 224.302 14.9141 224.376 14.8852C223.338 15.3669 222.648 16.4846 222.536 18.1298L207.183 26.9942C204.856 28.3376 203.692 29.0093 202.457 29.2789C201.317 29.5277 200.137 29.5281 198.997 29.2802C197.761 29.0114 196.597 28.3405 194.27 26.9987L168.598 12.2016C166.31 10.8826 165.166 10.2231 163.953 9.95262C162.786 9.69246 161.577 9.69288 160.41 9.95386C159.197 10.2252 158.054 10.8855 155.766 12.2061L154.382 13.0057C153.441 13.5485 152.971 13.82 152.502 14.0174C150.487 14.866 148.215 14.8668 146.2 14.0196C145.731 13.8225 145.26 13.5514 144.32 13.0092L144.319 13.009L144.319 13.0088C143.379 12.4668 142.909 12.1958 142.44 11.9988C140.424 11.1516 138.152 11.1524 136.137 12.001C135.668 12.1984 135.198 12.4699 134.258 13.0127L107.841 28.2644C105.514 29.6078 104.351 30.2795 103.116 30.5492C101.976 30.7979 100.796 30.7983 99.6555 30.5504C98.42 30.2816 97.2561 29.6107 94.9282 28.2689L73.3713 15.8433C71.0435 14.5014 69.8795 13.8305 68.644 13.5618C67.5039 13.3138 66.3238 13.3142 65.184 13.563C63.9486 13.8326 62.7851 14.5044 60.4582 15.8478L-14.8016 59.2991C-21.0979 62.9343 -24.2461 64.7519 -25.3256 67.111C-26.309 69.26 -26.3081 71.7306 -25.3232 73.8789C-24.2421 76.2373 -21.0926 78.0527 -14.7937 81.6834L-2.60484 88.7092C-0.276985 90.051 0.886944 90.7219 2.12248 90.9907C3.26255 91.2387 4.44264 91.2383 5.58253 90.9895C6.81789 90.7198 7.98134 90.0481 10.3083 88.7047L20.8661 82.6091L31.0065 88.4542C34.6087 90.5306 36.4099 91.5688 38.4802 91.9665C40.3805 92.3315 42.4351 92.3308 44.3352 91.9644C46.4053 91.5652 48.2057 90.5258 51.8065 88.4469L55.8724 86.0994C56.1935 86.3054 56.497 86.5057 56.7836 86.7014C56.9673 86.8746 57.1704 87.0169 57.3903 87.1275C58.9361 88.2468 59.9073 89.2391 60.4176 90.3523C61.4025 92.5006 61.4033 94.9712 60.42 97.1202C59.3405 99.4793 56.1923 101.297 49.896 104.932L42.4618 109.224L42.4617 109.224C36.1654 112.859 33.0173 114.677 31.9378 117.036C30.9544 119.185 30.9553 121.656 31.9402 123.804C33.0213 126.162 36.1708 127.978 42.4697 131.609L84.731 155.969L56.7734 172.196L56.7726 172.195L56.7578 177.593L59.6016 179.232L59.6016 179.237L59.6053 179.235L62.7389 181.043L65.3906 182.573L65.3906 182.578H87.344L87.344 182.571L96.527 177.242L96.5401 172.467L103.671 168.328L103.675 166.888L109.16 170.05C109.185 170.064 109.185 170.101 109.16 170.115C109.135 170.13 109.135 170.166 109.16 170.181L162.853 201.13C165.181 202.472 166.345 203.143 167.58 203.411C168.72 203.659 169.9 203.659 171.04 203.41C172.276 203.141 173.439 202.469 175.766 201.125L198.772 187.843C201.099 186.499 202.262 185.828 203.498 185.558C204.638 185.309 205.818 185.309 206.958 185.557C208.193 185.826 209.357 186.497 211.685 187.838L232.549 199.864C234.876 201.206 236.04 201.877 237.276 202.146C238.416 202.394 239.596 202.393 240.736 202.145C241.971 201.875 243.135 201.203 245.462 199.86L263.297 189.563C265.624 188.219 266.787 187.547 268.023 187.278C269.163 187.029 270.343 187.029 271.483 187.277C272.718 187.545 273.882 188.216 276.21 189.558L298.358 202.324C300.686 203.666 301.85 204.337 303.086 204.606C304.226 204.854 305.406 204.854 306.546 204.605C307.781 204.335 308.944 203.663 311.271 202.32L341.956 184.604C348.252 180.969 351.4 179.152 352.48 176.792C353.463 174.643 353.462 172.173 352.477 170.025C351.396 167.666 348.247 165.851 341.948 162.22L337.693 159.767C331.394 156.137 328.244 154.321 327.163 151.963C326.178 149.815 326.178 147.344 327.161 145.195C328.24 142.836 331.388 141.018 337.685 137.383L337.685 137.383L356.121 126.739C362.418 123.104 365.566 121.286 366.646 118.927C367.629 116.778 367.628 114.307 366.643 112.159C365.562 109.801 362.413 107.985 356.114 104.354L346.414 98.7632C340.115 95.1325 336.965 93.3171 335.884 90.9587C334.899 88.8104 334.898 86.3398 335.882 84.1909C336.961 81.8317 340.109 80.0141 346.406 76.3789L356.52 70.5397C362.816 66.9045 365.964 65.0869 367.044 62.7277C368.027 60.5787 368.026 58.1082 367.041 55.9599C365.96 53.6015 362.811 51.7861 356.512 48.1553L319.161 26.6258C316.833 25.284 315.669 24.6131 314.434 24.3444C313.294 24.0964 312.113 24.0968 310.974 24.3456C309.738 24.6152 308.575 25.2869 306.248 26.6304L291.054 35.4027C288.727 36.7461 287.563 37.4179 286.328 37.6875C285.342 37.9027 284.326 37.932 283.332 37.7756ZM62.7481 177.436L62.7255 177.423L62.7285 177.422L62.7481 177.433L62.7481 177.436ZM59.618 173.838L87.5762 157.608L87.5751 157.608L59.6188 173.836L59.618 173.835V173.838ZM227.753 15.118C227.281 14.8539 226.757 14.6884 226.213 14.6341C226.032 14.616 225.85 14.6105 225.669 14.6172C226.296 14.6207 226.988 14.7903 227.716 15.1391L227.753 15.118ZM96.0118 167.385L96.0166 167.382L96.0165 167.424L96.0118 167.385ZM87.2025 103.58C87.2134 103.573 87.2268 103.573 87.2376 103.579L110.969 117.259C110.993 117.272 110.993 117.306 110.969 117.32C110.958 117.326 110.945 117.326 110.934 117.32L87.2025 103.64C87.179 103.627 87.179 103.593 87.2025 103.58ZM47.5276 151.184C51.1299 153.26 52.931 154.298 53.6221 155.492C54.2564 156.588 54.2568 157.774 53.6233 158.87C52.933 160.065 51.1326 161.104 47.5318 163.183L43.3274 165.61C39.7266 167.689 37.9262 168.729 35.8561 169.128C33.9561 169.494 31.9015 169.495 30.0012 169.13C27.931 168.732 26.1299 167.694 22.5281 165.618L22.5276 165.618L22.5274 165.618L15.7583 161.716C12.156 159.639 10.3549 158.601 9.66381 157.407C9.02948 156.311 9.02906 155.126 9.66262 154.03C10.3529 152.835 12.1533 151.796 15.7541 149.717L19.9585 147.289C23.5593 145.21 25.3597 144.171 27.4298 143.772C29.3298 143.405 31.3844 143.405 33.2847 143.77C35.3549 144.167 37.1559 145.205 40.7576 147.281L40.758 147.282L40.7582 147.282L40.7585 147.282L47.5276 151.184Z" fill="#D3DCE1" fill-opacity="0.4"/>
</g>
</g>
<defs>
<filter id="filter0_f_77315_54918" x="55.6328" y="102.656" width="174.047" height="100.883" filterUnits="userSpaceOnUse" color-interpolation-filters="sRGB">
<feFlood flood-opacity="0" result="BackgroundImageFix"/>
<feBlend mode="normal" in="SourceGraphic" in2="BackgroundImageFix" result="shape"/>
<feGaussianBlur stdDeviation="4" result="effect1_foregroundBlur_77315_54918"/>
</filter>
<filter id="filter1_f_77315_54918" x="209.828" y="131.554" width="157.188" height="85.602" filterUnits="userSpaceOnUse" color-interpolation-filters="sRGB">
<feFlood flood-opacity="0" result="BackgroundImageFix"/>
<feBlend mode="normal" in="SourceGraphic" in2="BackgroundImageFix" result="shape"/>
<feGaussianBlur stdDeviation="9.28918" result="effect1_foregroundBlur_77315_54918"/>
</filter>
<filter id="filter2_f_77315_54918" x="243.152" y="146.699" width="90.5394" height="53.1644" filterUnits="userSpaceOnUse" color-interpolation-filters="sRGB">
<feFlood flood-opacity="0" result="BackgroundImageFix"/>
<feBlend mode="normal" in="SourceGraphic" in2="BackgroundImageFix" result="shape"/>
<feGaussianBlur stdDeviation="6.96689" result="effect1_foregroundBlur_77315_54918"/>
</filter>
<filter id="filter3_f_77315_54918" x="229.306" y="10.3995" width="59.1776" height="166.318" filterUnits="userSpaceOnUse" color-interpolation-filters="sRGB">
<feFlood flood-opacity="0" result="BackgroundImageFix"/>
<feBlend mode="normal" in="SourceGraphic" in2="BackgroundImageFix" result="shape"/>
<feGaussianBlur stdDeviation="4.61666" result="effect1_foregroundBlur_77315_54918"/>
</filter>
<filter id="filter4_d_77315_54918" x="64.625" y="42.0547" width="22.6875" height="35.6132" filterUnits="userSpaceOnUse" color-interpolation-filters="sRGB">
<feFlood flood-opacity="0" result="BackgroundImageFix"/>
<feColorMatrix in="SourceAlpha" type="matrix" values="0 0 0 0 0 0 0 0 0 0 0 0 0 0 0 0 0 0 127 0" result="hardAlpha"/>
<feOffset dx="-0.164039" dy="0.410098"/>
<feComposite in2="hardAlpha" operator="out"/>
<feColorMatrix type="matrix" values="0 0 0 0 0.867802 0 0 0 0 0.896793 0 0 0 0 0.9175 0 0 0 0.5 0"/>
<feBlend mode="normal" in2="BackgroundImageFix" result="effect1_dropShadow_77315_54918"/>
<feBlend mode="normal" in="SourceGraphic" in2="effect1_dropShadow_77315_54918" result="shape"/>
</filter>
<radialGradient id="paint0_radial_77315_54918" cx="0" cy="0" r="1" gradientUnits="userSpaceOnUse" gradientTransform="translate(192.374 223.87) rotate(-114.902) scale(199.648 215.704)">
<stop stop-color="#576380"/>
<stop offset="0.952725" stop-color="#68738E" stop-opacity="0"/>
</radialGradient>
<linearGradient id="paint1_linear_77315_54918" x1="60.3864" y1="195.381" x2="49.8533" y2="137.026" gradientUnits="userSpaceOnUse">
<stop stop-color="#838CA1"/>
<stop offset="1" stop-color="#838CA1" stop-opacity="0"/>
</linearGradient>
<linearGradient id="paint2_linear_77315_54918" x1="92.1271" y1="122.461" x2="68.7292" y2="42.6392" gradientUnits="userSpaceOnUse">
<stop stop-color="#838CA1"/>
<stop offset="1" stop-color="#838CA1" stop-opacity="0"/>
</linearGradient>
<linearGradient id="paint3_linear_77315_54918" x1="259.82" y1="93.5719" x2="74.8905" y2="102.517" gradientUnits="userSpaceOnUse">
<stop stop-color="#DADCE8"/>
<stop offset="0.5" stop-color="#A3AAC3"/>
<stop offset="1" stop-color="#767E93"/>
</linearGradient>
<linearGradient id="paint4_linear_77315_54918" x1="223.112" y1="102.338" x2="224.543" y2="104.854" gradientUnits="userSpaceOnUse">
<stop stop-color="#878A95"/>
<stop offset="0.34375" stop-color="#B8C1D2"/>
<stop offset="0.755208" stop-color="#8A90A5"/>
<stop offset="0.958333" stop-color="#6A718C"/>
</linearGradient>
<linearGradient id="paint5_linear_77315_54918" x1="216.349" y1="105.687" x2="218.612" y2="109.302" gradientUnits="userSpaceOnUse">
<stop stop-color="#848BA2"/>
<stop offset="0.34375" stop-color="#BCC3D1"/>
<stop offset="0.755208" stop-color="#9198AE"/>
<stop offset="0.958333" stop-color="#7B8199"/>
</linearGradient>
<linearGradient id="paint6_linear_77315_54918" x1="209.774" y1="109.131" x2="212.534" y2="113.95" gradientUnits="userSpaceOnUse">
<stop stop-color="#8189A2"/>
<stop offset="0.34375" stop-color="#AFB8C9"/>
<stop offset="0.755208" stop-color="#7C839C"/>
<stop offset="0.958333" stop-color="#6A728F"/>
</linearGradient>
<linearGradient id="paint7_linear_77315_54918" x1="192.51" y1="108.641" x2="177.937" y2="122.168" gradientUnits="userSpaceOnUse">
<stop stop-color="#8B90A0"/>
<stop offset="1" stop-color="#32343A"/>
</linearGradient>
<linearGradient id="paint8_linear_77315_54918" x1="134.625" y1="126.68" x2="134.625" y2="143.619" gradientUnits="userSpaceOnUse">
<stop stop-color="#ACB3C1"/>
<stop offset="1" stop-color="#6B6F7B"/>
</linearGradient>
<linearGradient id="paint9_linear_77315_54918" x1="196.157" y1="137.759" x2="178.766" y2="162.158" gradientUnits="userSpaceOnUse">
<stop stop-color="#ACB3C1"/>
<stop offset="1" stop-color="#6B6F7B"/>
</linearGradient>
<linearGradient id="paint10_linear_77315_54918" x1="109.792" y1="120.441" x2="3.69023" y2="123.799" gradientUnits="userSpaceOnUse">
<stop stop-color="#9AA0AE"/>
<stop offset="1" stop-color="#7C808F"/>
</linearGradient>
<linearGradient id="paint11_linear_77315_54918" x1="7.5237" y1="45.2342" x2="261.607" y2="73.2764" gradientUnits="userSpaceOnUse">
<stop stop-color="#8890A5"/>
<stop offset="1" stop-color="#ECF1F3"/>
</linearGradient>
<linearGradient id="paint12_linear_77315_54918" x1="126.395" y1="123.417" x2="199.073" y2="127.097" gradientUnits="userSpaceOnUse">
<stop stop-color="#C1C7D1"/>
<stop offset="1" stop-color="#E1E4E7"/>
</linearGradient>
<linearGradient id="paint13_linear_77315_54918" x1="301.652" y1="-92.5189" x2="400.264" y2="69.5958" gradientUnits="userSpaceOnUse">
<stop stop-color="#DEE1EA"/>
<stop offset="0.423587" stop-color="#BEC3D0"/>
<stop offset="0.538092" stop-color="#ACB1C0"/>
<stop offset="0.603903" stop-color="#B6BCC9"/>
<stop offset="0.748746" stop-color="#E7EAEF"/>
<stop offset="0.821712" stop-color="#ECF1F3"/>
<stop offset="1" stop-color="#CDD4DC"/>
</linearGradient>
<linearGradient id="paint14_linear_77315_54918" x1="301.652" y1="-92.5189" x2="396.368" y2="153.747" gradientUnits="userSpaceOnUse">
<stop stop-color="#DEE1EA"/>
<stop offset="0.0953841" stop-color="#BEC3D0"/>
<stop offset="0.18168" stop-color="#DDE1EC"/>
<stop offset="0.269584" stop-color="#FCFCFE"/>
<stop offset="0.585248" stop-color="#E7EAEF"/>
<stop offset="0.735069" stop-color="#979CAC"/>
<stop offset="1" stop-color="#7C8090"/>
</linearGradient>
<linearGradient id="paint15_linear_77315_54918" x1="312.691" y1="187.135" x2="234.411" y2="130.534" gradientUnits="userSpaceOnUse">
<stop stop-color="#BEC6D1"/>
<stop offset="1" stop-color="#ECF1F3"/>
</linearGradient>
<linearGradient id="paint16_linear_77315_54918" x1="230.574" y1="39.9222" x2="273.862" y2="72.308" gradientUnits="userSpaceOnUse">
<stop stop-color="white"/>
<stop offset="1" stop-color="white" stop-opacity="0"/>
</linearGradient>
<linearGradient id="paint17_linear_77315_54918" x1="246.021" y1="108.786" x2="294.155" y2="134.957" gradientUnits="userSpaceOnUse">
<stop stop-color="#8995AA"/>
<stop offset="1" stop-color="#C5CEDD"/>
</linearGradient>
<linearGradient id="paint18_linear_77315_54918" x1="66.5723" y1="63.4692" x2="65.0868" y2="134.133" gradientUnits="userSpaceOnUse">
<stop stop-color="#A0ACBA"/>
<stop offset="1" stop-color="#ECF1F3" stop-opacity="0"/>
</linearGradient>
<linearGradient id="paint19_linear_77315_54918" x1="69.0386" y1="73.0375" x2="68.0499" y2="120.073" gradientUnits="userSpaceOnUse">
<stop stop-color="#A0ACBA"/>
<stop offset="1" stop-color="#ECF1F3" stop-opacity="0"/>
</linearGradient>
<linearGradient id="paint20_linear_77315_54918" x1="70.7073" y1="100.9" x2="107.698" y2="36.8062" gradientUnits="userSpaceOnUse">
<stop offset="0.0395738" stop-color="#727992"/>
<stop offset="0.0852358" stop-color="#A0A8BF"/>
<stop offset="0.234399" stop-color="#A2ACC8"/>
<stop offset="0.304414" stop-color="#B1BDD0"/>
<stop offset="0.493151" stop-color="#BFC8D1"/>
<stop offset="0.572917" stop-color="#CFDBE8"/>
<stop offset="0.817654" stop-color="#C6CDD3"/>
<stop offset="1" stop-color="#A5AEB7"/>
</linearGradient>
<linearGradient id="paint21_linear_77315_54918" x1="73.6964" y1="101.361" x2="103.074" y2="38.5227" gradientUnits="userSpaceOnUse">
<stop stop-color="#A0ACBA"/>
<stop offset="1" stop-color="#ECF1F3"/>
</linearGradient>
<linearGradient id="paint22_linear_77315_54918" x1="47.2787" y1="57.4862" x2="62.4111" y2="66.2709" gradientUnits="userSpaceOnUse">
<stop stop-color="white"/>
<stop offset="1" stop-color="white" stop-opacity="0"/>
</linearGradient>
<linearGradient id="paint23_linear_77315_54918" x1="79.65" y1="73.5488" x2="75.6054" y2="0.326496" gradientUnits="userSpaceOnUse">
<stop stop-color="#8995AA"/>
<stop offset="1" stop-color="#C7CFD9"/>
</linearGradient>
<clipPath id="clip0_77315_54918">
<rect width="410" height="224" fill="white"/>
</clipPath>
<clipPath id="clip1_77315_54918">
<rect width="102.592" height="169.278" fill="white" transform="translate(235.586 10.25)"/>
</clipPath>
</defs>
</svg>
