<svg width="638" height="638" viewBox="0 0 638 638" fill="none" xmlns="http://www.w3.org/2000/svg">
<g opacity="0.5" filter="url(#filter0_f_3935_17968)">
<path fill-rule="evenodd" clip-rule="evenodd" d="M437.357 300.7C411.447 286.629 385.688 283.17 382.884 282.793L382.884 282.793L382.882 282.793L382.881 282.793L382.879 282.792L382.878 282.792C382.779 282.779 382.709 282.769 382.67 282.764L381.693 286.787C382.019 286.787 407.247 289.972 432.474 303.382L437.357 300.7ZM426.933 285.277L423.678 288.798C423.678 288.798 435.885 293.156 447.603 300.364C459.322 307.237 466.484 314.445 466.484 314.445L472.506 312.434C472.18 312.099 465.019 304.723 452.486 297.347C440.116 289.971 427.421 285.445 426.933 285.277ZM464.21 372.787C464.373 372.452 473.324 340.602 429.216 313.278C385.108 285.953 329.607 290.48 329.119 290.647L327.654 286.456L327.738 286.45L327.823 286.444L327.823 286.444C332.012 286.14 388.012 282.079 434.099 310.428C480.121 338.9 471.859 371.089 471.235 373.521C471.223 373.566 471.214 373.601 471.209 373.625L464.21 372.787ZM226.577 351.324C222.996 353.335 219.904 355.682 216.974 358.197L211.603 355.179C214.533 352.832 217.788 350.486 221.369 348.306L270.522 318.971C308.445 296.34 372.085 297.346 412.124 321.15C452.163 344.954 453.953 382.671 416.03 405.301L366.876 434.637C363.296 436.649 359.389 438.66 355.32 440.337L350.112 437.319C354.181 435.643 358.25 433.799 361.831 431.62L410.984 402.284C446.303 381.33 444.676 346.127 407.404 324C370.132 301.872 311.05 301.034 275.731 321.988L226.577 351.324ZM258.313 412.849C234.387 398.6 233.248 375.97 256.034 362.559L298.677 337.079C321.301 323.501 359.387 324.171 383.313 338.42C407.238 352.669 408.378 375.299 385.591 388.71L343.111 414.19C320.324 427.768 282.401 427.098 258.313 412.849ZM378.592 341.27C357.434 328.697 323.905 328.194 303.886 340.096L261.08 365.576C241.06 377.478 242.037 397.427 263.195 409.999C284.354 422.571 317.883 423.074 337.902 411.172L380.546 385.692C400.565 373.79 399.751 353.842 378.592 341.27ZM277.035 401.784C263.852 393.905 263.363 381.668 275.733 374.125L317.074 349.483C323.073 345.906 331.063 344.142 339.205 344.154C347.905 344.142 356.793 346.157 363.626 350.153C376.809 358.032 377.297 370.269 364.928 377.813L323.587 402.455C321.835 403.499 319.915 404.389 317.87 405.125C305.457 409.763 288.403 408.578 277.035 401.784ZM358.741 353.171C348.324 346.968 332.048 346.801 322.283 352.668L292.542 370.325L281.106 377.142C271.341 383.009 271.829 392.732 282.083 398.767C291.954 404.644 307.086 405.103 316.955 400.142C317.385 399.918 317.805 399.683 318.214 399.437L359.555 374.795C369.483 369.096 368.995 359.373 358.741 353.171ZM297.381 384.348C294.614 386.024 294.288 388.538 296.73 390.047C299.171 391.556 303.566 391.388 306.333 389.712L342.791 368.087C345.558 366.411 345.883 363.896 343.442 362.388C341.001 360.879 336.606 361.047 333.839 362.723L297.381 384.348ZM205.746 410.334C209.978 416.033 214.861 422.571 227.719 430.114C228.045 430.282 228.37 430.45 228.696 430.45C241.391 437.826 252.784 441.178 262.875 444.028C271.99 446.71 280.29 449.225 289.242 454.421C306.658 464.814 307.797 470.514 307.797 470.514H314.796C314.796 469.676 313.656 462.97 294.125 451.404H293.962C284.439 445.918 275.397 443.235 265.882 440.411L265.642 440.34C255.551 437.49 245.297 434.473 233.416 427.6C221.215 420.49 216.614 414.522 212.274 408.891L212.094 408.658C208.351 403.629 204.77 398.935 196.795 393.906C179.705 383.01 160.825 378.316 160.011 378.148L157.569 382.004C157.59 382.026 157.904 382.117 158.468 382.282L158.469 382.282C162.284 383.393 177.572 387.849 191.749 396.756C198.91 401.282 202.328 405.64 205.746 410.334ZM208.185 441.846C194.35 433.632 184.747 423.239 177.749 415.528L177.057 414.773L177.056 414.773C174.597 412.089 172.524 409.826 170.587 407.985C162.775 400.944 150.731 398.597 150.568 398.597L152.358 394.574C152.4 394.585 152.497 394.605 152.645 394.636L152.646 394.637C154.809 395.09 167.766 397.806 176.447 405.806C178.725 407.817 181.167 410.499 183.934 413.684C190.607 421.06 199.884 431.118 213.068 438.997C227.065 447.378 242.365 452.24 255.874 456.43C260.105 457.771 264.174 459.113 268.081 460.454C280.703 464.736 285.873 472.367 286.93 473.926C287.031 474.076 287.095 474.17 287.124 474.199L280.45 475.373C280.45 475.373 276.219 467.997 264.825 463.974C262.52 463.182 260.214 462.449 257.875 461.705L257.873 461.705L257.873 461.705L257.873 461.705L257.873 461.705L257.872 461.705L257.872 461.705L257.872 461.704L257.871 461.704L257.871 461.704L257.871 461.704L257.871 461.704L257.87 461.704L257.87 461.704L257.87 461.704L257.869 461.703L257.867 461.703L257.864 461.702L257.863 461.702C256.243 461.187 254.607 460.666 252.944 460.118C252.066 459.834 251.181 459.549 250.288 459.262L250.288 459.262C236.95 454.967 222.067 450.174 208.185 441.846ZM151.87 420.056C158.218 428.102 169.774 442.519 186.863 452.744C187.677 453.08 188.491 453.583 189.305 454.086C209.48 465.124 227.518 470.032 238.689 473.072L238.689 473.072C239.054 473.171 239.411 473.268 239.761 473.363C240.9 473.698 241.985 473.996 242.979 474.27C244.969 474.816 246.596 475.263 247.573 475.71C251.805 477.386 253.921 479.23 253.921 479.23L259.617 477.051C259.617 477.051 256.688 474.537 251.317 472.358C249.201 471.519 246.434 470.681 242.365 469.675C231.785 466.826 213.882 461.964 194.025 451.068C177.332 442.07 165.724 427.682 159.056 419.418C158.767 419.06 158.488 418.714 158.218 418.38C155.615 414.995 151.17 412.915 149.728 412.241C149.456 412.114 149.292 412.036 149.266 412.01L145.522 415.362C145.522 415.362 149.591 417.206 151.87 420.056ZM148.082 434.595L148.082 434.594C148.024 434.533 147.985 434.492 147.966 434.473L154.151 432.629C154.156 432.634 154.171 432.65 154.198 432.679C155.106 433.653 168.784 448.325 185.076 457.774C201.514 467.329 231.137 475.543 231.462 475.543L228.858 479.231C227.556 478.895 197.771 470.681 180.356 460.456C179.969 460.456 179.787 460.351 179.566 460.224L179.566 460.224C179.508 460.19 179.447 460.156 179.379 460.121C163.103 450.45 149.536 436.129 148.082 434.595ZM319.999 465.482L318.209 463.47C318.209 463.47 316.581 458.609 311.21 455.256C305.513 451.736 297.375 448.886 297.375 448.886L295.91 448.383L295.097 446.371L296.562 445.366L297.864 444.527L300.142 444.863C303.072 445.366 317.72 447.712 327.974 445.533C337.577 443.522 341.972 441.678 343.274 441.007C343.398 440.943 343.499 440.879 343.585 440.824L343.585 440.824C343.724 440.736 343.824 440.672 343.925 440.672L348.808 443.857C348.714 443.857 348.62 443.913 348.432 444.025L348.431 444.025C348.294 444.106 348.106 444.218 347.831 444.36C344.739 445.868 332.694 452.406 329.276 457.1C327.16 459.95 326.184 461.961 325.696 463.135L325.668 463.192C325.332 463.888 324.642 465.319 321.952 465.482H319.999ZM315.651 452.143L315.651 452.143C315.869 452.297 316.112 452.469 316.418 452.574C318.86 454.082 320.487 455.759 321.952 457.267L321.952 457.268C322.115 457.044 322.26 456.82 322.404 456.597C322.694 456.15 322.983 455.703 323.417 455.256C324.719 453.58 326.835 451.568 329.276 449.892C324.068 450.73 318.209 450.897 313 450.562C313.489 450.897 314.302 451.4 315.279 451.903C315.4 451.966 315.521 452.051 315.651 452.143ZM340.023 453.08C334.489 456.936 333.024 461.294 333.024 461.462L340.023 462.635C340.023 462.468 341.162 459.115 345.557 455.93C350.277 452.577 354.183 450.734 354.183 450.734L349.788 447.381C349.463 447.381 345.231 449.392 340.023 453.08ZM171.232 377.307L171.394 375.798C171.698 374.234 174.128 373.838 175.245 373.655L175.347 373.639L175.413 373.628L175.463 373.619C175.703 373.578 175.963 373.534 176.243 373.487L176.243 373.487C178.243 373.15 181.292 372.637 185.717 371.608C192.879 369.764 202.97 363.561 207.039 360.712C207.146 360.638 207.245 360.573 207.335 360.514C207.654 360.303 207.853 360.172 207.853 360.041L213.061 362.891L212.41 363.226L212.329 363.295L212.282 363.335C211.185 364.271 208.204 366.814 204.923 372.446C201.342 378.481 205.411 387.365 206.388 389.209L207.039 390.382L204.435 392.226L200.529 391.724L199.715 390.885C199.715 390.885 194.832 385.856 188.647 382.504C182.788 379.319 174.487 378.313 174.487 378.313L173.348 378.145L171.232 377.307ZM197.924 371.775C194.832 373.284 191.577 374.625 188.484 375.296C187.96 375.45 187.4 375.569 186.854 375.685L186.854 375.685L186.854 375.685C186.215 375.821 185.593 375.953 185.066 376.134C187.833 376.972 190.763 377.978 193.367 379.486C194.173 379.902 194.917 380.381 195.637 380.845L195.637 380.845L195.637 380.845C196.08 381.131 196.514 381.41 196.948 381.666C196.459 378.648 196.459 374.96 197.924 371.775ZM176.119 365.239L177.747 369.429C177.805 369.4 178.085 369.354 178.545 369.278C180.664 368.932 186.586 367.964 192.07 365.071C198.254 362.054 201.51 359.539 201.672 359.372L195.976 356.689C195.976 356.689 193.046 359.036 187.35 361.886C181.978 364.568 176.119 365.239 176.119 365.239ZM365.9 382.673L327.814 405.303C313.003 414.188 288.101 413.853 272.313 404.465C256.525 395.078 255.874 380.326 270.848 371.442L313.328 346.129C328.14 337.245 353.042 337.58 368.83 346.967C383.966 356.019 385.106 369.933 371.922 378.985L376.968 382.002C392.756 371.442 391.453 354.846 373.55 344.118C354.995 333.054 325.698 332.719 308.12 343.112L265.64 368.424C248.062 378.817 248.875 396.251 267.43 407.315C285.985 418.379 315.282 418.714 332.86 408.321L370.946 385.69L365.9 382.673ZM251.317 360.044C231.134 371.946 228.042 390.553 241.388 405.473L236.18 408.49C220.229 391.727 223.322 370.605 246.108 357.027L289.24 331.379C316.909 314.951 363.296 315.622 392.593 333.055C404.962 340.431 412.287 349.483 414.565 358.871H407.567C405.451 350.489 398.778 342.443 387.873 335.905C361.343 320.148 319.513 319.477 294.448 334.396L251.317 360.044ZM415.542 363.902H408.544C409.032 373.96 403.01 383.851 390.477 391.394L347.346 417.042C322.281 431.961 280.451 431.29 253.921 415.533C250.992 413.857 248.55 412.013 246.272 410.169L241.226 413.019C243.505 414.862 246.109 416.706 249.039 418.55C278.336 435.984 324.722 436.655 352.391 420.227L395.523 394.579C409.52 386.03 416.031 374.966 415.542 363.902ZM286.463 328.193L257.655 345.292L252.447 342.274L281.255 325.176C302.902 312.268 333.99 308.412 362.473 313.106L360.845 317.129C334.641 312.771 306.157 316.459 286.463 328.193ZM402.676 327.02C393.236 321.488 382.494 317.465 370.938 314.783L369.31 318.806C379.727 321.153 389.493 324.841 397.956 329.87C429.532 348.645 430.834 378.316 401.049 396.085L355.15 423.409C338.386 433.299 315.437 437.49 292.976 435.981V440.172C317.39 441.848 342.129 437.322 360.196 426.594L406.094 399.27C438.483 379.824 437.019 347.471 402.676 327.02ZM243.66 421.73C255.216 428.771 269.376 433.129 284.024 435.141L284.187 439.332C267.748 437.153 251.961 432.291 238.94 424.58C204.435 404.297 202.97 371.944 235.522 352.498L246.59 345.793L251.635 348.81L240.567 355.516C210.782 373.285 212.084 402.956 243.66 421.73ZM205.33 445.283L205.33 445.283L205.33 445.282L205.33 445.282L205.329 445.282L205.329 445.282L205.329 445.282L205.329 445.282L205.328 445.282L205.328 445.281L205.328 445.281L205.328 445.281L205.327 445.281C205.084 445.156 204.841 445.031 204.598 444.863C189.786 436.649 178.881 424.58 171.557 416.366C170.868 415.623 170.22 414.918 169.609 414.252L169.609 414.252L169.608 414.252C167.048 411.462 165.127 409.37 163.419 408.152C158.023 404.447 151.451 402.801 149.402 402.288C149.04 402.198 148.82 402.142 148.771 402.117L146.818 406.14C146.818 406.14 153.328 407.481 158.211 410.834C159.614 411.798 162.063 414.454 164.985 417.623L165.372 418.042C165.616 418.31 165.864 418.583 166.115 418.86C173.248 426.716 183.443 437.946 197.436 446.205C198.25 446.707 199.064 447.21 199.878 447.546C200.366 447.713 200.691 447.881 201.017 448.216L206.062 445.702C205.818 445.534 205.574 445.408 205.33 445.283ZM249.028 463.136C253.423 464.31 257.167 465.483 260.259 466.824C267.865 470.114 271.632 474.722 272.225 475.448C272.267 475.498 272.293 475.53 272.303 475.541L265.956 477.05C265.927 477.05 265.804 476.921 265.586 476.694C264.558 475.623 261.426 472.36 256.19 470.009C253.749 469.003 250.331 467.997 246.262 466.824C237.635 464.477 225.103 460.957 207.688 452.072L212.733 449.223C228.424 457.142 239.577 460.386 248.088 462.862C248.405 462.955 248.719 463.046 249.028 463.136ZM189.797 402.62C188.006 400.944 186.053 399.603 184.1 398.262C170.084 389.969 159.073 387.163 156.949 386.622L156.949 386.621L156.948 386.621L156.947 386.621L156.945 386.621L156.944 386.62C156.753 386.571 156.634 386.541 156.594 386.527L154.478 390.383C154.641 390.383 165.22 392.73 179.217 401.111C180.682 401.95 182.147 403.123 183.449 404.296L189.797 402.62ZM258.645 448.068C268.178 450.849 277.408 453.54 286.637 459.277C292.982 463.249 297.71 468.69 299.877 471.183L299.877 471.184C300.545 471.952 300.969 472.44 301.123 472.519L294.612 474.028C294.612 474.028 289.241 466.652 281.917 462.126C273.529 456.81 264.821 454.292 255.635 451.637L255.387 451.565L254.744 451.381L254.744 451.381C244.968 448.577 233.796 445.372 221.533 438.155L220.556 437.652C206.885 429.606 198.909 420.721 192.562 413.513L192.122 413.009L192.122 413.009L192.121 413.009C190.833 411.533 189.663 410.192 188.493 408.987L194.678 407.311C195.979 408.651 197.281 410.16 198.583 411.668L198.583 411.669L198.584 411.669C198.823 411.934 199.064 412.2 199.306 412.468C205.802 419.658 213.223 427.871 226.09 435.305C237.809 442.01 248.063 445.028 257.991 447.878L258.645 448.068ZM438.988 307.24L443.87 304.391C469.062 319.989 476.847 334.734 478.298 337.482C478.422 337.717 478.5 337.864 478.538 337.917L471.702 338.755C471.696 338.748 471.679 338.717 471.651 338.662L471.601 338.565L471.595 338.553L471.594 338.552C470.64 336.676 463.264 322.179 438.988 307.24ZM266.126 315.957C266.467 315.724 266.807 315.571 267.093 315.444C267.216 315.388 267.33 315.338 267.429 315.287L262.383 312.27C262.043 312.386 261.702 312.585 261.417 312.751C261.293 312.823 261.179 312.889 261.081 312.94L199.395 349.651C199.069 349.903 198.744 350.112 198.418 350.322C198.093 350.532 197.767 350.741 197.442 350.993L202.487 354.01C202.813 353.758 203.138 353.549 203.464 353.339C203.789 353.13 204.115 352.92 204.44 352.669L266.126 315.957ZM421.562 408.152C430.351 402.956 436.861 396.921 441.744 390.551L447.929 392.73C442.883 399.435 435.722 405.638 426.607 411.17L400.728 426.592L395.683 423.574L421.562 408.152ZM438.002 327.02C433.444 322.829 428.236 318.974 422.051 315.286C378.92 289.806 312.351 287.291 268.568 308.748L273.614 311.765C314.63 291.985 376.967 294.332 417.168 318.303C422.865 321.656 427.748 325.344 431.98 329.199L438.002 327.02ZM442.721 331.711C459.16 349.312 462.09 369.931 451.185 388.035L445 385.688C454.603 369.093 451.999 349.983 436.862 333.723L442.721 331.711ZM389.501 427.264L359.716 445.033C359.065 445.536 358.251 445.871 357.437 446.206L362.483 449.223C362.689 449.117 362.911 448.994 363.145 448.865L363.145 448.865C363.649 448.586 364.205 448.279 364.761 448.05L394.546 430.281L389.501 427.264ZM326.187 355.684C333.511 351.494 345.881 351.661 353.531 356.187C361.343 360.713 361.669 368.089 354.344 372.448L314.143 396.419C306.818 400.61 294.449 400.442 286.799 395.916C278.986 391.222 278.661 384.014 285.985 379.656L287.125 378.985L291.194 381.332L292.17 382.003L291.031 382.673C286.311 385.523 286.636 390.217 291.519 393.066C296.565 396.084 304.214 396.251 308.934 393.402L349.136 369.43C353.856 366.58 353.531 361.887 348.648 359.037C343.602 356.02 335.953 355.852 331.232 358.702L298.192 378.315L296.239 377.141L293.147 375.297L326.187 355.684Z" fill="url(#paint0_linear_3935_17968)"/>
<path fill-rule="evenodd" clip-rule="evenodd" d="M437.357 300.7C411.447 286.629 385.688 283.17 382.884 282.793L382.884 282.793L382.882 282.793L382.881 282.793L382.879 282.792L382.878 282.792C382.779 282.779 382.709 282.769 382.67 282.764L381.693 286.787C382.019 286.787 407.247 289.972 432.474 303.382L437.357 300.7ZM426.933 285.277L423.678 288.798C423.678 288.798 435.885 293.156 447.603 300.364C459.322 307.237 466.484 314.445 466.484 314.445L472.506 312.434C472.18 312.099 465.019 304.723 452.486 297.347C440.116 289.971 427.421 285.445 426.933 285.277ZM464.21 372.787C464.373 372.452 473.324 340.602 429.216 313.278C385.108 285.953 329.607 290.48 329.119 290.647L327.654 286.456L327.738 286.45L327.823 286.444L327.823 286.444C332.012 286.14 388.012 282.079 434.099 310.428C480.121 338.9 471.859 371.089 471.235 373.521C471.223 373.566 471.214 373.601 471.209 373.625L464.21 372.787ZM226.577 351.324C222.996 353.335 219.904 355.682 216.974 358.197L211.603 355.179C214.533 352.832 217.788 350.486 221.369 348.306L270.522 318.971C308.445 296.34 372.085 297.346 412.124 321.15C452.163 344.954 453.953 382.671 416.03 405.301L366.876 434.637C363.296 436.649 359.389 438.66 355.32 440.337L350.112 437.319C354.181 435.643 358.25 433.799 361.831 431.62L410.984 402.284C446.303 381.33 444.676 346.127 407.404 324C370.132 301.872 311.05 301.034 275.731 321.988L226.577 351.324ZM258.313 412.849C234.387 398.6 233.248 375.97 256.034 362.559L298.677 337.079C321.301 323.501 359.387 324.171 383.313 338.42C407.238 352.669 408.378 375.299 385.591 388.71L343.111 414.19C320.324 427.768 282.401 427.098 258.313 412.849ZM378.592 341.27C357.434 328.697 323.905 328.194 303.886 340.096L261.08 365.576C241.06 377.478 242.037 397.427 263.195 409.999C284.354 422.571 317.883 423.074 337.902 411.172L380.546 385.692C400.565 373.79 399.751 353.842 378.592 341.27ZM277.035 401.784C263.852 393.905 263.363 381.668 275.733 374.125L317.074 349.483C323.073 345.906 331.063 344.142 339.205 344.154C347.905 344.142 356.793 346.157 363.626 350.153C376.809 358.032 377.297 370.269 364.928 377.813L323.587 402.455C321.835 403.499 319.915 404.389 317.87 405.125C305.457 409.763 288.403 408.578 277.035 401.784ZM358.741 353.171C348.324 346.968 332.048 346.801 322.283 352.668L292.542 370.325L281.106 377.142C271.341 383.009 271.829 392.732 282.083 398.767C291.954 404.644 307.086 405.103 316.955 400.142C317.385 399.918 317.805 399.683 318.214 399.437L359.555 374.795C369.483 369.096 368.995 359.373 358.741 353.171ZM297.381 384.348C294.614 386.024 294.288 388.538 296.73 390.047C299.171 391.556 303.566 391.388 306.333 389.712L342.791 368.087C345.558 366.411 345.883 363.896 343.442 362.388C341.001 360.879 336.606 361.047 333.839 362.723L297.381 384.348ZM205.746 410.334C209.978 416.033 214.861 422.571 227.719 430.114C228.045 430.282 228.37 430.45 228.696 430.45C241.391 437.826 252.784 441.178 262.875 444.028C271.99 446.71 280.29 449.225 289.242 454.421C306.658 464.814 307.797 470.514 307.797 470.514H314.796C314.796 469.676 313.656 462.97 294.125 451.404H293.962C284.439 445.918 275.397 443.235 265.882 440.411L265.642 440.34C255.551 437.49 245.297 434.473 233.416 427.6C221.215 420.49 216.614 414.522 212.274 408.891L212.094 408.658C208.351 403.629 204.77 398.935 196.795 393.906C179.705 383.01 160.825 378.316 160.011 378.148L157.569 382.004C157.59 382.026 157.904 382.117 158.468 382.282L158.469 382.282C162.284 383.393 177.572 387.849 191.749 396.756C198.91 401.282 202.328 405.64 205.746 410.334ZM208.185 441.846C194.35 433.632 184.747 423.239 177.749 415.528L177.057 414.773L177.056 414.773C174.597 412.089 172.524 409.826 170.587 407.985C162.775 400.944 150.731 398.597 150.568 398.597L152.358 394.574C152.4 394.585 152.497 394.605 152.645 394.636L152.646 394.637C154.809 395.09 167.766 397.806 176.447 405.806C178.725 407.817 181.167 410.499 183.934 413.684C190.607 421.06 199.884 431.118 213.068 438.997C227.065 447.378 242.365 452.24 255.874 456.43C260.105 457.771 264.174 459.113 268.081 460.454C280.703 464.736 285.873 472.367 286.93 473.926C287.031 474.076 287.095 474.17 287.124 474.199L280.45 475.373C280.45 475.373 276.219 467.997 264.825 463.974C262.52 463.182 260.214 462.449 257.875 461.705L257.873 461.705L257.873 461.705L257.873 461.705L257.873 461.705L257.872 461.705L257.872 461.705L257.872 461.704L257.871 461.704L257.871 461.704L257.871 461.704L257.871 461.704L257.87 461.704L257.87 461.704L257.87 461.704L257.869 461.703L257.867 461.703L257.864 461.702L257.863 461.702C256.243 461.187 254.607 460.666 252.944 460.118C252.066 459.834 251.181 459.549 250.288 459.262L250.288 459.262C236.95 454.967 222.067 450.174 208.185 441.846ZM151.87 420.056C158.218 428.102 169.774 442.519 186.863 452.744C187.677 453.08 188.491 453.583 189.305 454.086C209.48 465.124 227.518 470.032 238.689 473.072L238.689 473.072C239.054 473.171 239.411 473.268 239.761 473.363C240.9 473.698 241.985 473.996 242.979 474.27C244.969 474.816 246.596 475.263 247.573 475.71C251.805 477.386 253.921 479.23 253.921 479.23L259.617 477.051C259.617 477.051 256.688 474.537 251.317 472.358C249.201 471.519 246.434 470.681 242.365 469.675C231.785 466.826 213.882 461.964 194.025 451.068C177.332 442.07 165.724 427.682 159.056 419.418C158.767 419.06 158.488 418.714 158.218 418.38C155.615 414.995 151.17 412.915 149.728 412.241C149.456 412.114 149.292 412.036 149.266 412.01L145.522 415.362C145.522 415.362 149.591 417.206 151.87 420.056ZM148.082 434.595L148.082 434.594C148.024 434.533 147.985 434.492 147.966 434.473L154.151 432.629C154.156 432.634 154.171 432.65 154.198 432.679C155.106 433.653 168.784 448.325 185.076 457.774C201.514 467.329 231.137 475.543 231.462 475.543L228.858 479.231C227.556 478.895 197.771 470.681 180.356 460.456C179.969 460.456 179.787 460.351 179.566 460.224L179.566 460.224C179.508 460.19 179.447 460.156 179.379 460.121C163.103 450.45 149.536 436.129 148.082 434.595ZM319.999 465.482L318.209 463.47C318.209 463.47 316.581 458.609 311.21 455.256C305.513 451.736 297.375 448.886 297.375 448.886L295.91 448.383L295.097 446.371L296.562 445.366L297.864 444.527L300.142 444.863C303.072 445.366 317.72 447.712 327.974 445.533C337.577 443.522 341.972 441.678 343.274 441.007C343.398 440.943 343.499 440.879 343.585 440.824L343.585 440.824C343.724 440.736 343.824 440.672 343.925 440.672L348.808 443.857C348.714 443.857 348.62 443.913 348.432 444.025L348.431 444.025C348.294 444.106 348.106 444.218 347.831 444.36C344.739 445.868 332.694 452.406 329.276 457.1C327.16 459.95 326.184 461.961 325.696 463.135L325.668 463.192C325.332 463.888 324.642 465.319 321.952 465.482H319.999ZM315.651 452.143L315.651 452.143C315.869 452.297 316.112 452.469 316.418 452.574C318.86 454.082 320.487 455.759 321.952 457.267L321.952 457.268C322.115 457.044 322.26 456.82 322.404 456.597C322.694 456.15 322.983 455.703 323.417 455.256C324.719 453.58 326.835 451.568 329.276 449.892C324.068 450.73 318.209 450.897 313 450.562C313.489 450.897 314.302 451.4 315.279 451.903C315.4 451.966 315.521 452.051 315.651 452.143ZM340.023 453.08C334.489 456.936 333.024 461.294 333.024 461.462L340.023 462.635C340.023 462.468 341.162 459.115 345.557 455.93C350.277 452.577 354.183 450.734 354.183 450.734L349.788 447.381C349.463 447.381 345.231 449.392 340.023 453.08ZM171.232 377.307L171.394 375.798C171.698 374.234 174.128 373.838 175.245 373.655L175.347 373.639L175.413 373.628L175.463 373.619C175.703 373.578 175.963 373.534 176.243 373.487L176.243 373.487C178.243 373.15 181.292 372.637 185.717 371.608C192.879 369.764 202.97 363.561 207.039 360.712C207.146 360.638 207.245 360.573 207.335 360.514C207.654 360.303 207.853 360.172 207.853 360.041L213.061 362.891L212.41 363.226L212.329 363.295L212.282 363.335C211.185 364.271 208.204 366.814 204.923 372.446C201.342 378.481 205.411 387.365 206.388 389.209L207.039 390.382L204.435 392.226L200.529 391.724L199.715 390.885C199.715 390.885 194.832 385.856 188.647 382.504C182.788 379.319 174.487 378.313 174.487 378.313L173.348 378.145L171.232 377.307ZM197.924 371.775C194.832 373.284 191.577 374.625 188.484 375.296C187.96 375.45 187.4 375.569 186.854 375.685L186.854 375.685L186.854 375.685C186.215 375.821 185.593 375.953 185.066 376.134C187.833 376.972 190.763 377.978 193.367 379.486C194.173 379.902 194.917 380.381 195.637 380.845L195.637 380.845L195.637 380.845C196.08 381.131 196.514 381.41 196.948 381.666C196.459 378.648 196.459 374.96 197.924 371.775ZM176.119 365.239L177.747 369.429C177.805 369.4 178.085 369.354 178.545 369.278C180.664 368.932 186.586 367.964 192.07 365.071C198.254 362.054 201.51 359.539 201.672 359.372L195.976 356.689C195.976 356.689 193.046 359.036 187.35 361.886C181.978 364.568 176.119 365.239 176.119 365.239ZM365.9 382.673L327.814 405.303C313.003 414.188 288.101 413.853 272.313 404.465C256.525 395.078 255.874 380.326 270.848 371.442L313.328 346.129C328.14 337.245 353.042 337.58 368.83 346.967C383.966 356.019 385.106 369.933 371.922 378.985L376.968 382.002C392.756 371.442 391.453 354.846 373.55 344.118C354.995 333.054 325.698 332.719 308.12 343.112L265.64 368.424C248.062 378.817 248.875 396.251 267.43 407.315C285.985 418.379 315.282 418.714 332.86 408.321L370.946 385.69L365.9 382.673ZM251.317 360.044C231.134 371.946 228.042 390.553 241.388 405.473L236.18 408.49C220.229 391.727 223.322 370.605 246.108 357.027L289.24 331.379C316.909 314.951 363.296 315.622 392.593 333.055C404.962 340.431 412.287 349.483 414.565 358.871H407.567C405.451 350.489 398.778 342.443 387.873 335.905C361.343 320.148 319.513 319.477 294.448 334.396L251.317 360.044ZM415.542 363.902H408.544C409.032 373.96 403.01 383.851 390.477 391.394L347.346 417.042C322.281 431.961 280.451 431.29 253.921 415.533C250.992 413.857 248.55 412.013 246.272 410.169L241.226 413.019C243.505 414.862 246.109 416.706 249.039 418.55C278.336 435.984 324.722 436.655 352.391 420.227L395.523 394.579C409.52 386.03 416.031 374.966 415.542 363.902ZM286.463 328.193L257.655 345.292L252.447 342.274L281.255 325.176C302.902 312.268 333.99 308.412 362.473 313.106L360.845 317.129C334.641 312.771 306.157 316.459 286.463 328.193ZM402.676 327.02C393.236 321.488 382.494 317.465 370.938 314.783L369.31 318.806C379.727 321.153 389.493 324.841 397.956 329.87C429.532 348.645 430.834 378.316 401.049 396.085L355.15 423.409C338.386 433.299 315.437 437.49 292.976 435.981V440.172C317.39 441.848 342.129 437.322 360.196 426.594L406.094 399.27C438.483 379.824 437.019 347.471 402.676 327.02ZM243.66 421.73C255.216 428.771 269.376 433.129 284.024 435.141L284.187 439.332C267.748 437.153 251.961 432.291 238.94 424.58C204.435 404.297 202.97 371.944 235.522 352.498L246.59 345.793L251.635 348.81L240.567 355.516C210.782 373.285 212.084 402.956 243.66 421.73ZM205.33 445.283L205.33 445.283L205.33 445.282L205.33 445.282L205.329 445.282L205.329 445.282L205.329 445.282L205.329 445.282L205.328 445.282L205.328 445.281L205.328 445.281L205.328 445.281L205.327 445.281C205.084 445.156 204.841 445.031 204.598 444.863C189.786 436.649 178.881 424.58 171.557 416.366C170.868 415.623 170.22 414.918 169.609 414.252L169.609 414.252L169.608 414.252C167.048 411.462 165.127 409.37 163.419 408.152C158.023 404.447 151.451 402.801 149.402 402.288C149.04 402.198 148.82 402.142 148.771 402.117L146.818 406.14C146.818 406.14 153.328 407.481 158.211 410.834C159.614 411.798 162.063 414.454 164.985 417.623L165.372 418.042C165.616 418.31 165.864 418.583 166.115 418.86C173.248 426.716 183.443 437.946 197.436 446.205C198.25 446.707 199.064 447.21 199.878 447.546C200.366 447.713 200.691 447.881 201.017 448.216L206.062 445.702C205.818 445.534 205.574 445.408 205.33 445.283ZM249.028 463.136C253.423 464.31 257.167 465.483 260.259 466.824C267.865 470.114 271.632 474.722 272.225 475.448C272.267 475.498 272.293 475.53 272.303 475.541L265.956 477.05C265.927 477.05 265.804 476.921 265.586 476.694C264.558 475.623 261.426 472.36 256.19 470.009C253.749 469.003 250.331 467.997 246.262 466.824C237.635 464.477 225.103 460.957 207.688 452.072L212.733 449.223C228.424 457.142 239.577 460.386 248.088 462.862C248.405 462.955 248.719 463.046 249.028 463.136ZM189.797 402.62C188.006 400.944 186.053 399.603 184.1 398.262C170.084 389.969 159.073 387.163 156.949 386.622L156.949 386.621L156.948 386.621L156.947 386.621L156.945 386.621L156.944 386.62C156.753 386.571 156.634 386.541 156.594 386.527L154.478 390.383C154.641 390.383 165.22 392.73 179.217 401.111C180.682 401.95 182.147 403.123 183.449 404.296L189.797 402.62ZM258.645 448.068C268.178 450.849 277.408 453.54 286.637 459.277C292.982 463.249 297.71 468.69 299.877 471.183L299.877 471.184C300.545 471.952 300.969 472.44 301.123 472.519L294.612 474.028C294.612 474.028 289.241 466.652 281.917 462.126C273.529 456.81 264.821 454.292 255.635 451.637L255.387 451.565L254.744 451.381L254.744 451.381C244.968 448.577 233.796 445.372 221.533 438.155L220.556 437.652C206.885 429.606 198.909 420.721 192.562 413.513L192.122 413.009L192.122 413.009L192.121 413.009C190.833 411.533 189.663 410.192 188.493 408.987L194.678 407.311C195.979 408.651 197.281 410.16 198.583 411.668L198.583 411.669L198.584 411.669C198.823 411.934 199.064 412.2 199.306 412.468C205.802 419.658 213.223 427.871 226.09 435.305C237.809 442.01 248.063 445.028 257.991 447.878L258.645 448.068ZM438.988 307.24L443.87 304.391C469.062 319.989 476.847 334.734 478.298 337.482C478.422 337.717 478.5 337.864 478.538 337.917L471.702 338.755C471.696 338.748 471.679 338.717 471.651 338.662L471.601 338.565L471.595 338.553L471.594 338.552C470.64 336.676 463.264 322.179 438.988 307.24ZM266.126 315.957C266.467 315.724 266.807 315.571 267.093 315.444C267.216 315.388 267.33 315.338 267.429 315.287L262.383 312.27C262.043 312.386 261.702 312.585 261.417 312.751C261.293 312.823 261.179 312.889 261.081 312.94L199.395 349.651C199.069 349.903 198.744 350.112 198.418 350.322C198.093 350.532 197.767 350.741 197.442 350.993L202.487 354.01C202.813 353.758 203.138 353.549 203.464 353.339C203.789 353.13 204.115 352.92 204.44 352.669L266.126 315.957ZM421.562 408.152C430.351 402.956 436.861 396.921 441.744 390.551L447.929 392.73C442.883 399.435 435.722 405.638 426.607 411.17L400.728 426.592L395.683 423.574L421.562 408.152ZM438.002 327.02C433.444 322.829 428.236 318.974 422.051 315.286C378.92 289.806 312.351 287.291 268.568 308.748L273.614 311.765C314.63 291.985 376.967 294.332 417.168 318.303C422.865 321.656 427.748 325.344 431.98 329.199L438.002 327.02ZM442.721 331.711C459.16 349.312 462.09 369.931 451.185 388.035L445 385.688C454.603 369.093 451.999 349.983 436.862 333.723L442.721 331.711ZM389.501 427.264L359.716 445.033C359.065 445.536 358.251 445.871 357.437 446.206L362.483 449.223C362.689 449.117 362.911 448.994 363.145 448.865L363.145 448.865C363.649 448.586 364.205 448.279 364.761 448.05L394.546 430.281L389.501 427.264ZM326.187 355.684C333.511 351.494 345.881 351.661 353.531 356.187C361.343 360.713 361.669 368.089 354.344 372.448L314.143 396.419C306.818 400.61 294.449 400.442 286.799 395.916C278.986 391.222 278.661 384.014 285.985 379.656L287.125 378.985L291.194 381.332L292.17 382.003L291.031 382.673C286.311 385.523 286.636 390.217 291.519 393.066C296.565 396.084 304.214 396.251 308.934 393.402L349.136 369.43C353.856 366.58 353.531 361.887 348.648 359.037C343.602 356.02 335.953 355.852 331.232 358.702L298.192 378.315L296.239 377.141L293.147 375.297L326.187 355.684Z" fill="url(#paint1_linear_3935_17968)"/>
</g>
<path fill-rule="evenodd" clip-rule="evenodd" d="M444.479 276.138C417.096 261.267 389.873 257.611 386.91 257.213C386.802 257.198 386.726 257.188 386.684 257.182L385.652 261.433C385.996 261.433 412.657 264.799 439.318 278.972L444.479 276.138ZM433.462 259.838L430.022 263.558C430.022 263.558 442.923 268.164 455.307 275.782C467.692 283.046 475.26 290.663 475.26 290.663L481.625 288.537C481.28 288.183 473.712 280.388 460.467 272.593C447.395 264.798 433.978 260.015 433.462 259.838ZM472.857 352.32C473.029 351.965 482.49 318.305 435.875 289.429C389.261 260.552 330.606 265.335 330.09 265.512L328.542 261.083L328.646 261.076L328.721 261.071C333.148 260.75 392.33 256.458 441.036 286.417C489.672 316.507 480.941 350.525 480.282 353.095C480.269 353.143 480.26 353.18 480.254 353.205L472.857 352.32ZM221.721 329.638C217.937 331.764 214.669 334.244 211.573 336.901L205.896 333.712C208.993 331.232 212.433 328.752 216.217 326.449L268.164 295.446C308.242 271.53 375.497 272.593 417.811 297.749C460.126 322.906 462.018 362.766 421.94 386.682L369.993 417.685C366.209 419.811 362.081 421.937 357.78 423.708L352.276 420.52C356.576 418.748 360.877 416.799 364.661 414.496L416.607 383.494C453.933 361.349 452.213 324.146 412.823 300.761C373.433 277.376 310.994 276.49 273.668 298.635L221.721 329.638ZM255.26 394.659C229.975 379.601 228.771 355.684 252.852 341.512L297.918 314.584C321.828 300.234 362.078 300.943 387.363 316.001C412.648 331.059 413.852 354.976 389.771 369.148L344.877 396.076C320.796 410.426 280.718 409.717 255.26 394.659ZM382.375 319.013C360.014 305.726 324.58 305.194 303.423 317.773L258.184 344.701C237.027 357.279 238.059 378.361 260.421 391.647C282.782 404.934 318.215 405.466 339.373 392.887L384.439 365.96C405.596 353.381 404.736 332.3 382.375 319.013ZM275.047 382.963C261.114 374.637 260.598 361.704 273.671 353.732L317.361 327.69C323.701 323.91 332.145 322.046 340.75 322.059C349.944 322.045 359.337 324.175 366.558 328.399C380.49 336.725 381.006 349.658 367.934 357.63L324.244 383.672C322.392 384.776 320.36 385.717 318.198 386.495C305.08 391.395 287.059 390.142 275.047 382.963ZM361.395 331.587C350.387 325.033 333.186 324.855 322.865 331.056L291.476 349.693L279.349 356.921C269.029 363.122 269.545 373.397 280.381 379.774C290.812 385.985 306.801 386.47 317.23 381.23C317.687 380.992 318.132 380.743 318.565 380.483L362.255 354.441C372.748 348.417 372.232 338.142 361.395 331.587ZM296.549 364.539C293.625 366.31 293.281 368.968 295.861 370.562C298.441 372.157 303.085 371.98 306.009 370.208L344.539 347.355C347.463 345.583 347.807 342.926 345.227 341.331C342.647 339.737 338.003 339.914 335.079 341.686L296.549 364.539ZM199.708 391.999C204.18 398.022 209.34 404.931 222.929 412.903L222.929 412.903C223.273 413.08 223.617 413.258 223.961 413.258C237.377 421.052 249.418 424.596 260.083 427.607C269.715 430.442 278.487 433.099 287.948 438.591C306.353 449.575 307.557 455.598 307.557 455.598H314.953C314.953 454.712 313.749 447.626 293.108 435.402H292.936C282.872 429.605 273.316 426.769 263.26 423.785L263.007 423.71C252.342 420.698 241.506 417.509 228.949 410.246C216.055 402.732 211.193 396.425 206.606 390.474L206.416 390.227C202.46 384.912 198.675 379.952 190.247 374.637C172.186 363.122 152.233 358.162 151.373 357.984L148.793 362.059C148.815 362.082 149.146 362.178 149.743 362.352C153.775 363.527 169.932 368.236 184.915 377.649C192.483 382.432 196.095 387.038 199.708 391.999ZM202.284 425.304C187.663 416.623 177.515 405.64 170.119 397.49L169.395 396.701L169.388 396.693L169.388 396.693C166.788 393.856 164.597 391.464 162.55 389.518C154.294 382.078 141.565 379.597 141.393 379.597L143.285 375.346C143.329 375.357 143.433 375.379 143.59 375.412C145.876 375.891 159.568 378.761 168.742 387.215C171.151 389.341 173.731 392.176 176.655 395.542C183.707 403.337 193.512 413.966 207.444 422.292C222.237 431.15 238.406 436.288 252.683 440.717C257.155 442.134 261.455 443.551 265.583 444.969C278.922 449.494 284.387 457.559 285.504 459.207C285.611 459.365 285.678 459.464 285.708 459.495L278.656 460.736C278.656 460.736 274.184 452.941 262.143 448.689C259.707 447.853 257.271 447.078 254.8 446.292L254.799 446.292L254.797 446.291L254.794 446.29L254.792 446.29L254.79 446.289L254.789 446.289L254.788 446.288L254.786 446.288L254.785 446.287C253.073 445.743 251.344 445.193 249.587 444.614C248.659 444.314 247.723 444.013 246.78 443.709L246.78 443.709C232.684 439.17 216.955 434.105 202.284 425.304ZM142.77 402.275C149.478 410.779 161.69 426.014 179.751 436.821C180.611 437.175 181.472 437.707 182.332 438.238C203.653 449.904 222.716 455.091 234.522 458.303C234.907 458.408 235.285 458.511 235.654 458.611C236.857 458.965 238.002 459.28 239.052 459.568L239.055 459.569L239.056 459.569C241.158 460.147 242.879 460.619 243.911 461.092C248.383 462.863 250.619 464.812 250.619 464.812L256.639 462.509C256.639 462.509 253.543 459.851 247.867 457.548C245.631 456.663 242.707 455.777 238.406 454.714C227.226 451.702 208.305 446.565 187.32 435.049C169.679 425.54 157.411 410.335 150.364 401.601C150.059 401.223 149.763 400.856 149.478 400.503C146.728 396.926 142.029 394.728 140.506 394.015C140.219 393.881 140.045 393.8 140.017 393.771L136.061 397.315C136.061 397.315 140.361 399.263 142.77 402.275ZM171.842 444.614C154.641 434.394 140.303 419.26 138.766 417.638L138.764 417.635L138.756 417.627C138.7 417.568 138.663 417.529 138.644 417.509L145.18 415.561L145.194 415.575L145.229 415.613C146.189 416.643 160.645 432.149 177.862 442.134C195.235 452.232 226.54 460.913 226.884 460.913L224.132 464.81C222.756 464.456 191.279 455.775 172.874 444.969C172.465 444.969 172.272 444.858 172.039 444.724C171.978 444.688 171.913 444.651 171.842 444.614ZM320.452 450.28L318.56 448.154C318.56 448.154 316.84 443.016 311.163 439.473C305.143 435.753 296.543 432.741 296.543 432.741L294.995 432.21L294.135 430.084L295.683 429.021L297.059 428.135L299.467 428.489C302.563 429.021 318.044 431.501 328.88 429.198C339.029 427.072 343.673 425.124 345.049 424.415C345.18 424.347 345.287 424.28 345.377 424.222L345.378 424.222C345.525 424.128 345.631 424.061 345.737 424.061L350.897 427.427C350.798 427.427 350.699 427.486 350.5 427.604C350.355 427.69 350.156 427.808 349.865 427.958C346.597 429.552 333.869 436.462 330.256 441.422C328.02 444.434 326.988 446.56 326.472 447.8L326.443 447.861C326.088 448.596 325.359 450.108 322.516 450.28H320.452ZM315.464 435.93C315.592 435.996 315.72 436.087 315.857 436.183C316.088 436.347 316.344 436.528 316.668 436.639C319.248 438.233 320.968 440.005 322.516 441.599L322.516 441.599C322.688 441.363 322.841 441.127 322.994 440.891L322.994 440.89C323.3 440.418 323.605 439.946 324.064 439.473C325.44 437.702 327.676 435.576 330.256 433.804C324.752 434.69 318.56 434.867 313.055 434.513C313.572 434.867 314.432 435.399 315.464 435.93ZM341.614 437.174C335.765 441.248 334.217 445.855 334.217 446.032L341.614 447.272C341.614 447.095 342.818 443.551 347.462 440.185C352.45 436.642 356.578 434.694 356.578 434.694L351.934 431.15C351.59 431.15 347.118 433.276 341.614 437.174ZM163.231 357.099L163.403 355.504C163.724 353.851 166.292 353.432 167.473 353.24L167.473 353.24C167.557 353.226 167.635 353.213 167.703 353.201C167.957 353.158 168.231 353.112 168.527 353.062C170.641 352.706 173.862 352.163 178.54 351.075C186.108 349.127 196.773 342.572 201.073 339.56C201.186 339.483 201.291 339.413 201.386 339.351C201.723 339.128 201.933 338.99 201.933 338.852L207.437 341.863L206.749 342.218C206.708 342.253 206.663 342.291 206.614 342.333C205.455 343.322 202.304 346.009 198.837 351.961C195.053 358.339 199.353 367.728 200.385 369.677L201.073 370.917L198.321 372.866L194.193 372.334L193.333 371.449C193.333 371.449 188.172 366.134 181.636 362.591C175.444 359.225 166.671 358.162 166.671 358.162L165.467 357.985L163.231 357.099ZM191.441 351.253C188.172 352.847 184.732 354.264 181.464 354.973C180.91 355.136 180.319 355.262 179.742 355.384L179.741 355.384C179.065 355.528 178.409 355.668 177.852 355.859C180.776 356.744 183.872 357.807 186.624 359.402C187.476 359.841 188.262 360.347 189.023 360.838L189.023 360.838L189.023 360.838L189.024 360.838C189.492 361.14 189.95 361.435 190.409 361.705C189.892 358.516 189.893 354.619 191.441 351.253ZM168.396 344.344L170.116 348.772C170.178 348.741 170.474 348.692 170.96 348.613C173.199 348.247 179.458 347.223 185.253 344.166C191.789 340.978 195.23 338.32 195.402 338.143L189.381 335.309C189.381 335.309 186.285 337.789 180.265 340.8C174.589 343.635 168.396 344.344 168.396 344.344ZM368.961 362.768L328.711 386.684C313.058 396.074 286.741 395.719 270.056 385.798C253.371 375.878 252.683 360.288 268.508 350.898L313.402 324.148C329.055 314.758 355.373 315.113 372.057 325.034C388.054 334.6 389.258 349.304 375.326 358.871L380.658 362.059C397.343 350.898 395.967 333.36 377.046 322.022C357.437 310.329 326.475 309.975 307.898 320.959L263.004 347.71C244.427 358.693 245.287 377.118 264.896 388.81C284.505 400.502 315.466 400.857 334.043 389.873L374.294 365.957L368.961 362.768ZM247.867 338.852C226.538 351.43 223.27 371.094 237.374 386.861L231.87 390.05C215.013 372.335 218.281 350.013 242.363 335.663L287.945 308.558C317.187 291.196 366.209 291.905 397.171 310.329C410.243 318.124 417.984 327.691 420.392 337.612H412.995C410.759 328.754 403.707 320.25 392.182 313.341C364.145 296.688 319.939 295.98 293.449 311.747L247.867 338.852ZM421.424 342.928H414.028C414.544 353.557 408.18 364.009 394.935 371.982L349.353 399.087C322.863 414.854 278.657 414.145 250.62 397.492C247.524 395.721 244.944 393.772 242.535 391.823L237.203 394.835C239.611 396.784 242.363 398.732 245.46 400.681C276.421 419.105 325.444 419.814 354.685 402.453L400.267 375.348C415.06 366.313 421.941 354.62 421.424 342.928ZM285.011 305.191L254.565 323.261L249.061 320.072L279.507 302.002C302.384 288.361 335.237 284.286 365.339 289.247L363.619 293.498C335.925 288.892 305.824 292.79 285.011 305.191ZM407.827 303.952C397.851 298.106 386.498 293.854 374.286 291.02L372.565 295.271C383.574 297.752 393.894 301.649 402.839 306.964C436.209 326.805 437.585 358.162 406.107 376.941L357.601 405.818C339.884 416.27 315.631 420.699 291.893 419.104V423.533C317.695 425.305 343.84 420.522 362.933 409.183L411.439 380.307C445.669 359.757 444.121 325.565 407.827 303.952ZM239.775 404.043C251.988 411.484 266.952 416.09 282.433 418.216L282.605 422.645C265.232 420.342 248.547 415.204 234.787 407.055C198.321 385.619 196.773 351.428 231.175 330.877L242.871 323.791L248.203 326.98L236.507 334.066C205.029 352.845 206.405 384.202 239.775 404.043ZM200.041 429.379C199.783 429.202 199.525 429.069 199.267 428.936C199.009 428.804 198.751 428.671 198.493 428.494C182.841 419.813 171.316 407.057 163.576 398.377C162.846 397.592 162.162 396.846 161.516 396.142C158.81 393.194 156.78 390.983 154.975 389.696C149.273 385.78 142.327 384.041 140.161 383.499C139.779 383.403 139.546 383.345 139.494 383.318L137.43 387.57C137.43 387.57 144.311 388.987 149.471 392.531C150.954 393.549 153.542 396.356 156.631 399.705L157.039 400.148C157.296 400.431 157.556 400.718 157.821 401.009L157.824 401.012C165.362 409.315 176.137 421.183 190.925 429.911C191.785 430.442 192.645 430.974 193.505 431.328C194.021 431.505 194.365 431.682 194.709 432.037L200.041 429.379ZM245.449 447.804C250.093 449.044 254.049 450.284 257.317 451.701C265.356 455.178 269.337 460.048 269.964 460.815C270.007 460.868 270.035 460.902 270.046 460.913L263.338 462.508C263.308 462.508 263.177 462.372 262.947 462.132C261.861 461 258.551 457.551 253.017 455.067C250.437 454.004 246.825 452.941 242.525 451.701C233.408 449.221 220.164 445.501 201.759 436.111L207.091 433.1C223.674 441.469 235.461 444.898 244.455 447.514C244.79 447.612 245.121 447.708 245.449 447.804ZM182.851 383.849C180.959 382.077 178.895 380.66 176.831 379.243C162.019 370.479 150.382 367.513 148.137 366.941L148.137 366.941L148.135 366.941L148.135 366.941C147.931 366.889 147.805 366.857 147.762 366.842L145.526 370.916C145.698 370.916 156.878 373.397 171.671 382.255C173.219 383.14 174.767 384.381 176.143 385.621L182.851 383.849ZM255.611 431.88C265.686 434.819 275.44 437.663 285.194 443.725C291.899 447.923 296.896 453.674 299.186 456.309L299.186 456.309L299.187 456.31C299.892 457.122 300.341 457.637 300.503 457.721L293.622 459.315C293.622 459.315 287.946 451.52 280.206 446.737C271.341 441.119 262.138 438.458 252.43 435.652L252.168 435.576L251.489 435.381C241.157 432.418 229.35 429.031 216.39 421.404L215.358 420.872C200.91 412.369 192.481 402.979 185.773 395.361L185.308 394.829L185.308 394.829C183.946 393.269 182.709 391.852 181.473 390.578L188.009 388.807C189.385 390.224 190.761 391.818 192.137 393.412L192.137 393.413L192.505 393.82L192.9 394.257C199.766 401.855 207.608 410.535 221.207 418.392C233.591 425.478 244.428 428.667 254.92 431.679L255.611 431.88ZM446.202 283.049L451.362 280.037C477.986 296.522 486.213 312.104 487.746 315.009C487.877 315.257 487.959 315.413 488 315.469L480.776 316.354C480.765 316.343 480.728 316.271 480.661 316.14C479.652 314.157 471.858 298.837 446.202 283.049ZM263.518 292.263C263.878 292.016 264.238 291.855 264.539 291.72C264.67 291.661 264.79 291.608 264.894 291.554L259.562 288.365C259.202 288.489 258.843 288.698 258.541 288.874C258.41 288.95 258.29 289.02 258.186 289.074L192.995 327.871C192.651 328.137 192.307 328.358 191.963 328.58C191.619 328.801 191.275 329.023 190.931 329.289L196.263 332.477C196.607 332.212 196.951 331.99 197.295 331.769C197.639 331.547 197.983 331.326 198.327 331.06L263.518 292.263ZM427.786 389.697C437.074 384.205 443.954 377.828 449.115 371.096L455.651 373.399C450.319 380.485 442.75 387.04 433.118 392.886L405.769 409.185L400.436 405.996L427.786 389.697ZM445.16 303.954C440.344 299.525 434.84 295.451 428.303 291.553C382.721 264.625 312.369 261.968 266.099 284.644L271.431 287.833C314.777 266.928 380.657 269.408 423.143 294.742C429.163 298.285 434.324 302.183 438.796 306.257L445.16 303.954ZM450.148 308.914C467.521 327.516 470.617 349.306 459.092 368.439L452.556 365.959C462.704 348.42 459.952 328.224 443.956 311.04L450.148 308.914ZM393.903 409.895L362.426 428.673C361.738 429.205 360.878 429.559 360.018 429.913L365.35 433.102C365.567 432.99 365.802 432.86 366.048 432.724L366.049 432.724C366.582 432.429 367.17 432.104 367.758 431.862L399.235 413.083L393.903 409.895ZM326.991 334.245C334.732 329.816 347.804 329.993 355.889 334.776C364.145 339.559 364.489 347.354 356.749 351.96L314.263 377.294C306.522 381.723 293.45 381.546 285.365 376.763C277.109 371.802 276.765 364.184 284.505 359.578L285.709 358.87L290.01 361.35L291.042 362.058L289.838 362.767C284.849 365.779 285.193 370.739 290.354 373.751C295.686 376.94 303.77 377.117 308.758 374.105L351.245 348.772C356.233 345.76 355.889 340.8 350.729 337.788C345.396 334.599 337.312 334.422 332.324 337.434L297.406 358.161L295.342 356.921L292.074 354.972L326.991 334.245Z" fill="url(#paint2_linear_3935_17968)"/>
<path fill-rule="evenodd" clip-rule="evenodd" d="M444.479 276.138C417.096 261.267 389.873 257.611 386.91 257.213C386.802 257.198 386.726 257.188 386.684 257.182L385.652 261.433C385.996 261.433 412.657 264.799 439.318 278.972L444.479 276.138ZM433.462 259.838L430.022 263.558C430.022 263.558 442.923 268.164 455.307 275.782C467.692 283.046 475.26 290.663 475.26 290.663L481.625 288.537C481.28 288.183 473.712 280.388 460.467 272.593C447.395 264.798 433.978 260.015 433.462 259.838ZM472.857 352.32C473.029 351.965 482.49 318.305 435.875 289.429C389.261 260.552 330.606 265.335 330.09 265.512L328.542 261.083L328.646 261.076L328.721 261.071C333.148 260.75 392.33 256.458 441.036 286.417C489.672 316.507 480.941 350.525 480.282 353.095C480.269 353.143 480.26 353.18 480.254 353.205L472.857 352.32ZM221.721 329.638C217.937 331.764 214.669 334.244 211.573 336.901L205.896 333.712C208.993 331.232 212.433 328.752 216.217 326.449L268.164 295.446C308.242 271.53 375.497 272.593 417.811 297.749C460.126 322.906 462.018 362.766 421.94 386.682L369.993 417.685C366.209 419.811 362.081 421.937 357.78 423.708L352.276 420.52C356.576 418.748 360.877 416.799 364.661 414.496L416.607 383.494C453.933 361.349 452.213 324.146 412.823 300.761C373.433 277.376 310.994 276.49 273.668 298.635L221.721 329.638ZM255.26 394.659C229.975 379.601 228.771 355.684 252.852 341.512L297.918 314.584C321.828 300.234 362.078 300.943 387.363 316.001C412.648 331.059 413.852 354.976 389.771 369.148L344.877 396.076C320.796 410.426 280.718 409.717 255.26 394.659ZM382.375 319.013C360.014 305.726 324.58 305.194 303.423 317.773L258.184 344.701C237.027 357.279 238.059 378.361 260.421 391.647C282.782 404.934 318.215 405.466 339.373 392.887L384.439 365.96C405.596 353.381 404.736 332.3 382.375 319.013ZM275.047 382.963C261.114 374.637 260.598 361.704 273.671 353.732L317.361 327.69C323.701 323.91 332.145 322.046 340.75 322.059C349.944 322.045 359.337 324.175 366.558 328.399C380.49 336.725 381.006 349.658 367.934 357.63L324.244 383.672C322.392 384.776 320.36 385.717 318.198 386.495C305.08 391.395 287.059 390.142 275.047 382.963ZM361.395 331.587C350.387 325.033 333.186 324.855 322.865 331.056L291.476 349.693L279.349 356.921C269.029 363.122 269.545 373.397 280.381 379.774C290.812 385.985 306.801 386.47 317.23 381.23C317.687 380.992 318.132 380.743 318.565 380.483L362.255 354.441C372.748 348.417 372.232 338.142 361.395 331.587ZM296.549 364.539C293.625 366.31 293.281 368.968 295.861 370.562C298.441 372.157 303.085 371.98 306.009 370.208L344.539 347.355C347.463 345.583 347.807 342.926 345.227 341.331C342.647 339.737 338.003 339.914 335.079 341.686L296.549 364.539ZM199.708 391.999C204.18 398.022 209.34 404.931 222.929 412.903L222.929 412.903C223.273 413.08 223.617 413.258 223.961 413.258C237.377 421.052 249.418 424.596 260.083 427.607C269.715 430.442 278.487 433.099 287.948 438.591C306.353 449.575 307.557 455.598 307.557 455.598H314.953C314.953 454.712 313.749 447.626 293.108 435.402H292.936C282.872 429.605 273.316 426.769 263.26 423.785L263.007 423.71C252.342 420.698 241.506 417.509 228.949 410.246C216.055 402.732 211.193 396.425 206.606 390.474L206.416 390.227C202.46 384.912 198.675 379.952 190.247 374.637C172.186 363.122 152.233 358.162 151.373 357.984L148.793 362.059C148.815 362.082 149.146 362.178 149.743 362.352C153.775 363.527 169.932 368.236 184.915 377.649C192.483 382.432 196.095 387.038 199.708 391.999ZM202.284 425.304C187.663 416.623 177.515 405.64 170.119 397.49L169.395 396.701L169.388 396.693L169.388 396.693C166.788 393.856 164.597 391.464 162.55 389.518C154.294 382.078 141.565 379.597 141.393 379.597L143.285 375.346C143.329 375.357 143.433 375.379 143.59 375.412C145.876 375.891 159.568 378.761 168.742 387.215C171.151 389.341 173.731 392.176 176.655 395.542C183.707 403.337 193.512 413.966 207.444 422.292C222.237 431.15 238.406 436.288 252.683 440.717C257.155 442.134 261.455 443.551 265.583 444.969C278.922 449.494 284.387 457.559 285.504 459.207C285.611 459.365 285.678 459.464 285.708 459.495L278.656 460.736C278.656 460.736 274.184 452.941 262.143 448.689C259.707 447.853 257.271 447.078 254.8 446.292L254.799 446.292L254.797 446.291L254.794 446.29L254.792 446.29L254.79 446.289L254.789 446.289L254.788 446.288L254.786 446.288L254.785 446.287C253.073 445.743 251.344 445.193 249.587 444.614C248.659 444.314 247.723 444.013 246.78 443.709L246.78 443.709C232.684 439.17 216.955 434.105 202.284 425.304ZM142.77 402.275C149.478 410.779 161.69 426.014 179.751 436.821C180.611 437.175 181.472 437.707 182.332 438.238C203.653 449.904 222.716 455.091 234.522 458.303C234.907 458.408 235.285 458.511 235.654 458.611C236.857 458.965 238.002 459.28 239.052 459.568L239.055 459.569L239.056 459.569C241.158 460.147 242.879 460.619 243.911 461.092C248.383 462.863 250.619 464.812 250.619 464.812L256.639 462.509C256.639 462.509 253.543 459.851 247.867 457.548C245.631 456.663 242.707 455.777 238.406 454.714C227.226 451.702 208.305 446.565 187.32 435.049C169.679 425.54 157.411 410.335 150.364 401.601C150.059 401.223 149.763 400.856 149.478 400.503C146.728 396.926 142.029 394.728 140.506 394.015C140.219 393.881 140.045 393.8 140.017 393.771L136.061 397.315C136.061 397.315 140.361 399.263 142.77 402.275ZM171.842 444.614C154.641 434.394 140.303 419.26 138.766 417.638L138.764 417.635L138.756 417.627C138.7 417.568 138.663 417.529 138.644 417.509L145.18 415.561L145.194 415.575L145.229 415.613C146.189 416.643 160.645 432.149 177.862 442.134C195.235 452.232 226.54 460.913 226.884 460.913L224.132 464.81C222.756 464.456 191.279 455.775 172.874 444.969C172.465 444.969 172.272 444.858 172.039 444.724C171.978 444.688 171.913 444.651 171.842 444.614ZM320.452 450.28L318.56 448.154C318.56 448.154 316.84 443.016 311.163 439.473C305.143 435.753 296.543 432.741 296.543 432.741L294.995 432.21L294.135 430.084L295.683 429.021L297.059 428.135L299.467 428.489C302.563 429.021 318.044 431.501 328.88 429.198C339.029 427.072 343.673 425.124 345.049 424.415C345.18 424.347 345.287 424.28 345.377 424.222L345.378 424.222C345.525 424.128 345.631 424.061 345.737 424.061L350.897 427.427C350.798 427.427 350.699 427.486 350.5 427.604C350.355 427.69 350.156 427.808 349.865 427.958C346.597 429.552 333.869 436.462 330.256 441.422C328.02 444.434 326.988 446.56 326.472 447.8L326.443 447.861C326.088 448.596 325.359 450.108 322.516 450.28H320.452ZM315.464 435.93C315.592 435.996 315.72 436.087 315.857 436.183C316.088 436.347 316.344 436.528 316.668 436.639C319.248 438.233 320.968 440.005 322.516 441.599L322.516 441.599C322.688 441.363 322.841 441.127 322.994 440.891L322.994 440.89C323.3 440.418 323.605 439.946 324.064 439.473C325.44 437.702 327.676 435.576 330.256 433.804C324.752 434.69 318.56 434.867 313.055 434.513C313.572 434.867 314.432 435.399 315.464 435.93ZM341.614 437.174C335.765 441.248 334.217 445.855 334.217 446.032L341.614 447.272C341.614 447.095 342.818 443.551 347.462 440.185C352.45 436.642 356.578 434.694 356.578 434.694L351.934 431.15C351.59 431.15 347.118 433.276 341.614 437.174ZM163.231 357.099L163.403 355.504C163.724 353.851 166.292 353.432 167.473 353.24L167.473 353.24C167.557 353.226 167.635 353.213 167.703 353.201C167.957 353.158 168.231 353.112 168.527 353.062C170.641 352.706 173.862 352.163 178.54 351.075C186.108 349.127 196.773 342.572 201.073 339.56C201.186 339.483 201.291 339.413 201.386 339.351C201.723 339.128 201.933 338.99 201.933 338.852L207.437 341.863L206.749 342.218C206.708 342.253 206.663 342.291 206.614 342.333C205.455 343.322 202.304 346.009 198.837 351.961C195.053 358.339 199.353 367.728 200.385 369.677L201.073 370.917L198.321 372.866L194.193 372.334L193.333 371.449C193.333 371.449 188.172 366.134 181.636 362.591C175.444 359.225 166.671 358.162 166.671 358.162L165.467 357.985L163.231 357.099ZM191.441 351.253C188.172 352.847 184.732 354.264 181.464 354.973C180.91 355.136 180.319 355.262 179.742 355.384L179.741 355.384C179.065 355.528 178.409 355.668 177.852 355.859C180.776 356.744 183.872 357.807 186.624 359.402C187.476 359.841 188.262 360.347 189.023 360.838L189.023 360.838L189.023 360.838L189.024 360.838C189.492 361.14 189.95 361.435 190.409 361.705C189.892 358.516 189.893 354.619 191.441 351.253ZM168.396 344.344L170.116 348.772C170.178 348.741 170.474 348.692 170.96 348.613C173.199 348.247 179.458 347.223 185.253 344.166C191.789 340.978 195.23 338.32 195.402 338.143L189.381 335.309C189.381 335.309 186.285 337.789 180.265 340.8C174.589 343.635 168.396 344.344 168.396 344.344ZM368.961 362.768L328.711 386.684C313.058 396.074 286.741 395.719 270.056 385.798C253.371 375.878 252.683 360.288 268.508 350.898L313.402 324.148C329.055 314.758 355.373 315.113 372.057 325.034C388.054 334.6 389.258 349.304 375.326 358.871L380.658 362.059C397.343 350.898 395.967 333.36 377.046 322.022C357.437 310.329 326.475 309.975 307.898 320.959L263.004 347.71C244.427 358.693 245.287 377.118 264.896 388.81C284.505 400.502 315.466 400.857 334.043 389.873L374.294 365.957L368.961 362.768ZM247.867 338.852C226.538 351.43 223.27 371.094 237.374 386.861L231.87 390.05C215.013 372.335 218.281 350.013 242.363 335.663L287.945 308.558C317.187 291.196 366.209 291.905 397.171 310.329C410.243 318.124 417.984 327.691 420.392 337.612H412.995C410.759 328.754 403.707 320.25 392.182 313.341C364.145 296.688 319.939 295.98 293.449 311.747L247.867 338.852ZM421.424 342.928H414.028C414.544 353.557 408.18 364.009 394.935 371.982L349.353 399.087C322.863 414.854 278.657 414.145 250.62 397.492C247.524 395.721 244.944 393.772 242.535 391.823L237.203 394.835C239.611 396.784 242.363 398.732 245.46 400.681C276.421 419.105 325.444 419.814 354.685 402.453L400.267 375.348C415.06 366.313 421.941 354.62 421.424 342.928ZM285.011 305.191L254.565 323.261L249.061 320.072L279.507 302.002C302.384 288.361 335.237 284.286 365.339 289.247L363.619 293.498C335.925 288.892 305.824 292.79 285.011 305.191ZM407.827 303.952C397.851 298.106 386.498 293.854 374.286 291.02L372.565 295.271C383.574 297.752 393.894 301.649 402.839 306.964C436.209 326.805 437.585 358.162 406.107 376.941L357.601 405.818C339.884 416.27 315.631 420.699 291.893 419.104V423.533C317.695 425.305 343.84 420.522 362.933 409.183L411.439 380.307C445.669 359.757 444.121 325.565 407.827 303.952ZM239.775 404.043C251.988 411.484 266.952 416.09 282.433 418.216L282.605 422.645C265.232 420.342 248.547 415.204 234.787 407.055C198.321 385.619 196.773 351.428 231.175 330.877L242.871 323.791L248.203 326.98L236.507 334.066C205.029 352.845 206.405 384.202 239.775 404.043ZM200.041 429.379C199.783 429.202 199.525 429.069 199.267 428.936C199.009 428.804 198.751 428.671 198.493 428.494C182.841 419.813 171.316 407.057 163.576 398.377C162.846 397.592 162.162 396.846 161.516 396.142C158.81 393.194 156.78 390.983 154.975 389.696C149.273 385.78 142.327 384.041 140.161 383.499C139.779 383.403 139.546 383.345 139.494 383.318L137.43 387.57C137.43 387.57 144.311 388.987 149.471 392.531C150.954 393.549 153.542 396.356 156.631 399.705L157.039 400.148C157.296 400.431 157.556 400.718 157.821 401.009L157.824 401.012C165.362 409.315 176.137 421.183 190.925 429.911C191.785 430.442 192.645 430.974 193.505 431.328C194.021 431.505 194.365 431.682 194.709 432.037L200.041 429.379ZM245.449 447.804C250.093 449.044 254.049 450.284 257.317 451.701C265.356 455.178 269.337 460.048 269.964 460.815C270.007 460.868 270.035 460.902 270.046 460.913L263.338 462.508C263.308 462.508 263.177 462.372 262.947 462.132C261.861 461 258.551 457.551 253.017 455.067C250.437 454.004 246.825 452.941 242.525 451.701C233.408 449.221 220.164 445.501 201.759 436.111L207.091 433.1C223.674 441.469 235.461 444.898 244.455 447.514C244.79 447.612 245.121 447.708 245.449 447.804ZM182.851 383.849C180.959 382.077 178.895 380.66 176.831 379.243C162.019 370.479 150.382 367.513 148.137 366.941L148.137 366.941L148.135 366.941L148.135 366.941C147.931 366.889 147.805 366.857 147.762 366.842L145.526 370.916C145.698 370.916 156.878 373.397 171.671 382.255C173.219 383.14 174.767 384.381 176.143 385.621L182.851 383.849ZM255.611 431.88C265.686 434.819 275.44 437.663 285.194 443.725C291.899 447.923 296.896 453.674 299.186 456.309L299.186 456.309L299.187 456.31C299.892 457.122 300.341 457.637 300.503 457.721L293.622 459.315C293.622 459.315 287.946 451.52 280.206 446.737C271.341 441.119 262.138 438.458 252.43 435.652L252.168 435.576L251.489 435.381C241.157 432.418 229.35 429.031 216.39 421.404L215.358 420.872C200.91 412.369 192.481 402.979 185.773 395.361L185.308 394.829L185.308 394.829C183.946 393.269 182.709 391.852 181.473 390.578L188.009 388.807C189.385 390.224 190.761 391.818 192.137 393.412L192.137 393.413L192.505 393.82L192.9 394.257C199.766 401.855 207.608 410.535 221.207 418.392C233.591 425.478 244.428 428.667 254.92 431.679L255.611 431.88ZM446.202 283.049L451.362 280.037C477.986 296.522 486.213 312.104 487.746 315.009C487.877 315.257 487.959 315.413 488 315.469L480.776 316.354C480.765 316.343 480.728 316.271 480.661 316.14C479.652 314.157 471.858 298.837 446.202 283.049ZM263.518 292.263C263.878 292.016 264.238 291.855 264.539 291.72C264.67 291.661 264.79 291.608 264.894 291.554L259.562 288.365C259.202 288.489 258.843 288.698 258.541 288.874C258.41 288.95 258.29 289.02 258.186 289.074L192.995 327.871C192.651 328.137 192.307 328.358 191.963 328.58C191.619 328.801 191.275 329.023 190.931 329.289L196.263 332.477C196.607 332.212 196.951 331.99 197.295 331.769C197.639 331.547 197.983 331.326 198.327 331.06L263.518 292.263ZM427.786 389.697C437.074 384.205 443.954 377.828 449.115 371.096L455.651 373.399C450.319 380.485 442.75 387.04 433.118 392.886L405.769 409.185L400.436 405.996L427.786 389.697ZM445.16 303.954C440.344 299.525 434.84 295.451 428.303 291.553C382.721 264.625 312.369 261.968 266.099 284.644L271.431 287.833C314.777 266.928 380.657 269.408 423.143 294.742C429.163 298.285 434.324 302.183 438.796 306.257L445.16 303.954ZM450.148 308.914C467.521 327.516 470.617 349.306 459.092 368.439L452.556 365.959C462.704 348.42 459.952 328.224 443.956 311.04L450.148 308.914ZM393.903 409.895L362.426 428.673C361.738 429.205 360.878 429.559 360.018 429.913L365.35 433.102C365.567 432.99 365.802 432.86 366.048 432.724L366.049 432.724C366.582 432.429 367.17 432.104 367.758 431.862L399.235 413.083L393.903 409.895ZM326.991 334.245C334.732 329.816 347.804 329.993 355.889 334.776C364.145 339.559 364.489 347.354 356.749 351.96L314.263 377.294C306.522 381.723 293.45 381.546 285.365 376.763C277.109 371.802 276.765 364.184 284.505 359.578L285.709 358.87L290.01 361.35L291.042 362.058L289.838 362.767C284.849 365.779 285.193 370.739 290.354 373.751C295.686 376.94 303.77 377.117 308.758 374.105L351.245 348.772C356.233 345.76 355.889 340.8 350.729 337.788C345.396 334.599 337.312 334.422 332.324 337.434L297.406 358.161L295.342 356.921L292.074 354.972L326.991 334.245Z" fill="url(#paint3_linear_3935_17968)"/>
<path d="M428.219 95.6258L346.025 11.7749L263.849 0.822996C262.277 0.306862 260.613 0.13297 258.968 0.313038C257.323 0.493106 255.736 1.02295 254.314 1.86685L232.604 14.4958L249.221 49.9527V105.773C249.221 105.773 258.207 178.518 303.291 248.782C338.874 304.243 345.888 308.778 345.888 308.778C345.888 308.778 350.141 310.917 368.833 305.202L373.686 307.426L392.55 296.389C395.828 294.818 398.971 292.981 401.947 290.896L402.29 290.69C435.833 267.058 442.693 217.449 442.693 217.449V125.196C442.813 115.374 436.913 103.309 428.219 95.6258Z" fill="url(#paint4_linear_3935_17968)"/>
<path d="M346.025 11.7749L263.849 0.822996C262.277 0.306862 260.613 0.13297 258.968 0.313038C257.323 0.493106 255.736 1.02295 254.314 1.86685L232.604 14.4958L241.178 32.9772L323.492 24.7975L346.025 11.7749Z" fill="url(#paint5_linear_3935_17968)"/>
<path d="M405.772 108.665L323.646 24.8142L241.418 13.8623C232.844 11.5692 226.808 16.7543 226.808 26.5768V118.83C226.808 118.83 235.794 191.575 280.877 261.838C316.461 317.3 323.475 321.834 323.475 321.834C323.475 321.834 330.506 325.394 366.347 311.139C411.722 293.068 420.331 230.488 420.331 230.488V138.235C420.365 128.396 414.414 116.349 405.772 108.665Z" fill="url(#paint6_linear_3935_17968)"/>
<g style="mix-blend-mode:overlay">
<path style="mix-blend-mode:overlay" d="M428.219 95.6258L346.025 11.7749L263.849 0.822996C262.277 0.306862 260.613 0.13297 258.968 0.313038C257.323 0.493106 255.736 1.02295 254.314 1.86685L232.604 14.4958L249.221 49.9527V105.773C249.221 105.773 258.207 178.518 303.291 248.782C338.874 304.243 345.888 308.778 345.888 308.778C345.888 308.778 350.141 310.917 368.833 305.202L373.686 307.426L392.55 296.389C395.828 294.818 398.971 292.981 401.947 290.896L402.29 290.69C435.833 267.058 442.693 217.449 442.693 217.449V125.196C442.813 115.374 436.913 103.309 428.219 95.6258Z" fill="url(#paint7_linear_3935_17968)"/>
<path style="mix-blend-mode:overlay" d="M346.025 11.7749L263.849 0.822996C262.277 0.306862 260.613 0.13297 258.968 0.313038C257.323 0.493106 255.736 1.02295 254.314 1.86685L232.604 14.4958L241.178 32.9772L323.492 24.7975L346.025 11.7749Z" fill="url(#paint8_linear_3935_17968)"/>
<g style="mix-blend-mode:overlay">
<path style="mix-blend-mode:overlay" d="M405.772 108.665L323.646 24.8142L241.418 13.8623C232.844 11.5692 226.808 16.7543 226.808 26.5768V118.83C226.808 118.83 235.794 191.575 280.877 261.838C316.461 317.3 323.475 321.834 323.475 321.834C323.475 321.834 330.506 325.394 366.347 311.139C411.722 293.068 420.331 230.488 420.331 230.488V138.235C420.365 128.396 414.414 116.349 405.772 108.665Z" fill="url(#paint9_linear_3935_17968)"/>
</g>
</g>
<g style="mix-blend-mode:overlay">
<path style="mix-blend-mode:overlay" d="M385.176 119.927L303.051 36.0757L220.84 25.1238C219.268 24.6076 217.604 24.4338 215.959 24.6138C214.314 24.7939 212.727 25.3237 211.305 26.1676L189.595 38.7966L206.212 74.2535V130.074C206.212 130.074 215.181 202.836 260.282 273.1C295.865 328.561 302.879 333.096 302.879 333.096C302.879 333.096 307.132 335.235 325.824 329.519L330.677 331.744L349.541 320.707C352.819 319.136 355.962 317.299 358.938 315.213L359.281 315.008C392.824 291.376 399.683 241.767 399.683 241.767V149.514C399.769 139.674 393.819 127.61 385.176 119.927Z" fill="url(#paint10_linear_3935_17968)"/>
<path style="mix-blend-mode:overlay" d="M303.051 36.0928L220.84 25.1238C219.268 24.6076 217.604 24.4338 215.959 24.6138C214.314 24.7939 212.727 25.3237 211.305 26.1676L189.595 38.7966L198.169 57.278L280.483 49.0983L303.051 36.0928Z" fill="url(#paint11_linear_3935_17968)"/>
<g style="mix-blend-mode:overlay">
<path style="mix-blend-mode:overlay" d="M362.728 132.968L280.603 49.117L198.427 38.165C189.852 35.872 183.816 41.057 183.816 50.8796V143.133C183.816 143.133 192.802 215.877 237.886 286.141C273.469 341.602 280.483 346.137 280.483 346.137C280.483 346.137 287.514 349.697 323.355 335.442C368.73 317.371 377.339 254.791 377.339 254.791V162.538C377.322 152.716 371.371 140.651 362.728 132.968Z" fill="url(#paint12_linear_3935_17968)"/>
</g>
</g>
<g style="mix-blend-mode:overlay">
<path style="mix-blend-mode:overlay" d="M385.176 119.927L303.051 36.0757L220.84 25.1238C219.268 24.6076 217.604 24.4338 215.959 24.6138C214.314 24.7939 212.727 25.3237 211.305 26.1676L189.595 38.7966L206.212 74.2535V130.074C206.212 130.074 215.181 202.836 260.282 273.1C295.865 328.561 302.879 333.096 302.879 333.096C302.879 333.096 307.132 335.235 325.824 329.519L330.677 331.744L349.541 320.707C352.819 319.136 355.962 317.299 358.938 315.213L359.281 315.008C392.824 291.376 399.683 241.767 399.683 241.767V149.514C399.769 139.674 393.819 127.61 385.176 119.927Z" fill="url(#paint13_linear_3935_17968)"/>
<path style="mix-blend-mode:overlay" d="M303.051 36.0928L220.84 25.1238C219.268 24.6076 217.604 24.4338 215.959 24.6138C214.314 24.7939 212.727 25.3237 211.305 26.1676L189.595 38.7966L198.169 57.278L280.483 49.0983L303.051 36.0928Z" fill="url(#paint14_linear_3935_17968)"/>
<g style="mix-blend-mode:overlay">
<path style="mix-blend-mode:overlay" d="M362.728 132.968L280.603 49.117L198.427 38.165C189.852 35.872 183.816 41.057 183.816 50.8796V143.133C183.816 143.133 192.802 215.877 237.886 286.141C273.469 341.602 280.483 346.137 280.483 346.137C280.483 346.137 287.514 349.697 323.355 335.442C368.73 317.371 377.339 254.791 377.339 254.791V162.538C377.322 152.716 371.371 140.651 362.728 132.968Z" fill="url(#paint15_linear_3935_17968)"/>
</g>
</g>
<path d="M319.256 223.539C300.89 212.946 285.971 188.031 285.988 167.992V150.229C285.988 140.732 293.07 137.104 301.765 142.118L336.817 162.345C345.511 167.359 352.576 179.166 352.576 188.664V206.409C352.559 226.448 337.605 234.08 319.256 223.539ZM301.765 149.339C296.723 146.43 292.607 148.535 292.607 154.045V171.791C292.607 187.842 304.611 207.813 319.273 216.283C333.936 224.754 346.025 218.679 346.025 202.593V184.848C345.807 181.767 344.866 178.78 343.278 176.129C341.69 173.477 339.501 171.235 336.885 169.583L301.765 149.339Z" fill="white"/>
<path d="M319.256 207.266C312.705 203.484 307.389 194.603 307.406 187.467C307.423 180.331 312.739 177.593 319.273 181.358C325.807 185.122 331.14 194.021 331.123 201.157C331.106 208.293 325.807 211.031 319.256 207.266ZM319.256 188.579C316.358 186.868 314.008 188.117 314.008 191.283C314.132 193.052 314.672 194.767 315.584 196.289C316.495 197.811 317.753 199.098 319.256 200.044C322.154 201.756 324.503 200.506 324.503 197.341C324.381 195.573 323.844 193.859 322.936 192.337C322.027 190.815 320.772 189.528 319.273 188.579H319.256Z" fill="white"/>
<path d="M341.429 168.625L334.809 164.809V139.432C334.621 136.669 333.782 133.989 332.361 131.61C330.939 129.232 328.976 127.221 326.63 125.742L311.95 117.186C307.44 114.584 303.77 116.467 303.77 121.395V146.773L297.151 142.957V117.716C297.151 108.818 303.805 105.395 311.95 110.101L326.63 118.657C334.792 123.363 341.429 134.435 341.412 143.35L341.429 168.625Z" fill="white"/>
<g opacity="0.6" filter="url(#filter1_f_3935_17968)">
<path d="M530.592 506.76L472.275 471.861C464.267 467.103 465.294 458.748 474.534 453.355L523.918 424.167C533.159 418.668 547.122 418.139 555.13 422.898L613.447 457.796C621.455 462.555 620.428 470.91 611.188 476.303L561.804 505.491C552.563 510.99 538.6 511.519 530.592 506.76Z" fill="#748AFF"/>
</g>
<g opacity="0.4" filter="url(#filter2_f_3935_17968)">
<path d="M534.812 491.37L496.85 468.258C491.637 465.106 492.305 459.573 498.32 456.001L530.468 436.671C536.483 433.029 545.572 432.679 550.785 435.831L588.748 458.943C593.961 462.095 593.292 467.628 587.277 471.2L555.13 490.53C549.114 494.172 540.025 494.522 534.812 491.37Z" fill="#370FA8"/>
</g>
<path d="M608.307 451.199V272.369L477.363 269.734V447.411C476.884 448.893 477.523 450.375 479.282 451.528L538.758 487.755C541.796 489.566 547.232 489.402 550.909 487.426L605.589 455.809C607.507 454.327 608.467 452.681 608.307 451.199Z" fill="url(#paint16_linear_3935_17968)"/>
<path d="M538.598 308.101L479.122 271.874C476.084 270.063 476.404 266.77 480.081 264.629L534.761 233.013C538.278 230.872 543.714 230.707 546.912 232.683L606.388 268.91C609.426 270.722 609.106 274.015 605.429 276.156L550.749 307.772C547.072 309.748 541.636 309.913 538.598 308.101Z" fill="url(#paint17_linear_3935_17968)"/>
<path d="M540.518 292.787L504.065 270.556C502.146 269.404 502.466 267.428 504.704 266.11L538.12 246.68C540.358 245.362 543.716 245.362 545.474 246.515L581.928 268.745C583.846 269.898 583.526 271.874 581.288 273.191L547.873 292.457C545.794 293.775 542.437 293.939 540.518 292.787Z" fill="url(#paint18_linear_3935_17968)"/>
<path d="M528.367 433.742C528.367 431.272 526.928 428.308 525.169 427.155L480.882 400.314C480.082 399.82 479.283 399.82 478.643 400.149C478.483 400.149 478.483 400.314 478.324 400.314L467.292 407.066L515.576 443.622L526.768 436.706C527.088 436.706 527.247 436.541 527.407 436.376C528.047 435.718 528.367 434.894 528.367 433.742Z" fill="url(#paint19_linear_3935_17968)"/>
<path d="M513.658 443.13L469.53 416.289C467.612 415.136 466.173 412.172 466.333 409.702C466.333 407.232 467.932 406.08 469.85 407.232L514.137 434.073C516.056 435.226 517.495 438.19 517.335 440.66C517.015 443.13 515.576 444.283 513.658 443.13Z" fill="url(#paint20_linear_3935_17968)"/>
<path d="M528.206 413.656C528.206 411.186 526.767 408.222 525.009 407.069L480.721 380.228C479.922 379.734 479.122 379.734 478.483 380.064C478.323 380.064 478.323 380.228 478.163 380.228L467.131 386.98L515.416 423.536L526.607 416.62C526.927 416.62 527.087 416.455 527.247 416.291C527.886 415.632 528.206 414.808 528.206 413.656Z" fill="url(#paint21_linear_3935_17968)"/>
<path d="M513.497 423.044L469.21 396.203C467.291 395.05 465.852 392.086 466.012 389.616C466.012 387.146 467.611 385.994 469.53 387.146L513.817 413.987C515.735 415.14 517.174 418.104 517.014 420.574C516.855 423.209 515.416 424.197 513.497 423.044Z" fill="url(#paint22_linear_3935_17968)"/>
<path d="M528.366 393.724C528.366 391.254 526.927 388.29 525.168 387.137L480.881 360.297C480.082 359.803 479.282 359.803 478.643 360.132C478.483 360.132 478.483 360.297 478.323 360.297L467.291 367.048L515.575 403.604L526.767 396.688C527.087 396.688 527.247 396.523 527.407 396.359C528.046 395.7 528.366 394.877 528.366 393.724Z" fill="url(#paint23_linear_3935_17968)"/>
<path d="M513.657 403.112L469.37 376.271C467.451 375.119 466.012 372.155 466.172 369.685C466.172 367.215 467.771 366.062 469.689 367.215L513.977 394.056C515.895 395.208 517.334 398.172 517.174 400.642C517.015 403.112 515.576 404.265 513.657 403.112Z" fill="url(#paint24_linear_3935_17968)"/>
<path d="M528.366 373.642C528.366 371.172 526.928 368.208 525.169 367.055L480.882 340.215C480.082 339.721 479.283 339.721 478.643 340.05C478.483 340.05 478.483 340.215 478.324 340.215L467.292 346.966L515.576 383.522L526.768 376.606C527.087 376.606 527.247 376.441 527.407 376.277C527.887 375.618 528.207 374.795 528.366 373.642Z" fill="url(#paint25_linear_3935_17968)"/>
<path d="M513.657 383.028L469.37 356.187C467.451 355.035 466.012 352.071 466.172 349.601C466.172 347.131 467.771 345.978 469.689 347.131L513.977 373.972C515.896 375.124 517.334 378.088 517.175 380.558C517.015 383.028 515.416 384.181 513.657 383.028Z" fill="url(#paint26_linear_3935_17968)"/>
<path d="M528.367 353.55C528.367 351.08 526.928 348.116 525.169 346.964L480.882 320.123C480.082 319.629 479.283 319.629 478.643 319.958C478.483 319.958 478.483 320.123 478.324 320.123L467.292 326.874L515.576 363.43L526.768 356.514C527.088 356.514 527.247 356.35 527.407 356.185C528.047 355.526 528.367 354.703 528.367 353.55Z" fill="url(#paint27_linear_3935_17968)"/>
<path d="M513.658 362.939L469.53 336.098C467.612 334.945 466.173 331.981 466.333 329.511C466.333 327.041 467.932 325.888 469.85 327.041L514.137 353.882C516.056 355.034 517.495 357.998 517.335 360.469C517.175 362.939 515.576 364.091 513.658 362.939Z" fill="url(#paint28_linear_3935_17968)"/>
<path d="M528.367 333.627C528.367 331.157 526.928 328.193 525.169 327.04L480.882 300.035C480.082 299.541 479.283 299.541 478.643 299.87C478.483 299.87 478.483 300.035 478.324 300.035L467.292 306.786L515.576 343.343L526.768 336.427C527.088 336.427 527.247 336.262 527.407 336.097C528.047 335.603 528.367 334.78 528.367 333.627Z" fill="url(#paint29_linear_3935_17968)"/>
<path d="M513.658 343.013L469.53 316.008C467.612 314.855 466.173 311.891 466.333 309.421C466.333 306.951 467.932 305.798 469.85 306.951L514.137 333.792C516.056 334.945 517.495 337.909 517.335 340.379C517.175 343.013 515.576 344.166 513.658 343.013Z" fill="url(#paint30_linear_3935_17968)"/>
<path d="M504.064 270.721L510.14 274.344L538.12 258.042C540.358 256.724 543.715 256.724 545.474 257.877L575.852 276.32L581.288 273.191C583.526 271.874 583.686 269.898 581.927 268.745L545.474 246.515C543.556 245.362 540.198 245.527 538.12 246.68L504.704 266.275C502.466 267.593 502.306 269.569 504.064 270.721Z" fill="url(#paint31_linear_3935_17968)"/>
<path d="M598.874 309.093L557.465 333.793V327.206L598.874 302.506V309.093Z" fill="#00AFE7"/>
<path d="M598.874 321.936L586.244 329.511V322.76L598.874 315.35V321.936Z" fill="#00AFE7"/>
<path d="M581.287 332.309L557.465 346.471V339.884L581.287 325.723V332.309Z" fill="#00AFE7"/>
<path d="M598.874 334.118L569.456 351.737V345.151L598.874 327.531V334.118Z" fill="#00AFE7"/>
<path d="M564.659 354.542L557.465 358.823V352.236L564.659 347.955V354.542Z" fill="#00AFE7"/>
<path d="M598.874 346.966L557.465 371.666V364.914L598.874 340.379V346.966Z" fill="#00AFE7"/>
<path d="M598.875 359.813L586.244 367.388V360.637L598.875 353.227V359.813Z" fill="#00AFE7"/>
<path d="M581.287 370.186L557.465 384.348V377.761L581.287 363.6V370.186Z" fill="#00AFE7"/>
<path d="M598.874 371.997L569.456 389.616V383.03L598.874 365.41V371.997Z" fill="#00AFE7"/>
<path d="M564.659 392.415L557.465 396.696V390.109L564.659 385.828V392.415Z" fill="#00AFE7"/>
<path d="M598.874 384.18L557.465 408.881V402.129L598.874 377.594V384.18Z" fill="#00AFE7"/>
<path d="M598.875 396.862L586.245 404.437V397.85L598.875 390.275V396.862Z" fill="#00AFE7"/>
<path d="M581.287 407.4L557.465 421.561V414.975L581.287 400.648V407.4Z" fill="#00AFE7"/>
<path d="M598.875 409.208L569.456 426.827V420.076L598.875 402.621V409.208Z" fill="#00AFE7"/>
<path d="M564.659 429.63L557.465 433.746V427.16L564.659 423.043V429.63Z" fill="#00AFE7"/>
<path d="M598.874 422.052L557.465 446.588V440.001L598.874 415.301V422.052Z" fill="#00AFE7"/>
<g opacity="0.8" filter="url(#filter3_f_3935_17968)">
<path d="M92.9358 316.784L57.8172 296.565C53.0174 293.79 53.6574 288.954 59.1772 285.862L88.856 268.894C94.4558 265.723 102.855 265.406 107.655 268.181L142.774 288.399C147.574 291.174 146.934 296.01 141.414 299.103L111.735 315.991C106.135 319.162 97.7357 319.559 92.9358 316.784Z" fill="#748AFF"/>
</g>
<g opacity="0.8" filter="url(#filter4_f_3935_17968)">
<path d="M94.9174 310.073L69.2538 295.433C65.7463 293.423 66.2139 289.921 70.2476 287.682L91.936 275.395C96.0282 273.098 102.166 272.869 105.674 274.878L131.338 289.519C134.845 291.528 134.377 295.031 130.344 297.27L108.655 309.499C104.563 311.796 98.425 312.083 94.9174 310.073Z" fill="#370FA8" fill-opacity="0.42"/>
</g>
<path d="M140.599 284.806L140.459 245.261L59.3246 243.674L59.4647 282.641C59.1845 283.507 59.6048 284.517 60.5857 285.094L97.2993 307.464C99.2611 308.619 102.484 308.475 104.726 307.176L138.497 287.548C140.038 286.826 140.739 285.816 140.599 284.806Z" fill="url(#paint32_linear_3935_17968)"/>
<path d="M97.2997 267.342L60.5861 244.972C58.6243 243.818 58.9045 241.797 61.1466 240.498L94.9175 220.87C97.1595 219.571 100.523 219.427 102.344 220.582L139.058 242.952C141.02 244.106 140.739 246.127 138.497 247.426L104.726 267.054C102.484 268.352 99.2615 268.497 97.2997 267.342Z" fill="url(#paint33_linear_3935_17968)"/>
<path d="M140.599 235.018V217.987L113.274 217.41L102.484 210.916C100.523 209.761 97.2996 209.905 95.0576 211.204L85.2486 216.833L59.325 216.256V233.286C59.325 234.007 59.7453 234.729 60.5861 235.162L97.4397 257.388C99.4015 258.542 102.624 258.398 104.867 257.099L138.637 237.471C140.039 236.894 140.739 235.883 140.599 235.018Z" fill="url(#paint34_linear_3935_17968)"/>
<path d="M97.4399 240.358L60.7263 217.988C58.7646 216.833 59.0448 214.813 61.2868 213.514L95.0577 193.886C97.2998 192.587 100.663 192.443 102.484 193.597L139.198 215.967C141.16 217.122 140.88 219.142 138.638 220.441L105.007 240.069C102.765 241.368 99.4017 241.512 97.4399 240.358Z" fill="url(#paint35_linear_3935_17968)"/>
<path d="M98.7013 230.831L76.1407 217.121C75.0196 216.399 75.1598 215.245 76.561 214.379L97.3 202.4C98.7013 201.678 100.663 201.534 101.924 202.256L124.485 215.966C125.606 216.688 125.466 217.842 124.064 218.708L103.326 230.687C101.924 231.409 99.8223 231.553 98.7013 230.831Z" fill="url(#paint36_linear_3935_17968)"/>
<path d="M76.1405 217.121L79.9239 219.43L97.1597 209.327C98.561 208.606 100.523 208.461 101.784 209.183L120.561 220.584L123.924 218.564C125.326 217.842 125.466 216.543 124.345 215.822L101.784 202.111C100.663 201.39 98.561 201.534 97.1597 202.255L76.4207 214.234C75.1596 215.245 75.0195 216.399 76.1405 217.121Z" fill="url(#paint37_linear_3935_17968)"/>
<path opacity="0.5" d="M97.4396 216.543L60.7261 194.173C58.7643 193.019 59.0446 190.998 61.2866 189.699L95.0575 170.072C97.2995 168.773 100.663 168.628 102.484 169.783L139.198 192.153C141.16 193.307 140.879 195.328 138.637 196.627L104.866 216.255C102.764 217.554 99.4014 217.698 97.4396 216.543Z" fill="#EAB6FF"/>
<path opacity="0.4" d="M138.777 196.627L105.006 216.254C102.764 217.553 99.4011 217.698 97.5795 216.543L60.8659 194.173C60.0252 193.74 59.6047 193.018 59.6047 192.297V216.254C59.6047 216.976 60.0252 217.698 60.8659 218.131L97.5795 240.501C99.5413 241.655 102.764 241.511 105.006 240.212L138.777 220.584C140.038 219.862 140.739 218.852 140.599 217.986V194.029C140.599 195.039 140.038 195.905 138.777 196.627Z" fill="url(#paint38_linear_3935_17968)"/>
<path opacity="0.4" d="M138.777 196.627L105.006 216.254C102.764 217.553 99.4011 217.698 97.5795 216.543L60.8659 194.173C60.0252 193.74 59.6047 193.018 59.6047 192.297V216.254C59.6047 216.976 60.0252 217.698 60.8659 218.131L97.5795 240.501C99.5413 241.655 102.764 241.511 105.006 240.212L138.777 220.584C140.038 219.862 140.739 218.852 140.599 217.986V194.029C140.599 195.039 140.038 195.905 138.777 196.627Z" fill="url(#paint39_linear_3935_17968)"/>
<g opacity="0.5" filter="url(#filter5_f_3935_17968)">
<path d="M73.8363 613.759L26.3613 584.555C19.8726 580.53 20.7378 573.517 28.1997 569.033L68.3209 544.428C75.891 539.829 87.246 539.369 93.7347 543.393L141.21 572.712C147.698 576.736 147.806 574.437 140.236 579.036L99.1418 612.839C91.7881 617.323 80.433 617.783 73.8363 613.759Z" fill="#74A3FF"/>
</g>
<g filter="url(#filter6_f_3935_17968)">
<path d="M77.5002 602.46L45.8994 582.704C41.5804 579.982 42.1563 575.238 47.1232 572.204L73.8291 555.56C78.8679 552.449 86.4262 552.138 90.7452 554.86L122.346 574.693C126.665 577.415 126.737 575.86 121.698 578.971L94.3444 601.838C89.4495 604.871 81.8912 605.182 77.5002 602.46Z" fill="#0F71A8" fill-opacity="0.42"/>
</g>
<path d="M138.124 567.75L137.936 514.632L28.9539 512.5L29.1421 564.842C28.7656 566.005 29.3303 567.362 30.6479 568.137L79.9628 598.186C82.5979 599.736 86.9271 599.543 89.9387 597.798L135.301 571.433C137.371 570.27 138.124 568.913 138.124 567.75Z" fill="url(#paint40_linear_3935_17968)"/>
<path d="M79.9632 544.294L30.6483 514.245C28.0132 512.695 28.3896 509.98 31.4012 508.236L76.7634 481.871C79.775 480.126 84.2924 479.932 86.7393 481.483L136.054 511.531C138.689 513.082 138.313 515.796 135.301 517.541L89.9391 543.906C86.9275 545.651 82.4101 545.844 79.9632 544.294Z" fill="url(#paint41_linear_3935_17968)"/>
<path d="M138.124 500.676V477.801L101.42 477.025L86.9271 468.302C84.2919 466.751 79.9628 466.945 76.9512 468.689L63.7754 476.25L28.9539 475.474V498.35C28.9539 499.319 29.5185 500.288 30.6479 500.87L79.9628 530.918C82.5979 532.469 86.9271 532.275 89.9387 530.53L135.301 504.165C137.371 503.196 138.124 502.033 138.124 500.676Z" fill="url(#paint42_linear_3935_17968)"/>
<path d="M80.1514 507.847L30.6483 477.798C28.0132 476.247 28.3896 473.533 31.4012 471.789L76.7634 445.424C79.775 443.679 84.2924 443.485 86.7393 445.036L136.054 475.084C138.689 476.635 138.313 479.349 135.301 481.094L89.9391 507.459C87.1158 509.204 82.7866 509.398 80.1514 507.847Z" fill="url(#paint43_linear_3935_17968)"/>
<path d="M81.6576 495.244L51.3534 476.827C49.8476 475.858 50.0358 474.307 51.918 473.144L79.7753 457.054C81.6576 456.084 84.2927 455.891 85.9867 456.86L116.291 475.276C117.797 476.246 117.608 477.797 115.726 478.96L87.869 495.05C85.9867 496.019 83.3516 496.213 81.6576 495.244Z" fill="url(#paint44_linear_3935_17968)"/>
<path d="M51.3526 476.83L56.4346 479.932L79.5863 466.361C81.4685 465.392 84.1037 465.198 85.7977 466.168L111.02 481.482L115.537 478.768C117.42 477.799 117.608 476.054 116.102 475.085L85.7977 456.669C84.2919 455.699 81.4685 455.893 79.5863 456.862L51.729 472.953C50.035 474.116 49.8468 475.861 51.3526 476.83Z" fill="url(#paint45_linear_3935_17968)"/>
<path opacity="0.5" d="M80.1514 475.862L30.6483 445.814C28.0132 444.263 28.3896 441.549 31.4012 439.804L76.7634 413.439C79.775 411.695 84.2924 411.501 86.7393 413.052L136.054 443.1C138.689 444.651 138.313 447.365 135.301 449.109L90.1274 475.668C87.1158 477.413 82.5984 477.413 80.1514 475.862Z" fill="#00FFFF"/>
<path opacity="0.4" d="M135.49 449.305L90.1274 475.669C87.1158 477.414 82.5984 477.608 80.1515 476.057L30.6484 445.815C29.519 445.234 28.9543 444.264 28.9543 443.295V475.475C28.9543 476.445 29.519 477.414 30.6484 477.996L79.9632 508.044C82.5984 509.594 86.9276 509.401 89.9392 507.656L135.301 481.291C136.995 480.322 137.936 478.965 137.748 477.802V445.621C138.125 447.172 137.184 448.335 135.49 449.305Z" fill="url(#paint46_linear_3935_17968)"/>
<path opacity="0.6" d="M135.49 449.305L90.1274 475.669C87.1158 477.414 82.5984 477.608 80.1515 476.057L30.6484 445.815C29.519 445.234 28.9543 444.264 28.9543 443.295V475.475C28.9543 476.445 29.519 477.414 30.6484 477.996L79.9632 508.044C82.5984 509.594 86.9276 509.401 89.9392 507.656L135.301 481.291C136.995 480.322 137.936 478.965 137.748 477.802V445.621C138.125 447.172 137.184 448.335 135.49 449.305Z" fill="url(#paint47_linear_3935_17968)"/>
<defs>
<filter id="filter0_f_3935_17968" x="115.522" y="252.764" width="393.016" height="256.467" filterUnits="userSpaceOnUse" color-interpolation-filters="sRGB">
<feFlood flood-opacity="0" result="BackgroundImageFix"/>
<feBlend mode="normal" in="SourceGraphic" in2="BackgroundImageFix" result="shape"/>
<feGaussianBlur stdDeviation="15" result="effect1_foregroundBlur_3935_17968"/>
</filter>
<filter id="filter1_f_3935_17968" x="448.588" y="401.367" width="188.545" height="126.924" filterUnits="userSpaceOnUse" color-interpolation-filters="sRGB">
<feFlood flood-opacity="0" result="BackgroundImageFix"/>
<feBlend mode="normal" in="SourceGraphic" in2="BackgroundImageFix" result="shape"/>
<feGaussianBlur stdDeviation="9.14465" result="effect1_foregroundBlur_3935_17968"/>
</filter>
<filter id="filter2_f_3935_17968" x="481.143" y="421.491" width="123.311" height="84.2197" filterUnits="userSpaceOnUse" color-interpolation-filters="sRGB">
<feFlood flood-opacity="0" result="BackgroundImageFix"/>
<feBlend mode="normal" in="SourceGraphic" in2="BackgroundImageFix" result="shape"/>
<feGaussianBlur stdDeviation="6.09643" result="effect1_foregroundBlur_3935_17968"/>
</filter>
<filter id="filter3_f_3935_17968" x="40.8759" y="252.576" width="118.839" height="79.7785" filterUnits="userSpaceOnUse" color-interpolation-filters="sRGB">
<feFlood flood-opacity="0" result="BackgroundImageFix"/>
<feBlend mode="normal" in="SourceGraphic" in2="BackgroundImageFix" result="shape"/>
<feGaussianBlur stdDeviation="6.85758" result="effect1_foregroundBlur_3935_17968"/>
</filter>
<filter id="filter4_f_3935_17968" x="55.9241" y="262.538" width="88.7432" height="59.8515" filterUnits="userSpaceOnUse" color-interpolation-filters="sRGB">
<feFlood flood-opacity="0" result="BackgroundImageFix"/>
<feBlend mode="normal" in="SourceGraphic" in2="BackgroundImageFix" result="shape"/>
<feGaussianBlur stdDeviation="5.48606" result="effect1_foregroundBlur_3935_17968"/>
</filter>
<filter id="filter5_f_3935_17968" x="1.41556" y="520.068" width="165.169" height="117.027" filterUnits="userSpaceOnUse" color-interpolation-filters="sRGB">
<feFlood flood-opacity="0" result="BackgroundImageFix"/>
<feBlend mode="normal" in="SourceGraphic" in2="BackgroundImageFix" result="shape"/>
<feGaussianBlur stdDeviation="10.2922" result="effect1_foregroundBlur_3935_17968"/>
</filter>
<filter id="filter6_f_3935_17968" x="22.412" y="532.421" width="123.707" height="92.4843" filterUnits="userSpaceOnUse" color-interpolation-filters="sRGB">
<feFlood flood-opacity="0" result="BackgroundImageFix"/>
<feBlend mode="normal" in="SourceGraphic" in2="BackgroundImageFix" result="shape"/>
<feGaussianBlur stdDeviation="10.2922" result="effect1_foregroundBlur_3935_17968"/>
</filter>
<linearGradient id="paint0_linear_3935_17968" x1="358.609" y1="456.046" x2="331.245" y2="309.605" gradientUnits="userSpaceOnUse">
<stop stop-color="#2918DD"/>
<stop offset="1" stop-color="#13CEE2"/>
</linearGradient>
<linearGradient id="paint1_linear_3935_17968" x1="312.03" y1="282.764" x2="312.03" y2="479.231" gradientUnits="userSpaceOnUse">
<stop stop-color="#00E0FF"/>
<stop offset="1" stop-color="white" stop-opacity="0"/>
</linearGradient>
<linearGradient id="paint2_linear_3935_17968" x1="361.256" y1="440.31" x2="332.337" y2="285.548" gradientUnits="userSpaceOnUse">
<stop stop-color="#2918DD"/>
<stop offset="1" stop-color="#13CEE2"/>
</linearGradient>
<linearGradient id="paint3_linear_3935_17968" x1="312.031" y1="257.182" x2="312.031" y2="464.812" gradientUnits="userSpaceOnUse">
<stop stop-color="#00E0FF"/>
<stop offset="1" stop-color="white" stop-opacity="0"/>
</linearGradient>
<linearGradient id="paint4_linear_3935_17968" x1="567.192" y1="504.304" x2="247.781" y2="-27.3944" gradientUnits="userSpaceOnUse">
<stop stop-color="#3124FF"/>
<stop offset="1" stop-color="#00FFE2"/>
</linearGradient>
<linearGradient id="paint5_linear_3935_17968" x1="482.357" y1="114.33" x2="243.397" y2="-2.62222" gradientUnits="userSpaceOnUse">
<stop stop-color="#3124FF"/>
<stop offset="1" stop-color="#00FFE2"/>
</linearGradient>
<linearGradient id="paint6_linear_3935_17968" x1="456.36" y1="342.677" x2="101.21" y2="-152.106" gradientUnits="userSpaceOnUse">
<stop stop-color="#3124FF"/>
<stop offset="1" stop-color="#00FFE2"/>
</linearGradient>
<linearGradient id="paint7_linear_3935_17968" x1="567.192" y1="504.304" x2="247.781" y2="-27.3944" gradientUnits="userSpaceOnUse">
<stop stop-color="#3124FF"/>
<stop offset="1" stop-color="#00FFE2"/>
</linearGradient>
<linearGradient id="paint8_linear_3935_17968" x1="482.357" y1="114.33" x2="243.397" y2="-2.62222" gradientUnits="userSpaceOnUse">
<stop stop-color="#3124FF"/>
<stop offset="1" stop-color="#00FFE2"/>
</linearGradient>
<linearGradient id="paint9_linear_3935_17968" x1="456.36" y1="342.677" x2="101.21" y2="-152.106" gradientUnits="userSpaceOnUse">
<stop stop-color="#3124FF"/>
<stop offset="1" stop-color="#00FFE2"/>
</linearGradient>
<linearGradient id="paint10_linear_3935_17968" x1="524.149" y1="528.622" x2="204.738" y2="-3.07638" gradientUnits="userSpaceOnUse">
<stop stop-color="#3124FF"/>
<stop offset="1" stop-color="#00FFE2"/>
</linearGradient>
<linearGradient id="paint11_linear_3935_17968" x1="439.314" y1="138.63" x2="200.354" y2="21.6786" gradientUnits="userSpaceOnUse">
<stop stop-color="#3124FF"/>
<stop offset="1" stop-color="#00FFE2"/>
</linearGradient>
<linearGradient id="paint12_linear_3935_17968" x1="413.317" y1="366.98" x2="58.1835" y2="-127.803" gradientUnits="userSpaceOnUse">
<stop stop-color="#3124FF"/>
<stop offset="1" stop-color="#00FFE2"/>
</linearGradient>
<linearGradient id="paint13_linear_3935_17968" x1="524.149" y1="528.622" x2="204.738" y2="-3.07638" gradientUnits="userSpaceOnUse">
<stop stop-color="#3124FF"/>
<stop offset="1" stop-color="#00FFE2"/>
</linearGradient>
<linearGradient id="paint14_linear_3935_17968" x1="439.314" y1="138.63" x2="200.354" y2="21.6786" gradientUnits="userSpaceOnUse">
<stop stop-color="#3124FF"/>
<stop offset="1" stop-color="#00FFE2"/>
</linearGradient>
<linearGradient id="paint15_linear_3935_17968" x1="413.317" y1="366.98" x2="58.1835" y2="-127.803" gradientUnits="userSpaceOnUse">
<stop stop-color="#3124FF"/>
<stop offset="1" stop-color="#00FFE2"/>
</linearGradient>
<linearGradient id="paint16_linear_3935_17968" x1="554.071" y1="379.286" x2="536.395" y2="379.286" gradientUnits="userSpaceOnUse">
<stop stop-color="#3D00E7"/>
<stop offset="1" stop-color="#6031FF"/>
</linearGradient>
<linearGradient id="paint17_linear_3935_17968" x1="765.37" y1="436.901" x2="387.194" y2="170.176" gradientUnits="userSpaceOnUse">
<stop stop-color="#6318FF"/>
<stop offset="1" stop-color="#FFF6E2"/>
</linearGradient>
<linearGradient id="paint18_linear_3935_17968" x1="698.055" y1="385.645" x2="410.829" y2="183.066" gradientUnits="userSpaceOnUse">
<stop stop-color="#4500FF"/>
<stop offset="1" stop-color="#6A31FF"/>
</linearGradient>
<linearGradient id="paint19_linear_3935_17968" x1="526.886" y1="440.067" x2="449.684" y2="386.362" gradientUnits="userSpaceOnUse">
<stop stop-color="#A43DFF"/>
<stop offset="1" stop-color="#EAD6E2"/>
</linearGradient>
<linearGradient id="paint20_linear_3935_17968" x1="638.411" y1="624.202" x2="410.661" y2="592.919" gradientUnits="userSpaceOnUse">
<stop stop-color="#BF9FFF"/>
<stop offset="1" stop-color="#FFF6E2"/>
</linearGradient>
<linearGradient id="paint21_linear_3935_17968" x1="526.726" y1="420.05" x2="449.523" y2="366.344" gradientUnits="userSpaceOnUse">
<stop stop-color="#A43DFF"/>
<stop offset="1" stop-color="#EAD6E2"/>
</linearGradient>
<linearGradient id="paint22_linear_3935_17968" x1="639.925" y1="606.456" x2="412.175" y2="575.173" gradientUnits="userSpaceOnUse">
<stop stop-color="#BF9FFF"/>
<stop offset="1" stop-color="#FFF6E2"/>
</linearGradient>
<linearGradient id="paint23_linear_3935_17968" x1="526.853" y1="400.022" x2="449.651" y2="346.316" gradientUnits="userSpaceOnUse">
<stop stop-color="#A43DFF"/>
<stop offset="1" stop-color="#EAD6E2"/>
</linearGradient>
<linearGradient id="paint24_linear_3935_17968" x1="638.378" y1="584.158" x2="410.628" y2="552.875" gradientUnits="userSpaceOnUse">
<stop stop-color="#BF9FFF"/>
<stop offset="1" stop-color="#FFF6E2"/>
</linearGradient>
<linearGradient id="paint25_linear_3935_17968" x1="526.79" y1="379.952" x2="449.588" y2="326.246" gradientUnits="userSpaceOnUse">
<stop stop-color="#A43DFF"/>
<stop offset="1" stop-color="#EAD6E2"/>
</linearGradient>
<linearGradient id="paint26_linear_3935_17968" x1="639.989" y1="566.357" x2="412.239" y2="535.073" gradientUnits="userSpaceOnUse">
<stop stop-color="#BF9FFF"/>
<stop offset="1" stop-color="#FFF6E2"/>
</linearGradient>
<linearGradient id="paint27_linear_3935_17968" x1="526.918" y1="359.929" x2="449.715" y2="306.223" gradientUnits="userSpaceOnUse">
<stop stop-color="#A43DFF"/>
<stop offset="1" stop-color="#EAD6E2"/>
</linearGradient>
<linearGradient id="paint28_linear_3935_17968" x1="638.443" y1="544.065" x2="410.693" y2="512.781" gradientUnits="userSpaceOnUse">
<stop stop-color="#BF9FFF"/>
<stop offset="1" stop-color="#FFF6E2"/>
</linearGradient>
<linearGradient id="paint29_linear_3935_17968" x1="526.918" y1="339.91" x2="449.715" y2="286.204" gradientUnits="userSpaceOnUse">
<stop stop-color="#A43DFF"/>
<stop offset="1" stop-color="#EAD6E2"/>
</linearGradient>
<linearGradient id="paint30_linear_3935_17968" x1="642.1" y1="529.005" x2="414.351" y2="497.722" gradientUnits="userSpaceOnUse">
<stop stop-color="#BF9FFF"/>
<stop offset="1" stop-color="#FFF6E2"/>
</linearGradient>
<linearGradient id="paint31_linear_3935_17968" x1="546.112" y1="261.105" x2="535.982" y2="261.105" gradientUnits="userSpaceOnUse">
<stop stop-color="#3600F4"/>
<stop offset="1" stop-color="#330EE0"/>
</linearGradient>
<linearGradient id="paint32_linear_3935_17968" x1="107.539" y1="275.91" x2="94.4815" y2="275.91" gradientUnits="userSpaceOnUse">
<stop stop-color="#3D00E7"/>
<stop offset="1" stop-color="#6031FF"/>
</linearGradient>
<linearGradient id="paint33_linear_3935_17968" x1="189.037" y1="305.811" x2="28.7619" y2="201.11" gradientUnits="userSpaceOnUse">
<stop stop-color="#6318FF"/>
<stop offset="1" stop-color="#FFF6E2"/>
</linearGradient>
<linearGradient id="paint34_linear_3935_17968" x1="107.539" y1="234.087" x2="94.4819" y2="234.087" gradientUnits="userSpaceOnUse">
<stop stop-color="#3D00E7"/>
<stop offset="1" stop-color="#6031FF"/>
</linearGradient>
<linearGradient id="paint35_linear_3935_17968" x1="200.075" y1="291.789" x2="33.0374" y2="173.978" gradientUnits="userSpaceOnUse">
<stop stop-color="#6318FF"/>
<stop offset="1" stop-color="#FFF6E2"/>
</linearGradient>
<linearGradient id="paint36_linear_3935_17968" x1="75.3496" y1="216.529" x2="125.09" y2="216.529" gradientUnits="userSpaceOnUse">
<stop stop-color="#4500FF"/>
<stop offset="1" stop-color="#6A31FF"/>
</linearGradient>
<linearGradient id="paint37_linear_3935_17968" x1="101.978" y1="211.231" x2="94.4708" y2="211.231" gradientUnits="userSpaceOnUse">
<stop stop-color="#3600F4"/>
<stop offset="1" stop-color="#330EE0"/>
</linearGradient>
<linearGradient id="paint38_linear_3935_17968" x1="106.335" y1="216.804" x2="94.5709" y2="216.804" gradientUnits="userSpaceOnUse">
<stop stop-color="#8161E2"/>
<stop offset="1" stop-color="#CACCFF"/>
</linearGradient>
<linearGradient id="paint39_linear_3935_17968" x1="106.335" y1="216.804" x2="94.5709" y2="216.804" gradientUnits="userSpaceOnUse">
<stop stop-color="#8161E2"/>
<stop offset="1" stop-color="#9554FF"/>
</linearGradient>
<linearGradient id="paint40_linear_3935_17968" x1="93.636" y1="555.731" x2="76.0967" y2="555.731" gradientUnits="userSpaceOnUse">
<stop stop-color="#0085FF"/>
<stop offset="1" stop-color="#1BADFF"/>
</linearGradient>
<linearGradient id="paint41_linear_3935_17968" x1="203.107" y1="595.896" x2="-12.1802" y2="455.258" gradientUnits="userSpaceOnUse">
<stop stop-color="#24B0FF"/>
<stop offset="1" stop-color="#B0ECFF"/>
</linearGradient>
<linearGradient id="paint42_linear_3935_17968" x1="93.636" y1="499.55" x2="76.0968" y2="499.55" gradientUnits="userSpaceOnUse">
<stop stop-color="#0185FF"/>
<stop offset="1" stop-color="#1BADFF"/>
</linearGradient>
<linearGradient id="paint43_linear_3935_17968" x1="217.934" y1="577.055" x2="-6.43806" y2="418.808" gradientUnits="userSpaceOnUse">
<stop stop-color="#5FCAFF"/>
<stop offset="1" stop-color="#8ADCFF"/>
</linearGradient>
<linearGradient id="paint44_linear_3935_17968" x1="50.3981" y1="475.962" x2="117.211" y2="475.962" gradientUnits="userSpaceOnUse">
<stop stop-color="#00C2FF"/>
<stop offset="1" stop-color="#31A8FF"/>
</linearGradient>
<linearGradient id="paint45_linear_3935_17968" x1="86.1655" y1="468.848" x2="76.0817" y2="468.848" gradientUnits="userSpaceOnUse">
<stop stop-color="#00A1FF"/>
<stop offset="1" stop-color="#002FFF"/>
</linearGradient>
<linearGradient id="paint46_linear_3935_17968" x1="92.0196" y1="476.337" x2="76.2176" y2="476.337" gradientUnits="userSpaceOnUse">
<stop stop-color="#5EC9FF"/>
<stop offset="1" stop-color="#8ADCFF"/>
</linearGradient>
<linearGradient id="paint47_linear_3935_17968" x1="92.0196" y1="476.337" x2="76.2176" y2="476.337" gradientUnits="userSpaceOnUse">
<stop stop-color="#1FE7F3"/>
<stop offset="1" stop-color="#37F0F1"/>
</linearGradient>
</defs>
</svg>
