<svg width="640" height="800" viewBox="0 0 640 800" fill="none" xmlns="http://www.w3.org/2000/svg">
<g clip-path="url(#clip0_71551_18082)">
<rect width="756" height="859" transform="matrix(1 0 0 -1 0 859)" fill="url(#paint0_linear_71551_18082)"/>
<rect width="756" height="859" transform="matrix(1 0 0 -1 0 859)" fill="#03201C"/>
<g filter="url(#filter0_f_71551_18082)">
<ellipse cx="562.409" cy="532.803" rx="562.409" ry="532.803" transform="matrix(-1 7.66639e-08 9.96915e-08 1 1278.53 -613.088)" fill="url(#paint1_radial_71551_18082)"/>
</g>
<g filter="url(#filter1_f_71551_18082)">
<ellipse cx="233.256" cy="221.107" rx="233.256" ry="221.107" transform="matrix(-1 7.66639e-08 9.96915e-08 1 949.371 -301.392)" fill="url(#paint2_radial_71551_18082)"/>
</g>
</g>
<g opacity="0.1" clip-path="url(#clip1_71551_18082)">
<g filter="url(#filter2_f_71551_18082)">
<path fill-rule="evenodd" clip-rule="evenodd" d="M110.509 140.309C110.509 147.757 106.759 154.329 101.045 158.24L192.187 243.576C196.035 240.11 201.129 238 206.716 238C214.667 238 221.621 242.274 225.404 248.65L344.163 187.299C343.003 184.641 342.36 181.706 342.36 178.621C342.36 166.628 352.082 156.906 364.075 156.906C376.068 156.906 385.79 166.628 385.79 178.621C385.79 190.614 376.068 200.336 364.075 200.336C356.271 200.336 349.429 196.22 345.601 190.04L226.79 251.419C227.847 253.975 228.431 256.777 228.431 259.715C228.431 268.527 223.182 276.113 215.641 279.517L237.88 347.5L276.528 323.732C275.542 321.251 275.001 318.546 275.001 315.715C275.001 303.722 284.723 294 296.716 294C308.708 294 318.431 303.722 318.431 315.715C318.431 317.362 318.247 318.966 317.9 320.508L414.354 353.689L524.766 161.358C520.019 157.375 517.001 151.397 517.001 144.715C517.001 132.722 526.723 123 538.716 123C550.708 123 560.431 132.722 560.431 144.715C560.431 156.708 550.708 166.43 538.716 166.43C534.493 166.43 530.552 165.225 527.218 163.14L417.255 354.687L439.636 362.385C445.595 341.844 464.552 326.828 487.015 326.828C514.258 326.828 536.343 348.913 536.343 376.155C536.343 393.573 527.315 408.883 513.683 417.66L581.13 539.358C584.087 537.85 587.435 537 590.981 537C602.974 537 612.696 546.722 612.696 558.715C612.696 570.708 602.974 580.43 590.981 580.43C582.761 580.43 575.608 575.863 571.921 569.128L386.874 621.889C387.81 625.611 388.307 629.508 388.307 633.521C388.307 659.766 367.032 681.041 340.787 681.041C314.542 681.041 293.266 659.766 293.266 633.521C293.266 616.166 302.569 600.984 316.461 592.69L258.337 415.012L197.318 410.094C195.404 436.087 173.709 456.58 147.228 456.58C146.515 456.58 145.805 456.565 145.099 456.535L146.525 542.074C157.671 542.994 166.431 552.332 166.431 563.715C166.431 575.708 156.708 585.43 144.716 585.43C132.723 585.43 123.001 575.708 123.001 563.715C123.001 552.154 132.035 542.704 143.428 542.038L141.999 456.311C116.717 453.696 97.0005 432.326 97.0005 406.352C97.0005 406.321 97.0006 406.289 97.0006 406.257C97.0006 406.225 97.0005 406.194 97.0005 406.162C97.0005 388.603 106.022 373.152 119.682 364.19L83.8394 281.512C81.8095 282.359 79.6155 282.909 77.3063 283.105C65.3563 284.118 54.8477 275.252 53.8347 263.302C52.8217 251.351 61.688 240.843 73.638 239.83C85.588 238.817 96.0966 247.683 97.1096 259.633C97.8341 268.18 93.5049 275.99 86.6082 280.115L122.349 362.557C129.666 358.384 138.136 356 147.162 356C163.296 356 177.651 363.617 186.827 375.45C187.431 376.224 188.014 377.016 188.573 377.825L236.525 348.334L214.204 280.104C211.87 280.962 209.347 281.43 206.716 281.43C194.723 281.43 185.001 271.708 185.001 259.715C185.001 254.423 186.894 249.573 190.04 245.806L98.2484 159.863C95.3902 161.248 92.1826 162.024 88.7937 162.024C76.8008 162.024 67.0787 152.302 67.0787 140.309C67.0787 128.316 76.8008 118.594 88.7937 118.594C100.787 118.594 110.509 128.316 110.509 140.309ZM257.294 411.822L197.451 406.999C197.454 406.784 197.455 406.568 197.455 406.352C197.455 396.866 194.825 387.994 190.255 380.425L237.514 351.36L257.294 411.822ZM570.62 566.279C569.745 563.924 569.266 561.375 569.266 558.715C569.266 551.377 572.906 544.89 578.478 540.959L511.027 419.254C503.921 423.222 495.732 425.483 487.015 425.483C459.773 425.483 437.688 403.398 437.688 376.155C437.688 372.459 438.095 368.858 438.865 365.394L415.686 357.421L389.173 403.605C395.99 407.286 400.621 414.496 400.621 422.787C400.621 434.819 390.867 444.573 378.834 444.573C375.427 444.573 372.202 443.791 369.329 442.396C362.08 438.916 357.061 431.529 357.001 422.965L260.01 415.147L317.832 591.902C324.637 588.141 332.462 586 340.787 586C361.935 586 379.857 599.815 386.02 618.913L570.62 566.279ZM412.785 356.423L386.416 402.356C384.055 401.479 381.5 401 378.834 401C372.531 401 366.854 403.676 362.876 407.955C359.863 411.166 357.816 415.294 357.197 419.874L258.966 411.957L238.87 350.526L277.883 326.533C281.632 333.045 288.662 337.43 296.716 337.43C305.975 337.43 313.88 331.635 317.003 323.474L412.785 356.423ZM654.431 325.715C654.431 337.708 644.708 347.43 632.716 347.43C620.723 347.43 611.001 337.708 611.001 325.715C611.001 313.722 620.723 304 632.716 304C644.708 304 654.431 313.722 654.431 325.715Z" fill="url(#paint3_linear_71551_18082)" fill-opacity="0.69"/>
</g>
<mask id="mask0_71551_18082" style="mask-type:alpha" maskUnits="userSpaceOnUse" x="-75" y="96" width="777" height="630">
<path d="M-75 114.076C-75 104.093 -66.9071 96 -56.9241 96H683.924C693.907 96 702 104.093 702 114.076V707.924C702 717.907 693.907 726 683.924 726H-56.9241C-66.9071 726 -75 717.907 -75 707.924V114.076Z" fill="white"/>
</mask>
<g mask="url(#mask0_71551_18082)">
<g opacity="0.5">
<circle cx="303.715" cy="315.715" r="21.715" fill="url(#paint4_radial_71551_18082)"/>
<circle cx="303.715" cy="315.715" r="20.9411" fill="url(#paint5_radial_71551_18082)" stroke="url(#paint6_linear_71551_18082)" stroke-width="1.54794"/>
</g>
<g opacity="0.5">
<circle cx="82.4716" cy="261.467" r="21.715" transform="rotate(-4.84525 82.4716 261.467)" fill="url(#paint7_radial_71551_18082)"/>
<circle cx="82.4716" cy="261.467" r="20.9411" transform="rotate(-4.84525 82.4716 261.467)" fill="url(#paint8_radial_71551_18082)" stroke="url(#paint9_linear_71551_18082)" stroke-width="1.54794"/>
</g>
<path d="M518.266 416.492L587.266 540.992" stroke="url(#paint10_linear_71551_18082)" stroke-width="3.09589"/>
<path d="M580.766 566.992L338.766 635.992" stroke="url(#paint11_linear_71551_18082)" stroke-width="3.09589"/>
<path d="M323.504 320.028C322.695 319.75 321.814 320.18 321.536 320.989C321.258 321.797 321.688 322.678 322.496 322.956L323.504 320.028ZM448.504 363.028L323.504 320.028L322.496 322.956L447.496 365.956L448.504 363.028Z" fill="url(#paint12_linear_71551_18082)"/>
<path d="M394.5 403.492L534 160.492" stroke="url(#paint13_linear_71551_18082)" stroke-width="3.01266"/>
<path d="M223.5 254.992L359 184.992" stroke="url(#paint14_linear_71551_18082)" stroke-width="3.09589"/>
<path d="M199.501 245.99L102.302 154.985" stroke="url(#paint15_linear_71551_18082)" stroke-width="3.09589"/>
<path d="M326.5 599.492L221 276.992" stroke="url(#paint16_linear_71551_18082)" stroke-width="1.54794"/>
<path d="M364.998 421.492L197.5 407.992M188.5 383.992L288.498 322.492" stroke="url(#paint17_linear_71551_18082)" stroke-width="3.09589" stroke-linecap="round"/>
<path d="M91 277.992L128.5 364.492" stroke="url(#paint18_linear_71551_18082)" stroke-width="3.09589" stroke-linecap="round"/>
<path d="M150.5 453.492L152 543.492" stroke="url(#paint19_linear_71551_18082)" stroke-width="3.09589"/>
<circle cx="494.009" cy="376.149" r="49.2508" fill="url(#paint20_radial_71551_18082)"/>
<circle cx="494.009" cy="376.149" r="48.4768" fill="url(#paint21_radial_71551_18082)" stroke="url(#paint22_linear_71551_18082)" stroke-width="1.54794"/>
<circle cx="494.009" cy="376.149" r="48.4768" fill="url(#paint23_radial_71551_18082)" stroke="url(#paint24_linear_71551_18082)" stroke-width="1.54794"/>
<circle cx="494.009" cy="376.149" r="48.4768" fill="url(#paint25_radial_71551_18082)" stroke="url(#paint26_linear_71551_18082)" stroke-width="1.54794"/>
<circle opacity="0.7" cx="494.009" cy="376.149" r="48.4768" fill="url(#paint27_radial_71551_18082)" stroke="url(#paint28_linear_71551_18082)" stroke-width="1.54794"/>
<circle opacity="0.4" cx="494.015" cy="376.148" r="48.5533" fill="url(#paint29_radial_71551_18082)" stroke="url(#paint30_linear_71551_18082)" stroke-width="1.54794"/>
<circle cx="371.074" cy="178.621" r="21.715" fill="url(#paint31_radial_71551_18082)"/>
<circle cx="371.074" cy="178.621" r="20.9411" fill="url(#paint32_radial_71551_18082)"/>
<circle cx="371.074" cy="178.621" r="20.9411" fill="black" fill-opacity="0.2"/>
<circle cx="371.074" cy="178.621" r="20.9411" stroke="url(#paint33_linear_71551_18082)" stroke-width="1.54794"/>
<circle cx="95.7932" cy="140.309" r="21.715" fill="url(#paint34_radial_71551_18082)"/>
<circle cx="95.7932" cy="140.309" r="20.9411" fill="url(#paint35_radial_71551_18082)" stroke="url(#paint36_linear_71551_18082)" stroke-width="1.54794"/>
<circle cx="213.715" cy="259.715" r="21.715" fill="url(#paint37_radial_71551_18082)"/>
<circle cx="213.715" cy="259.715" r="20.9411" fill="url(#paint38_radial_71551_18082)" stroke="url(#paint39_linear_71551_18082)" stroke-width="1.54794"/>
<circle opacity="0.8" cx="213.715" cy="259.715" r="20.9411" fill="url(#paint40_radial_71551_18082)" stroke="url(#paint41_linear_71551_18082)" stroke-width="1.54794"/>
<circle cx="151.715" cy="563.715" r="21.715" fill="url(#paint42_radial_71551_18082)"/>
<circle cx="151.715" cy="563.715" r="20.9411" fill="url(#paint43_radial_71551_18082)" stroke="url(#paint44_linear_71551_18082)" stroke-width="1.54794"/>
<circle cx="385.715" cy="422.809" r="21.715" fill="url(#paint45_radial_71551_18082)"/>
<circle cx="385.715" cy="422.809" r="20.9411" fill="url(#paint46_radial_71551_18082)" stroke="url(#paint47_linear_71551_18082)" stroke-width="1.54794"/>
<circle opacity="0.6" cx="385.715" cy="422.809" r="20.9411" fill="url(#paint48_radial_71551_18082)" stroke="url(#paint49_linear_71551_18082)" stroke-width="1.54794"/>
<circle opacity="0.3" cx="385.833" cy="422.787" r="21.0126" fill="url(#paint50_radial_71551_18082)" stroke="url(#paint51_linear_71551_18082)" stroke-width="1.54794"/>
<circle cx="347.786" cy="633.521" r="47.5207" fill="url(#paint52_radial_71551_18082)"/>
<circle cx="347.786" cy="633.521" r="46.7467" fill="url(#paint53_radial_71551_18082)" stroke="url(#paint54_linear_71551_18082)" stroke-width="1.54794"/>
<circle cx="347.786" cy="633.521" r="46.7467" fill="url(#paint55_radial_71551_18082)" stroke="url(#paint56_linear_71551_18082)" stroke-width="1.54794"/>
<circle cx="597.981" cy="558.715" r="21.715" fill="url(#paint57_radial_71551_18082)"/>
<circle cx="597.981" cy="558.715" r="20.9411" fill="url(#paint58_radial_71551_18082)" stroke="url(#paint59_linear_71551_18082)" stroke-width="1.54794"/>
<circle cx="639.715" cy="325.715" r="21.715" fill="url(#paint60_radial_71551_18082)"/>
<circle cx="639.715" cy="325.715" r="20.9411" fill="url(#paint61_radial_71551_18082)" stroke="url(#paint62_linear_71551_18082)" stroke-width="1.54794"/>
<circle cx="545.715" cy="144.715" r="21.715" fill="url(#paint63_radial_71551_18082)"/>
<circle cx="545.715" cy="144.715" r="20.9411" fill="url(#paint64_radial_71551_18082)" stroke="url(#paint65_linear_71551_18082)" stroke-width="1.54794"/>
<circle opacity="0.4" cx="545.715" cy="144.715" r="20.9411" fill="url(#paint66_radial_71551_18082)" stroke="url(#paint67_linear_71551_18082)" stroke-width="1.54794"/>
<circle cx="154.227" cy="406.352" r="50.2273" fill="url(#paint68_radial_71551_18082)"/>
<circle cx="154.227" cy="406.352" r="49.4533" fill="url(#paint69_radial_71551_18082)" stroke="url(#paint70_linear_71551_18082)" stroke-width="1.54794"/>
<circle opacity="0.3" cx="154.162" cy="406.162" r="49.388" fill="url(#paint71_radial_71551_18082)" stroke="url(#paint72_linear_71551_18082)" stroke-width="1.54794"/>
</g>
<path d="M353.5 177L116.914 144.914M390.5 174.5L525.5 150" stroke="url(#paint73_linear_71551_18082)" stroke-width="3.09589"/>
<path d="M539.855 357.388C539.042 357.654 538.599 358.528 538.865 359.34C539.13 360.153 540.004 360.596 540.817 360.331L539.855 357.388ZM540.817 360.331L622.981 333.475L622.019 330.533L539.855 357.388L540.817 360.331Z" fill="url(#paint74_linear_71551_18082)"/>
<path d="M373.001 431.5L170 552.998" stroke="url(#paint75_linear_71551_18082)" stroke-width="3.09589" stroke-linecap="round"/>
</g>
<defs>
<filter id="filter0_f_71551_18082" x="-346.291" y="-1113.09" width="2124.82" height="2065.61" filterUnits="userSpaceOnUse" color-interpolation-filters="sRGB">
<feFlood flood-opacity="0" result="BackgroundImageFix"/>
<feBlend mode="normal" in="SourceGraphic" in2="BackgroundImageFix" result="shape"/>
<feGaussianBlur stdDeviation="250" result="effect1_foregroundBlur_71551_18082"/>
</filter>
<filter id="filter1_f_71551_18082" x="-17.1406" y="-801.392" width="1466.51" height="1442.21" filterUnits="userSpaceOnUse" color-interpolation-filters="sRGB">
<feFlood flood-opacity="0" result="BackgroundImageFix"/>
<feBlend mode="normal" in="SourceGraphic" in2="BackgroundImageFix" result="shape"/>
<feGaussianBlur stdDeviation="250" result="effect1_foregroundBlur_71551_18082"/>
</filter>
<filter id="filter2_f_71551_18082" x="-16.2441" y="48.5938" width="740.676" height="702.448" filterUnits="userSpaceOnUse" color-interpolation-filters="sRGB">
<feFlood flood-opacity="0" result="BackgroundImageFix"/>
<feBlend mode="normal" in="SourceGraphic" in2="BackgroundImageFix" result="shape"/>
<feGaussianBlur stdDeviation="35" result="effect1_foregroundBlur_71551_18082"/>
</filter>
<linearGradient id="paint0_linear_71551_18082" x1="143.044" y1="859" x2="143.044" y2="1.78655e-06" gradientUnits="userSpaceOnUse">
<stop stop-color="#0E0F10"/>
<stop offset="1" stop-color="#002621"/>
</linearGradient>
<radialGradient id="paint1_radial_71551_18082" cx="0" cy="0" r="1" gradientUnits="userSpaceOnUse" gradientTransform="translate(562.409 485.835) rotate(90) scale(751.479 793.237)">
<stop stop-color="#00D4BB"/>
<stop offset="1" stop-color="#006054" stop-opacity="0"/>
</radialGradient>
<radialGradient id="paint2_radial_71551_18082" cx="0" cy="0" r="1" gradientUnits="userSpaceOnUse" gradientTransform="translate(233.256 201.616) rotate(90) scale(311.855 328.99)">
<stop stop-color="#00D4BB"/>
<stop offset="1" stop-color="#00FF66" stop-opacity="0"/>
</radialGradient>
<linearGradient id="paint3_linear_71551_18082" x1="354.093" y1="118.594" x2="354.093" y2="681.041" gradientUnits="userSpaceOnUse">
<stop stop-color="#002722" stop-opacity="0.7"/>
<stop offset="0.882732" stop-color="#002722" stop-opacity="0.7"/>
<stop offset="1" stop-color="#005F52" stop-opacity="0.95"/>
</linearGradient>
<radialGradient id="paint4_radial_71551_18082" cx="0" cy="0" r="1" gradientUnits="userSpaceOnUse" gradientTransform="translate(311.602 321.441) rotate(-141.528) scale(51.325 45.3421)">
<stop offset="0.0150737" stop-color="#B0EC98" stop-opacity="0.56"/>
<stop offset="1" stop-color="#0092FF" stop-opacity="0.12"/>
</radialGradient>
<radialGradient id="paint5_radial_71551_18082" cx="0" cy="0" r="1" gradientUnits="userSpaceOnUse" gradientTransform="translate(308.952 307.554) rotate(130.41) scale(30.6859 27.5092)">
<stop offset="0.0150737" stop-color="#AFFFC1"/>
<stop offset="0.432699" stop-color="#52AB8B"/>
<stop offset="0.817831" stop-color="#0C7864"/>
<stop offset="1" stop-color="#074C48"/>
</radialGradient>
<linearGradient id="paint6_linear_71551_18082" x1="315.622" y1="339.879" x2="280.479" y2="296.659" gradientUnits="userSpaceOnUse">
<stop stop-color="white" stop-opacity="0.03"/>
<stop offset="1" stop-color="#00FF85" stop-opacity="0"/>
</linearGradient>
<radialGradient id="paint7_radial_71551_18082" cx="0" cy="0" r="1" gradientUnits="userSpaceOnUse" gradientTransform="translate(90.3585 267.193) rotate(-141.528) scale(51.325 45.3421)">
<stop offset="0.0150737" stop-color="#B0EC98" stop-opacity="0.56"/>
<stop offset="1" stop-color="#0092FF" stop-opacity="0.12"/>
</radialGradient>
<radialGradient id="paint8_radial_71551_18082" cx="0" cy="0" r="1" gradientUnits="userSpaceOnUse" gradientTransform="translate(87.7083 253.306) rotate(130.41) scale(30.6859 27.5092)">
<stop offset="0.0150737" stop-color="#AFFFC1"/>
<stop offset="0.432699" stop-color="#52AB8B"/>
<stop offset="0.817831" stop-color="#0C7864"/>
<stop offset="1" stop-color="#074C48"/>
</radialGradient>
<linearGradient id="paint9_linear_71551_18082" x1="94.3786" y1="285.631" x2="59.2357" y2="242.412" gradientUnits="userSpaceOnUse">
<stop stop-color="white" stop-opacity="0.03"/>
<stop offset="1" stop-color="#00FF85" stop-opacity="0"/>
</linearGradient>
<linearGradient id="paint10_linear_71551_18082" x1="495.544" y1="457.326" x2="530.723" y2="448.976" gradientUnits="userSpaceOnUse">
<stop stop-color="#CDFFED"/>
<stop offset="1" stop-color="#368468"/>
</linearGradient>
<linearGradient id="paint11_linear_71551_18082" x1="432.139" y1="472.578" x2="443.575" y2="506.877" gradientUnits="userSpaceOnUse">
<stop stop-color="#5FEAB8"/>
<stop offset="1" stop-color="#368468"/>
</linearGradient>
<linearGradient id="paint12_linear_71551_18082" x1="442.815" y1="415.771" x2="410.996" y2="432.942" gradientUnits="userSpaceOnUse">
<stop stop-color="#5FEAB8"/>
<stop offset="1" stop-color="#368468"/>
</linearGradient>
<linearGradient id="paint13_linear_71551_18082" x1="277.024" y1="352.305" x2="253.7" y2="324.679" gradientUnits="userSpaceOnUse">
<stop stop-color="#90EBCB"/>
<stop offset="1" stop-color="#368468"/>
</linearGradient>
<linearGradient id="paint14_linear_71551_18082" x1="277.033" y1="352.307" x2="253.709" y2="324.68" gradientUnits="userSpaceOnUse">
<stop stop-color="#5FEAB8"/>
<stop offset="1" stop-color="#368468"/>
</linearGradient>
<linearGradient id="paint15_linear_71551_18082" x1="277.034" y1="352.31" x2="253.71" y2="324.683" gradientUnits="userSpaceOnUse">
<stop stop-color="#5FEAB8"/>
<stop offset="1" stop-color="#368468"/>
</linearGradient>
<linearGradient id="paint16_linear_71551_18082" x1="350.831" y1="141.07" x2="373.209" y2="140.364" gradientUnits="userSpaceOnUse">
<stop stop-color="#57D9AB"/>
<stop offset="1" stop-color="#368468" stop-opacity="0.3"/>
</linearGradient>
<linearGradient id="paint17_linear_71551_18082" x1="100.844" y1="338.382" x2="172.737" y2="325.118" gradientUnits="userSpaceOnUse">
<stop stop-color="#5FEAB8"/>
<stop offset="1" stop-color="#368468"/>
</linearGradient>
<linearGradient id="paint18_linear_71551_18082" x1="86.3356" y1="308.094" x2="85.0494" y2="308.402" gradientUnits="userSpaceOnUse">
<stop stop-color="#B2FFE3"/>
<stop offset="1" stop-color="#368468"/>
</linearGradient>
<linearGradient id="paint19_linear_71551_18082" x1="-198.756" y1="354.583" x2="-387.29" y2="339.283" gradientUnits="userSpaceOnUse">
<stop stop-color="#5FEAB8"/>
<stop offset="1" stop-color="#368468" stop-opacity="0.3"/>
</linearGradient>
<radialGradient id="paint20_radial_71551_18082" cx="0" cy="0" r="1" gradientUnits="userSpaceOnUse" gradientTransform="translate(511.897 389.136) rotate(-141.528) scale(116.407 102.838)">
<stop offset="0.0150737" stop-color="#B0EC98" stop-opacity="0.56"/>
<stop offset="1" stop-color="#0092FF" stop-opacity="0.12"/>
</radialGradient>
<radialGradient id="paint21_radial_71551_18082" cx="0" cy="0" r="1" gradientUnits="userSpaceOnUse" gradientTransform="translate(505.886 357.639) rotate(139.939) scale(73.5417 64.969)">
<stop offset="0.0150737" stop-color="#B0EC98" stop-opacity="0.56"/>
<stop offset="1" stop-color="#0092FF" stop-opacity="0.12"/>
</radialGradient>
<linearGradient id="paint22_linear_71551_18082" x1="521.014" y1="430.954" x2="441.308" y2="332.93" gradientUnits="userSpaceOnUse">
<stop stop-color="white"/>
<stop offset="1" stop-color="#00FF85" stop-opacity="0"/>
</linearGradient>
<radialGradient id="paint23_radial_71551_18082" cx="0" cy="0" r="1" gradientUnits="userSpaceOnUse" gradientTransform="translate(505.886 357.639) rotate(139.939) scale(73.5417 64.969)">
<stop offset="0.0150737" stop-color="#B0EC98" stop-opacity="0.56"/>
<stop offset="1" stop-color="#0092FF" stop-opacity="0.12"/>
</radialGradient>
<linearGradient id="paint24_linear_71551_18082" x1="521.014" y1="430.954" x2="441.308" y2="332.93" gradientUnits="userSpaceOnUse">
<stop stop-color="white"/>
<stop offset="1" stop-color="#00FF85" stop-opacity="0"/>
</linearGradient>
<radialGradient id="paint25_radial_71551_18082" cx="0" cy="0" r="1" gradientUnits="userSpaceOnUse" gradientTransform="translate(505.886 357.639) rotate(130.41) scale(69.5972 62.3921)">
<stop offset="0.0150737" stop-color="white"/>
<stop offset="0.432699" stop-color="#C2EFDF"/>
<stop offset="0.817831" stop-color="#72B7AA"/>
<stop offset="1" stop-color="#408D7F"/>
</radialGradient>
<linearGradient id="paint26_linear_71551_18082" x1="521.014" y1="430.954" x2="441.308" y2="332.93" gradientUnits="userSpaceOnUse">
<stop stop-color="white" stop-opacity="0.03"/>
<stop offset="1" stop-color="#00FF85" stop-opacity="0"/>
</linearGradient>
<radialGradient id="paint27_radial_71551_18082" cx="0" cy="0" r="1" gradientUnits="userSpaceOnUse" gradientTransform="translate(505.886 357.639) rotate(130.41) scale(69.5972 62.3921)">
<stop offset="0.0150737" stop-color="#AFFFC1"/>
<stop offset="0.432699" stop-color="#52AB8B"/>
<stop offset="0.817831" stop-color="#0C7864"/>
<stop offset="1" stop-color="#074C48"/>
</radialGradient>
<linearGradient id="paint28_linear_71551_18082" x1="521.014" y1="430.954" x2="441.308" y2="332.93" gradientUnits="userSpaceOnUse">
<stop stop-color="white" stop-opacity="0.03"/>
<stop offset="1" stop-color="#00FF85" stop-opacity="0"/>
</linearGradient>
<radialGradient id="paint29_radial_71551_18082" cx="0" cy="0" r="1" gradientUnits="userSpaceOnUse" gradientTransform="translate(508.241 362.008) rotate(134.31) scale(68.024 60.9818)">
<stop offset="0.0150737" stop-color="white"/>
<stop offset="0.335781" stop-color="#F3FFFB"/>
<stop offset="0.680787" stop-color="#B1FCEF"/>
<stop offset="1" stop-color="#C3FCD1"/>
</radialGradient>
<linearGradient id="paint30_linear_71551_18082" x1="521.062" y1="431.038" x2="441.233" y2="332.861" gradientUnits="userSpaceOnUse">
<stop stop-color="white" stop-opacity="0.03"/>
<stop offset="1" stop-color="#00FF85" stop-opacity="0"/>
</linearGradient>
<radialGradient id="paint31_radial_71551_18082" cx="0" cy="0" r="1" gradientUnits="userSpaceOnUse" gradientTransform="translate(378.961 184.347) rotate(-141.528) scale(51.325 45.3421)">
<stop offset="0.0150737" stop-color="#B0EC98" stop-opacity="0.56"/>
<stop offset="1" stop-color="#0092FF" stop-opacity="0.12"/>
</radialGradient>
<radialGradient id="paint32_radial_71551_18082" cx="0" cy="0" r="1" gradientUnits="userSpaceOnUse" gradientTransform="translate(376.311 170.46) rotate(130.41) scale(30.6859 27.5092)">
<stop offset="0.0150737" stop-color="#AFFFC1"/>
<stop offset="0.432699" stop-color="#52AB8B"/>
<stop offset="0.817831" stop-color="#0C7864"/>
<stop offset="1" stop-color="#074C48"/>
</radialGradient>
<linearGradient id="paint33_linear_71551_18082" x1="382.981" y1="202.785" x2="347.838" y2="159.566" gradientUnits="userSpaceOnUse">
<stop stop-color="white" stop-opacity="0.03"/>
<stop offset="1" stop-color="#00FF85" stop-opacity="0"/>
</linearGradient>
<radialGradient id="paint34_radial_71551_18082" cx="0" cy="0" r="1" gradientUnits="userSpaceOnUse" gradientTransform="translate(103.68 146.035) rotate(-141.528) scale(51.325 45.3421)">
<stop offset="0.0150737" stop-color="#B0EC98" stop-opacity="0.56"/>
<stop offset="1" stop-color="#0092FF" stop-opacity="0.12"/>
</radialGradient>
<radialGradient id="paint35_radial_71551_18082" cx="0" cy="0" r="1" gradientUnits="userSpaceOnUse" gradientTransform="translate(101.03 132.148) rotate(130.41) scale(30.6859 27.5092)">
<stop offset="0.0150737" stop-color="#AFFFC1"/>
<stop offset="0.432699" stop-color="#52AB8B"/>
<stop offset="0.817831" stop-color="#0C7864"/>
<stop offset="1" stop-color="#074C48"/>
</radialGradient>
<linearGradient id="paint36_linear_71551_18082" x1="107.7" y1="164.473" x2="72.5572" y2="121.253" gradientUnits="userSpaceOnUse">
<stop stop-color="white" stop-opacity="0.03"/>
<stop offset="1" stop-color="#00FF85" stop-opacity="0"/>
</linearGradient>
<radialGradient id="paint37_radial_71551_18082" cx="0" cy="0" r="1" gradientUnits="userSpaceOnUse" gradientTransform="translate(221.602 265.441) rotate(-141.528) scale(51.325 45.3421)">
<stop offset="0.0150737" stop-color="#B0EC98" stop-opacity="0.56"/>
<stop offset="1" stop-color="#0092FF" stop-opacity="0.12"/>
</radialGradient>
<radialGradient id="paint38_radial_71551_18082" cx="0" cy="0" r="1" gradientUnits="userSpaceOnUse" gradientTransform="translate(218.952 251.554) rotate(130.41) scale(30.6859 27.5092)">
<stop offset="0.0150737" stop-color="white"/>
<stop offset="0.432699" stop-color="#C2EFDF"/>
<stop offset="0.817831" stop-color="#72B7AA"/>
<stop offset="1" stop-color="#408D7F"/>
</radialGradient>
<linearGradient id="paint39_linear_71551_18082" x1="225.622" y1="283.879" x2="190.479" y2="240.659" gradientUnits="userSpaceOnUse">
<stop stop-color="white" stop-opacity="0.03"/>
<stop offset="1" stop-color="#00FF85" stop-opacity="0"/>
</linearGradient>
<radialGradient id="paint40_radial_71551_18082" cx="0" cy="0" r="1" gradientUnits="userSpaceOnUse" gradientTransform="translate(218.952 251.554) rotate(130.41) scale(30.6859 27.5092)">
<stop offset="0.0150737" stop-color="#AFFFC1"/>
<stop offset="0.432699" stop-color="#52AB8B"/>
<stop offset="0.817831" stop-color="#0C7864"/>
<stop offset="1" stop-color="#074C48"/>
</radialGradient>
<linearGradient id="paint41_linear_71551_18082" x1="225.622" y1="283.879" x2="190.479" y2="240.659" gradientUnits="userSpaceOnUse">
<stop stop-color="white" stop-opacity="0.03"/>
<stop offset="1" stop-color="#00FF85" stop-opacity="0"/>
</linearGradient>
<radialGradient id="paint42_radial_71551_18082" cx="0" cy="0" r="1" gradientUnits="userSpaceOnUse" gradientTransform="translate(159.602 569.441) rotate(-141.528) scale(51.325 45.3421)">
<stop offset="0.0150737" stop-color="#B0EC98" stop-opacity="0.56"/>
<stop offset="1" stop-color="#0092FF" stop-opacity="0.12"/>
</radialGradient>
<radialGradient id="paint43_radial_71551_18082" cx="0" cy="0" r="1" gradientUnits="userSpaceOnUse" gradientTransform="translate(156.952 555.554) rotate(130.41) scale(30.6859 27.5092)">
<stop offset="0.0150737" stop-color="#AFFFC1"/>
<stop offset="0.432699" stop-color="#52AB8B"/>
<stop offset="0.817831" stop-color="#0C7864"/>
<stop offset="1" stop-color="#074C48"/>
</radialGradient>
<linearGradient id="paint44_linear_71551_18082" x1="163.622" y1="587.879" x2="128.479" y2="544.659" gradientUnits="userSpaceOnUse">
<stop stop-color="white" stop-opacity="0.03"/>
<stop offset="1" stop-color="#00FF85" stop-opacity="0"/>
</linearGradient>
<radialGradient id="paint45_radial_71551_18082" cx="0" cy="0" r="1" gradientUnits="userSpaceOnUse" gradientTransform="translate(393.602 428.535) rotate(-141.528) scale(51.325 45.3421)">
<stop offset="0.0150737" stop-color="#B0EC98" stop-opacity="0.56"/>
<stop offset="1" stop-color="#0092FF" stop-opacity="0.12"/>
</radialGradient>
<radialGradient id="paint46_radial_71551_18082" cx="0" cy="0" r="1" gradientUnits="userSpaceOnUse" gradientTransform="translate(390.952 414.648) rotate(130.41) scale(30.6859 27.5092)">
<stop offset="0.0150737" stop-color="white"/>
<stop offset="0.432699" stop-color="#C2EFDF"/>
<stop offset="0.817831" stop-color="#72B7AA"/>
<stop offset="1" stop-color="#408D7F"/>
</radialGradient>
<linearGradient id="paint47_linear_71551_18082" x1="397.622" y1="446.973" x2="362.479" y2="403.753" gradientUnits="userSpaceOnUse">
<stop stop-color="white" stop-opacity="0.03"/>
<stop offset="1" stop-color="#00FF85" stop-opacity="0"/>
</linearGradient>
<radialGradient id="paint48_radial_71551_18082" cx="0" cy="0" r="1" gradientUnits="userSpaceOnUse" gradientTransform="translate(390.952 414.648) rotate(130.41) scale(30.6859 27.5092)">
<stop offset="0.0150737" stop-color="#AFFFC1"/>
<stop offset="0.432699" stop-color="#52AB8B"/>
<stop offset="0.817831" stop-color="#0C7864"/>
<stop offset="1" stop-color="#074C48"/>
</radialGradient>
<linearGradient id="paint49_linear_71551_18082" x1="397.622" y1="446.973" x2="362.479" y2="403.753" gradientUnits="userSpaceOnUse">
<stop stop-color="white" stop-opacity="0.03"/>
<stop offset="1" stop-color="#00FF85" stop-opacity="0"/>
</linearGradient>
<radialGradient id="paint50_radial_71551_18082" cx="0" cy="0" r="1" gradientUnits="userSpaceOnUse" gradientTransform="translate(392.117 416.542) rotate(134.31) scale(30.0445 26.9341)">
<stop offset="0.0150737" stop-color="white"/>
<stop offset="0.335781" stop-color="#F3FFFB"/>
<stop offset="0.680787" stop-color="#B1FCEF"/>
<stop offset="1" stop-color="#C3FCD1"/>
</radialGradient>
<linearGradient id="paint51_linear_71551_18082" x1="397.78" y1="447.03" x2="362.521" y2="403.668" gradientUnits="userSpaceOnUse">
<stop stop-color="white" stop-opacity="0.03"/>
<stop offset="1" stop-color="#00FF85" stop-opacity="0"/>
</linearGradient>
<radialGradient id="paint52_radial_71551_18082" cx="0" cy="0" r="1" gradientUnits="userSpaceOnUse" gradientTransform="translate(365.046 646.051) rotate(-141.528) scale(112.318 99.2254)">
<stop offset="0.0150737" stop-color="#B0EC98" stop-opacity="0.56"/>
<stop offset="1" stop-color="#0092FF" stop-opacity="0.12"/>
</radialGradient>
<radialGradient id="paint53_radial_71551_18082" cx="0" cy="0" r="1" gradientUnits="userSpaceOnUse" gradientTransform="translate(359.246 615.661) rotate(139.939) scale(70.9583 62.6868)">
<stop offset="0.0150737" stop-color="#B0EC98" stop-opacity="0.56"/>
<stop offset="1" stop-color="#0092FF" stop-opacity="0.12"/>
</radialGradient>
<linearGradient id="paint54_linear_71551_18082" x1="373.843" y1="686.401" x2="296.937" y2="591.819" gradientUnits="userSpaceOnUse">
<stop stop-color="white"/>
<stop offset="1" stop-color="#00FF85" stop-opacity="0"/>
</linearGradient>
<radialGradient id="paint55_radial_71551_18082" cx="0" cy="0" r="1" gradientUnits="userSpaceOnUse" gradientTransform="translate(359.246 615.661) rotate(130.41) scale(67.1523 60.2004)">
<stop offset="0.0150737" stop-color="#AFFFC1"/>
<stop offset="0.432699" stop-color="#52AB8B"/>
<stop offset="0.817831" stop-color="#0C7864"/>
<stop offset="1" stop-color="#074C48"/>
</radialGradient>
<linearGradient id="paint56_linear_71551_18082" x1="373.843" y1="686.401" x2="296.937" y2="591.819" gradientUnits="userSpaceOnUse">
<stop stop-color="white" stop-opacity="0.03"/>
<stop offset="1" stop-color="#00FF85" stop-opacity="0"/>
</linearGradient>
<radialGradient id="paint57_radial_71551_18082" cx="0" cy="0" r="1" gradientUnits="userSpaceOnUse" gradientTransform="translate(605.868 564.441) rotate(-141.528) scale(51.325 45.3421)">
<stop offset="0.0150737" stop-color="#B0EC98" stop-opacity="0.56"/>
<stop offset="1" stop-color="#0092FF" stop-opacity="0.12"/>
</radialGradient>
<radialGradient id="paint58_radial_71551_18082" cx="0" cy="0" r="1" gradientUnits="userSpaceOnUse" gradientTransform="translate(603.217 550.554) rotate(130.41) scale(30.6859 27.5092)">
<stop offset="0.0150737" stop-color="#AFFFC1"/>
<stop offset="0.432699" stop-color="#52AB8B"/>
<stop offset="0.817831" stop-color="#0C7864"/>
<stop offset="1" stop-color="#074C48"/>
</radialGradient>
<linearGradient id="paint59_linear_71551_18082" x1="609.888" y1="582.879" x2="574.745" y2="539.659" gradientUnits="userSpaceOnUse">
<stop stop-color="white" stop-opacity="0.03"/>
<stop offset="1" stop-color="#00FF85" stop-opacity="0"/>
</linearGradient>
<radialGradient id="paint60_radial_71551_18082" cx="0" cy="0" r="1" gradientUnits="userSpaceOnUse" gradientTransform="translate(647.602 331.441) rotate(-141.528) scale(51.325 45.3421)">
<stop offset="0.0150737" stop-color="#B0EC98" stop-opacity="0.56"/>
<stop offset="1" stop-color="#0092FF" stop-opacity="0.12"/>
</radialGradient>
<radialGradient id="paint61_radial_71551_18082" cx="0" cy="0" r="1" gradientUnits="userSpaceOnUse" gradientTransform="translate(644.952 317.554) rotate(130.41) scale(30.6859 27.5092)">
<stop offset="0.0150737" stop-color="#AFFFC1"/>
<stop offset="0.432699" stop-color="#52AB8B"/>
<stop offset="0.817831" stop-color="#0C7864"/>
<stop offset="1" stop-color="#074C48"/>
</radialGradient>
<linearGradient id="paint62_linear_71551_18082" x1="651.622" y1="349.879" x2="616.479" y2="306.659" gradientUnits="userSpaceOnUse">
<stop stop-color="white" stop-opacity="0.03"/>
<stop offset="1" stop-color="#00FF85" stop-opacity="0"/>
</linearGradient>
<radialGradient id="paint63_radial_71551_18082" cx="0" cy="0" r="1" gradientUnits="userSpaceOnUse" gradientTransform="translate(553.602 150.441) rotate(-141.528) scale(51.325 45.3421)">
<stop offset="0.0150737" stop-color="#B0EC98" stop-opacity="0.56"/>
<stop offset="1" stop-color="#0092FF" stop-opacity="0.12"/>
</radialGradient>
<radialGradient id="paint64_radial_71551_18082" cx="0" cy="0" r="1" gradientUnits="userSpaceOnUse" gradientTransform="translate(550.952 136.554) rotate(130.41) scale(30.6859 27.5092)">
<stop offset="0.0150737" stop-color="white"/>
<stop offset="0.432699" stop-color="#C2EFDF"/>
<stop offset="0.817831" stop-color="#72B7AA"/>
<stop offset="1" stop-color="#408D7F"/>
</radialGradient>
<linearGradient id="paint65_linear_71551_18082" x1="557.622" y1="168.879" x2="522.479" y2="125.659" gradientUnits="userSpaceOnUse">
<stop stop-color="white" stop-opacity="0.03"/>
<stop offset="1" stop-color="#00FF85" stop-opacity="0"/>
</linearGradient>
<radialGradient id="paint66_radial_71551_18082" cx="0" cy="0" r="1" gradientUnits="userSpaceOnUse" gradientTransform="translate(550.952 136.554) rotate(130.41) scale(30.6859 27.5092)">
<stop offset="0.0150737" stop-color="#AFFFC1"/>
<stop offset="0.432699" stop-color="#52AB8B"/>
<stop offset="0.817831" stop-color="#0C7864"/>
<stop offset="1" stop-color="#074C48"/>
</radialGradient>
<linearGradient id="paint67_linear_71551_18082" x1="557.622" y1="168.879" x2="522.479" y2="125.659" gradientUnits="userSpaceOnUse">
<stop stop-color="white" stop-opacity="0.03"/>
<stop offset="1" stop-color="#00FF85" stop-opacity="0"/>
</linearGradient>
<radialGradient id="paint68_radial_71551_18082" cx="0" cy="0" r="1" gradientUnits="userSpaceOnUse" gradientTransform="translate(172.47 419.596) rotate(-141.528) scale(118.716 104.877)">
<stop offset="0.0150737" stop-color="#B0EC98" stop-opacity="0.56"/>
<stop offset="1" stop-color="#0092FF" stop-opacity="0.12"/>
</radialGradient>
<radialGradient id="paint69_radial_71551_18082" cx="0" cy="0" r="1" gradientUnits="userSpaceOnUse" gradientTransform="translate(166.34 387.475) rotate(130.41) scale(70.9771 63.6292)">
<stop offset="0.0150737" stop-color="#AFFFC1"/>
<stop offset="0.432699" stop-color="#52AB8B"/>
<stop offset="0.817831" stop-color="#0C7864"/>
<stop offset="1" stop-color="#074C48"/>
</radialGradient>
<linearGradient id="paint70_linear_71551_18082" x1="181.768" y1="462.244" x2="100.482" y2="362.276" gradientUnits="userSpaceOnUse">
<stop stop-color="white" stop-opacity="0.03"/>
<stop offset="1" stop-color="#00FF85" stop-opacity="0"/>
</linearGradient>
<radialGradient id="paint71_radial_71551_18082" cx="0" cy="0" r="1" gradientUnits="userSpaceOnUse" gradientTransform="translate(168.629 391.783) rotate(134.31) scale(69.175 62.0136)">
<stop offset="0.0150737" stop-color="white"/>
<stop offset="0.335781" stop-color="#F3FFFB"/>
<stop offset="0.680787" stop-color="#B1FCEF"/>
<stop offset="1" stop-color="#C3FCD1"/>
</radialGradient>
<linearGradient id="paint72_linear_71551_18082" x1="181.667" y1="461.981" x2="100.487" y2="362.143" gradientUnits="userSpaceOnUse">
<stop stop-color="white" stop-opacity="0.03"/>
<stop offset="1" stop-color="#00FF85" stop-opacity="0"/>
</linearGradient>
<linearGradient id="paint73_linear_71551_18082" x1="151.505" y1="143.658" x2="320.885" y2="28.2158" gradientUnits="userSpaceOnUse">
<stop stop-color="#5FEAB8"/>
<stop offset="0.558308" stop-color="#358468"/>
<stop offset="1" stop-color="#368468" stop-opacity="0.3"/>
</linearGradient>
<linearGradient id="paint74_linear_71551_18082" x1="509.012" y1="370.378" x2="529.529" y2="313.738" gradientUnits="userSpaceOnUse">
<stop stop-color="#FCFFFE"/>
<stop offset="1" stop-color="#368468"/>
</linearGradient>
<linearGradient id="paint75_linear_71551_18082" x1="398.329" y1="550.255" x2="359.669" y2="655.128" gradientUnits="userSpaceOnUse">
<stop stop-color="#9CFFDB"/>
<stop offset="1" stop-color="#368468"/>
</linearGradient>
<clipPath id="clip0_71551_18082">
<rect width="640" height="800" fill="white"/>
</clipPath>
<clipPath id="clip1_71551_18082">
<rect width="640" height="608" fill="white" transform="translate(0 96)"/>
</clipPath>
</defs>
</svg>
