<svg width="24" height="24" viewBox="0 0 24 24" fill="none" xmlns="http://www.w3.org/2000/svg">
<g clip-path="url(#clip0_67188_59627)">
<path d="M4.10708 21.3964H17.3499L16.7175 19.3486L18.2304 20.6469L19.617 21.8896L22.1431 24.0006V4.00956C22.08 2.76691 21.0101 1.71094 19.6838 1.71094L4.11172 1.71372C2.78641 1.71372 1.71094 2.77155 1.71094 4.0142V19.0969C1.71094 20.4073 2.78456 21.3964 4.10708 21.3964ZM13.9034 6.98894L13.8727 7.00009L13.8839 6.98894H13.9034ZM6.8162 8.16751C8.51857 6.92858 10.0965 6.98801 10.0965 6.98801L10.2237 7.11339C8.14058 7.61027 7.19605 8.54086 7.19605 8.54086C7.19605 8.54086 7.44867 8.41734 7.88982 8.22881C10.6955 7.12547 13.7594 7.20534 16.5958 8.60216C16.5958 8.60216 15.6494 7.73193 13.6944 7.17469L13.8672 7.00473C14.1374 7.00566 15.5677 7.05581 17.0982 8.17494C17.0982 8.17494 18.8108 11.1005 18.8108 14.6947C18.7542 14.6259 17.7484 16.2419 15.16 16.2977C15.16 16.2977 14.7216 15.8017 14.4095 15.3689C15.9234 14.9343 16.4899 14.065 16.4899 14.065C15.993 14.378 15.5398 14.5637 15.172 14.7495C14.6064 14.9984 14.0399 15.121 13.4743 15.2463C10.7958 15.681 9.29221 14.9538 7.87124 14.377L7.38552 14.13C7.38552 14.13 7.95112 14.9993 9.40459 15.4339C9.02288 15.8695 8.64488 16.3645 8.64488 16.3645C6.05742 16.3032 5.11383 14.6872 5.11383 14.6872C5.11383 11.0875 6.8162 8.16751 6.8162 8.16751Z" fill="black"/>
<path d="M14.0731 13.5703C14.7334 13.5703 15.2711 13.0131 15.2711 12.3258C15.2711 11.6432 14.7362 11.0859 14.0731 11.0859V11.0887C13.4155 11.0887 12.8769 11.6441 12.875 12.3314C12.875 13.0131 13.4127 13.5703 14.0731 13.5703Z" fill="black"/>
<path d="M9.78401 13.5703C10.4443 13.5703 10.9821 13.0131 10.9821 12.3258C10.9821 11.6432 10.4481 11.0859 9.78772 11.0859L9.78401 11.0887C9.12368 11.0887 8.58594 11.6441 8.58594 12.3314C8.58594 13.0131 9.12368 13.5703 9.78401 13.5703Z" fill="black"/>
</g>
<defs>
<clipPath id="clip0_67188_59627">
<rect width="24" height="24" fill="white"/>
</clipPath>
</defs>
</svg>
