<svg width="24" height="24" viewBox="0 0 24 24" fill="none" xmlns="http://www.w3.org/2000/svg">
<path fill-rule="evenodd" clip-rule="evenodd" d="M12.0015 0.862388C9.35454 0.859629 6.79315 1.82361 4.77634 3.58159C2.75952 5.33957 1.41909 7.77663 0.995287 10.456C0.57148 13.1354 1.09199 15.882 2.46353 18.2036C3.83508 20.5252 5.968 22.2701 8.48008 23.1255C9.03393 23.2307 9.23906 22.8801 9.23906 22.5715C9.23906 22.263 9.23906 21.5828 9.23906 20.6292C6.1416 21.3304 5.48518 19.1006 5.48518 19.1006C5.28005 18.4107 4.84107 17.8188 4.24756 17.4317C3.23559 16.7305 4.32277 16.7305 4.32277 16.7305C4.67649 16.7801 5.01444 16.912 5.31075 17.1162C5.60706 17.3204 5.85384 17.5914 6.03219 17.9086C6.18339 18.19 6.38744 18.4379 6.63256 18.638C6.87769 18.8381 7.15904 18.9864 7.46036 19.0744C7.76169 19.1624 8.07704 19.1884 8.38819 19.1507C8.69934 19.1131 9.00014 19.0127 9.27324 18.8552C9.31733 18.2786 9.55965 17.7369 9.957 17.3266C7.48177 17.0391 4.88346 16.0574 4.88346 11.6819C4.86832 10.5471 5.27966 9.44982 6.03219 8.61766C5.69268 7.63263 5.7318 6.55198 6.14159 5.59549C6.14159 5.59549 7.07835 5.28696 9.20487 6.76649C11.0311 6.25338 12.9582 6.25338 14.7844 6.76649C16.9109 5.28696 17.8477 5.59549 17.8477 5.59549C18.2582 6.55182 18.2973 7.63274 17.9571 8.61766C18.7077 9.45052 19.1167 10.5479 19.099 11.6819C19.099 16.0714 16.4938 17.032 14.0117 17.2915C14.2764 17.5669 14.481 17.8969 14.6118 18.2596C14.7427 18.6223 14.7969 19.0093 14.7707 19.3951C14.7707 20.9237 14.7707 22.1508 14.7707 22.5295C14.7707 22.9081 14.969 23.1886 15.5365 23.0764C18.0441 22.217 20.1718 20.4709 21.5392 18.1503C22.9065 15.8298 23.4244 13.0861 23.0001 10.4099C22.5759 7.73378 21.2372 5.29962 19.2235 3.54276C17.2097 1.7859 14.6522 0.820893 12.0083 0.820312L12.0015 0.862388Z" fill="black"/>
</svg>
