<svg width="446" height="446" viewBox="0 0 446 446" fill="none" xmlns="http://www.w3.org/2000/svg">
<g filter="url(#filter0_d_43331_39785)">
<path d="M153.275 16.0006L153.275 15.0006L153.275 16.0006ZM142.835 18.8137L143.338 19.6783L142.835 18.8137ZM250.177 16V17V16ZM250.308 16.0008L250.296 17.0008H250.308V16.0008ZM303.375 18.8139L303.878 17.9493V17.9493L303.375 18.8139ZM353.441 47.9057L352.938 48.7704L353.441 47.9057ZM353.441 124.178L352.938 123.313L353.441 124.178ZM303.948 152.937L304.45 153.802L303.948 152.937ZM293.12 152.937L292.618 153.802L293.12 152.937ZM153.09 152.937L153.592 153.801L153.09 152.937ZM142.262 152.937L142.765 152.072L142.262 152.937ZM92.7695 124.178L93.2719 123.313H93.2719L92.7695 124.178ZM92.7695 47.9056L93.2719 48.7703L92.7695 47.9056ZM202.583 124.178L203.085 125.042H203.085L202.583 124.178ZM236.644 121.547V120.547V121.547ZM197.537 16V15V16ZM153.275 15.0006C149.431 15.0007 145.656 16.0179 142.333 17.9491L143.338 19.6783C146.356 17.9245 149.784 17.0007 153.275 17.0006L153.275 15.0006ZM193.519 15L153.275 15.0006L153.275 17.0006L193.519 17L193.519 15ZM250.177 15L197.537 15V17L250.177 17V15ZM250.32 15.0009C250.272 15.0003 250.225 15 250.177 15V17C250.217 17 250.256 17.0003 250.296 17.0008L250.32 15.0009ZM292.935 15.0008H250.308V17.0008H292.935V15.0008ZM303.878 17.9493C300.554 16.0181 296.779 15.0008 292.935 15.0008V17.0008C296.426 17.0008 299.854 17.9247 302.873 19.6785L303.878 17.9493ZM353.943 47.0411L303.878 17.9493L302.873 19.6785L352.938 48.7704L353.943 47.0411ZM359.802 57.2225C359.802 53.0273 357.57 49.1489 353.943 47.0411L352.938 48.7704C355.95 50.5201 357.802 53.7398 357.802 57.2225H359.802ZM359.802 114.861V57.2225H357.802V114.861H359.802ZM353.943 125.042C357.57 122.935 359.802 119.056 359.802 114.861H357.802C357.802 118.344 355.95 121.563 352.938 123.313L353.943 125.042ZM304.45 153.802L353.943 125.042L352.938 123.313L303.445 152.072L304.45 153.802ZM292.618 153.802C296.276 155.927 300.792 155.927 304.45 153.802L303.445 152.072C300.409 153.837 296.659 153.837 293.623 152.072L292.618 153.802ZM242.705 124.798L292.618 153.802L293.623 152.072L243.71 123.069L242.705 124.798ZM209.66 122.547H236.644V120.547H209.66V122.547ZM153.592 153.801L203.085 125.042L202.08 123.313L152.587 152.072L153.592 153.801ZM141.76 153.801C145.418 155.927 149.935 155.927 153.592 153.801L152.587 152.072C149.551 153.837 145.801 153.837 142.765 152.072L141.76 153.801ZM92.2671 125.042L141.76 153.801L142.765 152.072L93.2719 123.313L92.2671 125.042ZM86.4077 114.861C86.4077 119.056 88.6397 122.935 92.2671 125.042L93.2719 123.313C90.2606 121.563 88.4077 118.344 88.4077 114.861H86.4077ZM86.4077 57.2224V114.861H88.4077V57.2224H86.4077ZM92.267 47.041C88.6397 49.1488 86.4077 53.0272 86.4077 57.2224H88.4077C88.4077 53.7397 90.2606 50.52 93.2719 48.7703L92.267 47.041ZM142.333 17.9491L92.267 47.041L93.2719 48.7703L143.338 19.6783L142.333 17.9491ZM209.66 120.547C206.79 120.547 204.235 122.061 202.08 123.313L203.085 125.042C205.345 123.729 207.425 122.547 209.66 122.547V120.547ZM243.71 123.069C241.702 121.902 239.316 120.547 236.644 120.547V122.547C238.696 122.547 240.629 123.592 242.705 124.798L243.71 123.069ZM193.519 17C194.852 17 196.203 17 197.537 17V15C196.203 15 194.852 15 193.519 15L193.519 17Z" fill="url(#paint0_linear_43331_39785)"/>
</g>
<g filter="url(#filter1_d_43331_39785)">
<path d="M150.579 422.886L150.579 423.886L150.579 422.886ZM145.166 421.427L145.668 420.563V420.563L145.166 421.427ZM193.519 422.887L193.519 421.887L193.519 422.887ZM250.63 415.324V414.324V415.324ZM293.12 419.74L293.623 418.875L293.12 419.74ZM303.948 419.74L303.445 418.875L303.948 419.74ZM353.441 390.981L352.938 390.116V390.116L353.441 390.981ZM353.441 314.709L352.938 315.574L353.441 314.709ZM303.948 285.95L304.45 285.085L303.948 285.95ZM293.12 285.95L292.618 285.085L293.12 285.95ZM153.09 285.95L153.592 285.085L153.09 285.95ZM142.262 285.95L141.76 285.085L142.262 285.95ZM92.7695 314.709L92.2671 313.844H92.2671L92.7695 314.709ZM92.7695 390.981L93.2719 390.116L92.7695 390.981ZM209.66 317.339V316.339V317.339ZM202.583 314.709L202.08 315.574V315.574L202.583 314.709ZM243.627 314.709L243.125 313.844L243.627 314.709ZM236.55 317.339V318.339V317.339ZM259.605 410.512L258.772 409.958V409.958L259.605 410.512ZM150.579 423.886C148.501 423.886 146.46 423.336 144.663 422.292L145.668 420.563C147.16 421.429 148.854 421.886 150.579 421.886L150.579 423.886ZM193.519 423.887L150.579 423.886L150.579 421.886L193.519 421.887L193.519 423.887ZM199.495 422.258C197.734 423.296 195.687 423.887 193.519 423.887L193.519 421.887C195.32 421.887 197.018 421.397 198.479 420.535L199.495 422.258ZM250.63 416.324L211.735 416.324V414.324L250.63 414.324V416.324ZM260.438 411.065C258.256 414.35 254.574 416.324 250.63 416.324V414.324C253.904 414.324 256.96 412.685 258.772 409.958L260.438 411.065ZM292.618 420.605L271.688 408.443L272.693 406.714L293.623 418.875L292.618 420.605ZM304.45 420.605C300.792 422.73 296.276 422.73 292.618 420.605L293.623 418.875C296.659 420.64 300.409 420.64 303.445 418.875L304.45 420.605ZM353.943 391.846L304.45 420.605L303.445 418.875L352.938 390.116L353.943 391.846ZM359.802 381.664C359.802 385.859 357.57 389.738 353.943 391.846L352.938 390.116C355.95 388.367 357.802 385.147 357.802 381.664H359.802ZM359.802 324.026V381.664H357.802V324.026H359.802ZM353.943 313.844C357.57 315.952 359.802 319.83 359.802 324.026H357.802C357.802 320.543 355.95 317.323 352.938 315.574L353.943 313.844ZM304.45 285.085L353.943 313.844L352.938 315.574L303.445 286.814L304.45 285.085ZM292.618 285.085C296.276 282.96 300.792 282.96 304.45 285.085L303.445 286.814C300.409 285.05 296.659 285.05 293.623 286.814L292.618 285.085ZM243.125 313.844L292.618 285.085L293.623 286.814L244.13 315.574L243.125 313.844ZM209.66 316.339L236.55 316.339V318.339L209.66 318.339V316.339ZM153.592 285.085L203.085 313.844L202.08 315.574L152.587 286.815L153.592 285.085ZM141.76 285.085C145.418 282.96 149.935 282.96 153.592 285.085L152.587 286.815C149.551 285.05 145.801 285.05 142.765 286.815L141.76 285.085ZM92.2671 313.844L141.76 285.085L142.765 286.815L93.2719 315.574L92.2671 313.844ZM86.4077 324.026C86.4077 319.831 88.6397 315.952 92.2671 313.844L93.2719 315.574C90.2606 317.323 88.4077 320.543 88.4077 324.026H86.4077ZM86.4077 381.664V324.026H88.4077V381.664H86.4077ZM92.267 391.846C88.6397 389.738 86.4077 385.86 86.4077 381.664H88.4077C88.4077 385.147 90.2606 388.367 93.2719 390.116L92.267 391.846ZM144.663 422.292L92.267 391.846L93.2719 390.116L145.668 420.563L144.663 422.292ZM209.66 318.339C206.79 318.339 204.235 316.825 202.08 315.574L203.085 313.844C205.345 315.157 207.425 316.339 209.66 316.339V318.339ZM244.13 315.574C241.976 316.825 239.42 318.339 236.55 318.339V316.339C238.785 316.339 240.865 315.157 243.125 313.844L244.13 315.574ZM258.772 409.958C261.824 405.365 267.925 403.943 272.693 406.714L271.688 408.443C267.835 406.204 262.904 407.353 260.438 411.065L258.772 409.958ZM198.479 420.535C199.465 419.954 200.45 419.292 201.473 418.607C202.486 417.927 203.536 417.226 204.612 416.598C206.759 415.346 209.114 414.324 211.735 414.324V416.324C209.638 416.324 207.651 417.141 205.619 418.326C204.606 418.917 203.607 419.584 202.586 420.268C201.575 420.946 200.54 421.642 199.495 422.258L198.479 420.535Z" fill="url(#paint1_linear_43331_39785)"/>
<path d="M150.579 422.886L150.579 423.886L150.579 422.886ZM145.166 421.427L145.668 420.563V420.563L145.166 421.427ZM193.519 422.887L193.519 421.887L193.519 422.887ZM250.63 415.324V414.324V415.324ZM293.12 419.74L293.623 418.875L293.12 419.74ZM303.948 419.74L303.445 418.875L303.948 419.74ZM353.441 390.981L352.938 390.116V390.116L353.441 390.981ZM353.441 314.709L352.938 315.574L353.441 314.709ZM303.948 285.95L304.45 285.085L303.948 285.95ZM293.12 285.95L292.618 285.085L293.12 285.95ZM153.09 285.95L153.592 285.085L153.09 285.95ZM142.262 285.95L141.76 285.085L142.262 285.95ZM92.7695 314.709L92.2671 313.844H92.2671L92.7695 314.709ZM92.7695 390.981L93.2719 390.116L92.7695 390.981ZM209.66 317.339V316.339V317.339ZM202.583 314.709L202.08 315.574V315.574L202.583 314.709ZM243.627 314.709L243.125 313.844L243.627 314.709ZM236.55 317.339V318.339V317.339ZM259.605 410.512L258.772 409.958V409.958L259.605 410.512ZM150.579 423.886C148.501 423.886 146.46 423.336 144.663 422.292L145.668 420.563C147.16 421.429 148.854 421.886 150.579 421.886L150.579 423.886ZM193.519 423.887L150.579 423.886L150.579 421.886L193.519 421.887L193.519 423.887ZM199.495 422.258C197.734 423.296 195.687 423.887 193.519 423.887L193.519 421.887C195.32 421.887 197.018 421.397 198.479 420.535L199.495 422.258ZM250.63 416.324L211.735 416.324V414.324L250.63 414.324V416.324ZM260.438 411.065C258.256 414.35 254.574 416.324 250.63 416.324V414.324C253.904 414.324 256.96 412.685 258.772 409.958L260.438 411.065ZM292.618 420.605L271.688 408.443L272.693 406.714L293.623 418.875L292.618 420.605ZM304.45 420.605C300.792 422.73 296.276 422.73 292.618 420.605L293.623 418.875C296.659 420.64 300.409 420.64 303.445 418.875L304.45 420.605ZM353.943 391.846L304.45 420.605L303.445 418.875L352.938 390.116L353.943 391.846ZM359.802 381.664C359.802 385.859 357.57 389.738 353.943 391.846L352.938 390.116C355.95 388.367 357.802 385.147 357.802 381.664H359.802ZM359.802 324.026V381.664H357.802V324.026H359.802ZM353.943 313.844C357.57 315.952 359.802 319.83 359.802 324.026H357.802C357.802 320.543 355.95 317.323 352.938 315.574L353.943 313.844ZM304.45 285.085L353.943 313.844L352.938 315.574L303.445 286.814L304.45 285.085ZM292.618 285.085C296.276 282.96 300.792 282.96 304.45 285.085L303.445 286.814C300.409 285.05 296.659 285.05 293.623 286.814L292.618 285.085ZM243.125 313.844L292.618 285.085L293.623 286.814L244.13 315.574L243.125 313.844ZM209.66 316.339L236.55 316.339V318.339L209.66 318.339V316.339ZM153.592 285.085L203.085 313.844L202.08 315.574L152.587 286.815L153.592 285.085ZM141.76 285.085C145.418 282.96 149.935 282.96 153.592 285.085L152.587 286.815C149.551 285.05 145.801 285.05 142.765 286.815L141.76 285.085ZM92.2671 313.844L141.76 285.085L142.765 286.815L93.2719 315.574L92.2671 313.844ZM86.4077 324.026C86.4077 319.831 88.6397 315.952 92.2671 313.844L93.2719 315.574C90.2606 317.323 88.4077 320.543 88.4077 324.026H86.4077ZM86.4077 381.664V324.026H88.4077V381.664H86.4077ZM92.267 391.846C88.6397 389.738 86.4077 385.86 86.4077 381.664H88.4077C88.4077 385.147 90.2606 388.367 93.2719 390.116L92.267 391.846ZM144.663 422.292L92.267 391.846L93.2719 390.116L145.668 420.563L144.663 422.292ZM209.66 318.339C206.79 318.339 204.235 316.825 202.08 315.574L203.085 313.844C205.345 315.157 207.425 316.339 209.66 316.339V318.339ZM244.13 315.574C241.976 316.825 239.42 318.339 236.55 318.339V316.339C238.785 316.339 240.865 315.157 243.125 313.844L244.13 315.574ZM258.772 409.958C261.824 405.365 267.925 403.943 272.693 406.714L271.688 408.443C267.835 406.204 262.904 407.353 260.438 411.065L258.772 409.958ZM198.479 420.535C199.465 419.954 200.45 419.292 201.473 418.607C202.486 417.927 203.536 417.226 204.612 416.598C206.759 415.346 209.114 414.324 211.735 414.324V416.324C209.638 416.324 207.651 417.141 205.619 418.326C204.606 418.917 203.607 419.584 202.586 420.268C201.575 420.946 200.54 421.642 199.495 422.258L198.479 420.535Z" fill="url(#paint2_angular_43331_39785)"/>
</g>
<path fill-rule="evenodd" clip-rule="evenodd" d="M207.493 344.293C207.103 343.902 206.469 343.902 206.079 344.293C205.688 344.683 205.688 345.317 206.079 345.707L245.676 385.305C246.067 385.695 246.7 385.695 247.091 385.305C247.481 384.914 247.481 384.281 247.091 383.89L239.56 376.359C241.825 374.254 243.623 372.166 244.808 370.678C244.848 370.628 244.887 370.578 244.927 370.529C245.57 369.724 246.167 368.979 246.167 367.928C246.167 366.878 245.57 366.132 244.927 365.327L244.859 365.242L244.808 365.179C243.074 363 240.026 359.538 236.122 356.613C232.228 353.696 227.385 351.241 222.084 351.241C219.833 351.241 217.664 351.683 215.616 352.416L207.493 344.293ZM217.199 353.998L220.751 357.551C221.188 357.495 221.633 357.467 222.085 357.467C227.861 357.467 232.543 362.149 232.543 367.925C232.543 368.377 232.515 368.822 232.459 369.259L238.145 374.944C240.337 372.913 242.087 370.885 243.243 369.432C244.078 368.383 244.167 368.199 244.167 367.928C244.167 367.657 244.078 367.473 243.243 366.424C241.565 364.316 238.638 360.998 234.922 358.214C231.196 355.423 226.774 353.241 222.084 353.241C220.415 353.241 218.78 353.517 217.199 353.998ZM230.522 367.322C230.227 363.131 226.879 359.783 222.688 359.488L230.522 367.322ZM233.558 380.994L232.103 379.539C229.041 381.361 225.639 382.615 222.084 382.615C217.393 382.615 212.971 380.434 209.245 377.642C205.529 374.859 202.602 371.54 200.924 369.432C200.089 368.383 200 368.199 200 367.928C200 367.657 200.089 367.473 200.924 366.424C202.602 364.316 205.529 360.998 209.245 358.214C209.537 357.995 209.833 357.78 210.134 357.57L208.699 356.135C208.478 356.293 208.261 356.452 208.046 356.613C204.141 359.538 201.094 363 199.359 365.179C199.32 365.228 199.28 365.277 199.241 365.326L199.241 365.327L199.24 365.327C198.597 366.132 198 366.878 198 367.928C198 368.979 198.597 369.724 199.24 370.529L199.241 370.529C199.28 370.578 199.319 370.628 199.359 370.678C201.094 372.856 204.141 376.318 208.046 379.243C211.94 382.16 216.782 384.615 222.084 384.615C226.277 384.615 230.182 383.08 233.558 380.994ZM215.361 362.793C214.273 364.216 213.627 365.995 213.627 367.925C213.627 372.596 217.414 376.383 222.085 376.383C224.015 376.383 225.794 375.737 227.217 374.649L228.641 376.073C226.848 377.518 224.568 378.383 222.085 378.383C216.309 378.383 211.627 373.701 211.627 367.925C211.627 365.443 212.492 363.162 213.937 361.369L215.361 362.793Z" fill="url(#paint3_linear_43331_39785)"/>
<path opacity="0.9" fill-rule="evenodd" clip-rule="evenodd" d="M222.194 90.5961C222.694 90.7767 223.231 90.7767 223.731 90.5961C227.247 89.3272 241.621 83.3033 241.621 69.6335C241.621 54.0567 242.297 52.8407 240.801 51.3426C239.303 49.8445 225.409 45 222.963 45C220.516 45 206.622 49.8445 205.127 51.3426C203.628 52.8407 204.305 54.0567 204.305 69.6335C204.305 83.3033 218.678 89.3272 222.194 90.5961Z" stroke="url(#paint4_linear_43331_39785)" stroke-width="2"/>
<path d="M216.266 68.3312L220.867 72.9398L230.347 63.4551" stroke="white" stroke-width="2" stroke-linecap="round" stroke-linejoin="round"/>
<path fill-rule="evenodd" clip-rule="evenodd" d="M66.5513 204.521C66.5513 199.815 70.3664 196 75.0726 196C79.7789 196 83.594 199.815 83.594 204.521V210.376H66.5513V204.521ZM64.5513 210.376V204.521C64.5513 198.711 69.2618 194 75.0726 194C80.8834 194 85.594 198.711 85.594 204.521V210.376H86.8886C89.6119 210.376 91.8196 212.584 91.8196 215.307V231.778C91.8196 234.501 89.6119 236.709 86.8886 236.709H62.9311C60.2077 236.709 58 234.501 58 231.778V215.307C58 212.584 60.2077 210.376 62.9311 210.376H64.5513ZM60 215.307C60 213.688 61.3123 212.376 62.9311 212.376H86.8886C88.5074 212.376 89.8197 213.688 89.8197 215.307V231.778C89.8197 233.397 88.5074 234.709 86.8886 234.709H62.9311C61.3123 234.709 60 233.397 60 231.778V215.307ZM75.9137 224.475C77.2924 224.049 78.2939 222.764 78.2939 221.246C78.2939 219.379 76.7805 217.865 74.9136 217.865C73.0466 217.865 71.5332 219.379 71.5332 221.246C71.5332 222.764 72.5349 224.049 73.9137 224.476V228.379C73.9137 228.931 74.3615 229.379 74.9137 229.379C75.466 229.379 75.9137 228.931 75.9137 228.379V224.475ZM74.9137 222.618C74.9459 222.618 74.9777 222.62 75.0091 222.623C75.7269 222.574 76.2939 221.976 76.2939 221.246C76.2939 220.483 75.6759 219.865 74.9136 219.865C74.1512 219.865 73.5332 220.483 73.5332 221.246C73.5332 221.976 74.1003 222.574 74.8182 222.623C74.8496 222.62 74.8815 222.618 74.9137 222.618Z" fill="url(#paint5_linear_43331_39785)"/>
<g filter="url(#filter2_d_43331_39785)">
<path d="M365.612 157.977C368.637 156.23 372.363 156.23 375.388 157.977L421.337 184.505C424.361 186.252 426.225 189.479 426.225 192.971V246.029C426.225 249.521 424.361 252.748 421.337 254.495L375.388 281.023C372.363 282.77 368.637 282.77 365.612 281.023L319.663 254.495C316.639 252.748 314.775 249.521 314.775 246.029V192.971C314.775 189.479 316.639 186.252 319.663 184.505L365.612 157.977Z" stroke="url(#paint6_linear_43331_39785)" stroke-width="2" shape-rendering="crispEdges"/>
<path d="M365.612 157.977C368.637 156.23 372.363 156.23 375.388 157.977L421.337 184.505C424.361 186.252 426.225 189.479 426.225 192.971V246.029C426.225 249.521 424.361 252.748 421.337 254.495L375.388 281.023C372.363 282.77 368.637 282.77 365.612 281.023L319.663 254.495C316.639 252.748 314.775 249.521 314.775 246.029V192.971C314.775 189.479 316.639 186.252 319.663 184.505L365.612 157.977Z" stroke="#02C5F4" stroke-width="2" shape-rendering="crispEdges"/>
</g>
<g filter="url(#filter3_d_43331_39785)">
<path d="M80.3878 157.977C77.3632 156.23 73.6368 156.23 70.6122 157.977L24.6631 184.505C21.6385 186.252 19.7753 189.479 19.7753 192.971V246.029C19.7753 249.521 21.6385 252.748 24.6631 254.495L70.6122 281.023C73.6368 282.77 77.3632 282.77 80.3878 281.023L126.337 254.495C129.361 252.748 131.225 249.521 131.225 246.029V192.971C131.225 189.479 129.361 186.252 126.337 184.505L80.3878 157.977Z" stroke="url(#paint7_linear_43331_39785)" stroke-width="2" shape-rendering="crispEdges"/>
<path d="M80.3878 157.977C77.3632 156.23 73.6368 156.23 70.6122 157.977L24.6631 184.505C21.6385 186.252 19.7753 189.479 19.7753 192.971V246.029C19.7753 249.521 21.6385 252.748 24.6631 254.495L70.6122 281.023C73.6368 282.77 77.3632 282.77 80.3878 281.023L126.337 254.495C129.361 252.748 131.225 249.521 131.225 246.029V192.971C131.225 189.479 129.361 186.252 126.337 184.505L80.3878 157.977Z" stroke="#02C5F4" stroke-width="2" shape-rendering="crispEdges"/>
</g>
<path d="M376.023 237.572C376.023 237.572 373.389 234.92 372.554 233.322C371.719 231.724 370.53 229.288 370.09 227.072L369.953 226.391C369.713 225.181 369.593 223.951 369.593 222.717V218.723M390.51 225.195C389.193 223.869 388.186 222.132 388.186 218.723C388.186 214.652 386.894 210.88 384.7 207.808M382.608 230.5C379.535 227.406 378.89 221.679 378.89 218.723C378.893 216.363 378.01 214.088 376.417 212.356C374.825 210.623 372.642 209.56 370.304 209.379C367.966 209.199 365.647 209.914 363.811 211.382C361.975 212.85 360.758 214.963 360.403 217.296M352.162 231.593C351 226.913 351 222.233 351 218.723C350.999 215.437 351.858 212.209 353.489 209.362C355.121 206.516 357.468 204.152 360.295 202.509C363.121 200.865 366.328 200 369.592 200C372.856 200 376.063 200.865 378.89 202.508M360.403 225.743C360.808 229.002 361.951 233.186 364.945 238.612" stroke="url(#paint8_linear_43331_39785)" stroke-width="2" stroke-linecap="round" stroke-linejoin="round"/>
<g filter="url(#filter4_d_43331_39785)">
<path d="M213 147.774C219.188 144.201 226.812 144.201 233 147.774L279.684 174.726C285.872 178.299 289.684 184.902 289.684 192.047V245.953C289.684 253.098 285.872 259.701 279.684 263.273L233 290.227C226.812 293.799 219.188 293.799 213 290.227L166.316 263.274C160.128 259.701 156.316 253.098 156.316 245.953V192.047C156.316 184.902 160.128 178.299 166.316 174.726L213 147.774Z" fill="white"/>
</g>
<path d="M217.16 173.527C220.873 171.383 225.447 171.383 229.16 173.527L259.68 191.147C263.393 193.291 265.68 197.252 265.68 201.54V236.781C265.68 241.068 263.393 245.029 259.68 247.173L229.16 264.794C225.447 266.937 220.873 266.937 217.16 264.794L186.64 247.173C182.928 245.029 180.64 241.068 180.64 236.781V201.54C180.64 197.252 182.928 193.291 186.64 191.147L217.16 173.527Z" fill="url(#paint9_radial_43331_39785)"/>
<path d="M217.16 173.527C220.873 171.383 225.447 171.383 229.16 173.527L259.68 191.147C263.393 193.291 265.68 197.252 265.68 201.54V236.781C265.68 241.068 263.393 245.029 259.68 247.173L229.16 264.794C225.447 266.937 220.873 266.937 217.16 264.794L186.64 247.173C182.928 245.029 180.64 241.068 180.64 236.781V201.54C180.64 197.252 182.928 193.291 186.64 191.147L217.16 173.527Z" fill="#14E0FF"/>
<path d="M217.16 173.527C220.873 171.383 225.447 171.383 229.16 173.527L259.68 191.147C263.393 193.291 265.68 197.252 265.68 201.54V236.781C265.68 241.068 263.393 245.029 259.68 247.173L229.16 264.794C225.447 266.937 220.873 266.937 217.16 264.794L186.64 247.173C182.928 245.029 180.64 241.068 180.64 236.781V201.54C180.64 197.252 182.928 193.291 186.64 191.147L217.16 173.527Z" fill="url(#paint10_linear_43331_39785)"/>
<path d="M240.49 224.953C240.49 224.953 240.49 222.064 240.49 229.196C240.49 240.718 222.082 246.775 222.082 246.775C222.082 246.775 203.673 240.718 203.673 229.086C203.673 221.953 203.673 224.952 203.673 224.952" stroke="#353258" stroke-width="2"/>
<path d="M198.286 209.062C198.286 208.07 199.09 207.266 200.082 207.266H222.082H244.082C245.073 207.266 245.878 208.07 245.878 209.062V220.735C245.878 221.727 245.073 222.531 244.082 222.531H227.508C226.851 222.531 226.216 222.291 225.724 221.855L222.676 219.161C222.337 218.861 221.826 218.861 221.487 219.161L218.439 221.855C217.947 222.291 217.312 222.531 216.655 222.531H200.082C199.09 222.531 198.286 221.727 198.286 220.735V209.062Z" fill="#353258"/>
<path d="M240.49 205.469V203.59C240.49 202.082 239.55 200.735 238.128 200.234C233.764 198.695 224.649 195.592 222.082 195.592C219.515 195.592 210.4 198.695 206.036 200.234C204.614 200.735 203.674 202.082 203.674 203.59L203.674 205.469" stroke="#353258" stroke-width="2"/>
<path d="M221.071 233.307L217.143 232.247V230.613L222.081 230.855L227.021 230.613V232.247L223.091 233.307H221.071Z" fill="#353258"/>
<defs>
<filter id="filter0_d_43331_39785" x="68.4485" y="0.632628" width="309.313" height="176.315" filterUnits="userSpaceOnUse" color-interpolation-filters="sRGB">
<feFlood flood-opacity="0" result="BackgroundImageFix"/>
<feColorMatrix in="SourceAlpha" type="matrix" values="0 0 0 0 0 0 0 0 0 0 0 0 0 0 0 0 0 0 127 0" result="hardAlpha"/>
<feOffset dy="3.59184"/>
<feGaussianBlur stdDeviation="8.97961"/>
<feComposite in2="hardAlpha" operator="out"/>
<feColorMatrix type="matrix" values="0 0 0 0 0 0 0 0 0 0.577115 0 0 0 0 1 0 0 0 0.3 0"/>
<feBlend mode="normal" in2="BackgroundImageFix" result="effect1_dropShadow_43331_39785"/>
<feBlend mode="normal" in="SourceGraphic" in2="effect1_dropShadow_43331_39785" result="shape"/>
</filter>
<filter id="filter1_d_43331_39785" x="68.4485" y="269.123" width="309.313" height="176.315" filterUnits="userSpaceOnUse" color-interpolation-filters="sRGB">
<feFlood flood-opacity="0" result="BackgroundImageFix"/>
<feColorMatrix in="SourceAlpha" type="matrix" values="0 0 0 0 0 0 0 0 0 0 0 0 0 0 0 0 0 0 127 0" result="hardAlpha"/>
<feOffset dy="3.59184"/>
<feGaussianBlur stdDeviation="8.97961"/>
<feComposite in2="hardAlpha" operator="out"/>
<feColorMatrix type="matrix" values="0 0 0 0 0 0 0 0 0 0.577115 0 0 0 0 1 0 0 0 0.3 0"/>
<feBlend mode="normal" in2="BackgroundImageFix" result="effect1_dropShadow_43331_39785"/>
<feBlend mode="normal" in="SourceGraphic" in2="effect1_dropShadow_43331_39785" result="shape"/>
</filter>
<filter id="filter2_d_43331_39785" x="295.816" y="141.299" width="149.368" height="163.586" filterUnits="userSpaceOnUse" color-interpolation-filters="sRGB">
<feFlood flood-opacity="0" result="BackgroundImageFix"/>
<feColorMatrix in="SourceAlpha" type="matrix" values="0 0 0 0 0 0 0 0 0 0 0 0 0 0 0 0 0 0 127 0" result="hardAlpha"/>
<feOffset dy="3.59184"/>
<feGaussianBlur stdDeviation="8.97961"/>
<feComposite in2="hardAlpha" operator="out"/>
<feColorMatrix type="matrix" values="0 0 0 0 0 0 0 0 0 0.577115 0 0 0 0 1 0 0 0 0.3 0"/>
<feBlend mode="normal" in2="BackgroundImageFix" result="effect1_dropShadow_43331_39785"/>
<feBlend mode="normal" in="SourceGraphic" in2="effect1_dropShadow_43331_39785" result="shape"/>
</filter>
<filter id="filter3_d_43331_39785" x="0.816175" y="141.299" width="149.368" height="163.586" filterUnits="userSpaceOnUse" color-interpolation-filters="sRGB">
<feFlood flood-opacity="0" result="BackgroundImageFix"/>
<feColorMatrix in="SourceAlpha" type="matrix" values="0 0 0 0 0 0 0 0 0 0 0 0 0 0 0 0 0 0 127 0" result="hardAlpha"/>
<feOffset dy="3.59184"/>
<feGaussianBlur stdDeviation="8.97961"/>
<feComposite in2="hardAlpha" operator="out"/>
<feColorMatrix type="matrix" values="0 0 0 0 0 0 0 0 0 0.577115 0 0 0 0 1 0 0 0 0.3 0"/>
<feBlend mode="normal" in2="BackgroundImageFix" result="effect1_dropShadow_43331_39785"/>
<feBlend mode="normal" in="SourceGraphic" in2="effect1_dropShadow_43331_39785" result="shape"/>
</filter>
<filter id="filter4_d_43331_39785" x="136.316" y="129.094" width="173.368" height="187.812" filterUnits="userSpaceOnUse" color-interpolation-filters="sRGB">
<feFlood flood-opacity="0" result="BackgroundImageFix"/>
<feColorMatrix in="SourceAlpha" type="matrix" values="0 0 0 0 0 0 0 0 0 0 0 0 0 0 0 0 0 0 127 0" result="hardAlpha"/>
<feOffset dy="4"/>
<feGaussianBlur stdDeviation="10"/>
<feComposite in2="hardAlpha" operator="out"/>
<feColorMatrix type="matrix" values="0 0 0 0 0 0 0 0 0 0.577115 0 0 0 0 1 0 0 0 0.3 0"/>
<feBlend mode="normal" in2="BackgroundImageFix" result="effect1_dropShadow_43331_39785"/>
<feBlend mode="normal" in="SourceGraphic" in2="effect1_dropShadow_43331_39785" result="shape"/>
</filter>
<linearGradient id="paint0_linear_43331_39785" x1="138.683" y1="141.972" x2="163.394" y2="-1.09163" gradientUnits="userSpaceOnUse">
<stop offset="0.137282" stop-color="#00D1FF"/>
<stop offset="0.852408" stop-color="#00D1FF" stop-opacity="0"/>
</linearGradient>
<linearGradient id="paint1_linear_43331_39785" x1="148.567" y1="303.009" x2="189.773" y2="413.376" gradientUnits="userSpaceOnUse">
<stop stop-color="#00D1FF"/>
<stop offset="1" stop-color="#00D1FF" stop-opacity="0"/>
</linearGradient>
<radialGradient id="paint2_angular_43331_39785" cx="0" cy="0" r="1" gradientUnits="userSpaceOnUse" gradientTransform="translate(222.23 353.689) rotate(75.8003) scale(71.3786 134.313)">
<stop stop-color="#FF00A8" stop-opacity="0"/>
<stop offset="0.266113" stop-color="#00D1FF" stop-opacity="0"/>
<stop offset="0.3125" stop-color="#F905AA" stop-opacity="0.974701"/>
<stop offset="0.707124" stop-color="#00D1FF" stop-opacity="0.99995"/>
<stop offset="0.708227" stop-color="#00D1FF"/>
<stop offset="0.837016" stop-color="#00D1FF" stop-opacity="0"/>
</radialGradient>
<linearGradient id="paint3_linear_43331_39785" x1="235.419" y1="391.877" x2="213.479" y2="350.604" gradientUnits="userSpaceOnUse">
<stop stop-color="#04ADDF"/>
<stop offset="1" stop-color="#CE27B8"/>
</linearGradient>
<linearGradient id="paint4_linear_43331_39785" x1="212.224" y1="75.129" x2="245.037" y2="58.4907" gradientUnits="userSpaceOnUse">
<stop stop-color="white"/>
<stop offset="1" stop-color="#9CC3FF"/>
</linearGradient>
<linearGradient id="paint5_linear_43331_39785" x1="88.2643" y1="232.347" x2="53.9512" y2="215.621" gradientUnits="userSpaceOnUse">
<stop stop-color="white"/>
<stop offset="1" stop-color="#A6C9FF"/>
</linearGradient>
<linearGradient id="paint6_linear_43331_39785" x1="311.458" y1="236.106" x2="393.563" y2="233.799" gradientUnits="userSpaceOnUse">
<stop stop-color="#00D1FF"/>
<stop offset="1" stop-color="#00D1FF" stop-opacity="0"/>
</linearGradient>
<linearGradient id="paint7_linear_43331_39785" x1="137.31" y1="213.965" x2="62.5845" y2="213.965" gradientUnits="userSpaceOnUse">
<stop stop-color="#00D1FF"/>
<stop offset="1" stop-color="#00D1FF" stop-opacity="0"/>
</linearGradient>
<linearGradient id="paint8_linear_43331_39785" x1="369.273" y1="213.032" x2="374.157" y2="239.981" gradientUnits="userSpaceOnUse">
<stop stop-color="white"/>
<stop offset="1" stop-color="#9CC3FF"/>
</linearGradient>
<radialGradient id="paint9_radial_43331_39785" cx="0" cy="0" r="1" gradientUnits="userSpaceOnUse" gradientTransform="translate(204.161 256.657) rotate(-56.0954) scale(112.05 179281)">
<stop stop-color="#3AF5EA"/>
<stop offset="0.453125" stop-color="#18B6F9"/>
<stop offset="1" stop-color="#985DF6"/>
</radialGradient>
<linearGradient id="paint10_linear_43331_39785" x1="193.703" y1="268.258" x2="223.49" y2="175.419" gradientUnits="userSpaceOnUse">
<stop stop-color="#00F1FF"/>
<stop offset="0.583333" stop-color="#9274FF"/>
<stop offset="1" stop-color="#FA1BFF"/>
</linearGradient>
</defs>
</svg>
