<svg width="420" height="416" viewBox="0 0 420 416" fill="none" xmlns="http://www.w3.org/2000/svg">
<path d="M200.5 57.5H131C119.954 57.5 111 66.4543 111 77.5V87.5C111 98.5457 102.046 107.5 91 107.5H52C40.9543 107.5 32 116.454 32 127.5L32 186.5C32 197.546 40.9543 206.5 52 206.5H75C86.0457 206.5 95 197.546 95 186.5V184C95 172.954 103.954 164 115 164H168.5" stroke="#2DCAFF" stroke-width="2"/>
<path d="M360 265.5H342C330.954 265.5 322 256.546 322 245.5V190C322 178.954 330.954 170 342 170H367.5C378.546 170 387.5 161.046 387.5 150V84.5C387.5 73.4543 378.546 64.5 367.5 64.5L306 64.5C294.954 64.5 286 73.4543 286 84.5V109.5" stroke="#2DCAFF" stroke-width="2"/>
<path d="M195 233V288C195 299.046 186.046 308 175 308H142C130.954 308 122 299.046 122 288V275.5C122 264.454 113.046 255.5 102 255.5H44C32.9543 255.5 24 264.454 24 275.5V304.299C24 315.519 33.2287 324.544 44.4463 324.294L59.5537 323.956C70.7713 323.706 80 332.731 80 343.951V346C80 357.046 88.9543 366 100 366H171.5" stroke="#2DCAFF" stroke-width="2"/>
<circle cx="73" cy="256" r="12" fill="#314B76"/>
<path opacity="0.9" d="M72.2612 250.406C72.5904 249.865 73.4068 249.865 73.7359 250.406L75.2921 252.964C75.4126 253.162 75.6147 253.302 75.8488 253.351L78.8706 253.978C79.5098 254.11 79.7621 254.853 79.3263 255.32L77.2663 257.528C77.1066 257.699 77.0295 257.926 77.0536 258.154L77.3651 261.1C77.4309 261.722 76.7705 262.182 76.172 261.929L73.3427 260.736C73.1234 260.643 72.8737 260.643 72.6545 260.736L69.8252 261.929C69.2267 262.182 68.5662 261.722 68.6321 261.1L68.9436 258.154C68.9677 257.926 68.8905 257.699 68.7309 257.528L66.6708 255.32C66.2351 254.853 66.4874 254.11 67.1265 253.978L70.1483 253.351C70.3825 253.302 70.5845 253.162 70.7051 252.964L72.2612 250.406Z" fill="white"/>
<circle cx="32" cy="156" r="12" fill="#314B76"/>
<path opacity="0.9" d="M31.2612 150.406C31.5904 149.865 32.4068 149.865 32.7359 150.406L34.2921 152.964C34.4126 153.162 34.6147 153.302 34.8488 153.351L37.8706 153.978C38.5098 154.11 38.7621 154.853 38.3263 155.32L36.2663 157.528C36.1066 157.699 36.0295 157.926 36.0536 158.154L36.3651 161.1C36.4309 161.722 35.7705 162.182 35.172 161.929L32.3427 160.736C32.1234 160.643 31.8737 160.643 31.6545 160.736L28.8252 161.929C28.2267 162.182 27.5662 161.722 27.6321 161.1L27.9436 158.154C27.9677 157.926 27.8905 157.699 27.7309 157.528L25.6708 155.32C25.2351 154.853 25.4874 154.11 26.1265 153.978L29.1483 153.351C29.3825 153.302 29.5845 153.162 29.7051 152.964L31.2612 150.406Z" fill="white"/>
<g filter="url(#filter0_d_43327_42832)">
<circle cx="205" cy="205" r="85" fill="white"/>
</g>
<path d="M248.636 248.636C257.267 240.006 263.144 229.01 265.525 217.039C267.906 205.068 266.684 192.66 262.013 181.384C257.343 170.108 249.433 160.47 239.285 153.689C229.136 146.908 217.205 143.289 205 143.289L205 205L248.636 248.636Z" fill="#353258"/>
<path d="M248.636 248.636C257.267 240.006 263.144 229.01 265.525 217.039C267.906 205.068 266.684 192.66 262.013 181.384C257.343 170.108 249.433 160.47 239.285 153.689C229.136 146.908 217.205 143.289 205 143.289L205 205L248.636 248.636Z" fill="url(#paint0_linear_43327_42832)"/>
<path d="M248.636 248.636C240.006 257.267 229.01 263.144 217.039 265.525C205.068 267.906 192.66 266.684 181.384 262.013C170.108 257.343 160.47 249.433 153.689 239.285C146.908 229.136 143.289 217.205 143.289 205L205 205L248.636 248.636Z" fill="#353258"/>
<path d="M205 143.289C196.896 143.289 188.871 144.885 181.384 147.987C173.897 151.088 167.094 155.633 161.364 161.364C155.633 167.094 151.088 173.897 147.987 181.384C144.885 188.871 143.289 196.896 143.289 205L205 205V143.289Z" fill="#314B76"/>
<g filter="url(#filter1_d_43327_42832)">
<circle cx="179" cy="58" r="26" fill="white"/>
</g>
<circle cx="179" cy="58" r="20" fill="white"/>
<circle cx="179" cy="58" r="20" fill="url(#paint1_linear_43327_42832)"/>
<circle cx="179" cy="58" r="20" fill="url(#paint2_linear_43327_42832)"/>
<path d="M179 79C172.75 79 167.225 75.7549 164 70.8873C166.647 65.1538 174.588 63.0282 179 63.0282C184 63.0282 190.471 65.1538 194 70.8873C192.347 73.383 190.115 75.4283 187.499 76.843C184.883 78.2577 181.965 78.9984 179 79ZM179 43C180.989 43 182.897 43.8013 184.303 45.2276C185.71 46.654 186.5 48.5885 186.5 50.6056C186.5 52.6228 185.71 54.5573 184.303 55.9836C182.897 57.41 180.989 58.2113 179 58.2113C177.011 58.2113 175.103 57.41 173.697 55.9836C172.29 54.5573 171.5 52.6228 171.5 50.6056C171.5 48.5885 172.29 46.654 173.697 45.2276C175.103 43.8013 177.011 43 179 43Z" fill="url(#paint3_linear_43327_42832)"/>
<g filter="url(#filter2_d_43327_42832)">
<circle cx="374" cy="266" r="26" fill="white"/>
</g>
<circle cx="374" cy="266" r="20" fill="white"/>
<circle cx="374" cy="266" r="20" fill="url(#paint4_linear_43327_42832)"/>
<circle cx="374" cy="266" r="20" fill="url(#paint5_linear_43327_42832)"/>
<circle cx="374" cy="266" r="20" fill="url(#paint6_linear_43327_42832)"/>
<path d="M374 287C367.75 287 362.225 283.755 359 278.887C361.647 273.154 369.588 271.028 374 271.028C379 271.028 385.471 273.154 389 278.887C387.347 281.383 385.115 283.428 382.499 284.843C379.883 286.258 376.965 286.998 374 287ZM374 251C375.989 251 377.897 251.801 379.303 253.228C380.71 254.654 381.5 256.588 381.5 258.606C381.5 260.623 380.71 262.557 379.303 263.984C377.897 265.41 375.989 266.211 374 266.211C372.011 266.211 370.103 265.41 368.697 263.984C367.29 262.557 366.5 260.623 366.5 258.606C366.5 256.588 367.29 254.654 368.697 253.228C370.103 251.801 372.011 251 374 251Z" fill="url(#paint7_linear_43327_42832)"/>
<g filter="url(#filter3_d_43327_42832)">
<circle cx="172" cy="366" r="26" fill="white"/>
</g>
<circle cx="172" cy="366" r="20" fill="white"/>
<circle cx="172" cy="366" r="20" fill="url(#paint8_linear_43327_42832)"/>
<circle cx="172" cy="366" r="20" fill="url(#paint9_linear_43327_42832)"/>
<circle cx="172" cy="366" r="20" fill="url(#paint10_linear_43327_42832)"/>
<path d="M172 387C165.75 387 160.225 383.755 157 378.887C159.647 373.154 167.588 371.028 172 371.028C177 371.028 183.471 373.154 187 378.887C185.347 381.383 183.115 383.428 180.499 384.843C177.883 386.258 174.965 386.998 172 387ZM172 351C173.989 351 175.897 351.801 177.303 353.228C178.71 354.654 179.5 356.588 179.5 358.606C179.5 360.623 178.71 362.557 177.303 363.984C175.897 365.41 173.989 366.211 172 366.211C170.011 366.211 168.103 365.41 166.697 363.984C165.29 362.557 164.5 360.623 164.5 358.606C164.5 356.588 165.29 354.654 166.697 353.228C168.103 351.801 170.011 351 172 351Z" fill="url(#paint11_linear_43327_42832)"/>
<circle cx="286" cy="111" r="15" fill="#2E5785"/>
<circle cx="286" cy="111" r="7" fill="white"/>
<path d="M338 64.5L306 64.5C294.954 64.5 286 73.4543 286 84.5V109.5" stroke="url(#paint12_linear_43327_42832)" stroke-width="2"/>
<path d="M338 64.5L306 64.5C294.954 64.5 286 73.4543 286 84.5V109.5" stroke="url(#paint13_linear_43327_42832)" stroke-width="2"/>
<defs>
<filter id="filter0_d_43327_42832" x="100" y="104" width="210" height="210" filterUnits="userSpaceOnUse" color-interpolation-filters="sRGB">
<feFlood flood-opacity="0" result="BackgroundImageFix"/>
<feColorMatrix in="SourceAlpha" type="matrix" values="0 0 0 0 0 0 0 0 0 0 0 0 0 0 0 0 0 0 127 0" result="hardAlpha"/>
<feOffset dy="4"/>
<feGaussianBlur stdDeviation="10"/>
<feComposite in2="hardAlpha" operator="out"/>
<feColorMatrix type="matrix" values="0 0 0 0 0 0 0 0 0 0.577115 0 0 0 0 1 0 0 0 0.3 0"/>
<feBlend mode="normal" in2="BackgroundImageFix" result="effect1_dropShadow_43327_42832"/>
<feBlend mode="normal" in="SourceGraphic" in2="effect1_dropShadow_43327_42832" result="shape"/>
</filter>
<filter id="filter1_d_43327_42832" x="133" y="16" width="92" height="92" filterUnits="userSpaceOnUse" color-interpolation-filters="sRGB">
<feFlood flood-opacity="0" result="BackgroundImageFix"/>
<feColorMatrix in="SourceAlpha" type="matrix" values="0 0 0 0 0 0 0 0 0 0 0 0 0 0 0 0 0 0 127 0" result="hardAlpha"/>
<feOffset dy="4"/>
<feGaussianBlur stdDeviation="10"/>
<feComposite in2="hardAlpha" operator="out"/>
<feColorMatrix type="matrix" values="0 0 0 0 0 0 0 0 0 0.577115 0 0 0 0 1 0 0 0 0.3 0"/>
<feBlend mode="normal" in2="BackgroundImageFix" result="effect1_dropShadow_43327_42832"/>
<feBlend mode="normal" in="SourceGraphic" in2="effect1_dropShadow_43327_42832" result="shape"/>
</filter>
<filter id="filter2_d_43327_42832" x="328" y="224" width="92" height="92" filterUnits="userSpaceOnUse" color-interpolation-filters="sRGB">
<feFlood flood-opacity="0" result="BackgroundImageFix"/>
<feColorMatrix in="SourceAlpha" type="matrix" values="0 0 0 0 0 0 0 0 0 0 0 0 0 0 0 0 0 0 127 0" result="hardAlpha"/>
<feOffset dy="4"/>
<feGaussianBlur stdDeviation="10"/>
<feComposite in2="hardAlpha" operator="out"/>
<feColorMatrix type="matrix" values="0 0 0 0 0 0 0 0 0 0.577115 0 0 0 0 1 0 0 0 0.3 0"/>
<feBlend mode="normal" in2="BackgroundImageFix" result="effect1_dropShadow_43327_42832"/>
<feBlend mode="normal" in="SourceGraphic" in2="effect1_dropShadow_43327_42832" result="shape"/>
</filter>
<filter id="filter3_d_43327_42832" x="126" y="324" width="92" height="92" filterUnits="userSpaceOnUse" color-interpolation-filters="sRGB">
<feFlood flood-opacity="0" result="BackgroundImageFix"/>
<feColorMatrix in="SourceAlpha" type="matrix" values="0 0 0 0 0 0 0 0 0 0 0 0 0 0 0 0 0 0 127 0" result="hardAlpha"/>
<feOffset dy="4"/>
<feGaussianBlur stdDeviation="10"/>
<feComposite in2="hardAlpha" operator="out"/>
<feColorMatrix type="matrix" values="0 0 0 0 0 0 0 0 0 0.577115 0 0 0 0 1 0 0 0 0.3 0"/>
<feBlend mode="normal" in2="BackgroundImageFix" result="effect1_dropShadow_43327_42832"/>
<feBlend mode="normal" in="SourceGraphic" in2="effect1_dropShadow_43327_42832" result="shape"/>
</filter>
<linearGradient id="paint0_linear_43327_42832" x1="171.057" y1="182.083" x2="277.32" y2="223.194" gradientUnits="userSpaceOnUse">
<stop stop-color="#2DCAFF"/>
<stop offset="0.583333" stop-color="#9274FF"/>
<stop offset="1" stop-color="#FA1BFF"/>
</linearGradient>
<linearGradient id="paint1_linear_43327_42832" x1="199" y1="58" x2="165.364" y2="58" gradientUnits="userSpaceOnUse">
<stop stop-color="#3A82F5"/>
<stop offset="1" stop-color="#1BC3F4"/>
</linearGradient>
<linearGradient id="paint2_linear_43327_42832" x1="166.277" y1="78.0027" x2="195.789" y2="35.3926" gradientUnits="userSpaceOnUse">
<stop stop-color="#2DCAFF"/>
<stop offset="0.583333" stop-color="#9274FF"/>
<stop offset="1" stop-color="#FA1BFF"/>
</linearGradient>
<linearGradient id="paint3_linear_43327_42832" x1="186.5" y1="52.6923" x2="173.642" y2="82.2811" gradientUnits="userSpaceOnUse">
<stop stop-color="white"/>
<stop offset="0.558208" stop-color="white" stop-opacity="0.441792"/>
<stop offset="1" stop-color="white" stop-opacity="0"/>
</linearGradient>
<linearGradient id="paint4_linear_43327_42832" x1="394" y1="266" x2="360.364" y2="266" gradientUnits="userSpaceOnUse">
<stop stop-color="#3A82F5"/>
<stop offset="1" stop-color="#1BC3F4"/>
</linearGradient>
<linearGradient id="paint5_linear_43327_42832" x1="361.277" y1="286.003" x2="390.789" y2="243.393" gradientUnits="userSpaceOnUse">
<stop stop-color="#00F1FF"/>
<stop offset="0.583333" stop-color="#9274FF"/>
<stop offset="1" stop-color="#FA1BFF"/>
</linearGradient>
<linearGradient id="paint6_linear_43327_42832" x1="361.277" y1="286.003" x2="390.789" y2="243.393" gradientUnits="userSpaceOnUse">
<stop stop-color="#2DCAFF"/>
<stop offset="0.583333" stop-color="#9274FF"/>
<stop offset="1" stop-color="#FA1BFF"/>
</linearGradient>
<linearGradient id="paint7_linear_43327_42832" x1="381.5" y1="260.692" x2="368.642" y2="290.281" gradientUnits="userSpaceOnUse">
<stop stop-color="white"/>
<stop offset="0.558208" stop-color="white" stop-opacity="0.441792"/>
<stop offset="1" stop-color="white" stop-opacity="0"/>
</linearGradient>
<linearGradient id="paint8_linear_43327_42832" x1="192" y1="366" x2="158.364" y2="366" gradientUnits="userSpaceOnUse">
<stop stop-color="#3A82F5"/>
<stop offset="1" stop-color="#1BC3F4"/>
</linearGradient>
<linearGradient id="paint9_linear_43327_42832" x1="159.277" y1="386.003" x2="188.789" y2="343.393" gradientUnits="userSpaceOnUse">
<stop stop-color="#00F1FF"/>
<stop offset="0.583333" stop-color="#9274FF"/>
<stop offset="1" stop-color="#FA1BFF"/>
</linearGradient>
<linearGradient id="paint10_linear_43327_42832" x1="159.277" y1="386.003" x2="188.789" y2="343.393" gradientUnits="userSpaceOnUse">
<stop stop-color="#2DCAFF"/>
<stop offset="0.583333" stop-color="#9274FF"/>
<stop offset="1" stop-color="#FA1BFF"/>
</linearGradient>
<linearGradient id="paint11_linear_43327_42832" x1="179.5" y1="360.692" x2="166.642" y2="390.281" gradientUnits="userSpaceOnUse">
<stop stop-color="white"/>
<stop offset="0.558208" stop-color="white" stop-opacity="0.441792"/>
<stop offset="1" stop-color="white" stop-opacity="0"/>
</linearGradient>
<linearGradient id="paint12_linear_43327_42832" x1="311" y1="156" x2="353" y2="261.5" gradientUnits="userSpaceOnUse">
<stop stop-color="#415764"/>
<stop offset="1" stop-color="#415764" stop-opacity="0"/>
</linearGradient>
<linearGradient id="paint13_linear_43327_42832" x1="353" y1="92" x2="309.112" y2="125.568" gradientUnits="userSpaceOnUse">
<stop stop-color="#2DCAFF"/>
<stop offset="1" stop-color="white"/>
</linearGradient>
</defs>
</svg>
