<svg width="410" height="410" viewBox="0 0 410 410" fill="none" xmlns="http://www.w3.org/2000/svg">
<path d="M285 147.5V164H253" stroke="url(#paint0_linear_43327_43592)" stroke-width="2" stroke-linejoin="round"/>
<path d="M240 108.32L220 108.32L220 141.32" stroke="url(#paint1_linear_43327_43592)" stroke-width="2" stroke-linejoin="round"/>
<path d="M204.996 87L204.996 105.318L204.996 137" stroke="url(#paint2_linear_43327_43592)" stroke-width="2" stroke-linejoin="round"/>
<path d="M170 108.32L190 108.32L190 141.32" stroke="url(#paint3_linear_43327_43592)" stroke-width="2" stroke-linejoin="round"/>
<path d="M170 286L190 286L190 253" stroke="url(#paint4_linear_43327_43592)" stroke-width="2" stroke-linejoin="round"/>
<path d="M205.004 308.32L205.004 285.002L205.004 253.32" stroke="url(#paint5_linear_43327_43592)" stroke-width="2" stroke-linejoin="round"/>
<path d="M240 286L220 286L220 253" stroke="url(#paint6_linear_43327_43592)" stroke-width="2" stroke-linejoin="round"/>
<path d="M308 183H260" stroke="url(#paint7_linear_43327_43592)" stroke-width="2"/>
<path d="M308 203H260" stroke="url(#paint8_linear_43327_43592)" stroke-width="2"/>
<path d="M286.5 235V222H256" stroke="url(#paint9_linear_43327_43592)" stroke-width="2" stroke-linecap="square" stroke-linejoin="round"/>
<path d="M126 147.5V164H155" stroke="url(#paint10_linear_43327_43592)" stroke-width="2" stroke-linejoin="round"/>
<path d="M103 183H151" stroke="url(#paint11_linear_43327_43592)" stroke-width="2"/>
<path d="M103 203H151" stroke="url(#paint12_linear_43327_43592)" stroke-width="2"/>
<path d="M124.5 235V222H155" stroke="url(#paint13_linear_43327_43592)" stroke-width="2" stroke-linecap="square" stroke-linejoin="round"/>
<path d="M278.051 60.1389L217.545 40.1453C209.398 37.4533 200.602 37.4522 192.454 40.1422L77.4756 78.1036C67.6421 81.3502 61 90.538 61 100.894V197.101C61 275.881 125.184 349.439 201.36 369.104C203.748 369.72 206.252 369.72 208.64 369.104C284.816 349.439 349 275.881 349 197.101V181.358" stroke="#2DCAFF" stroke-width="2" stroke-linejoin="round"/>
<circle cx="349" cy="184" r="15" fill="#2E5785"/>
<path d="M349 181V196.912C349 224.982 340.892 252.397 327 277" stroke="url(#paint14_linear_43327_43592)" stroke-width="2" stroke-linejoin="round"/>
<circle cx="349" cy="184" r="7" fill="white"/>
<path d="M195.5 131.774C201.688 128.201 209.312 128.201 215.5 131.774L253.957 153.976C260.145 157.549 263.957 164.152 263.957 171.297V215.703C263.957 222.848 260.145 229.451 253.957 233.023L215.5 255.227C209.312 258.799 201.688 258.799 195.5 255.227L157.043 233.024C150.855 229.451 147.043 222.848 147.043 215.703V171.297C147.043 164.152 150.855 157.549 157.043 153.976L195.5 131.774Z" fill="white"/>
<path d="M199.5 138.464C203.213 136.321 207.787 136.321 211.5 138.464L250.162 160.786C253.875 162.929 256.162 166.891 256.162 171.178V215.822C256.162 220.109 253.875 224.071 250.162 226.214L211.5 248.536C207.787 250.679 203.213 250.679 199.5 248.536L160.838 226.214C157.125 224.071 154.838 220.109 154.838 215.822V171.178C154.838 166.891 157.125 162.929 160.838 160.786L199.5 138.464Z" fill="url(#paint15_radial_43327_43592)"/>
<path d="M199.5 138.464C203.213 136.321 207.787 136.321 211.5 138.464L250.162 160.786C253.875 162.929 256.162 166.891 256.162 171.178V215.822C256.162 220.109 253.875 224.071 250.162 226.214L211.5 248.536C207.787 250.679 203.213 250.679 199.5 248.536L160.838 226.214C157.125 224.071 154.838 220.109 154.838 215.822V171.178C154.838 166.891 157.125 162.929 160.838 160.786L199.5 138.464Z" fill="#14E0FF"/>
<path d="M199.5 138.464C203.213 136.321 207.787 136.321 211.5 138.464L250.162 160.786C253.875 162.929 256.162 166.891 256.162 171.178V215.822C256.162 220.109 253.875 224.071 250.162 226.214L211.5 248.536C207.787 250.679 203.213 250.679 199.5 248.536L160.838 226.214C157.125 224.071 154.838 220.109 154.838 215.822V171.178C154.838 166.891 157.125 162.929 160.838 160.786L199.5 138.464Z" fill="url(#paint16_linear_43327_43592)"/>
<g filter="url(#filter0_d_43327_43592)">
<path d="M195.658 131.674C201.739 128.163 209.232 128.163 215.314 131.674L254.102 154.069C260.184 157.58 263.93 164.069 263.93 171.091V215.88C263.93 222.903 260.184 229.392 254.102 232.903L215.314 255.297C209.232 258.808 201.739 258.808 195.658 255.297L156.869 232.903C150.788 229.392 147.041 222.903 147.041 215.88V171.091C147.041 164.069 150.788 157.58 156.869 154.069L195.658 131.674Z" fill="#353258"/>
</g>
<path fill-rule="evenodd" clip-rule="evenodd" d="M263.796 218.162C263.079 224.284 259.516 229.77 254.101 232.896L215.313 255.291C209.231 258.802 201.738 258.802 195.657 255.291L156.868 232.896C151.444 229.764 147.878 224.264 147.17 218.129V205.435L163.261 195.698C165.929 194.084 169.178 193.741 172.124 194.763L191.468 201.474C195.024 202.708 198.969 201.94 201.804 199.462L226.612 177.774C230.167 174.666 235.362 174.319 239.3 176.927L263.796 193.15V218.162Z" fill="url(#paint17_linear_43327_43592)"/>
<path fill-rule="evenodd" clip-rule="evenodd" d="M263.796 218.162C263.079 224.284 259.516 229.77 254.101 232.896L215.313 255.291C209.231 258.802 201.738 258.802 195.657 255.291L156.868 232.896C151.444 229.764 147.878 224.264 147.17 218.129V205.435L163.261 195.698C165.929 194.084 169.178 193.741 172.124 194.763L191.468 201.474C195.024 202.708 198.969 201.94 201.804 199.462L226.612 177.774C230.167 174.666 235.362 174.319 239.3 176.927L263.796 193.15V218.162Z" fill="url(#paint18_linear_43327_43592)"/>
<path fill-rule="evenodd" clip-rule="evenodd" d="M196.5 179.494C196.5 174.704 200.383 170.82 205.174 170.82C209.964 170.82 213.848 174.704 213.848 179.494V185.32H196.5V179.494ZM193.5 185.32V179.494C193.5 173.047 198.727 167.82 205.174 167.82C211.621 167.82 216.848 173.047 216.848 179.494V185.32H218C221.038 185.32 223.5 187.783 223.5 190.82V208.82C223.5 211.858 221.038 214.32 218 214.32H192C188.962 214.32 186.5 211.858 186.5 208.82V190.82C186.5 187.783 188.962 185.32 192 185.32H193.5ZM189.5 190.82C189.5 189.44 190.619 188.32 192 188.32H218C219.381 188.32 220.5 189.44 220.5 190.82V208.82C220.5 210.201 219.381 211.32 218 211.32H192C190.619 211.32 189.5 210.201 189.5 208.82V190.82Z" fill="white"/>
<path d="M205.004 199.898L205.004 204.985" stroke="white" stroke-width="3" stroke-linecap="round"/>
<circle cx="205.004" cy="197.364" r="2.54345" stroke="white" stroke-width="3"/>
<g filter="url(#filter1_d_43327_43592)">
<path d="M288.437 38.625C305.184 28.9562 325.816 28.9562 342.563 38.625C359.31 48.2938 369.627 66.1624 369.627 85.5C369.627 104.838 359.31 122.706 342.563 132.375C325.816 142.044 305.184 142.044 288.437 132.375C271.69 122.706 261.373 104.838 261.373 85.5C261.373 66.1624 271.69 48.2938 288.437 38.625Z" fill="white"/>
</g>
<path d="M299.979 58.25C309.893 52.5261 322.107 52.5261 332.021 58.25C341.936 63.9739 348.043 74.5522 348.043 86C348.043 97.4478 341.936 108.026 332.021 113.75C322.107 119.474 309.893 119.474 299.979 113.75C290.064 108.026 283.957 97.4478 283.957 86C283.957 74.5522 290.064 63.9739 299.979 58.25Z" fill="#353258"/>
<path d="M305 86L313 93L327 79" stroke="white" stroke-width="4"/>
<defs>
<filter id="filter0_d_43327_43592" x="133.937" y="118.558" width="143.097" height="155.097" filterUnits="userSpaceOnUse" color-interpolation-filters="sRGB">
<feFlood flood-opacity="0" result="BackgroundImageFix"/>
<feColorMatrix in="SourceAlpha" type="matrix" values="0 0 0 0 0 0 0 0 0 0 0 0 0 0 0 0 0 0 127 0" result="hardAlpha"/>
<feOffset dy="2.6208"/>
<feGaussianBlur stdDeviation="6.55201"/>
<feComposite in2="hardAlpha" operator="out"/>
<feColorMatrix type="matrix" values="0 0 0 0 0 0 0 0 0 0.577115 0 0 0 0 1 0 0 0 0.3 0"/>
<feBlend mode="normal" in2="BackgroundImageFix" result="effect1_dropShadow_43327_43592"/>
<feBlend mode="normal" in="SourceGraphic" in2="effect1_dropShadow_43327_43592" result="shape"/>
</filter>
<filter id="filter1_d_43327_43592" x="241.374" y="15.373" width="148.253" height="148.254" filterUnits="userSpaceOnUse" color-interpolation-filters="sRGB">
<feFlood flood-opacity="0" result="BackgroundImageFix"/>
<feColorMatrix in="SourceAlpha" type="matrix" values="0 0 0 0 0 0 0 0 0 0 0 0 0 0 0 0 0 0 127 0" result="hardAlpha"/>
<feOffset dy="4"/>
<feGaussianBlur stdDeviation="10"/>
<feComposite in2="hardAlpha" operator="out"/>
<feColorMatrix type="matrix" values="0 0 0 0 0 0 0 0 0 0.577115 0 0 0 0 1 0 0 0 0.3 0"/>
<feBlend mode="normal" in2="BackgroundImageFix" result="effect1_dropShadow_43327_43592"/>
<feBlend mode="normal" in="SourceGraphic" in2="effect1_dropShadow_43327_43592" result="shape"/>
</filter>
<linearGradient id="paint0_linear_43327_43592" x1="274.091" y1="164" x2="253" y2="164" gradientUnits="userSpaceOnUse">
<stop stop-color="#2DCAFF"/>
<stop offset="1" stop-color="#00FFFE" stop-opacity="0"/>
</linearGradient>
<linearGradient id="paint1_linear_43327_43592" x1="220" y1="119.57" x2="220" y2="141.32" gradientUnits="userSpaceOnUse">
<stop stop-color="#2DCAFF"/>
<stop offset="1" stop-color="#00FFFE" stop-opacity="0"/>
</linearGradient>
<linearGradient id="paint2_linear_43327_43592" x1="204.996" y1="104.045" x2="204.996" y2="137" gradientUnits="userSpaceOnUse">
<stop stop-color="#2DCAFF"/>
<stop offset="1" stop-color="#00FFFE" stop-opacity="0"/>
</linearGradient>
<linearGradient id="paint3_linear_43327_43592" x1="190" y1="119.57" x2="190" y2="141.32" gradientUnits="userSpaceOnUse">
<stop stop-color="#2DCAFF"/>
<stop offset="1" stop-color="#00FFFE" stop-opacity="0"/>
</linearGradient>
<linearGradient id="paint4_linear_43327_43592" x1="190" y1="274.75" x2="190" y2="253" gradientUnits="userSpaceOnUse">
<stop stop-color="#2DCAFF"/>
<stop offset="1" stop-color="#00FFFE" stop-opacity="0"/>
</linearGradient>
<linearGradient id="paint5_linear_43327_43592" x1="205.004" y1="286.275" x2="205.004" y2="253.32" gradientUnits="userSpaceOnUse">
<stop stop-color="#2DCAFF"/>
<stop offset="1" stop-color="#00FFFE" stop-opacity="0"/>
</linearGradient>
<linearGradient id="paint6_linear_43327_43592" x1="220" y1="274.75" x2="220" y2="253" gradientUnits="userSpaceOnUse">
<stop stop-color="#2DCAFF"/>
<stop offset="1" stop-color="#00FFFE" stop-opacity="0"/>
</linearGradient>
<linearGradient id="paint7_linear_43327_43592" x1="291.636" y1="184" x2="260" y2="184" gradientUnits="userSpaceOnUse">
<stop stop-color="#2DCAFF"/>
<stop offset="1" stop-color="#00FFFE" stop-opacity="0"/>
</linearGradient>
<linearGradient id="paint8_linear_43327_43592" x1="291.636" y1="204" x2="260" y2="204" gradientUnits="userSpaceOnUse">
<stop stop-color="#2DCAFF"/>
<stop offset="1" stop-color="#00FFFE" stop-opacity="0"/>
</linearGradient>
<linearGradient id="paint9_linear_43327_43592" x1="276.102" y1="222" x2="256" y2="222" gradientUnits="userSpaceOnUse">
<stop stop-color="#2DCAFF"/>
<stop offset="1" stop-color="#00FFFE" stop-opacity="0"/>
</linearGradient>
<linearGradient id="paint10_linear_43327_43592" x1="136.909" y1="164" x2="155" y2="164" gradientUnits="userSpaceOnUse">
<stop stop-color="#2DCAFF"/>
<stop offset="1" stop-color="#00FFFE" stop-opacity="0"/>
</linearGradient>
<linearGradient id="paint11_linear_43327_43592" x1="119.364" y1="184" x2="151" y2="184" gradientUnits="userSpaceOnUse">
<stop stop-color="#2DCAFF"/>
<stop offset="1" stop-color="#00FFFE" stop-opacity="0"/>
</linearGradient>
<linearGradient id="paint12_linear_43327_43592" x1="119.364" y1="204" x2="151" y2="204" gradientUnits="userSpaceOnUse">
<stop stop-color="#2DCAFF"/>
<stop offset="1" stop-color="#00FFFE" stop-opacity="0"/>
</linearGradient>
<linearGradient id="paint13_linear_43327_43592" x1="134.898" y1="222" x2="155" y2="222" gradientUnits="userSpaceOnUse">
<stop stop-color="#2DCAFF"/>
<stop offset="1" stop-color="#00FFFE" stop-opacity="0"/>
</linearGradient>
<linearGradient id="paint14_linear_43327_43592" x1="335.141" y1="281.51" x2="366.5" y2="192" gradientUnits="userSpaceOnUse">
<stop stop-color="#2DCAFF"/>
<stop offset="1" stop-color="white"/>
</linearGradient>
<radialGradient id="paint15_radial_43327_43592" cx="0" cy="0" r="1" gradientUnits="userSpaceOnUse" gradientTransform="translate(182.863 238.178) rotate(-56.0954) scale(133.508 213613)">
<stop stop-color="#3AF5EA"/>
<stop offset="0.453125" stop-color="#18B6F9"/>
<stop offset="1" stop-color="#985DF6"/>
</radialGradient>
<linearGradient id="paint16_linear_43327_43592" x1="170.402" y1="252.001" x2="205.892" y2="141.382" gradientUnits="userSpaceOnUse">
<stop stop-color="#00F1FF"/>
<stop offset="0.583333" stop-color="#9274FF"/>
<stop offset="1" stop-color="#FA1BFF"/>
</linearGradient>
<linearGradient id="paint17_linear_43327_43592" x1="213.746" y1="135.656" x2="171.033" y2="214.356" gradientUnits="userSpaceOnUse">
<stop stop-color="white"/>
<stop offset="1" stop-color="white" stop-opacity="0"/>
</linearGradient>
<linearGradient id="paint18_linear_43327_43592" x1="170.497" y1="235.413" x2="181.517" y2="171.728" gradientUnits="userSpaceOnUse">
<stop stop-color="#00F1FF"/>
<stop offset="0.583333" stop-color="#9274FF"/>
<stop offset="1" stop-color="#FA1BFF"/>
</linearGradient>
</defs>
</svg>
