<svg width="410" height="410" viewBox="0 0 410 410" fill="none" xmlns="http://www.w3.org/2000/svg">
<circle cx="319" cy="290.5" r="15" fill="#2E5785"/>
<path d="M210 289.5H80.4453C69.2443 289.5 63.6437 289.5 59.3655 287.32C55.6023 285.403 52.5426 282.343 50.6252 278.58C48.4453 274.302 48.4453 268.701 48.4453 257.5V83.5C48.4453 72.2989 48.4453 66.6984 50.6252 62.4202C52.5426 58.6569 55.6023 55.5973 59.3655 53.6799C63.6437 51.5 69.2443 51.5 80.4453 51.5H192C203.201 51.5 208.802 51.5 213.08 53.6799C216.843 55.5973 219.903 58.6569 221.82 62.4202C224 66.6984 224 72.2989 224 83.5V104.2C224 108.68 224 110.921 224.872 112.632C225.639 114.137 226.863 115.361 228.368 116.128C230.079 117 232.32 117 236.8 117H329C340.201 117 345.802 117 350.08 119.18C353.843 121.097 356.903 124.157 358.82 127.92C361 132.198 361 137.799 361 149V258C361 269.201 361 274.802 358.82 279.08C356.903 282.843 353.843 285.903 350.08 287.82C345.802 290 340.201 290 329 290H317.712" stroke="#2DCAFF" stroke-width="2"/>
<path d="M360.999 230.5V258C360.999 269.201 360.999 274.802 358.819 279.08C356.901 282.843 353.842 285.903 350.079 287.82C345.8 290 340.2 290 328.999 290H317.711" stroke="url(#paint0_linear_43327_42937)" stroke-width="2"/>
<rect x="76" y="172" width="123" height="88" rx="12" fill="#353258"/>
<g opacity="0.9">
<path d="M91.0078 219.512L76 228.547V248C76 254.627 81.3726 260 88 260H183C191.837 260 199 252.837 199 244V215.656L176.274 200.682C170.279 196.732 162.387 197.258 156.971 201.97L135.764 220.415C131.446 224.17 125.452 225.334 120.043 223.467L104.48 218.095C100.001 216.55 95.0673 217.068 91.0078 219.512Z" fill="url(#paint1_linear_43327_42937)"/>
<path d="M91.0078 219.512L76 228.547V248C76 254.627 81.3726 260 88 260H183C191.837 260 199 252.837 199 244V215.656L176.274 200.682C170.279 196.732 162.387 197.258 156.971 201.97L135.764 220.415C131.446 224.17 125.452 225.334 120.043 223.467L104.48 218.095C100.001 216.55 95.0673 217.068 91.0078 219.512Z" fill="url(#paint2_linear_43327_42937)"/>
</g>
<rect x="76" y="79" width="123" height="77" rx="12" fill="#353258"/>
<rect x="299" y="248" width="54" height="35" rx="6" transform="rotate(-90 299 248)" fill="#353258"/>
<rect x="299" y="248" width="54" height="35" rx="6" transform="rotate(-90 299 248)" fill="url(#paint3_linear_43327_42937)"/>
<rect x="258" y="248" width="105" height="35" rx="6" transform="rotate(-90 258 248)" fill="url(#paint4_linear_43327_42937)"/>
<rect x="217" y="248" width="76" height="35" rx="6" transform="rotate(-90 217 248)" fill="#353258"/>
<rect x="217" y="248" width="76" height="35" rx="6" transform="rotate(-90 217 248)" fill="url(#paint5_linear_43327_42937)"/>
<circle cx="319" cy="290.5" r="7" fill="white"/>
<g opacity="0.9">
<path d="M135.408 95.4508C136.565 93.464 139.435 93.464 140.592 95.4508L146.063 104.844C146.487 105.572 147.197 106.088 148.021 106.266L158.645 108.566C160.892 109.053 161.779 111.783 160.247 113.497L153.004 121.603C152.443 122.231 152.172 123.066 152.256 123.904L153.351 134.719C153.583 137.007 151.261 138.694 149.157 137.766L139.21 133.383C138.439 133.043 137.561 133.043 136.79 133.383L126.843 137.766C124.739 138.694 122.417 137.007 122.649 134.719L123.744 123.904C123.828 123.066 123.557 122.231 122.996 121.603L115.753 113.497C114.221 111.783 115.108 109.053 117.355 108.566L127.979 106.266C128.803 106.088 129.513 105.572 129.937 104.844L135.408 95.4508Z" fill="url(#paint6_linear_43327_42937)"/>
<path d="M135.408 95.4508C136.565 93.464 139.435 93.464 140.592 95.4508L146.063 104.844C146.487 105.572 147.197 106.088 148.021 106.266L158.645 108.566C160.892 109.053 161.779 111.783 160.247 113.497L153.004 121.603C152.443 122.231 152.172 123.066 152.256 123.904L153.351 134.719C153.583 137.007 151.261 138.694 149.157 137.766L139.21 133.383C138.439 133.043 137.561 133.043 136.79 133.383L126.843 137.766C124.739 138.694 122.417 137.007 122.649 134.719L123.744 123.904C123.828 123.066 123.557 122.231 122.996 121.603L115.753 113.497C114.221 111.783 115.108 109.053 117.355 108.566L127.979 106.266C128.803 106.088 129.513 105.572 129.937 104.844L135.408 95.4508Z" fill="url(#paint7_linear_43327_42937)"/>
</g>
<g filter="url(#filter0_d_43327_42937)">
<path d="M195 205.617C201.188 202.045 208.812 202.045 215 205.617L268.751 236.65C274.939 240.223 278.751 246.826 278.751 253.971V316.037C278.751 323.182 274.939 329.785 268.751 333.357L215 364.391C208.812 367.963 201.188 367.963 195 364.391L141.249 333.357C135.061 329.785 131.249 323.182 131.249 316.037V253.971C131.249 246.826 135.061 240.223 141.249 236.65L195 205.617Z" fill="white"/>
</g>
<path d="M199 239.37C202.713 237.227 207.287 237.227 211 239.37L241.52 256.991C245.233 259.135 247.52 263.096 247.52 267.383V302.625C247.52 306.912 245.233 310.873 241.52 313.017L211 330.637C207.287 332.781 202.713 332.781 199 330.637L168.48 313.017C164.767 310.873 162.48 306.912 162.48 302.625V267.383C162.48 263.096 164.767 259.135 168.48 256.991L199 239.37Z" fill="url(#paint8_radial_43327_42937)"/>
<path d="M199 239.37C202.713 237.227 207.287 237.227 211 239.37L241.52 256.991C245.233 259.135 247.52 263.096 247.52 267.383V302.625C247.52 306.912 245.233 310.873 241.52 313.017L211 330.637C207.287 332.781 202.713 332.781 199 330.637L168.48 313.017C164.767 310.873 162.48 306.912 162.48 302.625V267.383C162.48 263.096 164.767 259.135 168.48 256.991L199 239.37Z" fill="#14E0FF"/>
<path d="M199 239.37C202.713 237.227 207.287 237.227 211 239.37L241.52 256.991C245.233 259.135 247.52 263.096 247.52 267.383V302.625C247.52 306.912 245.233 310.873 241.52 313.017L211 330.637C207.287 332.781 202.713 332.781 199 330.637L168.48 313.017C164.767 310.873 162.48 306.912 162.48 302.625V267.383C162.48 263.096 164.767 259.135 168.48 256.991L199 239.37Z" fill="url(#paint9_linear_43327_42937)"/>
<circle cx="191.127" cy="284.752" r="11.127" stroke="white" stroke-width="3"/>
<path d="M203 284H230V291.992" stroke="white" stroke-width="3" stroke-linecap="round" stroke-linejoin="round"/>
<path d="M220 284V292" stroke="white" stroke-width="3" stroke-linecap="round" stroke-linejoin="round"/>
<defs>
<filter id="filter0_d_43327_42937" x="111.249" y="186.938" width="187.502" height="204.133" filterUnits="userSpaceOnUse" color-interpolation-filters="sRGB">
<feFlood flood-opacity="0" result="BackgroundImageFix"/>
<feColorMatrix in="SourceAlpha" type="matrix" values="0 0 0 0 0 0 0 0 0 0 0 0 0 0 0 0 0 0 127 0" result="hardAlpha"/>
<feOffset dy="4"/>
<feGaussianBlur stdDeviation="10"/>
<feComposite in2="hardAlpha" operator="out"/>
<feColorMatrix type="matrix" values="0 0 0 0 0 0 0 0 0 0.577115 0 0 0 0 1 0 0 0 0.3 0"/>
<feBlend mode="normal" in2="BackgroundImageFix" result="effect1_dropShadow_43327_42937"/>
<feBlend mode="normal" in="SourceGraphic" in2="effect1_dropShadow_43327_42937" result="shape"/>
</filter>
<linearGradient id="paint0_linear_43327_42937" x1="339.355" y1="227.194" x2="339.355" y2="290" gradientUnits="userSpaceOnUse">
<stop stop-color="#2FC3F6"/>
<stop offset="1" stop-color="white"/>
</linearGradient>
<linearGradient id="paint1_linear_43327_42937" x1="146.215" y1="155.328" x2="101.522" y2="238.098" gradientUnits="userSpaceOnUse">
<stop stop-color="white"/>
<stop offset="1" stop-color="white" stop-opacity="0"/>
</linearGradient>
<linearGradient id="paint2_linear_43327_42937" x1="100.602" y1="260" x2="110.583" y2="188.239" gradientUnits="userSpaceOnUse">
<stop stop-color="#2DCAFF"/>
<stop offset="0.583333" stop-color="#9274FF"/>
<stop offset="1" stop-color="#FA1BFF"/>
</linearGradient>
<linearGradient id="paint3_linear_43327_42937" x1="353" y1="248" x2="293" y2="248" gradientUnits="userSpaceOnUse">
<stop stop-color="#353258"/>
<stop offset="0.239583" stop-color="#414C79"/>
<stop offset="1" stop-color="#30B8EE"/>
</linearGradient>
<linearGradient id="paint4_linear_43327_42937" x1="363" y1="248" x2="239.5" y2="248" gradientUnits="userSpaceOnUse">
<stop offset="0.0151514" stop-color="#353258"/>
<stop offset="0.420601" stop-color="#45426D"/>
<stop offset="1" stop-color="#2FBBEE"/>
</linearGradient>
<linearGradient id="paint5_linear_43327_42937" x1="289.743" y1="248" x2="194.5" y2="248" gradientUnits="userSpaceOnUse">
<stop stop-color="#353258"/>
<stop offset="0.209703" stop-color="#434773"/>
<stop offset="0.994792" stop-color="#34B5EE"/>
</linearGradient>
<linearGradient id="paint6_linear_43327_42937" x1="138" y1="95" x2="119.804" y2="133.261" gradientUnits="userSpaceOnUse">
<stop stop-color="white"/>
<stop offset="1" stop-color="white" stop-opacity="0"/>
</linearGradient>
<linearGradient id="paint7_linear_43327_42937" x1="126.779" y1="129.221" x2="136.917" y2="93.4284" gradientUnits="userSpaceOnUse">
<stop stop-color="#2DCAFF"/>
<stop offset="0.474685" stop-color="#9274FF"/>
<stop offset="1" stop-color="#FA1BFF"/>
</linearGradient>
<radialGradient id="paint8_radial_43327_42937" cx="0" cy="0" r="1" gradientUnits="userSpaceOnUse" gradientTransform="translate(186.001 322.501) rotate(-56.0954) scale(112.05 179281)">
<stop stop-color="#3AF5EA"/>
<stop offset="0.453125" stop-color="#18B6F9"/>
<stop offset="1" stop-color="#985DF6"/>
</radialGradient>
<linearGradient id="paint9_linear_43327_42937" x1="175.543" y1="334.102" x2="205.329" y2="241.263" gradientUnits="userSpaceOnUse">
<stop stop-color="#00F1FF"/>
<stop offset="0.583333" stop-color="#9274FF"/>
<stop offset="1" stop-color="#FA1BFF"/>
</linearGradient>
</defs>
</svg>
