<svg width="24" height="24" viewBox="0 0 24 24" fill="none" xmlns="http://www.w3.org/2000/svg">
<path d="M17.7251 2.17969H6.2706C4.0116 2.17969 2.17969 4.0116 2.17969 6.2706V17.7251C2.17969 19.9841 4.0116 21.8161 6.2706 21.8161H17.7251C19.985 21.8161 21.8161 19.9841 21.8161 17.7251V6.2706C21.8161 4.0116 19.985 2.17969 17.7251 2.17969ZM8.72514 17.7251H6.2706V8.72514H8.72514V17.7251ZM7.49787 7.68769C6.70751 7.68769 6.06605 7.04132 6.06605 6.24441C6.06605 5.44751 6.70751 4.80114 7.49787 4.80114C8.28823 4.80114 8.92969 5.44751 8.92969 6.24441C8.92969 7.04132 8.28905 7.68769 7.49787 7.68769ZM18.5433 17.7251H16.0888V13.1401C16.0888 10.3844 12.8161 10.5931 12.8161 13.1401V17.7251H10.3615V8.72514H12.8161V10.1692C13.9582 8.05341 18.5433 7.89714 18.5433 12.1951V17.7251Z" fill="black"/>
</svg>
