<svg width="203" height="200" viewBox="0 0 203 200" fill="none" xmlns="http://www.w3.org/2000/svg">
<g opacity="0.3" filter="url(#filter0_f_43327_43135)">
<rect x="50.75" y="66" width="102" height="84" fill="url(#paint0_linear_43327_43135)"/>
</g>
<g filter="url(#filter1_i_43327_43135)">
<path d="M74.75 63V40C74.75 32.8392 77.5946 25.9716 82.6581 20.9081C87.7216 15.8446 94.5892 13 101.75 13C108.911 13 115.778 15.8446 120.842 20.9081C125.905 25.9716 128.75 32.8392 128.75 40V63" stroke="url(#paint1_linear_43327_43135)" stroke-width="18"/>
</g>
<path opacity="0.5" fill-rule="evenodd" clip-rule="evenodd" d="M128.75 49V40C128.75 32.8392 125.905 25.9716 120.842 20.9081C115.778 15.8446 108.911 13 101.75 13C94.5892 13 87.7216 15.8446 82.6581 20.9081C77.5946 25.9716 74.75 32.8392 74.75 40V63H83.75V40C83.75 35.2261 85.6464 30.6477 89.0221 27.2721C92.3977 23.8964 96.9761 22 101.75 22C106.524 22 111.102 23.8964 114.478 27.2721C117.854 30.6477 119.75 35.2261 119.75 40C119.75 44.9706 123.779 49 128.75 49Z" fill="url(#paint2_linear_43327_43135)"/>
<g opacity="0.5" filter="url(#filter2_f_43327_43135)">
<path fill-rule="evenodd" clip-rule="evenodd" d="M55.25 79C55.25 72.0964 60.8464 66.5 67.75 66.5H72.75C74.1307 66.5 75.25 67.6193 75.25 69C75.25 70.3807 74.1307 71.5 72.75 71.5H67.75C63.6079 71.5 60.25 74.8579 60.25 79L60.25 84C60.25 85.3807 59.1307 86.5 57.75 86.5C56.3693 86.5 55.25 85.3807 55.25 84V79ZM67.75 132.5C60.8464 132.5 55.25 126.904 55.25 120V115C55.25 113.619 56.3693 112.5 57.75 112.5C59.1307 112.5 60.25 113.619 60.25 115L60.25 120C60.25 124.142 63.6079 127.5 67.75 127.5H72.75C74.1307 127.5 75.25 128.619 75.25 130C75.25 131.381 74.1307 132.5 72.75 132.5H67.75ZM135.75 66.5C142.654 66.5 148.25 72.0964 148.25 79V84C148.25 85.3807 147.131 86.5 145.75 86.5C144.369 86.5 143.25 85.3807 143.25 84V79C143.25 74.8579 139.892 71.5 135.75 71.5H130.75C129.369 71.5 128.25 70.3807 128.25 69C128.25 67.6193 129.369 66.5 130.75 66.5H135.75ZM135.75 132.5C142.654 132.5 148.25 126.904 148.25 120V115C148.25 113.619 147.131 112.5 145.75 112.5C144.369 112.5 143.25 113.619 143.25 115V120C143.25 124.142 139.892 127.5 135.75 127.5H130.75C129.369 127.5 128.25 128.619 128.25 130C128.25 131.381 129.369 132.5 130.75 132.5H135.75Z" fill="url(#paint3_linear_43327_43135)"/>
</g>
<g opacity="0.5" filter="url(#filter3_f_43327_43135)">
<path fill-rule="evenodd" clip-rule="evenodd" d="M111.263 80.4493C108.018 78.519 104.33 77.4998 100.572 77.5C96.8142 77.5002 93.1269 78.5199 89.8817 80.4506C86.6371 82.3809 83.9521 85.1516 82.0892 88.4769C80.2267 91.8016 79.2493 95.5672 79.25 99.3962C79.25 99.396 79.25 99.3964 79.25 99.3962V99.4776C79.2499 103.084 79.2498 108.178 80.497 113.318C80.8226 114.659 82.1743 115.483 83.516 115.158C84.8578 114.832 85.6816 113.48 85.356 112.138C84.2596 107.621 84.25 103.058 84.25 99.3962C84.2494 96.4166 85.0104 93.4929 86.4514 90.9206C87.8921 88.3488 89.9594 86.2223 92.4382 84.7476C94.9163 83.2733 97.7215 82.5002 100.573 82.5C103.424 82.4998 106.229 83.2726 108.707 84.7467C109.894 85.4525 111.428 85.0627 112.134 83.876C112.84 82.6893 112.45 81.1552 111.263 80.4493ZM114.437 86.0382C113.305 86.8284 113.027 88.3868 113.818 89.5191C115.752 92.2913 116.897 95.7013 116.897 99.3962C116.897 101.403 117.187 103.061 117.75 104.479C118.319 105.914 119.116 106.977 119.956 107.842C120.918 108.833 122.5 108.857 123.491 107.895C124.482 106.933 124.506 105.351 123.544 104.36C123.05 103.851 122.672 103.327 122.397 102.636C122.117 101.929 121.897 100.921 121.897 99.3962C121.897 94.6557 120.425 90.2507 117.918 86.6576C117.128 85.5253 115.569 85.248 114.437 86.0382ZM96.3031 93.7261C97.669 92.6084 99.3809 92.0729 101.096 92.2084C102.812 92.344 104.431 93.1434 105.622 94.4699C106.815 95.7985 107.488 97.5562 107.485 99.3931L107.485 99.3962C107.485 101.077 107.662 103.531 108.272 106.034C108.872 108.497 109.956 111.277 111.956 113.337C112.918 114.328 114.5 114.351 115.491 113.39C116.482 112.428 116.506 110.845 115.544 109.855C114.433 108.71 113.634 106.92 113.13 104.85C112.635 102.82 112.485 100.777 112.485 99.3962H109.985L112.485 99.3993C112.489 96.3456 111.373 93.3908 109.343 91.1293C107.31 88.8657 104.508 87.4624 101.49 87.224C98.4721 86.9855 95.4882 87.9324 93.1367 89.8564C90.7876 91.7786 89.2456 94.5301 88.7971 97.5504C88.5943 98.9161 89.5371 100.188 90.9028 100.39C92.2685 100.593 93.5401 99.6505 93.7429 98.2848C94.0123 96.4706 94.9348 94.8457 96.3031 93.7261ZM100.574 96.8962C99.1928 96.8962 98.0735 98.0155 98.0735 99.3962V103.533C98.0735 103.533 98.0735 103.533 98.0735 103.533C98.0731 104.97 98.2106 106.405 98.4839 107.815L98.4853 107.822L98.6228 108.521C98.623 108.522 98.6232 108.523 98.6235 108.524C99.1433 111.201 100.5 114.003 101.345 115.656C101.921 116.786 102.99 118.093 103.753 118.976C104.163 119.451 104.544 119.869 104.822 120.168C104.961 120.318 105.075 120.44 105.156 120.525C105.196 120.567 105.229 120.6 105.251 120.624L105.278 120.652L105.289 120.663C105.289 120.663 105.289 120.664 107.083 118.922L105.289 120.663C106.25 121.654 107.834 121.678 108.825 120.716C109.815 119.755 109.839 118.172 108.877 117.181L108.874 117.177L108.855 117.158C108.838 117.141 108.812 117.114 108.778 117.078C108.71 117.006 108.609 116.9 108.485 116.766C108.237 116.498 107.898 116.126 107.536 115.707C106.754 114.803 106.066 113.909 105.798 113.382C104.952 111.726 103.902 109.482 103.531 107.569L103.53 107.562L103.393 106.864C103.392 106.862 103.392 106.861 103.392 106.86C103.18 105.765 103.073 104.651 103.074 103.535V99.3962C103.074 98.0155 101.954 96.8962 100.574 96.8962ZM90.9691 104.186C89.5984 104.352 88.622 105.598 88.7882 106.969C89.2381 110.68 90.5004 115.313 93.6671 121.186C94.3223 122.402 95.8387 122.856 97.054 122.201C98.2694 121.545 98.7234 120.029 98.0682 118.814C95.1738 113.445 94.1207 109.409 93.7518 106.367C93.5856 104.997 92.3398 104.02 90.9691 104.186Z" fill="url(#paint4_linear_43327_43135)"/>
<path fill-rule="evenodd" clip-rule="evenodd" d="M111.263 80.4493C108.018 78.519 104.33 77.4998 100.572 77.5C96.8142 77.5002 93.1269 78.5199 89.8817 80.4506C86.6371 82.3809 83.9521 85.1516 82.0892 88.4769C80.2267 91.8016 79.2493 95.5672 79.25 99.3962C79.25 99.396 79.25 99.3964 79.25 99.3962V99.4776C79.2499 103.084 79.2498 108.178 80.497 113.318C80.8226 114.659 82.1743 115.483 83.516 115.158C84.8578 114.832 85.6816 113.48 85.356 112.138C84.2596 107.621 84.25 103.058 84.25 99.3962C84.2494 96.4166 85.0104 93.4929 86.4514 90.9206C87.8921 88.3488 89.9594 86.2223 92.4382 84.7476C94.9163 83.2733 97.7215 82.5002 100.573 82.5C103.424 82.4998 106.229 83.2726 108.707 84.7467C109.894 85.4525 111.428 85.0627 112.134 83.876C112.84 82.6893 112.45 81.1552 111.263 80.4493ZM114.437 86.0382C113.305 86.8284 113.027 88.3868 113.818 89.5191C115.752 92.2913 116.897 95.7013 116.897 99.3962C116.897 101.403 117.187 103.061 117.75 104.479C118.319 105.914 119.116 106.977 119.956 107.842C120.918 108.833 122.5 108.857 123.491 107.895C124.482 106.933 124.506 105.351 123.544 104.36C123.05 103.851 122.672 103.327 122.397 102.636C122.117 101.929 121.897 100.921 121.897 99.3962C121.897 94.6557 120.425 90.2507 117.918 86.6576C117.128 85.5253 115.569 85.248 114.437 86.0382ZM96.3031 93.7261C97.669 92.6084 99.3809 92.0729 101.096 92.2084C102.812 92.344 104.431 93.1434 105.622 94.4699C106.815 95.7985 107.488 97.5562 107.485 99.3931L107.485 99.3962C107.485 101.077 107.662 103.531 108.272 106.034C108.872 108.497 109.956 111.277 111.956 113.337C112.918 114.328 114.5 114.351 115.491 113.39C116.482 112.428 116.506 110.845 115.544 109.855C114.433 108.71 113.634 106.92 113.13 104.85C112.635 102.82 112.485 100.777 112.485 99.3962H109.985L112.485 99.3993C112.489 96.3456 111.373 93.3908 109.343 91.1293C107.31 88.8657 104.508 87.4624 101.49 87.224C98.4721 86.9855 95.4882 87.9324 93.1367 89.8564C90.7876 91.7786 89.2456 94.5301 88.7971 97.5504C88.5943 98.9161 89.5371 100.188 90.9028 100.39C92.2685 100.593 93.5401 99.6505 93.7429 98.2848C94.0123 96.4706 94.9348 94.8457 96.3031 93.7261ZM100.574 96.8962C99.1928 96.8962 98.0735 98.0155 98.0735 99.3962V103.533C98.0735 103.533 98.0735 103.533 98.0735 103.533C98.0731 104.97 98.2106 106.405 98.4839 107.815L98.4853 107.822L98.6228 108.521C98.623 108.522 98.6232 108.523 98.6235 108.524C99.1433 111.201 100.5 114.003 101.345 115.656C101.921 116.786 102.99 118.093 103.753 118.976C104.163 119.451 104.544 119.869 104.822 120.168C104.961 120.318 105.075 120.44 105.156 120.525C105.196 120.567 105.229 120.6 105.251 120.624L105.278 120.652L105.289 120.663C105.289 120.663 105.289 120.664 107.083 118.922L105.289 120.663C106.25 121.654 107.834 121.678 108.825 120.716C109.815 119.755 109.839 118.172 108.877 117.181L108.874 117.177L108.855 117.158C108.838 117.141 108.812 117.114 108.778 117.078C108.71 117.006 108.609 116.9 108.485 116.766C108.237 116.498 107.898 116.126 107.536 115.707C106.754 114.803 106.066 113.909 105.798 113.382C104.952 111.726 103.902 109.482 103.531 107.569L103.53 107.562L103.393 106.864C103.392 106.862 103.392 106.861 103.392 106.86C103.18 105.765 103.073 104.651 103.074 103.535V99.3962C103.074 98.0155 101.954 96.8962 100.574 96.8962ZM90.9691 104.186C89.5984 104.352 88.622 105.598 88.7882 106.969C89.2381 110.68 90.5004 115.313 93.6671 121.186C94.3223 122.402 95.8387 122.856 97.054 122.201C98.2694 121.545 98.7234 120.029 98.0682 118.814C95.1738 113.445 94.1207 109.409 93.7518 106.367C93.5856 104.997 92.3398 104.02 90.9691 104.186Z" fill="url(#paint5_linear_43327_43135)"/>
</g>
<rect x="50.75" y="50" width="102" height="90" rx="24" fill="url(#paint6_linear_43327_43135)"/>
<rect x="50.75" y="50" width="102" height="90" rx="24" fill="url(#paint7_radial_43327_43135)"/>
<path fill-rule="evenodd" clip-rule="evenodd" d="M61.25 71C61.25 65.201 65.951 60.5 71.75 60.5H78.75C80.1307 60.5 81.25 61.6193 81.25 63C81.25 64.3807 80.1307 65.5 78.75 65.5L71.75 65.5C68.7124 65.5 66.25 67.9624 66.25 71L66.25 78C66.25 79.3807 65.1307 80.5 63.75 80.5C62.3693 80.5 61.25 79.3807 61.25 78V71ZM71.75 130.5C65.951 130.5 61.25 125.799 61.25 120V113C61.25 111.619 62.3693 110.5 63.75 110.5C65.1307 110.5 66.25 111.619 66.25 113L66.25 120C66.25 123.038 68.7124 125.5 71.75 125.5H78.75C80.1307 125.5 81.25 126.619 81.25 128C81.25 129.381 80.1307 130.5 78.75 130.5H71.75ZM131.75 60.5C137.549 60.5 142.25 65.201 142.25 71V78C142.25 79.3807 141.131 80.5 139.75 80.5C138.369 80.5 137.25 79.3807 137.25 78V71C137.25 67.9624 134.788 65.5 131.75 65.5H124.75C123.369 65.5 122.25 64.3807 122.25 63C122.25 61.6193 123.369 60.5 124.75 60.5H131.75ZM131.75 129.5C137.549 129.5 142.25 124.799 142.25 119V112C142.25 110.619 141.131 109.5 139.75 109.5C138.369 109.5 137.25 110.619 137.25 112V119C137.25 122.038 134.788 124.5 131.75 124.5H124.75C123.369 124.5 122.25 125.619 122.25 127C122.25 128.381 123.369 129.5 124.75 129.5H131.75Z" fill="url(#paint8_linear_43327_43135)"/>
<path d="M108.083 113.42C108.083 113.42 105.417 110.673 104.571 109.017C103.726 107.362 102.522 104.839 102.077 102.543L101.938 101.838C101.695 100.585 101.573 99.3098 101.574 98.032V93.8942M122.75 100.599C121.417 99.2252 120.397 97.426 120.397 93.8942C120.397 89.6765 119.089 85.7691 116.868 82.5864M114.75 106.094C111.639 102.889 110.985 96.9557 110.985 93.8942C110.988 91.4489 110.094 89.0927 108.483 87.2976C106.871 85.5026 104.66 84.4012 102.293 84.2143C99.9265 84.0273 97.5786 84.7684 95.7199 86.2893C93.8612 87.8102 92.6289 89.9984 92.27 92.4156M83.9265 107.226C82.75 102.378 82.75 97.5302 82.75 93.8942C82.7493 90.4899 83.6185 87.1453 85.2703 84.1968C86.9221 81.2483 89.2983 78.7997 92.1599 77.0971C95.0216 75.3946 98.2679 74.4982 101.572 74.498C104.877 74.4979 108.123 75.3939 110.985 77.0961M92.27 101.166C92.6794 104.543 93.8371 108.877 96.8676 114.498" stroke="url(#paint9_linear_43327_43135)" stroke-width="5" stroke-linecap="round" stroke-linejoin="round"/>
<defs>
<filter id="filter0_f_43327_43135" x="0.75" y="16" width="202" height="184" filterUnits="userSpaceOnUse" color-interpolation-filters="sRGB">
<feFlood flood-opacity="0" result="BackgroundImageFix"/>
<feBlend mode="normal" in="SourceGraphic" in2="BackgroundImageFix" result="shape"/>
<feGaussianBlur stdDeviation="25" result="effect1_foregroundBlur_43327_43135"/>
</filter>
<filter id="filter1_i_43327_43135" x="65.75" y="4" width="72" height="63" filterUnits="userSpaceOnUse" color-interpolation-filters="sRGB">
<feFlood flood-opacity="0" result="BackgroundImageFix"/>
<feBlend mode="normal" in="SourceGraphic" in2="BackgroundImageFix" result="shape"/>
<feColorMatrix in="SourceAlpha" type="matrix" values="0 0 0 0 0 0 0 0 0 0 0 0 0 0 0 0 0 0 127 0" result="hardAlpha"/>
<feOffset dy="4"/>
<feGaussianBlur stdDeviation="2"/>
<feComposite in2="hardAlpha" operator="arithmetic" k2="-1" k3="1"/>
<feColorMatrix type="matrix" values="0 0 0 0 1 0 0 0 0 1 0 0 0 0 1 0 0 0 0.25 0"/>
<feBlend mode="normal" in2="shape" result="effect1_innerShadow_43327_43135"/>
</filter>
<filter id="filter2_f_43327_43135" x="47.25" y="58.5" width="109" height="82" filterUnits="userSpaceOnUse" color-interpolation-filters="sRGB">
<feFlood flood-opacity="0" result="BackgroundImageFix"/>
<feBlend mode="normal" in="SourceGraphic" in2="BackgroundImageFix" result="shape"/>
<feGaussianBlur stdDeviation="4" result="effect1_foregroundBlur_43327_43135"/>
</filter>
<filter id="filter3_f_43327_43135" x="67.25" y="65.5" width="69" height="69" filterUnits="userSpaceOnUse" color-interpolation-filters="sRGB">
<feFlood flood-opacity="0" result="BackgroundImageFix"/>
<feBlend mode="normal" in="SourceGraphic" in2="BackgroundImageFix" result="shape"/>
<feGaussianBlur stdDeviation="6" result="effect1_foregroundBlur_43327_43135"/>
</filter>
<linearGradient id="paint0_linear_43327_43135" x1="50.75" y1="66" x2="133.191" y2="166.107" gradientUnits="userSpaceOnUse">
<stop stop-color="#00C2FF"/>
<stop offset="1" stop-color="#0B40E4"/>
</linearGradient>
<linearGradient id="paint1_linear_43327_43135" x1="101.75" y1="13" x2="101.75" y2="63" gradientUnits="userSpaceOnUse">
<stop stop-color="#28C4FF"/>
<stop offset="1" stop-color="#39F1FF"/>
</linearGradient>
<linearGradient id="paint2_linear_43327_43135" x1="71.75" y1="23.5" x2="111.25" y2="51" gradientUnits="userSpaceOnUse">
<stop stop-color="#147AFF"/>
<stop offset="1" stop-color="#147AFF" stop-opacity="0"/>
</linearGradient>
<linearGradient id="paint3_linear_43327_43135" x1="55.7706" y1="66.3524" x2="117.242" y2="154.142" gradientUnits="userSpaceOnUse">
<stop stop-color="#60A0FF"/>
<stop offset="0.526042" stop-color="#3F69FF"/>
<stop offset="1" stop-color="#B20FFF"/>
</linearGradient>
<linearGradient id="paint4_linear_43327_43135" x1="101.75" y1="100" x2="106.624" y2="136.383" gradientUnits="userSpaceOnUse">
<stop stop-color="white"/>
<stop offset="1" stop-color="white" stop-opacity="0"/>
</linearGradient>
<linearGradient id="paint5_linear_43327_43135" x1="123.998" y1="77.3994" x2="79.3994" y2="122.6" gradientUnits="userSpaceOnUse">
<stop stop-color="#60A0FF"/>
<stop offset="0.526042" stop-color="#3F69FF"/>
<stop offset="1" stop-color="#B20FFF"/>
</linearGradient>
<linearGradient id="paint6_linear_43327_43135" x1="92.5172" y1="105.769" x2="129.245" y2="52.4033" gradientUnits="userSpaceOnUse">
<stop stop-color="#4590F8"/>
<stop offset="1" stop-color="#14FDF9"/>
</linearGradient>
<radialGradient id="paint7_radial_43327_43135" cx="0" cy="0" r="1" gradientUnits="userSpaceOnUse" gradientTransform="translate(50.75 50) rotate(54.6031) scale(139.114 144.455)">
<stop stop-color="#34F3FF"/>
<stop offset="0.678509" stop-color="#0E62FF"/>
<stop offset="1" stop-color="#071AC5"/>
</radialGradient>
<linearGradient id="paint8_linear_43327_43135" x1="107.25" y1="111" x2="150.246" y2="204.198" gradientUnits="userSpaceOnUse">
<stop stop-color="white"/>
<stop offset="1" stop-color="white" stop-opacity="0"/>
</linearGradient>
<linearGradient id="paint9_linear_43327_43135" x1="101.25" y1="87.998" x2="106.419" y2="115.874" gradientUnits="userSpaceOnUse">
<stop stop-color="white"/>
<stop offset="1" stop-color="#9CC3FF"/>
</linearGradient>
</defs>
</svg>
