<svg width="24" height="24" viewBox="0 0 24 24" fill="none" xmlns="http://www.w3.org/2000/svg">
<g clip-path="url(#clip0_74691_51711)">
<path fill-rule="evenodd" clip-rule="evenodd" d="M19.3047 21.3064C17.2187 22.9578 14.6255 23.8691 11.9384 23.8691C8.79081 23.8691 5.77211 22.6187 3.54641 20.393C1.3207 18.1673 0.0703125 15.1486 0.0703125 12.0009C0.0703125 8.85331 1.3207 5.83461 3.54641 3.60891C5.77211 1.3832 8.79082 0.132812 11.9384 0.132812C14.8447 0.132812 17.641 1.19878 19.8047 3.11419C19.5466 2.891 19.2783 2.67851 19.0006 2.47742C19.0001 2.47703 18.9996 2.47666 18.9991 2.47629L19.0002 2.47463C19.0032 2.47662 19.0062 2.47863 19.009 2.48046C19.0221 2.48906 19.0292 2.49379 19.0006 2.47397L19.0002 2.47463C18.9838 2.46388 18.9681 2.45384 18.9991 2.47629L16.0594 6.85404C14.8957 5.92219 13.4436 5.40753 11.9384 5.40753C10.1898 5.40753 8.5127 6.10219 7.2762 7.3387C6.0397 8.5752 5.34503 10.2523 5.34503 12.0009C5.34503 13.7496 6.03969 15.4267 7.2762 16.6632C8.5127 17.8997 10.1898 18.5943 11.9384 18.5943C13.435 18.5943 14.8792 18.0855 16.0396 17.1637L19.0882 21.4391C19.1464 21.3988 19.1261 21.4222 19.1082 21.4427C19.0917 21.4617 19.0772 21.4783 19.1299 21.4391C19.1886 21.3954 19.2469 21.3512 19.3047 21.3064ZM17.8147 14.9913C18.2951 14.068 18.5457 13.0445 18.5457 12.0057C18.5457 11.1156 18.3616 10.2366 18.0067 9.42233C18.35 10.2302 18.5318 11.1062 18.5318 12.0009C18.5318 13.0501 18.2818 14.0734 17.8147 14.9913Z" fill="black"/>
<mask id="path-2-inside-1_74691_51711" fill="white">
<path fill-rule="evenodd" clip-rule="evenodd" d="M22.5412 6.54821C21.6553 4.86448 20.3722 3.41689 18.8006 2.32812L15.7578 6.62765C16.5755 7.2102 17.2545 7.97471 17.7358 8.86207C17.759 8.90382 17.7817 8.94584 17.8039 8.98813C18.2934 9.91836 18.5489 10.9516 18.5489 12.0004C18.5489 13.0491 18.2934 14.0824 17.8039 15.0126C17.795 15.0295 17.7861 15.0464 17.777 15.0632C17.2938 15.9831 16.5995 16.7749 15.7586 17.3742L18.8006 21.6726C20.3722 20.5838 21.6553 19.1362 22.5412 17.4525C23.427 15.7688 23.8896 13.8986 23.8896 12.0004C23.8896 10.1022 23.427 8.23194 22.5412 6.54821Z"/>
</mask>
<path d="M18.8006 2.32812L19.3701 1.50612L18.5563 0.942311L17.9843 1.75045L18.8006 2.32812ZM22.5412 6.54821L21.6562 7.01384V7.01384L22.5412 6.54821ZM15.7578 6.62765L14.9415 6.04998L14.3657 6.86366L15.1776 7.44209L15.7578 6.62765ZM17.7358 8.86207L16.8568 9.33888L16.8613 9.34708L17.7358 8.86207ZM17.8039 8.98813L18.6889 8.5225H18.6889L17.8039 8.98813ZM17.8039 15.0126L16.9189 14.547L16.9189 14.547L17.8039 15.0126ZM17.777 15.0632L16.8961 14.5898L16.8917 14.5981L17.777 15.0632ZM15.7586 17.3742L15.1782 16.5599L14.3666 17.1383L14.9424 17.9519L15.7586 17.3742ZM18.8006 21.6726L17.9843 22.2503L18.5563 23.0584L19.3701 22.4946L18.8006 21.6726ZM22.5412 17.4525L21.6562 16.9869L22.5412 17.4525ZM18.2311 3.15013C19.6711 4.1477 20.8456 5.47329 21.6562 7.01384L23.4261 6.08259C22.4649 4.25568 21.0733 2.68608 19.3701 1.50612L18.2311 3.15013ZM16.5741 7.20533L19.6169 2.9058L17.9843 1.75045L14.9415 6.04998L16.5741 7.20533ZM18.6148 8.38528C18.0605 7.36332 17.279 6.48359 16.3381 5.81322L15.1776 7.44209C15.8719 7.93681 16.4485 8.5861 16.8568 9.33886L18.6148 8.38528ZM18.6889 8.5225C18.6632 8.47371 18.637 8.42522 18.6103 8.37706L16.8613 9.34708C16.8809 9.38241 16.9001 9.41797 16.9189 9.45375L18.6889 8.5225ZM19.5489 12.0004C19.5489 10.789 19.2537 9.59597 18.6889 8.5225L16.9189 9.45375C17.333 10.2407 17.5489 11.1143 17.5489 12.0004H19.5489ZM18.6889 15.4782C19.2537 14.4047 19.5489 13.2117 19.5489 12.0004H17.5489C17.5489 12.8865 17.333 13.76 16.9189 14.547L18.6889 15.4782ZM18.6579 15.5366C18.6683 15.5172 18.6786 15.4977 18.6889 15.4782L16.9189 14.547C16.9114 14.5613 16.9038 14.5755 16.8962 14.5898L18.6579 15.5366ZM16.339 18.1885C17.3067 17.4989 18.1057 16.5878 18.6623 15.5282L16.8917 14.5981C16.4818 15.3784 15.8924 16.0509 15.1782 16.5599L16.339 18.1885ZM19.6169 21.0949L16.5749 16.7965L14.9424 17.9519L17.9843 22.2503L19.6169 21.0949ZM21.6562 16.9869C20.8456 18.5274 19.6711 19.853 18.2311 20.8506L19.3701 22.4946C21.0733 21.3146 22.4649 19.745 23.4261 17.9181L21.6562 16.9869ZM22.8896 12.0004C22.8896 13.7359 22.4667 15.4464 21.6562 16.9869L23.4261 17.9181C24.3874 16.0912 24.8896 14.0612 24.8896 12.0004H22.8896ZM21.6562 7.01384C22.4667 8.55433 22.8896 10.2648 22.8896 12.0004H24.8896C24.8896 9.93953 24.3874 7.90955 23.4261 6.08259L21.6562 7.01384Z" fill="black" mask="url(#path-2-inside-1_74691_51711)"/>
</g>
<defs>
<clipPath id="clip0_74691_51711">
<rect width="24" height="24" fill="white"/>
</clipPath>
</defs>
</svg>
