<svg width="21" height="20" viewBox="0 0 21 20" fill="none" xmlns="http://www.w3.org/2000/svg">
<path d="M15.6661 15.4567L15.3728 16.2368L15.6661 15.4567ZM15.7276 16.0792L16.069 16.8393L15.7276 16.0792ZM16.1833 15.7614L15.3503 15.7874L16.1833 15.7614ZM15.6661 4.53285L15.3728 3.75283L15.6661 4.53285ZM15.7276 3.9104L16.069 3.15024L15.7276 3.9104ZM16.1833 4.22819L15.3503 4.20213L16.1833 4.22819ZM12.7187 9.99479C12.7187 7.85389 14.0647 6.02526 15.9594 5.31287L15.3728 3.75283C12.8496 4.70153 11.0521 7.1372 11.0521 9.99479H12.7187ZM15.9594 14.6767C14.0647 13.9643 12.7187 12.1357 12.7187 9.99479H11.0521C11.0521 12.8524 12.8496 15.288 15.3728 16.2368L15.9594 14.6767ZM15.3861 15.319C14.6584 15.6459 13.851 15.8281 12.9987 15.8281V17.4948C14.091 17.4948 15.1308 17.2608 16.069 16.8393L15.3861 15.319ZM12.9987 15.8281C9.77704 15.8281 7.16536 13.2165 7.16536 9.99479H5.4987C5.4987 14.1369 8.85656 17.4948 12.9987 17.4948V15.8281ZM7.16536 9.99479C7.16536 6.77313 9.77704 4.16146 12.9987 4.16146V2.49479C8.85656 2.49479 5.4987 5.85266 5.4987 9.99479H7.16536ZM12.9987 4.16146C13.851 4.16146 14.6584 4.34371 15.3861 4.67057L16.069 3.15024C15.1308 2.72881 14.091 2.49479 12.9987 2.49479V4.16146ZM15.3728 16.2368C15.4612 16.27 15.5261 16.2945 15.5795 16.316C15.6052 16.3263 15.6243 16.3344 15.6384 16.3407C15.6528 16.3472 15.6585 16.3502 15.658 16.35C15.6576 16.3497 15.6546 16.3481 15.6496 16.3451C15.6447 16.3421 15.6369 16.3372 15.627 16.3302C15.6083 16.317 15.5746 16.291 15.5366 16.2499C15.4977 16.2078 15.451 16.1459 15.4136 16.0624C15.3751 15.9763 15.3533 15.8826 15.3503 15.7874L17.0162 15.7353C16.9988 15.1795 16.5449 14.9344 16.4455 14.8811C16.2985 14.8023 16.1058 14.7318 15.9594 14.6767L15.3728 16.2368ZM16.069 16.8393C16.1961 16.7823 16.3789 16.7025 16.5182 16.614C16.6358 16.5394 17.0328 16.2676 17.0162 15.7353L15.3503 15.7874C15.3476 15.7017 15.3604 15.6134 15.3899 15.5282C15.4189 15.4447 15.4588 15.3791 15.4956 15.3312C15.5314 15.2847 15.5651 15.2536 15.5858 15.2362C15.6067 15.2187 15.6216 15.2091 15.6248 15.207C15.6284 15.2048 15.6154 15.2131 15.5678 15.2359C15.5219 15.2579 15.4656 15.2833 15.3861 15.319L16.069 16.8393ZM15.9594 5.31287C16.1058 5.25782 16.2985 5.18731 16.4455 5.10851C16.5449 5.0552 16.9988 4.81004 17.0162 4.25425L15.3503 4.20213C15.3533 4.10694 15.3751 4.01327 15.4136 3.92723C15.451 3.84372 15.4977 3.78183 15.5366 3.73966C15.5746 3.69854 15.6083 3.67262 15.627 3.65943C15.6369 3.65241 15.6447 3.64747 15.6496 3.64448C15.6546 3.64147 15.6576 3.63986 15.658 3.63961C15.6585 3.63939 15.6528 3.64239 15.6384 3.64884C15.6243 3.65518 15.6052 3.66327 15.5795 3.67363C15.5261 3.69513 15.4612 3.7196 15.3728 3.75283L15.9594 5.31287ZM15.3861 4.67057C15.4656 4.70627 15.5219 4.73165 15.5678 4.75365C15.6154 4.77651 15.6284 4.7848 15.6248 4.78254C15.6216 4.78047 15.6067 4.77092 15.5858 4.7534C15.5651 4.73598 15.5314 4.70492 15.4956 4.65835C15.4588 4.61044 15.4189 4.54486 15.3899 4.46135C15.3604 4.37614 15.3476 4.28786 15.3503 4.20213L17.0162 4.25425C17.0328 3.72199 16.6358 3.45019 16.5182 3.37555C16.3789 3.28708 16.1961 3.20731 16.069 3.15024L15.3861 4.67057Z" fill="white"/>
</svg>
