<svg width="20" height="20" viewBox="0 0 20 20" fill="none" xmlns="http://www.w3.org/2000/svg">
<path d="M12.5029 3.32812V2.49479V3.32812ZM11.3926 9.99512H10.5592H11.3926ZM12.5029 16.6621V17.4954V16.6621ZM5.83594 9.99512H5.0026H5.83594ZM15.1728 15.4548L15.4661 14.6748L15.1728 15.4548ZM15.2344 16.0773L15.5766 16.8371L15.2344 16.0773ZM15.6895 15.7593L16.5224 15.7329L15.6895 15.7593ZM15.6894 4.22994L14.8565 4.20369L15.6894 4.22994ZM12.5029 3.32812V4.16146C13.3558 4.16146 14.1639 4.34434 14.8923 4.67203L15.2342 3.91207L15.5761 3.15212C14.6373 2.72974 13.5965 2.49479 12.5029 2.49479V3.32812ZM15.1726 4.53447L14.8793 3.75449C12.3568 4.7033 10.5592 7.13779 10.5592 9.99512H11.3926H12.2259C12.2259 7.8548 13.5716 6.02704 15.466 5.31445L15.1726 4.53447ZM11.3926 9.99512H10.5592C10.5592 12.8526 12.3571 15.2862 14.8794 16.2348L15.1728 15.4548L15.4661 14.6748C13.5716 13.9623 12.2259 12.1353 12.2259 9.99512H11.3926ZM15.2344 16.0773L14.8922 15.3175C14.1637 15.6455 13.3558 15.8288 12.5029 15.8288V16.6621V17.4954C13.5971 17.4954 14.6379 17.2599 15.5766 16.8371L15.2344 16.0773ZM12.5029 16.6621V15.8288C9.28127 15.8288 6.66927 13.2168 6.66927 9.99512H5.83594H5.0026C5.0026 14.1373 8.36079 17.4954 12.5029 17.4954V16.6621ZM5.83594 9.99512H6.66927C6.66927 6.77346 9.28127 4.16146 12.5029 4.16146V3.32812V2.49479C8.36079 2.49479 5.0026 5.85298 5.0026 9.99512H5.83594ZM15.1728 15.4548L14.8794 16.2348C14.9677 16.268 15.0326 16.2925 15.0859 16.314C15.1116 16.3243 15.1306 16.3324 15.1447 16.3387C15.1591 16.3452 15.1647 16.3482 15.1643 16.3479C15.1643 16.3479 15.1522 16.3415 15.1332 16.3281C15.1145 16.3149 15.0808 16.289 15.0429 16.2479C15.004 16.2057 14.9573 16.1439 14.9199 16.0604C14.8813 15.9744 14.8596 15.8808 14.8566 15.7857L15.6895 15.7593L16.5224 15.7329C16.5048 15.1775 16.0514 14.9324 15.9519 14.8791C15.805 14.8003 15.6124 14.7298 15.4661 14.6748L15.1728 15.4548ZM15.2344 16.0773L15.5766 16.8371C15.7034 16.78 15.8861 16.7001 16.0253 16.6115C16.1428 16.5368 16.5393 16.2648 16.5224 15.7329L15.6895 15.7593L14.8566 15.7857C14.8538 15.7 14.8665 15.6118 14.896 15.5266C14.9249 15.4431 14.9648 15.3776 15.0015 15.3296C15.0372 15.2831 15.0708 15.252 15.0916 15.2346C15.1125 15.217 15.1273 15.2074 15.1306 15.2054C15.1341 15.2031 15.1212 15.2114 15.0736 15.2343C15.0279 15.2563 14.9716 15.2817 14.8922 15.3175L15.2344 16.0773ZM15.2342 3.91207L14.8923 4.67203C14.9716 4.70775 15.028 4.73315 15.0737 4.75516C15.1213 4.77803 15.1342 4.7863 15.1306 4.78402C15.1274 4.78195 15.1125 4.77238 15.0917 4.75484C15.0709 4.73741 15.0372 4.70633 15.0015 4.65975C14.9648 4.61184 14.9249 4.54626 14.896 4.46278C14.8665 4.37761 14.8538 4.28937 14.8565 4.20369L15.6894 4.22994L16.5223 4.2562C16.5391 3.72424 16.1425 3.45234 16.0249 3.37758C15.8857 3.28906 15.703 3.20922 15.5761 3.15212L15.2342 3.91207ZM15.1726 4.53447L15.466 5.31445C15.6123 5.25944 15.8049 5.18893 15.9519 5.11014C16.0514 5.05677 16.5048 4.81167 16.5223 4.2562L15.6894 4.22994L14.8565 4.20369C14.8595 4.10856 14.8812 4.01494 14.9198 3.92896C14.9572 3.84549 15.0038 3.78363 15.0427 3.74146C15.0807 3.70034 15.1144 3.67441 15.1331 3.66121C15.152 3.64777 15.1642 3.64137 15.1642 3.64136C15.1646 3.64113 15.159 3.64412 15.1446 3.65057C15.1305 3.6569 15.1115 3.66499 15.0858 3.67533C15.0324 3.69682 14.9676 3.72127 14.8793 3.75449L15.1726 4.53447Z" fill="black"/>
</svg>
