<svg width="21" height="20" viewBox="0 0 21 20" fill="none" xmlns="http://www.w3.org/2000/svg">
<circle cx="10.6654" cy="9.9974" r="7.5" transform="rotate(-180 10.6654 9.9974)" stroke="white" stroke-width="1.66667"/>
<path d="M10.6629 17.5C12.6521 17.5 14.5597 16.7098 15.9662 15.3033C17.3728 13.8968 18.1629 11.9891 18.1629 10C18.1629 8.01088 17.3728 6.10322 15.9662 4.6967C14.5597 3.29018 12.6521 2.5 10.6629 2.5L10.6629 10L10.6629 17.5Z" fill="white"/>
<path d="M10.6675 16.8746C8.84421 16.8746 7.09563 16.1503 5.80639 14.8611C4.51715 13.5718 3.79287 11.8233 3.79287 10C3.79287 8.17674 4.51715 6.42816 5.80639 5.13892C7.09563 3.84968 8.84421 3.1254 10.6675 3.12539L10.6675 10L10.6675 16.8746Z" fill="white"/>
<path d="M10.6677 13.3392C9.78204 13.3392 8.9327 12.9874 8.30648 12.3612C7.68026 11.7349 7.32845 10.8856 7.32845 10C7.32845 9.11439 7.68026 8.26505 8.30648 7.63883C8.93271 7.01261 9.78204 6.6608 10.6677 6.6608L10.6677 10L10.6677 13.3392Z" fill="black"/>
<path d="M10.6607 16.8746C12.4839 16.8746 14.2325 16.1503 15.5217 14.8611C16.811 13.5718 17.5353 11.8233 17.5353 10C17.5353 8.17674 16.811 6.42816 15.5217 5.13892C14.2325 3.84968 12.4839 3.12539 10.6607 3.12539L10.6607 10L10.6607 16.8746Z" fill="black"/>
<path d="M10.6605 13.3392C11.5461 13.3392 12.3954 12.9874 13.0216 12.3612C13.6479 11.7349 13.9997 10.8856 13.9997 10C13.9997 9.11439 13.6479 8.26505 13.0216 7.63883C12.3954 7.01261 11.5461 6.6608 10.6605 6.6608L10.6605 10L10.6605 13.3392Z" fill="white"/>
</svg>
