<svg width="21" height="20" viewBox="0 0 21 20" fill="none" xmlns="http://www.w3.org/2000/svg">
<circle cx="10.1654" cy="9.9974" r="7.5" transform="rotate(-180 10.1654 9.9974)" stroke="black" stroke-width="1.66667"/>
<path d="M10.1629 17.5C12.1521 17.5 14.0597 16.7098 15.4662 15.3033C16.8728 13.8968 17.6629 11.9891 17.6629 10C17.6629 8.01088 16.8728 6.10322 15.4662 4.6967C14.0597 3.29018 12.1521 2.5 10.1629 2.5L10.1629 10L10.1629 17.5Z" fill="black"/>
<path d="M10.1636 16.8746C8.34031 16.8746 6.59172 16.1503 5.30249 14.8611C4.01325 13.5718 3.28896 11.8233 3.28896 10C3.28896 8.17674 4.01325 6.42816 5.30249 5.13892C6.59173 3.84968 8.34031 3.1254 10.1636 3.12539L10.1636 10L10.1636 16.8746Z" fill="black"/>
<path d="M10.1637 13.3392C9.27814 13.3392 8.4288 12.9874 7.80258 12.3612C7.17636 11.7349 6.82455 10.8856 6.82455 10C6.82455 9.11439 7.17636 8.26505 7.80258 7.63883C8.4288 7.01261 9.27814 6.6608 10.1637 6.6608L10.1637 10L10.1637 13.3392Z" fill="white"/>
<path d="M10.1646 16.8746C11.9878 16.8746 13.7364 16.1503 15.0256 14.8611C16.3149 13.5718 17.0392 11.8233 17.0392 10C17.0392 8.17674 16.3149 6.42816 15.0256 5.13892C13.7364 3.84968 11.9878 3.12539 10.1646 3.12539L10.1646 10L10.1646 16.8746Z" fill="white"/>
<path d="M10.1644 13.3392C11.05 13.3392 11.8993 12.9874 12.5255 12.3612C13.1518 11.7349 13.5036 10.8856 13.5036 10C13.5036 9.11439 13.1518 8.26505 12.5255 7.63883C11.8993 7.01261 11.05 6.6608 10.1644 6.6608L10.1644 10L10.1644 13.3392Z" fill="black"/>
</svg>
