<svg width="40" height="40" viewBox="0 0 40 40" fill="none" xmlns="http://www.w3.org/2000/svg">
<rect width="40" height="40" rx="20" fill="white"/>
<g clip-path="url(#clip0_32426_49065)">
<path d="M39.4016 24.84C36.7301 35.5544 25.877 42.075 15.1601 39.4032C4.44772 36.732 -2.07358 25.8794 0.599038 15.1659C3.26931 4.45033 14.1225 -2.07072 24.836 0.600421C35.5521 3.27157 42.073 14.1254 39.4013 24.8402L39.4015 24.84H39.4016Z" fill="#F7931A"/>
<path d="M28.8179 17.1515C29.2161 14.49 27.1895 13.0593 24.4183 12.1049L25.3173 8.49955L23.1224 7.95269L22.2473 11.4631C21.6702 11.3192 21.0777 11.1836 20.4887 11.0492L21.3702 7.51561L19.1766 6.96875L18.2772 10.5729C17.7997 10.4642 17.3307 10.3568 16.8756 10.2436L16.8782 10.2322L13.8513 9.47644L13.2675 11.8205C13.2675 11.8205 14.8959 12.1937 14.8616 12.2167C15.7504 12.4385 15.9111 13.0268 15.8845 13.4931L14.8604 17.6004C14.9216 17.616 15.001 17.6385 15.0886 17.6737C15.0154 17.6555 14.9375 17.6356 14.8566 17.6163L13.4213 23.37C13.3126 23.64 13.0369 24.0452 12.4155 23.8914C12.4375 23.9232 10.8202 23.4933 10.8202 23.4933L9.73047 26.0055L12.5868 26.7175C13.1182 26.8507 13.6389 26.9901 14.1517 27.1212L13.2434 30.7679L15.4358 31.3147L16.3353 27.7068C16.9342 27.8693 17.5154 28.0193 18.0845 28.1607L17.188 31.7516L19.383 32.2985L20.2912 28.6586C24.034 29.3669 26.8483 29.0814 28.0329 25.6964C28.9874 22.9711 27.9853 21.3991 26.0163 20.374C27.4504 20.0433 28.5307 19.1001 28.8187 17.1518L28.818 17.1513L28.8179 17.1515ZM23.8031 24.1829C23.1247 26.9082 18.5357 25.435 17.0478 25.0655L18.2531 20.2343C19.7409 20.6057 24.512 21.3407 23.8032 24.1829H23.8031ZM24.4819 17.112C23.8631 19.591 20.0436 18.3316 18.8045 18.0228L19.8973 13.6411C21.1363 13.95 25.1265 14.5263 24.4821 17.112H24.4819Z" fill="white"/>
</g>
<defs>
<clipPath id="clip0_32426_49065">
<rect width="40" height="40" fill="white" transform="translate(0 0.00195312)"/>
</clipPath>
</defs>
</svg>
