<svg width="40" height="40" viewBox="0 0 40 40" fill="none" xmlns="http://www.w3.org/2000/svg">
<rect width="40" height="40" rx="20" fill="white"/>
<path d="M20 40C8.992 40 0 30.992 0 20C0 8.992 9.008 0 20 0C31.008 0 40 9.008 40 20C40 31.008 30.992 40 20 40Z" fill="url(#paint0_linear_39318_31073)"/>
<path d="M19.0925 12.305L25.1755 8.78635C25.5028 8.59794 25.8953 8.60609 26.223 8.79529L32.3003 12.304C32.628 12.4932 32.8227 12.844 32.8318 13.2067L32.8261 20.234C32.8265 20.6116 32.6287 20.9542 32.3015 21.1427L26.2185 24.6613C25.8912 24.8497 25.4987 24.8415 25.171 24.6523L14.2974 18.3744L10.0346 20.8387L10.0318 25.7625L14.2919 28.2221L18.5547 25.7578L18.5649 22.5066L21.4248 24.1578L21.428 26.801C21.4251 26.9781 21.3752 27.1677 21.2892 27.3167C21.1946 27.4806 21.0639 27.6037 20.912 27.6948L14.829 31.2134C14.5018 31.4018 14.1093 31.3936 13.7816 31.2044L7.70423 27.6957C7.37653 27.5065 7.18182 27.1557 7.17277 26.793L7.17846 19.7657C7.17801 19.3881 7.3758 19.0455 7.70305 18.8571L13.7861 15.3385C14.1133 15.1501 14.5058 15.1582 14.8335 15.3474L25.7072 21.6253L25.7862 21.5915L29.9849 19.1696L29.9876 14.2458L25.7275 11.7862L21.4647 14.2505L21.4631 17.4868L18.6032 15.8357L18.6 13.1924C18.5996 12.8148 18.7973 12.4722 19.1246 12.2838L19.0925 12.305Z" fill="white"/>
<defs>
<linearGradient id="paint0_linear_39318_31073" x1="47.3157" y1="3.24819" x2="6.06774" y2="28.5442" gradientUnits="userSpaceOnUse">
<stop stop-color="#A229C5"/>
<stop offset="1" stop-color="#7B3FE4"/>
</linearGradient>
</defs>
</svg>
