<svg width="24" height="24" viewBox="0 0 24 24" fill="none" xmlns="http://www.w3.org/2000/svg">
<path d="M18.1248 6.0415C16.7963 6.0415 15.3416 6.76554 13.8072 8.19368C13.0831 8.86457 12.4454 9.59525 11.9805 10.1731C11.9805 10.1731 12.7244 11.03 13.5415 11.9533C13.9865 11.3954 14.6175 10.6381 15.3549 9.95394C16.7166 8.67858 17.6067 8.41952 18.1181 8.41952C20.0312 8.41952 21.5855 10.027 21.5855 12.0131C21.5855 13.9793 20.0312 15.5868 18.1181 15.6067C18.0252 15.6067 17.9189 15.5934 17.786 15.5669C18.344 15.8259 18.9485 16.0119 19.5131 16.0119C23.0203 16.0119 23.7111 13.5874 23.751 13.4147C23.8506 12.9696 23.9104 12.5047 23.9104 12.0264C23.9038 8.72508 21.3132 6.0415 18.1248 6.0415Z" fill="url(#paint0_linear_30346_23276)"/>
<path d="M5.86961 17.9851C7.19811 17.9851 8.65282 17.261 10.1872 15.8329C10.9113 15.162 11.549 14.4313 12.0139 13.8534C12.0139 13.8534 11.27 12.9965 10.4529 12.0732C10.0079 12.6312 9.37686 13.3885 8.63954 14.0726C7.27782 15.3347 6.38108 15.6071 5.87625 15.6071C3.96321 15.6071 2.40886 13.9996 2.40886 12.0135C2.40886 10.0473 3.96321 8.43978 5.87625 8.41986C5.96925 8.41986 6.07553 8.43314 6.20838 8.45971C5.65041 8.20065 5.04594 8.01466 4.48133 8.01466C0.974081 8.00802 0.28326 10.4325 0.243405 10.6119C0.143767 11.0569 0.0839844 11.5219 0.0839844 12.0002C0.0839844 15.3015 2.67456 17.9851 5.86961 17.9851Z" fill="url(#paint1_linear_30346_23276)"/>
<path fill-rule="evenodd" clip-rule="evenodd" d="M8.53829 10.0071C8.15302 9.6351 6.27984 8.11397 4.48636 8.06083C1.28467 7.98112 0.348071 10.306 0.261719 10.6049C0.879472 8.00104 3.1645 6.05479 5.87464 6.0415C8.0866 6.0415 10.3251 8.21361 11.9791 10.1731L11.9858 10.1665C11.9858 10.1665 12.7297 11.0234 13.5467 11.9467C13.5467 11.9467 14.4767 13.0427 15.4598 14.0059C15.8451 14.3779 17.7116 15.8791 19.5051 15.9322C22.7931 16.0252 23.7031 13.5675 23.7496 13.3815C23.1452 16.0053 20.8535 17.9582 18.1301 17.9715C15.9181 17.9715 13.6796 15.7994 12.019 13.8398C12.019 13.8465 12.0123 13.8465 12.0123 13.8531C12.0123 13.8531 11.2684 12.9962 10.4513 12.0729C10.458 12.0729 9.52802 10.9702 8.53829 10.0071ZM0.261719 10.6315C0.261719 10.6248 0.261719 10.6182 0.268361 10.6116C0.261719 10.6182 0.261719 10.6248 0.261719 10.6315Z" fill="#29ABE2"/>
<defs>
<linearGradient id="paint0_linear_30346_23276" x1="15.0151" y1="6.98782" x2="23.2041" y2="15.2442" gradientUnits="userSpaceOnUse">
<stop offset="0.21" stop-color="#F15A24"/>
<stop offset="0.6841" stop-color="#FBB03B"/>
</linearGradient>
<linearGradient id="paint1_linear_30346_23276" x1="8.98137" y1="17.0401" x2="0.792427" y2="8.78377" gradientUnits="userSpaceOnUse">
<stop offset="0.21" stop-color="#ED1E79"/>
<stop offset="0.8929" stop-color="#522785"/>
</linearGradient>
</defs>
</svg>
