<svg width="38" height="37" viewBox="0 0 38 37" fill="none" xmlns="http://www.w3.org/2000/svg">
<path fill-rule="evenodd" clip-rule="evenodd" d="M31.3333 0.880952C31.3333 0.394415 31.7277 0 32.2143 0H36.619C37.1056 0 37.5 0.394416 37.5 0.880952V5.28572C37.5 5.77225 37.1056 6.16667 36.619 6.16667H32.2143C31.7277 6.16667 31.3333 5.77225 31.3333 5.28571V0.880952ZM28.7073 7.92885L28.6914 7.92871H23.4048L23.4048 7.92878L23.4047 7.92885H9.30953C8.82299 7.92885 8.42858 8.32327 8.42858 8.8098V13.2146C8.42858 13.7011 8.82299 14.0955 9.30953 14.0955H22.5238C23.0103 14.0955 23.4048 14.4899 23.4048 14.9765V28.1906C23.4048 28.6772 23.7992 29.0716 24.2857 29.0716H28.6905C29.177 29.0716 29.5714 28.6772 29.5714 28.1906L29.5714 14.0955L29.5714 8.80871V8.79302C29.5714 8.31575 29.1845 7.92885 28.7073 7.92885ZM0.500003 16.7381C0.500005 16.2516 0.894422 15.8571 1.38096 15.8571L5.78572 15.8571C6.27226 15.8571 6.66667 16.2516 6.66667 16.7381L6.66667 29.9524C6.66667 30.4389 7.06109 30.8333 7.54762 30.8333L20.7619 30.8333C21.2484 30.8333 21.6429 31.2277 21.6429 31.7143V36.119C21.6429 36.6056 21.2484 37 20.7619 37L6.66667 37L1.38095 37C0.894418 37 0.500003 36.6056 0.500003 36.119L0.5 30.8333L0.500003 16.7381Z" fill="#5464FF"/>
</svg>
