<svg width="128" height="128" viewBox="0 0 128 128" fill="none" xmlns="http://www.w3.org/2000/svg">
<circle cx="64.0001" cy="64.0001" r="64.0001" fill="#1AC0F5"/>
<circle cx="64.0001" cy="64.0001" r="64.0001" fill="url(#paint0_linear_22448_26159)"/>
<mask id="mask0_22448_26159" style="mask-type:alpha" maskUnits="userSpaceOnUse" x="0" y="0" width="129" height="128">
<circle cx="64.0001" cy="64.0001" r="64.0001" fill="#22DEE9"/>
</mask>
<g mask="url(#mask0_22448_26159)">
<g style="mix-blend-mode:overlay" opacity="0.3" filter="url(#filter0_f_22448_26159)">
<path d="M74.0009 19.9969C82.799 11.5969 82.5323 -2.00311 81.599 -11.2031H121.657C121.657 0.130223 145.255 25.2004 139.6 32.3969C122 54.797 100.008 45.6569 92.4002 51.997C87.6002 55.997 95.6 71.597 92.4002 77.997C87.6372 87.5235 74 85.997 84.4002 98.397C93.8802 109.7 75.2022 128.797 56.4001 131.597C43.3156 133.546 56.3238 143.73 56.8571 149.197C49.7905 147.197 36.0571 140.877 37.6571 131.597C39.6571 119.997 47.9988 125.197 55.1988 118.797C62.3988 112.397 52.3528 107.362 42.7976 101.197C30.3979 93.197 24.7219 87.948 28.8036 80.797C31.9999 75.197 37.2009 77.197 42.8009 67.597C48.4009 57.997 32.4077 51.3817 40.4605 37.9969C47.1989 26.7969 59.6369 33.711 74.0009 19.9969Z" fill="url(#paint1_linear_22448_26159)"/>
</g>
<g filter="url(#filter1_i_22448_26159)">
<path d="M69.2008 18.3973C77.9988 9.9973 77.7322 -3.60272 76.7988 -12.8027H116.857C116.857 -1.46939 125.545 26.2129 118.799 32.3973C104.399 45.5973 80.0008 41.1973 82.4008 54.7974C84.8008 68.3974 86.3985 70.7974 83.1987 77.1974C78.4357 86.7239 65.1987 83.5974 75.5988 95.9974C85.0789 107.3 69.2008 124.797 50.3986 127.597C37.3141 129.546 51.5237 142.131 52.057 147.597C44.9903 145.597 31.257 139.277 32.857 129.997C34.857 118.397 43.1986 123.597 50.3986 117.197C57.5986 110.797 47.5527 105.762 37.9975 99.5974C25.5978 91.5974 19.9218 86.3484 24.0034 79.1974C27.1998 73.5974 32.4007 75.5974 38.0007 65.9974C43.6007 56.3974 27.6075 49.7821 35.6604 36.3973C42.3988 25.1973 54.8368 32.1114 69.2008 18.3973Z" fill="url(#paint2_linear_22448_26159)"/>
</g>
<g filter="url(#filter2_i_22448_26159)">
<path d="M130.551 71.1952C134.4 77.5969 131.884 84.4978 130.551 88.0978C127.349 96.4993 114.804 105.196 109.604 98.7963C104.404 92.3963 104.005 80.7938 111.205 72.3938C118.405 63.9938 127.549 66.204 130.551 71.1952Z" fill="url(#paint3_linear_22448_26159)"/>
</g>
</g>
<defs>
<filter id="filter0_f_22448_26159" x="24.2815" y="-14.4155" width="119.406" height="166.825" filterUnits="userSpaceOnUse" color-interpolation-filters="sRGB">
<feFlood flood-opacity="0" result="BackgroundImageFix"/>
<feBlend mode="normal" in="SourceGraphic" in2="BackgroundImageFix" result="shape"/>
<feGaussianBlur stdDeviation="1.60618" result="effect1_foregroundBlur_22448_26159"/>
</filter>
<filter id="filter1_i_22448_26159" x="22.6937" y="-12.8027" width="98.6714" height="163.613" filterUnits="userSpaceOnUse" color-interpolation-filters="sRGB">
<feFlood flood-opacity="0" result="BackgroundImageFix"/>
<feBlend mode="normal" in="SourceGraphic" in2="BackgroundImageFix" result="shape"/>
<feColorMatrix in="SourceAlpha" type="matrix" values="0 0 0 0 0 0 0 0 0 0 0 0 0 0 0 0 0 0 127 0" result="hardAlpha"/>
<feOffset dy="3.21237"/>
<feGaussianBlur stdDeviation="4.81855"/>
<feComposite in2="hardAlpha" operator="arithmetic" k2="-1" k3="1"/>
<feColorMatrix type="matrix" values="0 0 0 0 0.00392157 0 0 0 0 0.894118 0 0 0 0 0.905882 0 0 0 1 0"/>
<feBlend mode="normal" in2="shape" result="effect1_innerShadow_22448_26159"/>
</filter>
<filter id="filter2_i_22448_26159" x="105.744" y="66.7656" width="26.8541" height="37.4546" filterUnits="userSpaceOnUse" color-interpolation-filters="sRGB">
<feFlood flood-opacity="0" result="BackgroundImageFix"/>
<feBlend mode="normal" in="SourceGraphic" in2="BackgroundImageFix" result="shape"/>
<feColorMatrix in="SourceAlpha" type="matrix" values="0 0 0 0 0 0 0 0 0 0 0 0 0 0 0 0 0 0 127 0" result="hardAlpha"/>
<feOffset dy="3.21237"/>
<feGaussianBlur stdDeviation="1.60618"/>
<feComposite in2="hardAlpha" operator="arithmetic" k2="-1" k3="1"/>
<feColorMatrix type="matrix" values="0 0 0 0 0.14902 0 0 0 0 0.631373 0 0 0 0 0.964706 0 0 0 1 0"/>
<feBlend mode="normal" in2="shape" result="effect1_innerShadow_22448_26159"/>
</filter>
<linearGradient id="paint0_linear_22448_26159" x1="9.6052" y1="112.806" x2="275.605" y2="-93.1941" gradientUnits="userSpaceOnUse">
<stop stop-color="#00FFE0"/>
<stop offset="0.675166" stop-color="#0085FF"/>
<stop offset="0.804227" stop-color="#3A81F5"/>
<stop offset="0.899456" stop-color="#616EFA"/>
<stop offset="1" stop-color="#985DF6"/>
</linearGradient>
<linearGradient id="paint1_linear_22448_26159" x1="109.6" y1="58.397" x2="58.8001" y2="95.997" gradientUnits="userSpaceOnUse">
<stop stop-color="white"/>
<stop offset="1" stop-color="white" stop-opacity="0"/>
</linearGradient>
<linearGradient id="paint2_linear_22448_26159" x1="52.8076" y1="122.804" x2="215.611" y2="-82.7938" gradientUnits="userSpaceOnUse">
<stop stop-color="#00F7E2"/>
<stop offset="0.197442" stop-color="#18B6F9"/>
<stop offset="0.579898" stop-color="#3A81F5"/>
<stop offset="0.760417" stop-color="#616EFA"/>
<stop offset="1" stop-color="#985DF6"/>
</linearGradient>
<linearGradient id="paint3_linear_22448_26159" x1="88.4025" y1="117.598" x2="176.005" y2="-17.2002" gradientUnits="userSpaceOnUse">
<stop offset="0.16836" stop-color="#00D2EC"/>
<stop offset="0.422978" stop-color="#3A81F5"/>
<stop offset="0.760417" stop-color="#616EFA"/>
<stop offset="1" stop-color="#985DF6"/>
</linearGradient>
</defs>
</svg>
