<svg width="128" height="128" viewBox="0 0 128 128" fill="none" xmlns="http://www.w3.org/2000/svg">
<circle cx="64.0001" cy="64.0001" r="64.0001" fill="#2697FF"/>
<mask id="mask0_22448_26105" style="mask-type:alpha" maskUnits="userSpaceOnUse" x="0" y="0" width="129" height="128">
<circle cx="64.0001" cy="64.0001" r="64.0001" fill="#2679FF"/>
</mask>
<g mask="url(#mask0_22448_26105)">
<g filter="url(#filter0_di_22448_26105)">
<path fill-rule="evenodd" clip-rule="evenodd" d="M96.3189 42.6434C93.5928 40.4879 90.1483 39.2012 86.4031 39.2012C77.5666 39.2012 70.4031 46.3646 70.4031 55.2012C70.4031 58.3791 71.3296 61.3406 72.9272 63.8303C75.4285 68.358 80.6387 72.4271 85.0086 75.84C87.3991 77.707 89.5382 79.3776 90.8447 80.8195C97.8077 88.5033 93.9039 99.5202 85.5049 98.9743C75.3063 98.3115 73.0298 92.2868 70.646 85.9784C68.9862 81.5857 67.2743 77.0555 62.7997 74.102C60.4876 72.285 57.5719 71.2012 54.4031 71.2012C52.5434 71.2012 50.7709 71.5745 49.1563 72.2502C47.9624 72.7348 46.8725 73.3941 45.9016 74.1853C43.8338 75.8433 42.2609 78.0929 41.4395 80.6774C40.441 83.6267 40.4147 86.8353 41.6031 89.6012C43.7262 94.5428 46.3027 97.1499 48.603 99.4775C50.1618 101.055 51.5936 102.504 52.6715 104.463C55.2138 109.086 50.0087 118.401 38.0044 118.401C26.0001 118.401 22.4001 115.201 16.8 107.098C16.7957 113.201 17.3381 118.976 20.4044 122.001C30.5761 132.038 73.9062 156.499 107.994 135.881C142.083 115.262 147.816 61.9991 146.158 57.9889C146.058 57.7474 145.955 57.4947 145.848 57.2328C144.182 53.1472 141.606 46.8299 135.904 45.8148C134.186 45.509 132.694 45.0155 131.468 44.6098C128.363 43.5828 126.961 43.1189 127.904 47.6896C128.026 48.5243 128.203 49.4138 128.384 50.3234C129.429 55.5632 130.608 61.474 122.076 61.474C110.458 61.474 106.329 55.4374 102.46 49.7805C100.615 47.0834 98.8293 44.4725 96.3189 42.6434Z" fill="url(#paint0_linear_22448_26105)"/>
</g>
<g filter="url(#filter1_di_22448_26105)">
<path d="M42.2455 17.501C51.0957 26.4469 48.6832 37.1945 46.4588 43.2501C41.1172 57.3823 20.0588 64.8501 8.85885 56.8501C-2.39162 48.814 -3.88397 31.8431 9.97234 19.5171C22.8612 8.05174 36.4568 11.6498 42.2455 17.501Z" fill="url(#paint1_linear_22448_26105)" shape-rendering="crispEdges"/>
</g>
<g opacity="0.8" filter="url(#filter2_di_22448_26105)">
<path d="M64.4356 10.6158C68.0919 7.19621 72.2763 8.33415 74.6201 9.32322C80.0875 11.692 82.6853 20.2774 79.3631 24.6568C76.0259 29.0559 69.3339 29.3912 64.7122 23.6263C60.4132 18.264 62.0441 12.8525 64.4356 10.6158Z" fill="url(#paint2_linear_22448_26105)" shape-rendering="crispEdges"/>
</g>
<g opacity="0.8" filter="url(#filter3_di_22448_26105)">
<path d="M54.512 49.7944C57.1295 48.7326 59.1035 50.1782 60.138 51.1731C62.539 53.5265 62.1712 58.5742 59.5356 60.2092C56.8881 61.8515 53.2953 60.6749 52.0267 56.7036C50.8466 53.0097 52.8 50.489 54.512 49.7944Z" fill="url(#paint3_linear_22448_26105)" shape-rendering="crispEdges"/>
</g>
</g>
<defs>
<filter id="filter0_di_22448_26105" x="10.3753" y="32.7764" width="142.462" height="117.553" filterUnits="userSpaceOnUse" color-interpolation-filters="sRGB">
<feFlood flood-opacity="0" result="BackgroundImageFix"/>
<feColorMatrix in="SourceAlpha" type="matrix" values="0 0 0 0 0 0 0 0 0 0 0 0 0 0 0 0 0 0 127 0" result="hardAlpha"/>
<feOffset/>
<feGaussianBlur stdDeviation="3.21237"/>
<feComposite in2="hardAlpha" operator="out"/>
<feColorMatrix type="matrix" values="0 0 0 0 0.392157 0 0 0 0 0.858824 0 0 0 0 0.968627 0 0 0 1 0"/>
<feBlend mode="normal" in2="BackgroundImageFix" result="effect1_dropShadow_22448_26105"/>
<feBlend mode="normal" in="SourceGraphic" in2="effect1_dropShadow_22448_26105" result="shape"/>
<feColorMatrix in="SourceAlpha" type="matrix" values="0 0 0 0 0 0 0 0 0 0 0 0 0 0 0 0 0 0 127 0" result="hardAlpha"/>
<feOffset dx="1.60618" dy="3.21237"/>
<feGaussianBlur stdDeviation="6.42474"/>
<feComposite in2="hardAlpha" operator="arithmetic" k2="-1" k3="1"/>
<feColorMatrix type="matrix" values="0 0 0 0 0.701961 0 0 0 0 0.929412 0 0 0 0 1 0 0 0 1 0"/>
<feBlend mode="normal" in2="shape" result="effect2_innerShadow_22448_26105"/>
</filter>
<filter id="filter1_di_22448_26105" x="-12.8495" y="-0.847523" width="74.2323" height="73.822" filterUnits="userSpaceOnUse" color-interpolation-filters="sRGB">
<feFlood flood-opacity="0" result="BackgroundImageFix"/>
<feColorMatrix in="SourceAlpha" type="matrix" values="0 0 0 0 0 0 0 0 0 0 0 0 0 0 0 0 0 0 127 0" result="hardAlpha"/>
<feOffset/>
<feGaussianBlur stdDeviation="6.42474"/>
<feComposite in2="hardAlpha" operator="out"/>
<feColorMatrix type="matrix" values="0 0 0 0 0.109804 0 0 0 0 0.780392 0 0 0 0 0.94902 0 0 0 1 0"/>
<feBlend mode="normal" in2="BackgroundImageFix" result="effect1_dropShadow_22448_26105"/>
<feBlend mode="normal" in="SourceGraphic" in2="effect1_dropShadow_22448_26105" result="shape"/>
<feColorMatrix in="SourceAlpha" type="matrix" values="0 0 0 0 0 0 0 0 0 0 0 0 0 0 0 0 0 0 127 0" result="hardAlpha"/>
<feOffset dy="3.21237"/>
<feGaussianBlur stdDeviation="1.60618"/>
<feComposite in2="hardAlpha" operator="arithmetic" k2="-1" k3="1"/>
<feColorMatrix type="matrix" values="0 0 0 0 0.704167 0 0 0 0 0.928406 0 0 0 0 1 0 0 0 1 0"/>
<feBlend mode="normal" in2="shape" result="effect2_innerShadow_22448_26105"/>
</filter>
<filter id="filter2_di_22448_26105" x="49.1904" y="-4.53307" width="44.4964" height="45.3396" filterUnits="userSpaceOnUse" color-interpolation-filters="sRGB">
<feFlood flood-opacity="0" result="BackgroundImageFix"/>
<feColorMatrix in="SourceAlpha" type="matrix" values="0 0 0 0 0 0 0 0 0 0 0 0 0 0 0 0 0 0 127 0" result="hardAlpha"/>
<feOffset/>
<feGaussianBlur stdDeviation="6.42474"/>
<feComposite in2="hardAlpha" operator="out"/>
<feColorMatrix type="matrix" values="0 0 0 0 0.109804 0 0 0 0 0.780392 0 0 0 0 0.94902 0 0 0 1 0"/>
<feBlend mode="normal" in2="BackgroundImageFix" result="effect1_dropShadow_22448_26105"/>
<feBlend mode="normal" in="SourceGraphic" in2="effect1_dropShadow_22448_26105" result="shape"/>
<feColorMatrix in="SourceAlpha" type="matrix" values="0 0 0 0 0 0 0 0 0 0 0 0 0 0 0 0 0 0 127 0" result="hardAlpha"/>
<feOffset dy="3.21237"/>
<feGaussianBlur stdDeviation="1.60618"/>
<feComposite in2="hardAlpha" operator="arithmetic" k2="-1" k3="1"/>
<feColorMatrix type="matrix" values="0 0 0 0 0.704167 0 0 0 0 0.928406 0 0 0 0 1 0 0 0 1 0"/>
<feBlend mode="normal" in2="shape" result="effect2_innerShadow_22448_26105"/>
</filter>
<filter id="filter3_di_22448_26105" x="38.817" y="36.5724" width="35.7754" height="37.2048" filterUnits="userSpaceOnUse" color-interpolation-filters="sRGB">
<feFlood flood-opacity="0" result="BackgroundImageFix"/>
<feColorMatrix in="SourceAlpha" type="matrix" values="0 0 0 0 0 0 0 0 0 0 0 0 0 0 0 0 0 0 127 0" result="hardAlpha"/>
<feOffset/>
<feGaussianBlur stdDeviation="6.42474"/>
<feComposite in2="hardAlpha" operator="out"/>
<feColorMatrix type="matrix" values="0 0 0 0 0.109804 0 0 0 0 0.780392 0 0 0 0 0.94902 0 0 0 1 0"/>
<feBlend mode="normal" in2="BackgroundImageFix" result="effect1_dropShadow_22448_26105"/>
<feBlend mode="normal" in="SourceGraphic" in2="effect1_dropShadow_22448_26105" result="shape"/>
<feColorMatrix in="SourceAlpha" type="matrix" values="0 0 0 0 0 0 0 0 0 0 0 0 0 0 0 0 0 0 127 0" result="hardAlpha"/>
<feOffset dy="3.21237"/>
<feGaussianBlur stdDeviation="1.60618"/>
<feComposite in2="hardAlpha" operator="arithmetic" k2="-1" k3="1"/>
<feColorMatrix type="matrix" values="0 0 0 0 0.704167 0 0 0 0 0.928406 0 0 0 0 1 0 0 0 1 0"/>
<feBlend mode="normal" in2="shape" result="effect2_innerShadow_22448_26105"/>
</filter>
<linearGradient id="paint0_linear_22448_26105" x1="57.6101" y1="47.9972" x2="132.371" y2="187.247" gradientUnits="userSpaceOnUse">
<stop stop-color="#22DEE9"/>
<stop offset="0.25" stop-color="#18B6F9"/>
<stop offset="0.505208" stop-color="#3A81F5"/>
<stop offset="0.760417" stop-color="#616EFA"/>
<stop offset="1" stop-color="#985DF6"/>
</linearGradient>
<linearGradient id="paint1_linear_22448_26105" x1="33.2001" y1="6.40195" x2="19.6" y2="60.002" gradientUnits="userSpaceOnUse">
<stop stop-color="#BEF3FF"/>
<stop offset="0.527849" stop-color="#1CC8F1"/>
<stop offset="1" stop-color="#1CC8F1" stop-opacity="0"/>
</linearGradient>
<linearGradient id="paint2_linear_22448_26105" x1="59.9301" y1="14.0803" x2="81.6765" y2="20.9595" gradientUnits="userSpaceOnUse">
<stop stop-color="#BEF3FF"/>
<stop offset="0.527849" stop-color="#1CC8F1"/>
<stop offset="1" stop-color="#1CC8F1" stop-opacity="0"/>
</linearGradient>
<linearGradient id="paint3_linear_22448_26105" x1="51.4382" y1="50.7082" x2="61.5018" y2="58.7295" gradientUnits="userSpaceOnUse">
<stop stop-color="#BEF3FF"/>
<stop offset="0.527849" stop-color="#1CC8F1"/>
<stop offset="1" stop-color="#1CC8F1" stop-opacity="0"/>
</linearGradient>
</defs>
</svg>
