<svg width="128" height="128" viewBox="0 0 128 128" fill="none" xmlns="http://www.w3.org/2000/svg">
<circle cx="64.0001" cy="64.0001" r="64.0001" fill="url(#paint0_radial_22448_26097)"/>
<mask id="mask0_22448_26097" style="mask-type:alpha" maskUnits="userSpaceOnUse" x="0" y="0" width="129" height="128">
<circle r="64.0001" transform="matrix(-1 0 0 1 64.0001 64.0001)" fill="url(#paint1_linear_22448_26097)"/>
</mask>
<g mask="url(#mask0_22448_26097)">
<path fill-rule="evenodd" clip-rule="evenodd" d="M104.64 30.4267C104.64 26.8784 101.763 24.002 98.2148 24.002L68.9694 24.002C52.8052 24.002 39.7015 37.1056 39.7015 53.2698L39.7015 82.5153C39.7015 86.0636 42.578 88.94 46.1263 88.94L75.3717 88.94C91.5359 88.94 104.64 75.8364 104.64 59.6722L104.64 30.4267ZM-29.2109 24.002C-32.7592 24.002 -35.6356 26.8784 -35.6356 30.4267V59.6722C-35.6356 75.8364 -22.532 88.94 -6.36776 88.94L22.8777 88.94C26.426 88.94 29.3024 86.0636 29.3024 82.5153V53.2698C29.3025 37.1056 16.1988 24.002 0.034584 24.002L-29.2109 24.002ZM98.2148 164.278C101.763 164.278 104.64 161.402 104.64 157.853V128.608C104.64 112.444 91.5359 99.34 75.3717 99.34H46.1263C42.578 99.34 39.7015 102.216 39.7015 105.765V135.01C39.7015 151.174 52.8052 164.278 68.9694 164.278H98.2148Z" fill="url(#paint2_linear_22448_26097)"/>
</g>
<defs>
<radialGradient id="paint0_radial_22448_26097" cx="0" cy="0" r="1" gradientUnits="userSpaceOnUse" gradientTransform="translate(98.0001 6.00002) rotate(117.237) scale(137.215 113.551)">
<stop stop-color="#34DAFA"/>
<stop offset="0.693075" stop-color="#3786F5"/>
<stop offset="1" stop-color="#955EF6"/>
</radialGradient>
<linearGradient id="paint1_linear_22448_26097" x1="-4.80275" y1="217.199" x2="95.2008" y2="9.60032" gradientUnits="userSpaceOnUse">
<stop stop-color="#22DEE9"/>
<stop offset="0.25" stop-color="#18B6F9"/>
<stop offset="0.505208" stop-color="#3A81F5"/>
<stop offset="0.760417" stop-color="#616EFA"/>
<stop offset="1" stop-color="#985DF6"/>
</linearGradient>
<linearGradient id="paint2_linear_22448_26097" x1="146.382" y1="2.26848" x2="-73.3146" y2="40.9291" gradientUnits="userSpaceOnUse">
<stop stop-color="#19ECF9"/>
<stop offset="1" stop-color="#19ECF9" stop-opacity="0"/>
</linearGradient>
</defs>
</svg>
