<svg width="128" height="128" viewBox="0 0 128 128" fill="none" xmlns="http://www.w3.org/2000/svg">
<circle cx="64.0001" cy="64.0001" r="64.0001" fill="url(#paint0_radial_22448_26204)"/>
<circle cx="64.0001" cy="64.0001" r="64.0001" fill="url(#paint1_radial_22448_26204)"/>
<mask id="mask0_22448_26204" style="mask-type:alpha" maskUnits="userSpaceOnUse" x="0" y="0" width="129" height="128">
<circle cx="64.0001" cy="64.0001" r="64.0001" fill="url(#paint2_linear_22448_26204)"/>
</mask>
<g mask="url(#mask0_22448_26204)">
<path d="M88.8999 78.5552C93.918 83.5732 102.271 83.6155 105.597 77.347C108.878 71.1654 110.639 64.2205 110.639 57.0941C110.639 45.6367 106.087 34.6486 97.9859 26.547C89.8843 18.4455 78.8962 13.894 67.4388 13.894C60.3124 13.894 53.3676 15.6549 47.1859 18.9356C40.9175 22.2624 40.9597 30.615 45.9777 35.633L67.4388 57.0941L88.8999 78.5552Z" fill="url(#paint3_linear_22448_26204)"/>
<path d="M60.6212 100.063C64.3847 103.827 70.6328 103.862 73.2384 99.2207C76.1677 94.0034 77.7455 88.0767 77.7455 81.9874C77.7455 72.6518 74.0369 63.6985 67.4356 57.0972C60.8343 50.4959 51.881 46.7874 42.5454 46.7874C36.4561 46.7874 30.5295 48.3652 25.3121 51.2944C20.6711 53.9 20.7062 60.1482 24.4697 63.9117L42.5454 81.9874L60.6212 100.063Z" fill="url(#paint4_linear_22448_26204)"/>
<path d="M38.1193 105.833C40.6283 108.342 44.8158 108.36 46.4042 105.187C47.7829 102.433 48.5202 99.3712 48.5202 96.2335C48.5202 90.9292 46.413 85.8421 42.6623 82.0914C38.9116 78.3406 33.8245 76.2335 28.5201 76.2335C25.3825 76.2335 22.3208 76.9708 19.5668 78.3495C16.3939 79.9378 16.412 84.1253 18.921 86.6343L28.5201 96.2335L38.1193 105.833Z" fill="url(#paint5_linear_22448_26204)"/>
</g>
<defs>
<radialGradient id="paint0_radial_22448_26204" cx="0" cy="0" r="1" gradientUnits="userSpaceOnUse" gradientTransform="translate(76.7976 73.6021) rotate(-131.111) scale(116.8 186880)">
<stop stop-color="#22DEE9"/>
<stop offset="1" stop-color="#905FF6"/>
</radialGradient>
<radialGradient id="paint1_radial_22448_26204" cx="0" cy="0" r="1" gradientUnits="userSpaceOnUse" gradientTransform="translate(41.2001 29.6) rotate(59.3045) scale(146.53 121.26)">
<stop stop-color="#6787FA"/>
<stop offset="1" stop-color="#C312FE"/>
</radialGradient>
<linearGradient id="paint2_linear_22448_26204" x1="-4.80275" y1="217.199" x2="95.2008" y2="9.60032" gradientUnits="userSpaceOnUse">
<stop stop-color="#22DEE9"/>
<stop offset="0.25" stop-color="#18B6F9"/>
<stop offset="0.505208" stop-color="#3A81F5"/>
<stop offset="0.760417" stop-color="#616EFA"/>
<stop offset="1" stop-color="#985DF6"/>
</linearGradient>
<linearGradient id="paint3_linear_22448_26204" x1="67.3263" y1="12.4" x2="76.9264" y2="83.2001" gradientUnits="userSpaceOnUse">
<stop stop-color="white"/>
<stop offset="1" stop-color="#A03FFD"/>
</linearGradient>
<linearGradient id="paint4_linear_22448_26204" x1="58.5267" y1="48.8008" x2="62.9267" y2="106.001" gradientUnits="userSpaceOnUse">
<stop stop-color="white"/>
<stop offset="1" stop-color="#9C43FC" stop-opacity="0"/>
</linearGradient>
<linearGradient id="paint5_linear_22448_26204" x1="22.9264" y1="69.9992" x2="32.9264" y2="108.399" gradientUnits="userSpaceOnUse">
<stop stop-color="white"/>
<stop offset="1" stop-color="#9A46FC" stop-opacity="0"/>
</linearGradient>
</defs>
</svg>
