<svg width="192" height="84" viewBox="0 0 192 84" fill="none" xmlns="http://www.w3.org/2000/svg">
<path d="M192 6C192 2.68629 189.314 0 186 0H6C2.68629 0 0 2.68629 0 6V78C0 81.3137 2.68629 84 6 84H186C189.314 84 192 81.3137 192 78V6Z" fill="#5865F2"/>
<path d="M93.1364 52H89.0114V40.3636H93.1705C94.3409 40.3636 95.3485 40.5966 96.1932 41.0625C97.0379 41.5246 97.6875 42.1894 98.142 43.0568C98.6004 43.9242 98.8295 44.9621 98.8295 46.1705C98.8295 47.3826 98.6004 48.4242 98.142 49.2955C97.6875 50.1667 97.0341 50.8352 96.1818 51.3011C95.3333 51.767 94.3182 52 93.1364 52ZM91.4716 49.892H93.0341C93.7614 49.892 94.3731 49.7633 94.8693 49.5057C95.3693 49.2443 95.7443 48.8409 95.9943 48.2955C96.2481 47.7462 96.375 47.0379 96.375 46.1705C96.375 45.3106 96.2481 44.608 95.9943 44.0625C95.7443 43.517 95.3712 43.1155 94.875 42.858C94.3788 42.6004 93.767 42.4716 93.0398 42.4716H91.4716V49.892ZM100.767 52V43.2727H103.187V52H100.767ZM101.982 42.1477C101.623 42.1477 101.314 42.0284 101.056 41.7898C100.803 41.5473 100.676 41.2576 100.676 40.9205C100.676 40.5871 100.803 40.3011 101.056 40.0625C101.314 39.8201 101.623 39.6989 101.982 39.6989C102.342 39.6989 102.649 39.8201 102.903 40.0625C103.16 40.3011 103.289 40.5871 103.289 40.9205C103.289 41.2576 103.16 41.5473 102.903 41.7898C102.649 42.0284 102.342 42.1477 101.982 42.1477ZM112.547 45.7614L110.331 45.8977C110.293 45.7083 110.212 45.5379 110.087 45.3864C109.962 45.2311 109.797 45.108 109.593 45.017C109.392 44.9223 109.151 44.875 108.871 44.875C108.496 44.875 108.18 44.9545 107.922 45.1136C107.665 45.2689 107.536 45.4773 107.536 45.7386C107.536 45.947 107.619 46.1231 107.786 46.267C107.953 46.411 108.239 46.5265 108.644 46.6136L110.223 46.9318C111.072 47.1061 111.704 47.3864 112.121 47.7727C112.538 48.1591 112.746 48.6667 112.746 49.2955C112.746 49.8674 112.578 50.3693 112.24 50.8011C111.907 51.233 111.449 51.5701 110.865 51.8125C110.286 52.0511 109.617 52.1705 108.86 52.1705C107.704 52.1705 106.784 51.9299 106.098 51.4489C105.417 50.964 105.017 50.3049 104.9 49.4716L107.28 49.3466C107.352 49.6989 107.526 49.9678 107.803 50.1534C108.079 50.3352 108.434 50.4261 108.865 50.4261C109.29 50.4261 109.631 50.3447 109.888 50.1818C110.15 50.0152 110.282 49.8011 110.286 49.5398C110.282 49.3201 110.189 49.1402 110.007 49C109.826 48.8561 109.545 48.7462 109.167 48.6705L107.655 48.3693C106.803 48.1989 106.168 47.9034 105.752 47.483C105.339 47.0625 105.132 46.5265 105.132 45.875C105.132 45.3144 105.284 44.8314 105.587 44.4261C105.894 44.0208 106.324 43.7083 106.877 43.4886C107.434 43.2689 108.085 43.1591 108.831 43.1591C109.934 43.1591 110.801 43.392 111.434 43.858C112.07 44.3239 112.441 44.9583 112.547 45.7614ZM118.373 52.1705C117.48 52.1705 116.711 51.9811 116.067 51.6023C115.426 51.2197 114.934 50.6894 114.589 50.0114C114.248 49.3333 114.078 48.553 114.078 47.6705C114.078 46.7765 114.25 45.9924 114.595 45.3182C114.944 44.6402 115.438 44.1117 116.078 43.733C116.718 43.3504 117.48 43.1591 118.362 43.1591C119.123 43.1591 119.79 43.2973 120.362 43.5739C120.934 43.8504 121.387 44.2386 121.72 44.7386C122.053 45.2386 122.237 45.8258 122.271 46.5H119.987C119.923 46.0644 119.752 45.714 119.476 45.4489C119.203 45.1799 118.845 45.0455 118.402 45.0455C118.027 45.0455 117.699 45.1477 117.419 45.3523C117.142 45.553 116.926 45.8466 116.771 46.233C116.616 46.6193 116.538 47.0871 116.538 47.6364C116.538 48.1932 116.614 48.6667 116.766 49.0568C116.921 49.447 117.139 49.7443 117.419 49.9489C117.699 50.1534 118.027 50.2557 118.402 50.2557C118.678 50.2557 118.926 50.1989 119.146 50.0852C119.37 49.9716 119.553 49.8068 119.697 49.5909C119.845 49.3712 119.942 49.108 119.987 48.8011H122.271C122.233 49.4678 122.051 50.0549 121.726 50.5625C121.404 51.0663 120.959 51.4602 120.391 51.7443C119.822 52.0284 119.15 52.1705 118.373 52.1705ZM127.924 52.1705C127.042 52.1705 126.278 51.983 125.634 51.608C124.994 51.2292 124.5 50.7027 124.151 50.0284C123.803 49.3504 123.629 48.5644 123.629 47.6705C123.629 46.7689 123.803 45.9811 124.151 45.3068C124.5 44.6288 124.994 44.1023 125.634 43.7273C126.278 43.3485 127.042 43.1591 127.924 43.1591C128.807 43.1591 129.568 43.3485 130.208 43.7273C130.852 44.1023 131.348 44.6288 131.697 45.3068C132.045 45.9811 132.22 46.7689 132.22 47.6705C132.22 48.5644 132.045 49.3504 131.697 50.0284C131.348 50.7027 130.852 51.2292 130.208 51.608C129.568 51.983 128.807 52.1705 127.924 52.1705ZM127.935 50.2955C128.337 50.2955 128.672 50.1818 128.941 49.9545C129.21 49.7235 129.413 49.4091 129.549 49.0114C129.689 48.6136 129.759 48.161 129.759 47.6534C129.759 47.1458 129.689 46.6932 129.549 46.2955C129.413 45.8977 129.21 45.5833 128.941 45.3523C128.672 45.1212 128.337 45.0057 127.935 45.0057C127.53 45.0057 127.189 45.1212 126.913 45.3523C126.64 45.5833 126.434 45.8977 126.293 46.2955C126.157 46.6932 126.089 47.1458 126.089 47.6534C126.089 48.161 126.157 48.6136 126.293 49.0114C126.434 49.4091 126.64 49.7235 126.913 49.9545C127.189 50.1818 127.53 50.2955 127.935 50.2955ZM133.953 52V43.2727H136.3V44.7955H136.391C136.55 44.2538 136.817 43.8447 137.192 43.5682C137.567 43.2879 137.999 43.1477 138.487 43.1477C138.609 43.1477 138.739 43.1553 138.88 43.1705C139.02 43.1856 139.143 43.2064 139.249 43.233V45.3807C139.135 45.3466 138.978 45.3163 138.777 45.2898C138.577 45.2633 138.393 45.25 138.226 45.25C137.87 45.25 137.552 45.3277 137.272 45.483C136.995 45.6345 136.775 45.8466 136.612 46.1193C136.453 46.392 136.374 46.7064 136.374 47.0625V52H133.953ZM143.47 52.142C142.807 52.142 142.207 51.9716 141.669 51.6307C141.135 51.286 140.71 50.7803 140.396 50.1136C140.085 49.4432 139.93 48.6212 139.93 47.6477C139.93 46.6477 140.091 45.8163 140.413 45.1534C140.735 44.4867 141.163 43.9886 141.697 43.6591C142.235 43.3258 142.824 43.1591 143.464 43.1591C143.953 43.1591 144.36 43.2424 144.686 43.4091C145.015 43.572 145.281 43.7765 145.481 44.0227C145.686 44.2652 145.841 44.5038 145.947 44.7386H146.021V40.3636H148.436V52H146.049V50.6023H145.947C145.834 50.8447 145.673 51.0852 145.464 51.3239C145.26 51.5587 144.993 51.7538 144.663 51.9091C144.337 52.0644 143.94 52.142 143.47 52.142ZM144.237 50.2159C144.627 50.2159 144.957 50.1098 145.226 49.8977C145.498 49.6818 145.707 49.3807 145.851 48.9943C145.998 48.608 146.072 48.1553 146.072 47.6364C146.072 47.1174 146 46.6667 145.856 46.2841C145.712 45.9015 145.504 45.6061 145.231 45.3977C144.959 45.1894 144.627 45.0852 144.237 45.0852C143.839 45.0852 143.504 45.1932 143.231 45.4091C142.959 45.625 142.752 45.9242 142.612 46.3068C142.472 46.6894 142.402 47.1326 142.402 47.6364C142.402 48.1439 142.472 48.5928 142.612 48.983C142.756 49.3693 142.962 49.6723 143.231 49.892C143.504 50.108 143.839 50.2159 144.237 50.2159Z" fill="white"/>
<g clip-path="url(#clip0_4035_15811)">
<path d="M42.265 60.093H67.2183L66.0265 56.2342L68.8773 58.6807L71.49 61.0222L76.25 65V27.3312C76.131 24.9897 74.115 23 71.616 23L42.2738 23.0052C39.7765 23.0052 37.75 24.9985 37.75 27.34V55.76C37.75 58.2292 39.773 60.093 42.265 60.093ZM60.724 32.9452L60.6663 32.9662L60.6873 32.9452H60.724ZM47.3698 35.166C50.5775 32.8315 53.5508 32.9435 53.5508 32.9435L53.7905 33.1797C49.8653 34.116 48.0855 35.8695 48.0855 35.8695C48.0855 35.8695 48.5615 35.6367 49.3928 35.2815C54.6795 33.2025 60.4528 33.353 65.7973 35.985C65.7973 35.985 64.014 34.3452 60.3303 33.2952L60.6558 32.975C61.165 32.9767 63.86 33.0712 66.744 35.18C66.744 35.18 69.971 40.6925 69.971 47.465C69.8643 47.3355 67.969 50.3805 63.0918 50.4855C63.0918 50.4855 62.2658 49.551 61.6778 48.7355C64.5303 47.9165 65.5978 46.2785 65.5978 46.2785C64.6615 46.8682 63.8075 47.2182 63.1145 47.5682C62.0488 48.0372 60.9813 48.2682 59.9155 48.5045C54.8685 49.3235 52.0353 47.9532 49.3578 46.8665L48.4425 46.401C48.4425 46.401 49.5083 48.039 52.247 48.858C51.5278 49.6787 50.8155 50.6115 50.8155 50.6115C45.94 50.496 44.162 47.451 44.162 47.451C44.162 40.668 47.3698 35.166 47.3698 35.166Z" fill="white"/>
<path d="M61.0387 45.3492C62.283 45.3492 63.2962 44.2992 63.2962 43.0042C63.2962 41.718 62.2882 40.668 61.0387 40.668V40.6732C59.7997 40.6732 58.7847 41.7197 58.7812 43.0147C58.7812 44.2992 59.7945 45.3492 61.0387 45.3492Z" fill="white"/>
<path d="M52.9577 45.3492C54.202 45.3492 55.2152 44.2992 55.2152 43.0042C55.2152 41.718 54.209 40.668 52.9647 40.668L52.9577 40.6732C51.7134 40.6732 50.7002 41.7197 50.7002 43.0147C50.7002 44.2992 51.7134 45.3492 52.9577 45.3492Z" fill="white"/>
</g>
<defs>
<clipPath id="clip0_4035_15811">
<rect width="42" height="42" fill="white" transform="translate(36 23)"/>
</clipPath>
</defs>
</svg>
