<svg width="16" height="15" viewBox="0 0 16 15" fill="none" xmlns="http://www.w3.org/2000/svg">
<g filter="url(#filter0_d_83619_40176)">
<path fill-rule="evenodd" clip-rule="evenodd" d="M7.01018 1.67188L4.42708 4.08216V1.67188H7.01018ZM11.5623 1.67188V4.08216L8.97917 1.67188H11.5623ZM10.9683 4.5925H5.02083L7.99456 1.81771L10.9683 4.5925ZM11.3611 5.36458H4.63542L7.99828 13.0048L11.3611 5.36458ZM3.64292 4.59005V2.25521L1.41146 4.59005H3.64292ZM14.5752 4.59005H12.3438V2.25521L14.5752 4.59005ZM12.2115 5.36458L9.46875 11.5959L14.6627 5.36458H12.2115ZM1.32812 5.36458H3.7793L6.52206 11.5959L1.32812 5.36458Z" fill="url(#paint0_linear_83619_40176)"/>
</g>
<mask id="path-2-inside-1_83619_40176" fill="white">
<path fill-rule="evenodd" clip-rule="evenodd" d="M7.01018 1.67188L4.42708 4.08216V1.67188H7.01018ZM11.5623 1.67188V4.08216L8.97917 1.67188H11.5623ZM10.9683 4.5925H5.02083L7.99456 1.81771L10.9683 4.5925ZM11.3611 5.36458H4.63542L7.99828 13.0048L11.3611 5.36458ZM3.64292 4.59005V2.25521L1.41146 4.59005H3.64292ZM14.5752 4.59005H12.3438V2.25521L14.5752 4.59005ZM12.2115 5.36458L9.46875 11.5959L14.6627 5.36458H12.2115ZM1.32812 5.36458H3.7793L6.52206 11.5959L1.32812 5.36458Z"/>
</mask>
<path fill-rule="evenodd" clip-rule="evenodd" d="M7.01018 1.67188L4.42708 4.08216V1.67188H7.01018ZM11.5623 1.67188V4.08216L8.97917 1.67188H11.5623ZM10.9683 4.5925H5.02083L7.99456 1.81771L10.9683 4.5925ZM11.3611 5.36458H4.63542L7.99828 13.0048L11.3611 5.36458ZM3.64292 4.59005V2.25521L1.41146 4.59005H3.64292ZM14.5752 4.59005H12.3438V2.25521L14.5752 4.59005ZM12.2115 5.36458L9.46875 11.5959L14.6627 5.36458H12.2115ZM1.32812 5.36458H3.7793L6.52206 11.5959L1.32812 5.36458Z" fill="url(#paint1_linear_83619_40176)"/>
<path d="M4.42708 4.08216H4.09375V4.8491L4.65449 4.32587L4.42708 4.08216ZM7.01018 1.67188L7.23759 1.91559L7.85601 1.33854H7.01018V1.67188ZM4.42708 1.67188V1.33854H4.09375V1.67188H4.42708ZM11.5623 4.08216L11.3349 4.32587L11.8956 4.8491V4.08216H11.5623ZM11.5623 1.67188H11.8956V1.33854H11.5623V1.67188ZM8.97917 1.67188V1.33854H8.13334L8.75176 1.91559L8.97917 1.67188ZM5.02083 4.5925L4.79342 4.34878L4.17501 4.92583H5.02083V4.5925ZM10.9683 4.5925V4.92583H11.8141L11.1957 4.34878L10.9683 4.5925ZM7.99456 1.81771L8.22197 1.574L7.99456 1.3618L7.76715 1.574L7.99456 1.81771ZM4.63542 5.36458V5.03125H4.1245L4.33033 5.49887L4.63542 5.36458ZM11.3611 5.36458L11.6662 5.49887L11.8721 5.03125H11.3611V5.36458ZM7.99828 13.0048L7.69319 13.1391L7.99828 13.8322L8.30337 13.1391L7.99828 13.0048ZM3.64292 2.25521H3.97625V1.42398L3.40194 2.0249L3.64292 2.25521ZM3.64292 4.59005V4.92339H3.97625V4.59005H3.64292ZM1.41146 4.59005L1.17048 4.35975L0.631799 4.92339H1.41146V4.59005ZM12.3438 4.59005H12.0104V4.92339H12.3438V4.59005ZM14.5752 4.59005V4.92339H15.3549L14.8162 4.35975L14.5752 4.59005ZM12.3438 2.25521L12.5847 2.0249L12.0104 1.42398V2.25521H12.3438ZM9.46875 11.5959L9.16366 11.4616L9.7248 11.8093L9.46875 11.5959ZM12.2115 5.36458V5.03125H11.994L11.9064 5.2303L12.2115 5.36458ZM14.6627 5.36458L14.9187 5.57801L15.3745 5.03125H14.6627V5.36458ZM3.7793 5.36458L4.08438 5.2303L3.99677 5.03125H3.7793V5.36458ZM1.32812 5.36458V5.03125H0.616343L1.07207 5.57801L1.32812 5.36458ZM6.52206 11.5959L6.26601 11.8093L6.82715 11.4616L6.52206 11.5959ZM4.65449 4.32587L7.23759 1.91559L6.78277 1.42816L4.19967 3.83845L4.65449 4.32587ZM4.09375 1.67188V4.08216H4.76042V1.67188H4.09375ZM7.01018 1.33854H4.42708V2.00521H7.01018V1.33854ZM11.8956 4.08216V1.67188H11.2289V4.08216H11.8956ZM8.75176 1.91559L11.3349 4.32587L11.7897 3.83845L9.20658 1.42816L8.75176 1.91559ZM11.5623 1.33854H8.97917V2.00521H11.5623V1.33854ZM5.02083 4.92583H10.9683V4.25916H5.02083V4.92583ZM7.76715 1.574L4.79342 4.34878L5.24824 4.83621L8.22197 2.06142L7.76715 1.574ZM11.1957 4.34878L8.22197 1.574L7.76715 2.06142L10.7409 4.83621L11.1957 4.34878ZM4.63542 5.69792H11.3611V5.03125H4.63542V5.69792ZM8.30337 12.8705L4.9405 5.2303L4.33033 5.49887L7.69319 13.1391L8.30337 12.8705ZM11.0561 5.2303L7.69319 12.8705L8.30337 13.1391L11.6662 5.49887L11.0561 5.2303ZM3.30958 2.25521V4.59005H3.97625V2.25521H3.30958ZM1.65244 4.82036L3.88389 2.48552L3.40194 2.0249L1.17048 4.35975L1.65244 4.82036ZM3.64292 4.25672H1.41146V4.92339H3.64292V4.25672ZM12.3438 4.92339H14.5752V4.25672H12.3438V4.92339ZM12.0104 2.25521V4.59005H12.6771V2.25521H12.0104ZM14.8162 4.35975L12.5847 2.0249L12.1028 2.48551L14.3342 4.82036L14.8162 4.35975ZM9.77384 11.7302L12.5166 5.49887L11.9064 5.2303L9.16366 11.4616L9.77384 11.7302ZM14.4066 5.15116L9.2127 11.3825L9.7248 11.8093L14.9187 5.57801L14.4066 5.15116ZM12.2115 5.69792H14.6627V5.03125H12.2115V5.69792ZM3.7793 5.03125H1.32812V5.69792H3.7793V5.03125ZM6.82715 11.4616L4.08438 5.2303L3.47421 5.49887L6.21697 11.7302L6.82715 11.4616ZM1.07207 5.57801L6.26601 11.8093L6.77811 11.3825L1.58418 5.15116L1.07207 5.57801Z" fill="url(#paint2_linear_83619_40176)" mask="url(#path-2-inside-1_83619_40176)"/>
<defs>
<filter id="filter0_d_83619_40176" x="-0.671875" y="0.338542" width="17.3359" height="15.3359" filterUnits="userSpaceOnUse" color-interpolation-filters="sRGB">
<feFlood flood-opacity="0" result="BackgroundImageFix"/>
<feColorMatrix in="SourceAlpha" type="matrix" values="0 0 0 0 0 0 0 0 0 0 0 0 0 0 0 0 0 0 127 0" result="hardAlpha"/>
<feOffset dy="0.666667"/>
<feGaussianBlur stdDeviation="1"/>
<feComposite in2="hardAlpha" operator="out"/>
<feColorMatrix type="matrix" values="0 0 0 0 0.0313726 0 0 0 0 0.905882 0 0 0 0 0.803922 0 0 0 0.5 0"/>
<feBlend mode="normal" in2="BackgroundImageFix" result="effect1_dropShadow_83619_40176"/>
<feBlend mode="normal" in="SourceGraphic" in2="effect1_dropShadow_83619_40176" result="shape"/>
</filter>
<linearGradient id="paint0_linear_83619_40176" x1="7.9954" y1="1.67188" x2="3.92509" y2="11.5959" gradientUnits="userSpaceOnUse">
<stop stop-color="#02F7DF"/>
<stop offset="1" stop-color="#09AFA0"/>
</linearGradient>
<linearGradient id="paint1_linear_83619_40176" x1="7.9954" y1="1.67188" x2="3.92509" y2="11.5959" gradientUnits="userSpaceOnUse">
<stop stop-color="#02F7DF"/>
<stop offset="1" stop-color="#09AFA0"/>
</linearGradient>
<linearGradient id="paint2_linear_83619_40176" x1="11.1414" y1="1.88081" x2="7.9954" y2="13.0048" gradientUnits="userSpaceOnUse">
<stop stop-color="#17FFE4"/>
<stop offset="1" stop-color="#00DCC2"/>
</linearGradient>
</defs>
</svg>
