<svg width="192" height="84" viewBox="0 0 192 84" fill="none" xmlns="http://www.w3.org/2000/svg">
<path d="M192 6C192 2.68629 189.314 0 186 0H6C2.68629 0 0 2.68629 0 6V78C0 81.3137 2.68629 84 6 84H186C189.314 84 192 81.3137 192 78V6Z" fill="#0F0C0D"/>
<path d="M97.7273 44.125C97.6477 43.8485 97.536 43.6042 97.392 43.392C97.2481 43.1761 97.072 42.9943 96.8636 42.8466C96.6591 42.6951 96.4242 42.5795 96.1591 42.5C95.8977 42.4205 95.608 42.3807 95.2898 42.3807C94.6951 42.3807 94.1723 42.5284 93.7216 42.8239C93.2746 43.1193 92.9261 43.5492 92.6761 44.1136C92.4261 44.6742 92.3011 45.3598 92.3011 46.1705C92.3011 46.9811 92.4242 47.6705 92.6705 48.2386C92.9167 48.8068 93.2652 49.2405 93.7159 49.5398C94.1667 49.8352 94.6989 49.983 95.3125 49.983C95.8693 49.983 96.3447 49.8845 96.7386 49.6875C97.1364 49.4867 97.4394 49.2045 97.6477 48.8409C97.8598 48.4773 97.9659 48.0473 97.9659 47.5511L98.4659 47.625H95.4659V45.7727H100.335V47.2386C100.335 48.2614 100.119 49.1402 99.6875 49.875C99.2557 50.6061 98.661 51.1705 97.9034 51.5682C97.1458 51.9621 96.2784 52.1591 95.3011 52.1591C94.2102 52.1591 93.2519 51.9186 92.4261 51.4375C91.6004 50.9527 90.9564 50.2652 90.4943 49.375C90.036 48.4811 89.8068 47.4205 89.8068 46.1932C89.8068 45.25 89.9432 44.4091 90.2159 43.6705C90.4924 42.928 90.8788 42.2992 91.375 41.7841C91.8712 41.2689 92.4489 40.8769 93.108 40.608C93.767 40.339 94.4811 40.2045 95.25 40.2045C95.9091 40.2045 96.5227 40.3011 97.0909 40.4943C97.6591 40.6837 98.1629 40.9527 98.6023 41.3011C99.0455 41.6496 99.4072 42.0644 99.6875 42.5455C99.9678 43.0227 100.148 43.5492 100.227 44.125H97.7273ZM102.845 52V43.2727H105.265V52H102.845ZM104.061 42.1477C103.701 42.1477 103.392 42.0284 103.134 41.7898C102.881 41.5473 102.754 41.2576 102.754 40.9205C102.754 40.5871 102.881 40.3011 103.134 40.0625C103.392 39.8201 103.701 39.6989 104.061 39.6989C104.42 39.6989 104.727 39.8201 104.981 40.0625C105.239 40.3011 105.367 40.5871 105.367 40.9205C105.367 41.2576 105.239 41.5473 104.981 41.7898C104.727 42.0284 104.42 42.1477 104.061 42.1477ZM112.006 43.2727V45.0909H106.75V43.2727H112.006ZM107.944 41.1818H110.364V49.3182C110.364 49.5417 110.398 49.7159 110.466 49.8409C110.534 49.9621 110.629 50.0473 110.75 50.0966C110.875 50.1458 111.019 50.1705 111.182 50.1705C111.296 50.1705 111.409 50.161 111.523 50.142C111.637 50.1193 111.724 50.1023 111.784 50.0909L112.165 51.892C112.044 51.9299 111.874 51.9735 111.654 52.0227C111.434 52.0758 111.167 52.108 110.853 52.1193C110.269 52.142 109.758 52.0644 109.319 51.8864C108.883 51.7083 108.544 51.4318 108.302 51.0568C108.059 50.6818 107.94 50.2083 107.944 49.6364V41.1818ZM113.976 52V40.3636H116.436V45.1648H121.43V40.3636H123.885V52H121.43V47.1932H116.436V52H113.976ZM131.624 48.2841V43.2727H134.045V52H131.721V50.4148H131.63C131.433 50.9261 131.105 51.3371 130.647 51.6477C130.193 51.9583 129.638 52.1136 128.982 52.1136C128.399 52.1136 127.886 51.9811 127.443 51.7159C126.999 51.4508 126.653 51.0739 126.403 50.5852C126.157 50.0966 126.032 49.5114 126.028 48.8295V43.2727H128.448V48.3977C128.452 48.9129 128.59 49.3201 128.863 49.6193C129.136 49.9186 129.501 50.0682 129.96 50.0682C130.251 50.0682 130.524 50.0019 130.778 49.8693C131.032 49.733 131.236 49.5322 131.391 49.267C131.551 49.0019 131.628 48.6742 131.624 48.2841ZM136.186 52V40.3636H138.607V44.7386H138.681C138.787 44.5038 138.94 44.2652 139.141 44.0227C139.345 43.7765 139.611 43.572 139.936 43.4091C140.266 43.2424 140.675 43.1591 141.164 43.1591C141.8 43.1591 142.387 43.3258 142.925 43.6591C143.463 43.9886 143.893 44.4867 144.215 45.1534C144.537 45.8163 144.698 46.6477 144.698 47.6477C144.698 48.6212 144.541 49.4432 144.226 50.1136C143.916 50.7803 143.491 51.286 142.953 51.6307C142.419 51.9716 141.821 52.142 141.158 52.142C140.688 52.142 140.289 52.0644 139.959 51.9091C139.633 51.7538 139.366 51.5587 139.158 51.3239C138.95 51.0852 138.791 50.8447 138.681 50.6023H138.573V52H136.186ZM138.556 47.6364C138.556 48.1553 138.628 48.608 138.772 48.9943C138.916 49.3807 139.124 49.6818 139.397 49.8977C139.669 50.1098 140.001 50.2159 140.391 50.2159C140.785 50.2159 141.118 50.108 141.391 49.892C141.664 49.6723 141.87 49.3693 142.01 48.983C142.154 48.5928 142.226 48.1439 142.226 47.6364C142.226 47.1326 142.156 46.6894 142.016 46.3068C141.876 45.9242 141.669 45.625 141.397 45.4091C141.124 45.1932 140.789 45.0852 140.391 45.0852C139.997 45.0852 139.664 45.1894 139.391 45.3977C139.122 45.6061 138.916 45.9015 138.772 46.2841C138.628 46.6667 138.556 47.1174 138.556 47.6364Z" fill="white"/>
<g clip-path="url(#clip0_4035_15809)">
<path fill-rule="evenodd" clip-rule="evenodd" d="M57.9999 23.0012C53.0095 22.996 48.1805 24.8134 44.3781 28.1278C40.5757 31.4422 38.0485 36.0369 37.2495 41.0885C36.4505 46.1401 37.4318 51.3184 40.0176 55.6954C42.6035 60.0724 46.6248 63.3621 51.3609 64.9748C52.4051 65.1731 52.7918 64.512 52.7918 63.9304C52.7918 63.3487 52.7918 62.0664 52.7918 60.2684C46.952 61.5904 45.7145 57.3865 45.7145 57.3865C45.3277 56.0857 44.5001 54.9698 43.3811 54.2401C41.4732 52.9181 43.5229 52.9181 43.5229 52.9181C44.1898 53.0115 44.827 53.2602 45.3856 53.6452C45.9442 54.0301 46.4095 54.5412 46.7458 55.1391C47.0308 55.6696 47.4155 56.137 47.8777 56.5143C48.3398 56.8915 48.8703 57.1712 49.4384 57.3371C50.0065 57.5031 50.601 57.552 51.1876 57.481C51.7743 57.4101 52.3414 57.2207 52.8563 56.9238C52.9394 55.8368 53.3962 54.8155 54.1454 54.0418C49.4787 53.4998 44.58 51.649 44.58 43.3997C44.5515 41.2602 45.327 39.1915 46.7458 37.6225C46.1057 35.7654 46.1794 33.728 46.952 31.9247C46.952 31.9247 48.7182 31.343 52.7274 34.1325C56.1704 33.1651 59.8037 33.1651 63.2467 34.1325C67.2559 31.343 69.022 31.9247 69.022 31.9247C69.7959 33.7277 69.8697 35.7656 69.2283 37.6225C70.6435 39.1928 71.4145 41.2617 71.3811 43.3997C71.3811 51.6754 66.4695 53.4866 61.79 53.9757C62.289 54.495 62.6746 55.1171 62.9213 55.8009C63.1681 56.4847 63.2702 57.2144 63.2209 57.9417C63.2209 60.8237 63.2209 63.1372 63.2209 63.8511C63.2209 64.5649 63.5948 65.0937 64.6647 64.8822C69.3924 63.2619 73.4038 59.9699 75.9818 55.5949C78.5597 51.2199 79.536 46.0471 78.7362 41.0016C77.9363 35.9561 75.4124 31.3669 71.6158 28.0546C67.8192 24.7423 62.9975 22.923 58.0128 22.9219L57.9999 23.0012Z" fill="white"/>
</g>
<defs>
<clipPath id="clip0_4035_15809">
<rect width="42" height="42" fill="white" transform="translate(37 23)"/>
</clipPath>
</defs>
</svg>
