<svg width="17" height="17" viewBox="0 0 17 17" fill="none" xmlns="http://www.w3.org/2000/svg">
<path d="M10.4358 4.55729V4.55729C10.4358 3.93731 10.4358 3.62732 10.3676 3.37299C10.1827 2.6828 9.64359 2.14371 8.9534 1.95877C8.69907 1.89062 8.38908 1.89062 7.7691 1.89062H5.54688C3.66126 1.89062 2.71845 1.89062 2.13266 2.47641C1.54688 3.0622 1.54688 4.00501 1.54688 5.89063V8.11285C1.54688 8.73283 1.54688 9.04282 1.61502 9.29715C1.79996 9.98734 2.33905 10.5264 3.02924 10.7114C3.28357 10.7795 3.59356 10.7795 4.21354 10.7795V10.7795" stroke="currentColor"/>
<path d="M12.3234 6.22266H9.87891C7.99329 6.22266 7.05048 6.22266 6.46469 6.80844C5.87891 7.39423 5.87891 8.33704 5.87891 10.2227V11.1115C5.87891 12.9972 5.87891 13.94 6.46469 14.5258C7.05048 15.1115 7.99329 15.1115 9.87891 15.1115H10.7678C12.6534 15.1115 13.5962 15.1115 14.182 14.5258C14.7678 13.94 14.7678 12.9972 14.7678 11.1115V10.0547" stroke="currentColor"/>
<path d="M8.81641 9.79427L10.6186 11.4609L14.2331 7.71094" stroke="currentColor" stroke-linecap="round"/>
</svg>
