<svg width="17" height="17" viewBox="0 0 17 17" fill="none" xmlns="http://www.w3.org/2000/svg">
<path d="M10.4358 4.55729V4.55729C10.4358 3.93731 10.4358 3.62732 10.3676 3.37299C10.1827 2.6828 9.64359 2.14371 8.9534 1.95877C8.69907 1.89062 8.38908 1.89062 7.7691 1.89062H5.54688C3.66126 1.89062 2.71845 1.89062 2.13266 2.47641C1.54688 3.0622 1.54688 4.00501 1.54688 5.89063V8.11285C1.54688 8.73283 1.54688 9.04282 1.61502 9.29715C1.79996 9.98734 2.33905 10.5264 3.02924 10.7114C3.28357 10.7795 3.59356 10.7795 4.21354 10.7795V10.7795" stroke="currentColor"/>
<rect x="5.87891" y="6.22266" width="8.88889" height="8.88889" rx="2" stroke="currentColor"/>
</svg>
