<svg width="80" height="80" viewBox="0 0 80 80" fill="none" xmlns="http://www.w3.org/2000/svg">
<path d="M0 5C0 2.23858 2.23858 0 5 0H80V80H5C2.23858 80 0 77.7614 0 75V5Z" fill="#F3F4F6"/>
<path d="M39.8569 38.0268C38.7272 38.9286 31.3044 45.1097 31.3044 51.8271C31.3044 54.6097 32.6958 60.8706 40.0001 60.8706C47.3045 60.8706 48.6957 54.6097 48.6957 51.8271C48.6957 45.1097 41.2733 38.9286 40.1436 38.0268C40.0563 37.9571 39.9442 37.9571 39.8569 38.0268Z" stroke="white" stroke-width="3.30435" stroke-linejoin="round"/>
<path d="M23.6522 43.4798C23.6522 55.445 33.0435 60.8711 40.3478 60.8711C47.6522 60.8711 56.3478 55.6537 56.3478 43.4798C56.3478 35.0231 50.3305 29.1071 47.8 26.9116C47.7122 26.8355 47.5868 26.833 47.493 26.9015C47.1014 27.1872 46.0282 27.954 44.7302 28.745C44.6148 28.8154 44.4652 28.7805 44.3933 28.6661C42.8152 26.1554 40.0239 21.9524 39.4211 21.0465C39.3529 20.9439 39.2266 20.9078 39.1162 20.9623C34.1629 23.4018 23.6522 31.6664 23.6522 43.4798Z" stroke="white" stroke-width="3.30435" stroke-linejoin="round"/>
</svg>
