<svg width="38" height="38" viewBox="0 0 38 38" fill="none" xmlns="http://www.w3.org/2000/svg">
<path d="M7.9165 12.6673V25.334C7.9165 28.3195 7.9165 29.8123 8.844 30.7398C9.77149 31.6673 11.2643 31.6673 14.2498 31.6673H23.7498C26.7354 31.6673 28.2282 31.6673 29.1557 30.7398C30.0832 29.8123 30.0832 28.3195 30.0832 25.334V12.6673M7.9165 12.6673H30.0832M7.9165 12.6673H6.11726C5.87427 12.6673 5.75277 12.6673 5.6684 12.6042C5.64422 12.5861 5.62276 12.5646 5.60467 12.5404C5.5415 12.456 5.5415 12.3346 5.5415 12.0916V12.0916C5.5415 9.66164 5.5415 8.44668 6.17312 7.60294C6.35409 7.36119 6.56871 7.14657 6.81046 6.9656C7.6542 6.33398 8.86916 6.33398 11.2991 6.33398H26.7006C29.1305 6.33398 30.3455 6.33398 31.1892 6.9656C31.431 7.14657 31.6456 7.36119 31.8266 7.60294C32.4582 8.44668 32.4582 9.66164 32.4582 12.0916V12.0916C32.4582 12.3346 32.4582 12.456 32.395 12.5404C32.3769 12.5646 32.3555 12.5861 32.3313 12.6042C32.2469 12.6673 32.1254 12.6673 31.8824 12.6673H30.0832" stroke="currentColor" stroke-width="3.16667"/>
<path d="M15.8335 19H22.1668" stroke="currentColor" stroke-width="3.16667" stroke-linecap="round"/>
</svg>
