<svg width="24" height="24" viewBox="0 0 24 24" fill="none" xmlns="http://www.w3.org/2000/svg">
<path d="M15.1111 5L15.8182 4.29289C15.4277 3.90237 14.7945 3.90237 14.404 4.29289L15.1111 5ZM19 8.88889L19.7071 9.596C20.0976 9.20547 20.0976 8.57231 19.7071 8.18178L19 8.88889ZM8.88889 19V20C9.15411 20 9.40846 19.8946 9.596 19.7071L8.88889 19ZM5 19H4V20H5V19ZM5 15.1111L4.29289 14.404C4.10536 14.5915 4 14.8459 4 15.1111H5ZM15.1111 5L14.404 5.70711L18.2929 9.596L19 8.88889L19.7071 8.18178L15.8182 4.29289L15.1111 5ZM19 8.88889L18.2929 8.18178L8.18178 18.2929L8.88889 19L9.596 19.7071L19.7071 9.596L19 8.88889ZM8.88889 19V18H5V19V20H8.88889V19ZM5 19H6V15.1111H5H4V19H5ZM5 15.1111L5.70711 15.8182L15.8182 5.70711L15.1111 5L14.404 4.29289L4.29289 14.404L5 15.1111Z" fill="white"/>
</svg>
