<svg width="24" height="24" viewBox="0 0 24 24" fill="none" xmlns="http://www.w3.org/2000/svg">
<path fill-rule="evenodd" clip-rule="evenodd" d="M12 14C13.1046 14 14 13.1046 14 12C14 10.8954 13.1046 10 12 10C10.8954 10 10 10.8954 10 12C10 13.1046 10.8954 14 12 14ZM12 16C14.2091 16 16 14.2091 16 12C16 9.79086 14.2091 8 12 8C9.79086 8 8 9.79086 8 12C8 14.2091 9.79086 16 12 16Z" fill="black"/>
<path fill-rule="evenodd" clip-rule="evenodd" d="M7.65597 8.63233C6.33685 9.58138 5.26092 10.7442 4.58069 11.57C4.48092 11.6912 4.40641 11.7818 4.34468 11.8615C4.29581 11.9246 4.26469 11.9685 4.24438 12C4.26469 12.0315 4.29581 12.0754 4.34468 12.1385C4.40641 12.2182 4.48092 12.3088 4.58069 12.43C5.26091 13.2558 6.33685 14.4186 7.65597 15.3677C8.98299 16.3224 10.471 17 11.9968 17C13.5226 17 15.0107 16.3224 16.3377 15.3677C17.6568 14.4186 18.7328 13.2558 19.413 12.43C19.5128 12.3088 19.5873 12.2182 19.649 12.1385C19.6979 12.0754 19.729 12.0315 19.7493 12C19.729 11.9685 19.6979 11.9246 19.649 11.8615C19.5873 11.7818 19.5128 11.6912 19.413 11.57C18.7328 10.7442 17.6568 9.58138 16.3377 8.63233C15.0107 7.6776 13.5226 7 11.9968 7C10.471 7 8.98299 7.6776 7.65597 8.63233ZM6.48794 7.00884C7.99098 5.92747 9.88691 5 11.9968 5C14.1068 5 16.0027 5.92747 17.5057 7.00885C19.0167 8.0959 20.2169 9.40025 20.9568 10.2985C20.9803 10.3272 21.0049 10.3566 21.0302 10.3869C21.3437 10.7624 21.7671 11.2696 21.7671 12C21.7671 12.7304 21.3437 13.2376 21.0302 13.6131C21.0049 13.6434 20.9803 13.6728 20.9568 13.7015C20.2169 14.5998 19.0167 15.9041 17.5057 16.9912C16.0027 18.0725 14.1068 19 11.9968 19C9.8869 19 7.99098 18.0725 6.48794 16.9912C4.977 15.9041 3.77679 14.5998 3.03692 13.7015C3.01333 13.6728 2.98874 13.6434 2.96343 13.6131C2.65001 13.2376 2.22656 12.7304 2.22656 12C2.22656 11.2696 2.65001 10.7624 2.96343 10.3869C2.98874 10.3566 3.01333 10.3272 3.03692 10.2985C3.77679 9.40024 4.977 8.0959 6.48794 7.00884Z" fill="black"/>
</svg>
