<svg width="24" height="25" viewBox="0 0 24 25" fill="none" xmlns="http://www.w3.org/2000/svg">
<path fill-rule="evenodd" clip-rule="evenodd" d="M12 14.1172C13.1046 14.1172 14 13.2218 14 12.1172C14 11.0126 13.1046 10.1172 12 10.1172C10.8954 10.1172 10 11.0126 10 12.1172C10 13.2218 10.8954 14.1172 12 14.1172ZM12 16.1172C14.2091 16.1172 16 14.3263 16 12.1172C16 9.90805 14.2091 8.11719 12 8.11719C9.79086 8.11719 8 9.90805 8 12.1172C8 14.3263 9.79086 16.1172 12 16.1172Z" fill="white"/>
<path fill-rule="evenodd" clip-rule="evenodd" d="M7.65988 8.74952C6.34075 9.69857 5.26482 10.8614 4.5846 11.6872C4.48483 11.8084 4.41031 11.899 4.34858 11.9787C4.29972 12.0418 4.26859 12.0857 4.24829 12.1172C4.26859 12.1487 4.29972 12.1926 4.34858 12.2557C4.41031 12.3354 4.48483 12.426 4.5846 12.5471C5.26482 13.373 6.34075 14.5358 7.65988 15.4849C8.9869 16.4396 10.4749 17.1172 12.0007 17.1172C13.5265 17.1172 15.0146 16.4396 16.3416 15.4849C17.6607 14.5358 18.7367 13.373 19.4169 12.5471C19.5167 12.426 19.5912 12.3354 19.6529 12.2557C19.7018 12.1926 19.7329 12.1487 19.7532 12.1172C19.7329 12.0857 19.7018 12.0418 19.6529 11.9787C19.5912 11.899 19.5167 11.8084 19.4169 11.6872C18.7367 10.8614 17.6607 9.69857 16.3416 8.74952C15.0146 7.79479 13.5265 7.11719 12.0007 7.11719C10.4749 7.11719 8.9869 7.79479 7.65988 8.74952ZM6.49185 7.12603C7.99489 6.04466 9.89081 5.11719 12.0007 5.11719C14.1107 5.11719 16.0066 6.04466 17.5096 7.12603C19.0206 8.21309 20.2208 9.51743 20.9607 10.4157C20.9843 10.4444 21.0088 10.4738 21.0341 10.5041C21.3476 10.8795 21.771 11.3868 21.771 12.1172C21.771 12.8476 21.3476 13.3548 21.0341 13.7303C21.0088 13.7606 20.9843 13.79 20.9607 13.8187C20.2208 14.7169 19.0206 16.0213 17.5096 17.1083C16.0066 18.1897 14.1107 19.1172 12.0007 19.1172C9.89081 19.1172 7.99489 18.1897 6.49185 17.1083C4.98091 16.0213 3.78069 14.7169 3.04083 13.8187C3.01723 13.79 2.99264 13.7606 2.96734 13.7303C2.65391 13.3548 2.23047 12.8476 2.23047 12.1172C2.23047 11.3868 2.65391 10.8795 2.96734 10.5041C2.99265 10.4738 3.01724 10.4444 3.04083 10.4157C3.78069 9.51743 4.98091 8.21309 6.49185 7.12603Z" fill="white"/>
</svg>
