<svg width="24" height="24" viewBox="0 0 24 24" fill="none" xmlns="http://www.w3.org/2000/svg">
<mask id="path-1-inside-1_90430_82556" fill="white">
<path d="M21 6C21 6.26339 20.8961 6.51615 20.7108 6.70337L15.6642 11.8035C15.4789 11.9907 15.375 12.2434 15.375 12.5068V18.5576C15.3749 18.7722 15.2375 18.9628 15.0342 19.0312L9.28418 20.9688C8.96028 21.0775 8.625 20.8359 8.625 20.4941V12.5068C8.625 12.2434 8.52108 11.9907 8.33582 11.8035L3.28918 6.70337C3.10392 6.51615 3 6.26339 3 6V4C3 3.44772 3.44772 3 4 3H20C20.5523 3 21 3.44772 21 4V6Z"/>
</mask>
<path d="M15.375 18.5576L17.375 18.5585V18.5576H15.375ZM15.0342 19.0312L14.3956 17.1359L14.3955 17.136L15.0342 19.0312ZM9.28418 20.9688L9.92075 22.8647L9.92281 22.864L9.28418 20.9688ZM3.28918 6.70337L4.71082 5.29663L3.28918 6.70337ZM8.33582 11.8035L9.75746 10.3967L8.33582 11.8035ZM15.6642 11.8035L14.2425 10.3967L15.6642 11.8035ZM20.7108 6.70337L19.2892 5.29663L20.7108 6.70337ZM20.7108 6.70337L19.2892 5.29663L14.2425 10.3967L15.6642 11.8035L17.0858 13.2102L22.1325 8.11012L20.7108 6.70337ZM15.375 12.5068H13.375V18.5576H15.375H17.375V12.5068H15.375ZM15.375 18.5576L13.375 18.5568C13.3753 17.9103 13.7884 17.3405 14.3956 17.1359L15.0342 19.0312L15.6727 20.9266C16.6866 20.585 17.3746 19.6341 17.375 18.5585L15.375 18.5576ZM15.0342 19.0312L14.3955 17.136L8.64555 19.0735L9.28418 20.9688L9.92281 22.864L15.6728 20.9265L15.0342 19.0312ZM9.28418 20.9688L8.64761 19.0728C9.62262 18.7454 10.625 19.4722 10.625 20.4941H8.625H6.625C6.625 22.1996 8.29795 23.4096 9.92075 22.8647L9.28418 20.9688ZM8.625 20.4941H10.625V12.5068H8.625H6.625V20.4941H8.625ZM8.33582 11.8035L9.75746 10.3967L4.71082 5.29663L3.28918 6.70337L1.86754 8.11012L6.91418 13.2102L8.33582 11.8035ZM3 6H5V4H3H1V6H3ZM4 3V5H20V3V1H4V3ZM21 4H19V6H21H23V4H21ZM20 3V5C19.4477 5 19 4.55229 19 4H21H23C23 2.34314 21.6569 1 20 1V3ZM3 4H5C5 4.55228 4.55228 5 4 5V3V1C2.34315 1 1 2.34315 1 4H3ZM3.28918 6.70337L4.71082 5.29663C4.89608 5.48385 5 5.73661 5 6H3H1C1 6.79018 1.31175 7.54844 1.86754 8.11012L3.28918 6.70337ZM8.625 12.5068H10.625C10.625 11.7167 10.3133 10.9584 9.75746 10.3967L8.33582 11.8035L6.91418 13.2102C6.72892 13.023 6.625 12.7702 6.625 12.5068H8.625ZM15.6642 11.8035L14.2425 10.3967C13.6867 10.9584 13.375 11.7167 13.375 12.5068H15.375H17.375C17.375 12.7702 17.2711 13.023 17.0858 13.2102L15.6642 11.8035ZM20.7108 6.70337L22.1325 8.11012C22.6883 7.54845 23 6.79018 23 6H21H19C19 5.73661 19.1039 5.48385 19.2892 5.29663L20.7108 6.70337Z" fill="currentColor" mask="url(#path-1-inside-1_90430_82556)"/>
</svg>
