<svg width="24" height="24" viewBox="0 0 24 24" fill="none" xmlns="http://www.w3.org/2000/svg">
<path d="M19.1128 12L19.1128 16.4444C19.1128 18.1206 19.1128 18.9586 18.5921 19.4793C18.0714 20 17.2334 20 15.5573 20L7.11284 20C5.88554 20 4.89062 19.0051 4.89062 17.7778V17.7778C4.89062 16.5505 5.88555 15.5556 7.11285 15.5556L15.5573 15.5556C17.2334 15.5556 18.0714 15.5556 18.5921 15.0349C19.1128 14.5142 19.1128 13.6761 19.1128 12L19.1128 7.55556C19.1128 5.87945 19.1128 5.0414 18.5921 4.5207C18.0715 4 17.2334 4 15.5573 4L8.44618 4C6.77008 4 5.93202 4 5.41132 4.5207C4.89062 5.0414 4.89062 5.87945 4.89062 7.55556L4.89062 17.7778" stroke="white" stroke-width="1.77778"/>
<path d="M9.33594 8.44531L14.6693 8.44531" stroke="white" stroke-width="1.77778" stroke-linecap="round"/>
</svg>
