<svg width="61" height="60" viewBox="0 0 61 60" fill="none" xmlns="http://www.w3.org/2000/svg">
<g filter="url(#filter0_f_40852_44512)">
<rect x="10.4922" y="10" width="40" height="40" rx="8" fill="url(#paint0_linear_40852_44512)" fill-opacity="0.23"/>
</g>
<g filter="url(#filter1_b_40852_44512)">
<rect x="2.9375" y="3" width="54" height="54" rx="12" fill="white" fill-opacity="0.9"/>
</g>
<path fill-rule="evenodd" clip-rule="evenodd" d="M19.1049 11.0714C19.69 11.0106 20.1138 10.4989 20.0514 9.92855C19.989 9.3582 19.4641 8.94513 18.8789 9.00594L16.7029 9.23208C15.588 9.34793 14.6938 9.44085 13.9676 9.56918C13.2194 9.70139 12.5782 9.88212 11.9828 10.2074C11.0159 10.7355 10.2144 11.5095 9.6638 12.4467C9.32464 13.0241 9.13367 13.6471 8.99171 14.3746C8.85392 15.0806 8.75116 15.9505 8.62305 17.0348L8.61753 17.0815L8.40386 19.1527C8.34499 19.7234 8.77192 20.2326 9.35743 20.29C9.94295 20.3474 10.4653 19.9313 10.5242 19.3605L10.7363 17.3043C10.8697 16.1756 10.964 15.3837 11.0852 14.7627C11.2041 14.1532 11.3369 13.7788 11.5131 13.4788C11.8718 12.8682 12.3942 12.3638 13.0246 12.0194C13.3345 11.8501 13.7205 11.7238 14.3477 11.613C14.9881 11.4998 15.8047 11.4143 16.969 11.2933L19.1049 11.0714ZM39.8392 9.92855C39.7768 10.4989 40.2006 11.0106 40.7858 11.0714L42.9216 11.2933C44.086 11.4143 44.9025 11.4998 45.5429 11.613C46.1701 11.7238 46.5561 11.8501 46.866 12.0194C47.4964 12.3638 48.0188 12.8682 48.3775 13.4788C48.5537 13.7788 48.6865 14.1532 48.8054 14.7627C48.9266 15.3837 49.0209 16.1756 49.1543 17.3043L49.3664 19.3605C49.4253 19.9313 49.9477 20.3474 50.5332 20.29C51.1187 20.2326 51.5456 19.7234 51.4868 19.1527L51.2731 17.0815L51.2676 17.0348C51.1395 15.9505 51.0367 15.0806 50.8989 14.3746C50.757 13.6471 50.566 13.0241 50.2268 12.4467C49.6763 11.5095 48.8747 10.7355 47.9079 10.2074C47.3124 9.88212 46.6712 9.70139 45.9231 9.56918C45.1968 9.44085 44.3027 9.34793 43.1878 9.23208L41.0117 9.00594C40.4265 8.94513 39.9016 9.3582 39.8392 9.92855ZM39.8392 50.0714C39.7768 49.5011 40.2006 48.9894 40.7858 48.9286L42.9216 48.7067C44.086 48.5857 44.9025 48.5002 45.5429 48.387C46.1701 48.2762 46.5561 48.1499 46.866 47.9806C47.4964 47.6362 48.0188 47.1318 48.3775 46.5212C48.5537 46.2212 48.6865 45.8468 48.8054 45.2373C48.9266 44.6163 49.0209 43.8244 49.1543 42.6957L49.3664 40.6395C49.4253 40.0687 49.9477 39.6526 50.5332 39.71C51.1187 39.7674 51.5456 40.2766 51.4868 40.8473L51.2731 42.9185L51.2676 42.9652C51.1395 44.0495 51.0367 44.9194 50.8989 45.6254C50.757 46.3529 50.566 46.9759 50.2268 47.5533C49.6763 48.4905 48.8747 49.2645 47.9079 49.7926C47.3124 50.1179 46.6712 50.2986 45.9231 50.4308C45.1968 50.5592 44.3027 50.6521 43.1878 50.7679L41.0117 50.9941C40.4265 51.0549 39.9016 50.6418 39.8392 50.0714ZM20.0514 50.0714C20.1138 49.5011 19.69 48.9894 19.1049 48.9286L16.969 48.7067C15.8047 48.5857 14.9881 48.5002 14.3477 48.387C13.7205 48.2762 13.3345 48.1499 13.0246 47.9806C12.3942 47.6362 11.8718 47.1318 11.5131 46.5212C11.3369 46.2212 11.2041 45.8468 11.0852 45.2373C10.964 44.6163 10.8697 43.8244 10.7363 42.6957L10.5242 40.6395C10.4653 40.0687 9.94295 39.6526 9.35743 39.71C8.77192 39.7674 8.34499 40.2766 8.40386 40.8473L8.61753 42.9185L8.62305 42.9652C8.75116 44.0495 8.85392 44.9194 8.99171 45.6254C9.13367 46.3529 9.32464 46.9759 9.6638 47.5533C10.2144 48.4905 11.0159 49.2645 11.9828 49.7926C12.5782 50.1179 13.2194 50.2986 13.9676 50.4308C14.6938 50.5592 15.588 50.6521 16.7029 50.7679L18.8789 50.9941C19.4641 51.0549 19.989 50.6418 20.0514 50.0714ZM19.3887 21.9925C18.9181 21.9925 18.5367 22.374 18.5367 22.8445V37.462C18.5367 37.9326 18.9181 38.314 19.3887 38.314H22.4211C22.8916 38.314 23.2731 37.9326 23.2731 37.462V22.8445C23.2731 22.374 22.8916 21.9925 22.4211 21.9925H19.3887ZM27.237 21.9925C26.7664 21.9925 26.3849 22.374 26.3849 22.8445V37.462C26.3849 37.9326 26.7664 38.314 27.237 38.314H34.3029C36.1369 38.314 37.7636 37.9798 39.1829 37.3114C40.6022 36.643 41.7026 35.6948 42.4841 34.4668C43.2655 33.2388 43.6562 31.801 43.6562 30.1533C43.6562 28.5056 43.2655 27.0677 42.4841 25.8397C41.7026 24.6117 40.6022 23.6635 39.1829 22.9951C37.7636 22.3267 36.1369 21.9925 34.3029 21.9925H27.237ZM37.5562 33.4409C36.6951 34.2336 35.5468 34.63 34.1116 34.63H31.377C31.2358 34.63 31.1214 34.5156 31.1214 34.3744V25.9321C31.1214 25.7909 31.2358 25.6765 31.377 25.6765H34.1116C35.5468 25.6765 36.6951 26.0729 37.5562 26.8656C38.4334 27.6584 38.8719 28.7543 38.8719 30.1533C38.8719 31.5522 38.4334 32.6481 37.5562 33.4409Z" fill="url(#paint1_linear_40852_44512)"/>
<defs>
<filter id="filter0_f_40852_44512" x="0.492188" y="0" width="60" height="60" filterUnits="userSpaceOnUse" color-interpolation-filters="sRGB">
<feFlood flood-opacity="0" result="BackgroundImageFix"/>
<feBlend mode="normal" in="SourceGraphic" in2="BackgroundImageFix" result="shape"/>
<feGaussianBlur stdDeviation="5" result="effect1_foregroundBlur_40852_44512"/>
</filter>
<filter id="filter1_b_40852_44512" x="-1.0625" y="-1" width="62" height="62" filterUnits="userSpaceOnUse" color-interpolation-filters="sRGB">
<feFlood flood-opacity="0" result="BackgroundImageFix"/>
<feGaussianBlur in="BackgroundImageFix" stdDeviation="2"/>
<feComposite in2="SourceAlpha" operator="in" result="effect1_backgroundBlur_40852_44512"/>
<feBlend mode="normal" in="SourceGraphic" in2="effect1_backgroundBlur_40852_44512" result="shape"/>
</filter>
<linearGradient id="paint0_linear_40852_44512" x1="10.4922" y1="38.916" x2="50.4922" y2="50" gradientUnits="userSpaceOnUse">
<stop stop-color="#CD5DDD"/>
<stop offset="0.505208" stop-color="#006CFF"/>
<stop offset="1" stop-color="#00FFDF"/>
</linearGradient>
<linearGradient id="paint1_linear_40852_44512" x1="18.7576" y1="22.9774" x2="33.0388" y2="44.2754" gradientUnits="userSpaceOnUse">
<stop stop-color="#CC5CDC"/>
<stop offset="0.244792" stop-color="#7B66FF"/>
<stop offset="0.520833" stop-color="#1F8AF0"/>
<stop offset="0.760417" stop-color="#00D1FF"/>
<stop offset="1" stop-color="#3DEDD7"/>
</linearGradient>
</defs>
</svg>
