<svg width="20" height="20" viewBox="0 0 20 20" fill="none" xmlns="http://www.w3.org/2000/svg">
<g clip-path="url(#clip0_90289_89447)">
<path d="M19.0313 2.89567L16.5894 1.26996C16.2611 1.05137 15.8755 0.934743 15.4811 0.934743L7.77528 0.934742C7.45195 0.934742 7.14187 1.06318 6.91324 1.29181C6.43715 1.7679 6.43715 2.53979 6.91324 3.01588C7.14187 3.24451 7.45195 3.37295 7.77528 3.37295L11.3763 3.37295M11.3763 3.37295L12.4067 3.84926M11.3763 3.37295C10.7097 4.1814 10.9214 5.3939 11.8224 5.92868L12.787 6.50115C13.0959 6.68449 13.4485 6.78125 13.8078 6.78125L19.0312 6.78125" stroke="black" stroke-width="1.66999" stroke-linecap="round"/>
<path d="M0.882812 17.1512L3.32462 18.7769C3.65294 18.9955 4.03856 19.1121 4.433 19.1121L12.1388 19.1121C12.4621 19.1121 12.7722 18.9837 13.0008 18.7551C13.4769 18.279 13.4769 17.5071 13.0008 17.031C12.7722 16.8024 12.4621 16.6739 12.1388 16.6739L8.53778 16.6739M8.53778 16.6739L7.50733 16.1976M8.53778 16.6739C9.20435 15.8655 8.99268 14.653 8.09162 14.1182L7.12706 13.5457C6.81813 13.3624 6.46553 13.2656 6.1063 13.2656L0.882812 13.2656" stroke="black" stroke-width="1.66999" stroke-linecap="round"/>
<path d="M7.77051 4.21973C7.41488 4.21971 7.06996 4.12483 6.76563 3.95313L6.7666 3.95313C7.06965 4.12316 7.41291 4.21672 7.7666 4.2168L10.1572 4.2168L10.1572 4.21973L7.77051 4.21973ZM3.16211 10.7686C3.13414 10.5173 3.11914 10.2617 3.11914 10.0029C3.11933 8.01327 3.96933 6.22295 5.3252 4.97266C5.79314 5.38018 6.35305 5.66267 6.95313 5.79785C5.64365 6.73638 4.78928 8.26909 4.78906 10.0029C4.78906 10.263 4.80866 10.5188 4.8457 10.7686L3.16211 10.7686ZM14.5557 7.62793C14.5552 7.62703 14.5552 7.6259 14.5547 7.625L16.3789 7.625C16.3793 7.62597 16.3795 7.62697 16.3799 7.62793L14.5557 7.62793ZM14.5596 15.0723C14.0831 14.6646 13.5135 14.3858 12.9043 14.2578C14.2518 13.324 15.1348 11.7664 15.1348 10.0029C15.1347 9.76369 15.1164 9.52847 15.085 9.29785L16.7676 9.29785C16.7913 9.52968 16.8047 9.76484 16.8047 10.0029C16.8047 12.0123 15.9389 13.8204 14.5596 15.0723ZM9.74512 15.8438C9.76721 15.6183 9.75795 15.3917 9.7207 15.1699L9.72363 15.1699C9.76117 15.3916 9.77085 15.6183 9.74902 15.8438L9.74512 15.8438Z" fill="black"/>
<path d="M9.23716 7.64553L8.89263 8.27234C8.74859 8.53479 8.53344 8.74901 8.27039 8.89244L7.64266 9.23423C7.36191 9.38681 7.18766 9.67978 7.18766 9.99898C7.18766 10.3182 7.36191 10.6111 7.64174 10.7631L8.27039 11.1055C8.53314 11.2489 8.74828 11.4632 8.89263 11.7256L9.23685 12.3524C9.38974 12.6314 9.68209 12.8047 10.0001 12.8047C10.3181 12.8047 10.6104 12.6314 10.763 12.353L11.1072 11.7256C11.2519 11.4632 11.467 11.2489 11.7298 11.1055L12.3575 10.7637C12.6382 10.6111 12.8125 10.3182 12.8125 9.99898C12.8125 9.67978 12.6382 9.38681 12.3584 9.23484L11.7298 8.89244C11.4667 8.74901 11.2516 8.53479 11.1075 8.27234L10.7636 7.64675C10.611 7.36722 10.3184 7.19388 10.0001 7.19388C9.68179 7.19388 9.38913 7.36722 9.23716 7.64553Z" fill="black"/>
</g>
<defs>
<clipPath id="clip0_90289_89447">
<rect width="20" height="20" fill="white" transform="translate(20 20) rotate(-180)"/>
</clipPath>
</defs>
</svg>
