<svg width="21" height="20" viewBox="0 0 21 20" fill="none" xmlns="http://www.w3.org/2000/svg">
<path d="M17.1693 10L17.1693 14.1667C17.1693 15.738 17.1693 16.5237 16.6811 17.0118C16.193 17.5 15.4073 17.5 13.8359 17.5L5.91927 17.5C4.76867 17.5 3.83594 16.5673 3.83594 15.4167V15.4167C3.83594 14.2661 4.76868 13.3333 5.91927 13.3333L13.8359 13.3333C15.4073 13.3333 16.193 13.3333 16.6811 12.8452C17.1693 12.357 17.1693 11.5714 17.1693 10L17.1693 5.83333C17.1693 4.26199 17.1693 3.47631 16.6811 2.98816C16.193 2.5 15.4073 2.5 13.8359 2.5L7.16927 2.5C5.59792 2.5 4.81225 2.5 4.32409 2.98816C3.83594 3.47631 3.83594 4.26199 3.83594 5.83333L3.83594 15.4167" stroke="black" stroke-width="1.66667"/>
<path d="M8 6.66406L13 6.66406" stroke="black" stroke-width="1.66667" stroke-linecap="round"/>
</svg>
