<svg width="79" height="40" viewBox="0 0 79 40" fill="none" xmlns="http://www.w3.org/2000/svg">
<path d="M15.4129 11.2627C15.7622 11.2627 15.9369 11.2627 16.0704 11.3305C16.1877 11.3901 16.2831 11.4852 16.343 11.6022C16.4109 11.7353 16.4109 11.9094 16.4109 12.2577V27.4641C16.4109 27.8123 16.4109 27.9865 16.343 28.1195C16.2831 28.2365 16.1877 28.3317 16.0704 28.3913C15.9369 28.4591 15.7622 28.4591 15.4129 28.4591H12.8637C12.6912 28.4591 12.605 28.4591 12.5251 28.4376C12.4544 28.4185 12.3875 28.3872 12.3277 28.345C12.2601 28.2974 12.2051 28.2312 12.0951 28.0988L5.31035 19.9337C5.14721 19.7373 5.06565 19.6392 4.99436 19.6289C4.93263 19.6199 4.87049 19.6423 4.82867 19.6884C4.78036 19.7417 4.78036 19.8692 4.78036 20.1241V27.4641C4.78036 27.8123 4.78036 27.9865 4.71238 28.1195C4.65257 28.2365 4.55715 28.3317 4.43978 28.3913C4.30634 28.4591 4.13167 28.4591 3.78232 28.4591H0.998042C0.648694 28.4591 0.47402 28.4591 0.340587 28.3913C0.223217 28.3317 0.127791 28.2365 0.0679875 28.1195C0 27.9865 0 27.8123 0 27.4641V12.2577C0 11.9094 0 11.7353 0.0679875 11.6022C0.127791 11.4852 0.223217 11.3901 0.340587 11.3305C0.47402 11.2627 0.648694 11.2627 0.998041 11.2627H3.54726C3.71972 11.2627 3.80595 11.2627 3.88581 11.2842C3.95657 11.3032 4.02341 11.3346 4.08326 11.3767C4.15081 11.4243 4.20582 11.4905 4.31583 11.6229L11.1006 19.7881C11.2637 19.9844 11.3453 20.0826 11.4166 20.0929C11.4783 20.1018 11.5404 20.0795 11.5823 20.0333C11.6306 19.9801 11.6306 19.8526 11.6306 19.5977V12.2577C11.6306 11.9094 11.6306 11.7353 11.6986 11.6022C11.7584 11.4852 11.8538 11.3901 11.9712 11.3305C12.1046 11.2627 12.2793 11.2627 12.6286 11.2627H15.4129Z" fill="black"/>
<path d="M24.765 15.0213C24.6602 15.0213 24.6078 15.0213 24.5678 15.0417C24.5326 15.0596 24.504 15.0881 24.486 15.1232C24.4656 15.1631 24.4656 15.2153 24.4656 15.3198V18.506C24.4656 18.6105 24.4656 18.6628 24.486 18.7027C24.504 18.7378 24.5326 18.7663 24.5678 18.7842C24.6078 18.8045 24.6602 18.8045 24.765 18.8045H31.0817C31.431 18.8045 31.6057 18.8045 31.7391 18.8723C31.8565 18.9319 31.9519 19.0271 32.0117 19.1441C32.0797 19.2771 32.0797 19.4513 32.0797 19.7995V21.5682C32.0797 21.9164 32.0797 22.0906 32.0117 22.2236C31.9519 22.3406 31.8565 22.4358 31.7391 22.4954C31.6057 22.5632 31.431 22.5632 31.0817 22.5632H24.765C24.6602 22.5632 24.6078 22.5632 24.5678 22.5835C24.5326 22.6014 24.504 22.6299 24.486 22.665C24.4656 22.7049 24.4656 22.7572 24.4656 22.8617V27.4641C24.4656 27.8123 24.4656 27.9865 24.3976 28.1195C24.3378 28.2365 24.2424 28.3317 24.125 28.3913C23.9916 28.4591 23.8169 28.4591 23.4676 28.4591H20.5847C20.2354 28.4591 20.0607 28.4591 19.9273 28.3913C19.8099 28.3317 19.7145 28.2365 19.6547 28.1195C19.5867 27.9865 19.5867 27.8123 19.5867 27.4641V12.2577C19.5867 11.9094 19.5867 11.7353 19.6547 11.6022C19.7145 11.4852 19.8099 11.3901 19.9273 11.3305C20.0607 11.2627 20.2354 11.2627 20.5847 11.2627H32.1166C32.4659 11.2627 32.6406 11.2627 32.7741 11.3305C32.8914 11.3901 32.9868 11.4852 33.0466 11.6022C33.1146 11.7353 33.1146 11.9094 33.1146 12.2577V14.0263C33.1146 14.3746 33.1146 14.5487 33.0466 14.6818C32.9868 14.7988 32.8914 14.8939 32.7741 14.9535C32.6406 15.0213 32.4659 15.0213 32.1166 15.0213H24.765Z" fill="black"/>
<path fill-rule="evenodd" clip-rule="evenodd" d="M48.9489 2.86047C49.4627 2.80585 49.8349 2.34629 49.7801 1.83401C49.7253 1.32173 49.2643 0.950716 48.7505 1.00533L46.8396 1.20845C45.8606 1.3125 45.0754 1.39596 44.4377 1.51123C43.7807 1.62998 43.2177 1.7923 42.6947 2.08447C41.8457 2.55884 41.1419 3.25396 40.6584 4.09575C40.3606 4.61433 40.1929 5.17394 40.0682 5.82735C39.9472 6.46152 39.857 7.24281 39.7445 8.21672L39.7396 8.25868L39.552 10.119C39.5003 10.6316 39.8752 11.0889 40.3894 11.1405C40.9035 11.192 41.3622 10.8183 41.4139 10.3057L41.6002 8.45873C41.7173 7.44503 41.8002 6.73373 41.9066 6.17596C42.011 5.62855 42.1276 5.29224 42.2824 5.02278C42.5973 4.47436 43.056 4.02126 43.6096 3.71196C43.8817 3.55991 44.2207 3.4465 44.7715 3.34695C45.3339 3.2453 46.0509 3.1685 47.0733 3.05982L48.9489 2.86047ZM67.1522 1.83402C67.0974 2.34631 67.4695 2.80587 67.9834 2.86049L69.8589 3.05984C70.8814 3.16852 71.5984 3.24532 72.1608 3.34697C72.7115 3.44652 73.0505 3.55993 73.3226 3.71198C73.8762 4.02128 74.3349 4.47438 74.6499 5.0228C74.8047 5.29226 74.9212 5.62857 75.0257 6.17598C75.1321 6.73375 75.2149 7.44505 75.332 8.45875L75.5183 10.3057C75.57 10.8183 76.0287 11.192 76.5429 11.1405C77.057 11.0889 77.4319 10.6316 77.3802 10.119L77.1926 8.25869L77.1878 8.21674C77.0753 7.24283 76.985 6.46154 76.864 5.82736C76.7394 5.17396 76.5717 4.61435 76.2739 4.09577C75.7904 3.25398 75.0865 2.55885 74.2375 2.08449C73.7146 1.79232 73.1516 1.63 72.4946 1.51125C71.8569 1.39598 71.0717 1.31252 70.0926 1.20847L68.1818 1.00535C67.6679 0.950735 67.207 1.32174 67.1522 1.83402ZM67.1522 37.8906C67.0974 37.3783 67.4695 36.9188 67.9834 36.8642L69.8589 36.6648C70.8814 36.5561 71.5984 36.4793 72.1608 36.3777C72.7115 36.2781 73.0505 36.1647 73.3226 36.0127C73.8762 35.7034 74.3349 35.2503 74.6499 34.7018C74.8047 34.4324 74.9212 34.0961 75.0257 33.5487C75.1321 32.9909 75.2149 32.2796 75.332 31.2659L75.5183 29.419C75.57 28.9064 76.0287 28.5326 76.5429 28.5842C77.057 28.6357 77.4319 29.093 77.3802 29.6056L77.1926 31.466L77.1878 31.5079C77.0753 32.4818 76.985 33.2631 76.864 33.8973C76.7394 34.5507 76.5717 35.1103 76.2739 35.6289C75.7904 36.4707 75.0865 37.1658 74.2375 37.6402C73.7146 37.9323 73.1516 38.0947 72.4946 38.2134C71.8569 38.3287 71.0717 38.4121 70.0926 38.5162L68.1818 38.7193C67.6679 38.7739 67.207 38.4029 67.1522 37.8906ZM49.7801 37.8906C49.8349 37.3783 49.4627 36.9188 48.9489 36.8642L47.0733 36.6648C46.0509 36.5561 45.3339 36.4793 44.7715 36.3777C44.2207 36.2781 43.8817 36.1647 43.6096 36.0127C43.056 35.7034 42.5973 35.2503 42.2824 34.7018C42.1276 34.4324 42.011 34.0961 41.9066 33.5487C41.8002 32.9909 41.7173 32.2796 41.6002 31.2659L41.414 29.419C41.3623 28.9064 40.9035 28.5326 40.3894 28.5842C39.8752 28.6357 39.5003 29.093 39.552 29.6056L39.7396 31.466L39.7445 31.5079C39.857 32.4818 39.9472 33.2631 40.0682 33.8973C40.1929 34.5507 40.3606 35.1103 40.6584 35.6289C41.1419 36.4707 41.8457 37.1658 42.6947 37.6402C43.2177 37.9323 43.7807 38.0947 44.4377 38.2134C45.0754 38.3287 45.8605 38.4121 46.8395 38.5162L46.8396 38.5162H46.8396L48.7505 38.7193C49.2643 38.7739 49.7253 38.4029 49.7801 37.8906ZM49.2695 12.6684C48.8249 12.6684 48.4644 13.0289 48.4644 13.4735V26.523C48.4644 26.9677 48.8249 27.3281 49.2695 27.3281H51.8186C52.2632 27.3281 52.6237 26.9677 52.6237 26.523V13.4735C52.6237 13.0289 52.2632 12.6684 51.8186 12.6684H49.2695ZM56.1613 12.6684C55.7167 12.6684 55.3562 13.0289 55.3562 13.4735V26.523C55.3562 26.9677 55.7167 27.3281 56.1613 27.3281H62.3093C63.9198 27.3281 65.3482 27.028 66.5945 26.4276C67.8409 25.8273 68.8072 24.9756 69.4934 23.8726C70.1796 22.7697 70.5227 21.4782 70.5227 19.9983C70.5227 18.5184 70.1796 17.2269 69.4934 16.1239C68.8072 15.021 67.8409 14.1693 66.5945 13.569C65.3482 12.9686 63.9198 12.6684 62.3093 12.6684H56.1613ZM65.1661 22.9512C64.4099 23.6632 63.4016 24.0192 62.1412 24.0192H59.757C59.6236 24.0192 59.5155 23.9111 59.5155 23.7777V16.2189C59.5155 16.0855 59.6236 15.9773 59.757 15.9773H62.1412C63.4016 15.9773 64.4099 16.3334 65.1661 17.0454C65.9363 17.7574 66.3215 18.7417 66.3215 19.9983C66.3215 21.2548 65.9363 22.2391 65.1661 22.9512Z" fill="url(#paint0_linear_66944_72924)"/>
<path fill-rule="evenodd" clip-rule="evenodd" d="M48.9489 2.86047C49.4627 2.80585 49.8349 2.34629 49.7801 1.83401C49.7253 1.32173 49.2643 0.950716 48.7505 1.00533L46.8396 1.20845C45.8606 1.3125 45.0754 1.39596 44.4377 1.51123C43.7807 1.62998 43.2177 1.7923 42.6947 2.08447C41.8457 2.55884 41.1419 3.25396 40.6584 4.09575C40.3606 4.61433 40.1929 5.17394 40.0682 5.82735C39.9472 6.46152 39.857 7.24281 39.7445 8.21672L39.7396 8.25868L39.552 10.119C39.5003 10.6316 39.8752 11.0889 40.3894 11.1405C40.9035 11.192 41.3622 10.8183 41.4139 10.3057L41.6002 8.45873C41.7173 7.44503 41.8002 6.73373 41.9066 6.17596C42.011 5.62855 42.1276 5.29224 42.2824 5.02278C42.5973 4.47436 43.056 4.02126 43.6096 3.71196C43.8817 3.55991 44.2207 3.4465 44.7715 3.34695C45.3339 3.2453 46.0509 3.1685 47.0733 3.05982L48.9489 2.86047ZM67.1522 1.83402C67.0974 2.34631 67.4695 2.80587 67.9834 2.86049L69.8589 3.05984C70.8814 3.16852 71.5984 3.24532 72.1608 3.34697C72.7115 3.44652 73.0505 3.55993 73.3226 3.71198C73.8762 4.02128 74.3349 4.47438 74.6499 5.0228C74.8047 5.29226 74.9212 5.62857 75.0257 6.17598C75.1321 6.73375 75.2149 7.44505 75.332 8.45875L75.5183 10.3057C75.57 10.8183 76.0287 11.192 76.5429 11.1405C77.057 11.0889 77.4319 10.6316 77.3802 10.119L77.1926 8.25869L77.1878 8.21674C77.0753 7.24283 76.985 6.46154 76.864 5.82736C76.7394 5.17396 76.5717 4.61435 76.2739 4.09577C75.7904 3.25398 75.0865 2.55885 74.2375 2.08449C73.7146 1.79232 73.1516 1.63 72.4946 1.51125C71.8569 1.39598 71.0717 1.31252 70.0926 1.20847L68.1818 1.00535C67.6679 0.950735 67.207 1.32174 67.1522 1.83402ZM67.1522 37.8906C67.0974 37.3783 67.4695 36.9188 67.9834 36.8642L69.8589 36.6648C70.8814 36.5561 71.5984 36.4793 72.1608 36.3777C72.7115 36.2781 73.0505 36.1647 73.3226 36.0127C73.8762 35.7034 74.3349 35.2503 74.6499 34.7018C74.8047 34.4324 74.9212 34.0961 75.0257 33.5487C75.1321 32.9909 75.2149 32.2796 75.332 31.2659L75.5183 29.419C75.57 28.9064 76.0287 28.5326 76.5429 28.5842C77.057 28.6357 77.4319 29.093 77.3802 29.6056L77.1926 31.466L77.1878 31.5079C77.0753 32.4818 76.985 33.2631 76.864 33.8973C76.7394 34.5507 76.5717 35.1103 76.2739 35.6289C75.7904 36.4707 75.0865 37.1658 74.2375 37.6402C73.7146 37.9323 73.1516 38.0947 72.4946 38.2134C71.8569 38.3287 71.0717 38.4121 70.0926 38.5162L68.1818 38.7193C67.6679 38.7739 67.207 38.4029 67.1522 37.8906ZM49.7801 37.8906C49.8349 37.3783 49.4627 36.9188 48.9489 36.8642L47.0733 36.6648C46.0509 36.5561 45.3339 36.4793 44.7715 36.3777C44.2207 36.2781 43.8817 36.1647 43.6096 36.0127C43.056 35.7034 42.5973 35.2503 42.2824 34.7018C42.1276 34.4324 42.011 34.0961 41.9066 33.5487C41.8002 32.9909 41.7173 32.2796 41.6002 31.2659L41.414 29.419C41.3623 28.9064 40.9035 28.5326 40.3894 28.5842C39.8752 28.6357 39.5003 29.093 39.552 29.6056L39.7396 31.466L39.7445 31.5079C39.857 32.4818 39.9472 33.2631 40.0682 33.8973C40.1929 34.5507 40.3606 35.1103 40.6584 35.6289C41.1419 36.4707 41.8457 37.1658 42.6947 37.6402C43.2177 37.9323 43.7807 38.0947 44.4377 38.2134C45.0754 38.3287 45.8605 38.4121 46.8395 38.5162L46.8396 38.5162H46.8396L48.7505 38.7193C49.2643 38.7739 49.7253 38.4029 49.7801 37.8906ZM49.2695 12.6684C48.8249 12.6684 48.4644 13.0289 48.4644 13.4735V26.523C48.4644 26.9677 48.8249 27.3281 49.2695 27.3281H51.8186C52.2632 27.3281 52.6237 26.9677 52.6237 26.523V13.4735C52.6237 13.0289 52.2632 12.6684 51.8186 12.6684H49.2695ZM56.1613 12.6684C55.7167 12.6684 55.3562 13.0289 55.3562 13.4735V26.523C55.3562 26.9677 55.7167 27.3281 56.1613 27.3281H62.3093C63.9198 27.3281 65.3482 27.028 66.5945 26.4276C67.8409 25.8273 68.8072 24.9756 69.4934 23.8726C70.1796 22.7697 70.5227 21.4782 70.5227 19.9983C70.5227 18.5184 70.1796 17.2269 69.4934 16.1239C68.8072 15.021 67.8409 14.1693 66.5945 13.569C65.3482 12.9686 63.9198 12.6684 62.3093 12.6684H56.1613ZM65.1661 22.9512C64.4099 23.6632 63.4016 24.0192 62.1412 24.0192H59.757C59.6236 24.0192 59.5155 23.9111 59.5155 23.7777V16.2189C59.5155 16.0855 59.6236 15.9773 59.757 15.9773H62.1412C63.4016 15.9773 64.4099 16.3334 65.1661 17.0454C65.9363 17.7574 66.3215 18.7417 66.3215 19.9983C66.3215 21.2548 65.9363 22.2391 65.1661 22.9512Z" fill="url(#paint1_linear_66944_72924)"/>
<defs>
<linearGradient id="paint0_linear_66944_72924" x1="48.6429" y1="13.5545" x2="61.5786" y2="32.4127" gradientUnits="userSpaceOnUse">
<stop stop-color="#CC5CDC"/>
<stop offset="0.244792" stop-color="#7B66FF"/>
<stop offset="0.520833" stop-color="#1F8AF0"/>
<stop offset="0.760417" stop-color="#00D1FF"/>
<stop offset="1" stop-color="#3DEDD7"/>
</linearGradient>
<linearGradient id="paint1_linear_66944_72924" x1="40" y1="0.999958" x2="76.9852" y2="39.0144" gradientUnits="userSpaceOnUse">
<stop stop-color="#008A7A"/>
<stop offset="1" stop-color="#00655A"/>
</linearGradient>
</defs>
</svg>
