<svg width="162" height="40" viewBox="0 0 162 40" fill="none" xmlns="http://www.w3.org/2000/svg">
<path d="M15.4129 11.3906C15.7622 11.3906 15.9369 11.3906 16.0704 11.4584C16.1877 11.518 16.2831 11.6132 16.343 11.7302C16.4109 11.8632 16.4109 12.0373 16.4109 12.3856V27.592C16.4109 27.9403 16.4109 28.1144 16.343 28.2474C16.2831 28.3645 16.1877 28.4596 16.0704 28.5192C15.9369 28.587 15.7622 28.587 15.4129 28.587H12.8637C12.6912 28.587 12.605 28.587 12.5251 28.5655C12.4544 28.5465 12.3875 28.5151 12.3277 28.4729C12.2601 28.4253 12.2051 28.3591 12.0951 28.2267L5.31035 20.0616C5.14721 19.8653 5.06565 19.7671 4.99436 19.7568C4.93263 19.7479 4.87049 19.7702 4.82867 19.8163C4.78036 19.8696 4.78036 19.9971 4.78036 20.252V27.592C4.78036 27.9403 4.78036 28.1144 4.71238 28.2474C4.65257 28.3645 4.55715 28.4596 4.43978 28.5192C4.30634 28.587 4.13167 28.587 3.78232 28.587H0.998042C0.648694 28.587 0.47402 28.587 0.340587 28.5192C0.223217 28.4596 0.127791 28.3645 0.0679875 28.2474C0 28.1144 0 27.9403 0 27.592V12.3856C0 12.0373 0 11.8632 0.0679875 11.7302C0.127791 11.6132 0.223217 11.518 0.340587 11.4584C0.47402 11.3906 0.648694 11.3906 0.998041 11.3906H3.54726C3.71972 11.3906 3.80595 11.3906 3.88581 11.4121C3.95657 11.4312 4.02341 11.4625 4.08326 11.5047C4.15081 11.5523 4.20582 11.6185 4.31583 11.7509L11.1006 19.916C11.2637 20.1123 11.3453 20.2105 11.4166 20.2208C11.4783 20.2297 11.5404 20.2074 11.5823 20.1613C11.6306 20.108 11.6306 19.9805 11.6306 19.7256V12.3856C11.6306 12.0373 11.6306 11.8632 11.6986 11.7302C11.7584 11.6132 11.8538 11.518 11.9712 11.4584C12.1046 11.3906 12.2793 11.3906 12.6286 11.3906H15.4129Z" fill="black"/>
<path d="M24.765 15.1493C24.6602 15.1493 24.6078 15.1493 24.5678 15.1696C24.5326 15.1875 24.504 15.216 24.486 15.2511C24.4656 15.291 24.4656 15.3433 24.4656 15.4478V18.634C24.4656 18.7384 24.4656 18.7907 24.486 18.8306C24.504 18.8657 24.5326 18.8942 24.5678 18.9121C24.6078 18.9325 24.6602 18.9325 24.765 18.9325H31.0817C31.431 18.9325 31.6057 18.9325 31.7391 19.0002C31.8565 19.0599 31.9519 19.155 32.0117 19.272C32.0797 19.405 32.0797 19.5792 32.0797 19.9275V21.6961C32.0797 22.0444 32.0797 22.2185 32.0117 22.3515C31.9519 22.4686 31.8565 22.5637 31.7391 22.6233C31.6057 22.6911 31.431 22.6911 31.0817 22.6911H24.765C24.6602 22.6911 24.6078 22.6911 24.5678 22.7114C24.5326 22.7293 24.504 22.7579 24.486 22.793C24.4656 22.8329 24.4656 22.8851 24.4656 22.9896V27.592C24.4656 27.9403 24.4656 28.1144 24.3976 28.2474C24.3378 28.3645 24.2424 28.4596 24.125 28.5192C23.9916 28.587 23.8169 28.587 23.4676 28.587H20.5847C20.2354 28.587 20.0607 28.587 19.9273 28.5192C19.8099 28.4596 19.7145 28.3645 19.6547 28.2474C19.5867 28.1144 19.5867 27.9403 19.5867 27.592V12.3856C19.5867 12.0373 19.5867 11.8632 19.6547 11.7302C19.7145 11.6132 19.8099 11.518 19.9273 11.4584C20.0607 11.3906 20.2354 11.3906 20.5847 11.3906H32.1166C32.4659 11.3906 32.6406 11.3906 32.7741 11.4584C32.8914 11.518 32.9868 11.6132 33.0466 11.7302C33.1146 11.8632 33.1146 12.0373 33.1146 12.3856V14.1542C33.1146 14.5025 33.1146 14.6767 33.0466 14.8097C32.9868 14.9267 32.8914 15.0219 32.7741 15.0815C32.6406 15.1493 32.4659 15.1493 32.1166 15.1493H24.765Z" fill="black"/>
<path fill-rule="evenodd" clip-rule="evenodd" d="M48.9485 2.98547C49.4624 2.93085 49.8345 2.47129 49.7797 1.95901C49.7249 1.44673 49.264 1.07572 48.7501 1.13033L46.8392 1.33345C45.8602 1.4375 45.075 1.52096 44.4373 1.63623C43.7803 1.75498 43.2173 1.9173 42.6944 2.20947C41.8454 2.68384 41.1415 3.37896 40.658 4.22075C40.3602 4.73933 40.1925 5.29894 40.0678 5.95235C39.9469 6.58652 39.8566 7.36781 39.7441 8.34172L39.7393 8.38368L39.5516 10.244C39.4999 10.7566 39.8748 11.2139 40.389 11.2655C40.9032 11.317 41.3619 10.9433 41.4136 10.4307L41.5999 8.58373C41.717 7.57003 41.7998 6.85873 41.9062 6.30096C42.0107 5.75355 42.1272 5.41724 42.282 5.14778C42.597 4.59936 43.0557 4.14626 43.6092 3.83696C43.8814 3.68491 44.2203 3.5715 44.7711 3.47195C45.3335 3.3703 46.0505 3.2935 47.073 3.18482L48.9485 2.98547ZM67.1518 1.95902C67.097 2.47131 67.4692 2.93087 67.983 2.98549L69.8586 3.18484C70.881 3.29352 71.598 3.37032 72.1604 3.47197C72.7112 3.57152 73.0501 3.68493 73.3223 3.83698C73.8759 4.14628 74.3346 4.59938 74.6495 5.1478C74.8043 5.41726 74.9209 5.75357 75.0253 6.30098C75.1317 6.85875 75.2146 7.57005 75.3317 8.58375L75.5179 10.4307C75.5696 10.9433 76.0284 11.317 76.5425 11.2655C77.0567 11.2139 77.4316 10.7566 77.3799 10.244L77.1922 8.38369L77.1874 8.34174C77.0749 7.36783 76.9847 6.58654 76.8637 5.95236C76.739 5.29896 76.5713 4.73935 76.2735 4.22077C75.79 3.37898 75.0862 2.68385 74.2371 2.20949C73.7142 1.91732 73.1512 1.755 72.4942 1.63625C71.8565 1.52098 71.0713 1.43752 70.0923 1.33347L68.1814 1.13035C67.6676 1.07574 67.2066 1.44674 67.1518 1.95902ZM67.1518 38.0156C67.097 37.5033 67.4692 37.0438 67.983 36.9892L69.8586 36.7898C70.881 36.6811 71.598 36.6043 72.1604 36.5027C72.7112 36.4031 73.0501 36.2897 73.3223 36.1377C73.8759 35.8284 74.3346 35.3753 74.6495 34.8268C74.8043 34.5574 74.9209 34.2211 75.0253 33.6737C75.1317 33.1159 75.2146 32.4046 75.3317 31.3909L75.5179 29.544C75.5696 29.0314 76.0284 28.6576 76.5425 28.7092C77.0567 28.7607 77.4316 29.218 77.3799 29.7306L77.1922 31.591L77.1874 31.6329C77.0749 32.6068 76.9847 33.3881 76.8637 34.0223C76.739 34.6757 76.5713 35.2353 76.2735 35.7539C75.79 36.5957 75.0862 37.2908 74.2371 37.7652C73.7142 38.0573 73.1512 38.2197 72.4942 38.3384C71.8565 38.4537 71.0713 38.5371 70.0923 38.6412L68.1814 38.8443C67.6676 38.8989 67.2066 38.5279 67.1518 38.0156ZM49.7797 38.0156C49.8345 37.5033 49.4624 37.0438 48.9485 36.9892L47.073 36.7898C46.0505 36.6811 45.3335 36.6043 44.7711 36.5027C44.2204 36.4031 43.8814 36.2897 43.6092 36.1377C43.0557 35.8284 42.597 35.3753 42.282 34.8268C42.1272 34.5574 42.0107 34.2211 41.9062 33.6737C41.7998 33.1159 41.717 32.4046 41.5999 31.3909L41.4136 29.544C41.3619 29.0314 40.9032 28.6576 40.389 28.7092C39.8748 28.7607 39.4999 29.218 39.5516 29.7306L39.7393 31.591L39.7441 31.6329C39.8566 32.6068 39.9469 33.3881 40.0679 34.0223C40.1925 34.6757 40.3602 35.2353 40.658 35.7539C41.1415 36.5957 41.8454 37.2908 42.6944 37.7652C43.2173 38.0573 43.7803 38.2197 44.4373 38.3384C45.075 38.4537 45.8602 38.5371 46.8391 38.6412L46.8392 38.6412H46.8393L48.7501 38.8443C49.264 38.8989 49.7249 38.5279 49.7797 38.0156ZM49.2691 12.7934C48.8245 12.7934 48.4641 13.1539 48.4641 13.5985V26.648C48.4641 27.0927 48.8245 27.4531 49.2691 27.4531H51.8182C52.2628 27.4531 52.6233 27.0927 52.6233 26.648V13.5985C52.6233 13.1539 52.2628 12.7934 51.8182 12.7934H49.2691ZM56.161 12.7934C55.7163 12.7934 55.3559 13.1539 55.3559 13.5985V26.648C55.3559 27.0927 55.7163 27.4531 56.161 27.4531H62.3089C63.9194 27.4531 65.3478 27.153 66.5942 26.5526C67.8405 25.9523 68.8068 25.1006 69.493 23.9976C70.1792 22.8947 70.5223 21.6032 70.5223 20.1233C70.5223 18.6434 70.1792 17.3519 69.493 16.2489C68.8068 15.146 67.8405 14.2943 66.5942 13.694C65.3478 13.0936 63.9194 12.7934 62.3089 12.7934H56.161ZM65.1658 23.0762C64.4095 23.7882 63.4012 24.1442 62.1409 24.1442H59.7566C59.6232 24.1442 59.5151 24.0361 59.5151 23.9027V16.3439C59.5151 16.2105 59.6232 16.1023 59.7566 16.1023H62.1409C63.4012 16.1023 64.4095 16.4584 65.1658 17.1704C65.936 17.8824 66.3211 18.8667 66.3211 20.1233C66.3211 21.3798 65.936 22.3641 65.1658 23.0762Z" fill="url(#paint0_linear_70339_34244)"/>
<path d="M94.3367 28.5825C94.0849 28.5825 93.8636 28.4156 93.7943 28.1735L89.198 12.11C89.0949 11.7495 89.3655 11.3906 89.7404 11.3906H92.5172C92.7784 11.3906 93.0055 11.5699 93.066 11.824L95.7917 23.2657C95.8016 23.3069 95.8384 23.3359 95.8807 23.3359C95.9222 23.3359 95.9585 23.3079 95.9691 23.2677L98.9801 11.8114C99.0453 11.5635 99.2694 11.3906 99.5257 11.3906H102.055C102.311 11.3906 102.536 11.5638 102.601 11.812L105.603 23.2889C105.614 23.3314 105.652 23.3611 105.696 23.3611C105.741 23.3611 105.78 23.3303 105.79 23.2868L108.515 11.8243C108.576 11.5701 108.803 11.3906 109.064 11.3906H111.841C112.216 11.3906 112.486 11.7495 112.383 12.11L107.787 28.1735C107.718 28.4156 107.496 28.5825 107.244 28.5825H104.551C104.3 28.5825 104.079 28.4169 104.009 28.1761L100.872 17.4067C100.861 17.3685 100.826 17.3423 100.786 17.3423C100.747 17.3423 100.712 17.3686 100.7 17.4068L97.572 28.1757C97.5019 28.4167 97.2812 28.5825 97.0302 28.5825H94.3367Z" fill="black"/>
<path d="M116.759 28.8259C115.936 28.8259 115.203 28.6832 114.56 28.3978C113.916 28.1068 113.407 27.6787 113.032 27.1134C112.662 26.5426 112.478 25.8319 112.478 24.9812C112.478 24.2649 112.609 23.6633 112.872 23.1764C113.135 22.6896 113.493 22.2978 113.947 22.0012C114.4 21.7046 114.915 21.4808 115.491 21.3297C116.073 21.1786 116.683 21.0722 117.321 21.0107C118.071 20.9323 118.676 20.8596 119.135 20.7924C119.593 20.7197 119.926 20.6133 120.133 20.4734C120.341 20.3335 120.444 20.1264 120.444 19.8522V19.8019C120.444 19.2702 120.276 18.8589 119.94 18.5679C119.61 18.2769 119.14 18.1314 118.53 18.1314C117.887 18.1314 117.375 18.2741 116.994 18.5595C116.748 18.7404 116.556 18.9518 116.417 19.1935C116.284 19.4263 116.046 19.6016 115.779 19.5799L113.572 19.4006C113.232 19.373 112.991 19.0514 113.105 18.7302C113.291 18.203 113.564 17.732 113.922 17.3171C114.414 16.7407 115.049 16.2986 115.827 15.9908C116.611 15.6774 117.517 15.5207 118.547 15.5207C119.263 15.5207 119.949 15.6046 120.604 15.7725C121.264 15.9404 121.849 16.2006 122.358 16.5532C122.873 16.9058 123.279 17.3591 123.575 17.9131C123.872 18.4615 124.02 19.1191 124.02 19.8858V28.0183C124.02 28.3299 123.768 28.5825 123.456 28.5825H121.193C120.881 28.5825 120.629 28.3299 120.629 28.0183V26.857C120.629 26.8224 120.601 26.7944 120.566 26.7944C120.543 26.7944 120.521 26.8076 120.51 26.8283C120.305 27.2173 120.034 27.5614 119.697 27.8605C119.35 28.1627 118.933 28.4006 118.446 28.5741C117.959 28.7419 117.397 28.8259 116.759 28.8259ZM117.783 26.3579C118.309 26.3579 118.774 26.2544 119.177 26.0473C119.579 25.8347 119.896 25.5493 120.125 25.1911C120.355 24.8329 120.469 24.4272 120.469 23.9739V23.1108C120.469 22.8933 120.215 22.7419 120.008 22.8071C119.817 22.863 119.602 22.9162 119.361 22.9666C119.121 23.0113 118.88 23.0533 118.639 23.0925C118.399 23.1261 118.18 23.1568 117.985 23.1848C117.565 23.2464 117.198 23.3443 116.885 23.4786C116.571 23.6129 116.328 23.7948 116.155 24.0243C115.981 24.2481 115.894 24.5279 115.894 24.8637C115.894 25.3506 116.071 25.7227 116.423 25.9802C116.781 26.232 117.235 26.3579 117.783 26.3579Z" fill="black"/>
<path d="M129.806 11.3906C130.118 11.3906 130.371 11.6432 130.371 11.9548V28.0183C130.371 28.3299 130.118 28.5825 129.806 28.5825H127.359C127.047 28.5825 126.794 28.3299 126.794 28.0183V11.9548C126.794 11.6432 127.047 11.3906 127.359 11.3906H129.806Z" fill="black"/>
<path d="M136.247 11.3906C136.559 11.3906 136.811 11.6432 136.811 11.9548V28.0183C136.811 28.3299 136.559 28.5825 136.247 28.5825H133.799C133.488 28.5825 133.235 28.3299 133.235 28.0183V11.9548C133.235 11.6432 133.488 11.3906 133.799 11.3906H136.247Z" fill="black"/>
<path d="M145.552 28.8343C144.226 28.8343 143.084 28.5657 142.127 28.0284C141.176 27.4856 140.442 26.7189 139.928 25.7283C139.413 24.7322 139.155 23.5542 139.155 22.1943C139.155 20.868 139.413 19.7039 139.928 18.7022C140.442 17.7005 141.167 16.9198 142.102 16.3601C143.042 15.8005 144.144 15.5207 145.409 15.5207C146.26 15.5207 147.052 15.6578 147.785 15.932C148.524 16.2006 149.167 16.6064 149.716 17.1492C150.27 17.6921 150.7 18.3748 151.008 19.1975C151.316 20.0145 151.47 20.9715 151.47 22.0684V22.4864C151.47 22.7979 151.217 23.0505 150.906 23.0505H141.147C140.835 23.0505 140.582 22.7979 140.582 22.4864V21.3985C140.582 21.087 140.835 20.8344 141.147 20.8344H147.54C147.851 20.8344 148.111 20.5796 148.055 20.273C148.003 19.9815 147.907 19.7125 147.768 19.4661C147.544 19.0687 147.234 18.7582 146.836 18.5343C146.444 18.3049 145.988 18.1901 145.468 18.1901C144.925 18.1901 144.444 18.316 144.024 18.5679C143.61 18.8141 143.285 19.1471 143.05 19.5668C142.815 19.9809 142.695 20.4426 142.689 20.9519V23.0589C142.689 23.6969 142.807 24.2481 143.042 24.7126C143.283 25.1771 143.621 25.5353 144.058 25.7871C144.494 26.0389 145.012 26.1649 145.611 26.1649C146.008 26.1649 146.372 26.1089 146.702 25.997C147.032 25.885 147.315 25.7172 147.55 25.4933C147.688 25.3617 147.807 25.2127 147.906 25.0464C148.034 24.8335 148.256 24.6818 148.504 24.6981L150.745 24.846C151.088 24.8687 151.334 25.1914 151.218 25.5149C151.026 26.0536 150.741 26.5388 150.362 26.9707C149.847 27.5583 149.181 28.0172 148.364 28.3474C147.553 28.672 146.615 28.8343 145.552 28.8343Z" fill="black"/>
<path d="M160.098 15.6886C160.409 15.6886 160.662 15.9412 160.662 16.2527V17.8106C160.662 18.1222 160.409 18.3748 160.098 18.3748H153.461C153.15 18.3748 152.897 18.1222 152.897 17.8106V16.2527C152.897 15.9412 153.15 15.6886 153.461 15.6886H160.098ZM154.66 13.1636C154.66 12.852 154.912 12.5994 155.224 12.5994H157.672C157.983 12.5994 158.236 12.852 158.236 13.1636V24.6203C158.236 24.9505 158.286 25.2079 158.387 25.3926C158.488 25.5716 158.628 25.6976 158.807 25.7703C158.991 25.8431 159.204 25.8794 159.445 25.8794C159.613 25.8794 159.78 25.8655 159.948 25.8375C160.163 25.7946 160.371 25.9329 160.416 26.1469L160.791 27.9209C160.851 28.2055 160.684 28.4879 160.401 28.5558C160.321 28.5752 160.234 28.5953 160.141 28.616C159.817 28.6944 159.422 28.7419 158.958 28.7587C158.096 28.7923 157.34 28.6776 156.691 28.4146C156.048 28.1515 155.547 27.743 155.189 27.189C154.831 26.6349 154.654 25.9354 154.66 25.0904V13.1636Z" fill="black"/>
<defs>
<linearGradient id="paint0_linear_70339_34244" x1="48.6425" y1="13.6795" x2="61.5783" y2="32.5377" gradientUnits="userSpaceOnUse">
<stop stop-color="#CC5CDC"/>
<stop offset="0.244792" stop-color="#7B66FF"/>
<stop offset="0.520833" stop-color="#1F8AF0"/>
<stop offset="0.760417" stop-color="#00D1FF"/>
<stop offset="1" stop-color="#3DEDD7"/>
</linearGradient>
</defs>
</svg>
