<svg width="24" height="24" viewBox="0 0 24 24" fill="none" xmlns="http://www.w3.org/2000/svg">
<path d="M6.5 20.5C6.5 20.5 8.5 19 12 19C15.5 19 17.5 20.5 17.5 20.5" stroke="white" stroke-width="2" stroke-linecap="round"/>
<path d="M11.9993 18.9999L12.0066 15.9989M12.0066 13.6117C12.0066 12.2819 11.1198 9.62283 8.97681 8.38626C7.27192 7.40249 5.52974 7.65882 4.37891 7.77294C4.37891 10.1509 4.8163 12.2332 6.64628 13.5263C8.73089 14.9993 10.9501 14.3258 12.0066 15.9989M12.0066 13.6117V15.9989M12.0066 13.6117C12.0066 13.1275 11.7917 12.2486 11.7917 12.2486C11.6237 11.729 11.507 11.2084 11.4597 10.68C11.2241 8.04762 12.0066 5.24598 14.7619 3.63842C17.1094 2.2688 19.0773 2.4945 20.3058 2.6185C20.6186 4.50286 20.6254 6.85269 18.6609 9.02048C16.3971 11.5185 15.3957 11.3362 13.0645 13.0506C12.3016 13.6117 12.097 14.1794 12.0066 14.5825C12.0066 14.5825 12.0066 14.3855 12.0066 13.6117Z" stroke="white" stroke-width="2"/>
</svg>
