<svg width="18" height="18" viewBox="0 0 18 18" fill="none" xmlns="http://www.w3.org/2000/svg">
<path fill-rule="evenodd" clip-rule="evenodd" d="M10.2906 6.01585L10.1691 6.78125H11.25C13.0449 6.78125 14.5 5.32618 14.5 3.53125V3.28125H13.5C11.8817 3.28125 10.5364 4.46606 10.2906 6.01585ZM11.25 8.78125H10.1133V13.2173C10.1133 13.2173 10.3752 13.2343 10.7747 13.2936C11.502 13.3969 12.1697 13.5636 12.737 13.7848C12.8683 13.8359 12.9977 13.8914 13.1237 13.9514C13.4105 14.0855 13.6818 14.2434 13.9178 14.4291C14.3317 14.7546 14.4343 15.0145 14.3672 15.2852C14.3359 15.4112 14.2726 15.5235 14.1868 15.6203C13.9776 15.8586 13.6216 16.026 13.2273 16.0311C13.2211 16.0312 13.2149 16.0312 13.2086 16.0312C13.1357 16.0312 13.0632 16.0259 12.9914 16.0159C12.7815 15.9865 12.5778 15.9165 12.3875 15.8197C12.2702 15.7601 12.1383 15.698 12.0106 15.6482C11.2899 15.3672 10.2263 15.1719 9.00122 15.1719C8.57014 15.1719 8.15904 15.1961 7.77585 15.2397C7.25625 15.3135 6.26599 15.4858 5.68415 15.788C5.62299 15.8198 5.5626 15.8479 5.50308 15.8728C5.27892 15.9714 5.03892 16.0312 4.7938 16.0312C4.71953 16.0312 4.64655 16.0255 4.57559 16.0145C4.27086 15.9753 4.03582 15.8494 3.90538 15.7103C3.76566 15.5863 3.66878 15.4356 3.63465 15.2749C3.62454 15.2293 3.62028 15.1845 3.62113 15.1407C3.6227 14.997 3.67609 14.8492 3.79447 14.7085C3.98594 14.4632 4.29135 14.2749 4.4752 14.1662C4.52312 14.1379 4.5716 14.1104 4.62058 14.0837C4.82536 13.9707 5.0427 13.8716 5.26543 13.7848C6.05735 13.476 7.045 13.2735 8.11719 13.2013V11.0312H6.375C3.72429 11.0312 1.56787 8.91598 1.50157 6.28125C1.50053 6.23971 1.5 6.19804 1.5 6.15625V4.28125H4.875C5.45227 4.28125 6.00624 4.38165 6.52028 4.56593C7.20169 4.81021 7.81293 5.20189 8.31525 5.7025C8.43009 4.97861 8.69283 4.30397 9.07156 3.71056C10.0038 2.24987 11.6387 1.28125 13.5 1.28125H16.5V3.53125C16.5 6.43075 14.1495 8.78125 11.25 8.78125ZM8.10547 9.03125H7.75H6.375C4.82895 9.03125 3.5681 7.81118 3.50267 6.28125H4.875C5.66733 6.28125 6.33216 6.60445 6.90345 7.11912C7.47474 7.63379 8.10547 8.59432 8.10547 9.03125Z" fill="white"/>
</svg>
