<svg width="24" height="24" viewBox="0 0 24 24" fill="none" xmlns="http://www.w3.org/2000/svg">
<path d="M6.5 20.5C6.5 20.5 8.5 19 12 19C15.5 19 17.5 20.5 17.5 20.5" stroke="currentColor" stroke-width="2" stroke-linecap="round"/>
<path d="M11.9954 18.9999L12.0027 15.9989M12.0027 13.6117C12.0027 12.2819 11.1159 9.62283 8.97291 8.38626C7.26802 7.40249 5.52583 7.65882 4.375 7.77294C4.375 10.1509 4.8124 12.2332 6.64237 13.5263C8.72699 14.9993 10.9462 14.3258 12.0027 15.9989M12.0027 13.6117V15.9989M12.0027 13.6117C12.0027 13.1275 11.7878 12.2486 11.7878 12.2486C11.6198 11.729 11.5031 11.2084 11.4558 10.68C11.2202 8.04762 12.0027 5.24598 14.758 3.63842C17.1054 2.2688 19.0733 2.4945 20.3018 2.6185C20.6147 4.50286 20.6215 6.85269 18.657 9.02048C16.3932 11.5185 15.3918 11.3362 13.0606 13.0506C12.2976 13.6117 12.0931 14.1794 12.0027 14.5825C12.0027 14.5825 12.0027 14.3855 12.0027 13.6117Z" stroke="currentColor" stroke-width="2"/>
</svg>
