<svg width="24" height="24" viewBox="0 0 24 24" fill="none" xmlns="http://www.w3.org/2000/svg">
<path d="M13.4287 4C14.0889 4.00004 14.7119 4.27621 15.1631 4.75C15.6126 5.22214 15.8574 5.8524 15.8574 6.5V7H19C19.5523 7 20 7.44772 20 8C20 8.55228 19.5523 9 19 9H18V18.5C18 19.1477 17.7553 19.7779 17.3057 20.25C16.8544 20.7238 16.2316 21 15.5713 21H8.42871C7.76843 21 7.1456 20.7238 6.69434 20.25C6.24474 19.7778 6 19.1477 6 18.5V9H5C4.44772 9 4 8.55228 4 8C4 7.44772 4.44772 7 5 7H8.14258V6.5C8.14258 5.8524 8.3874 5.22214 8.83691 4.75C9.28814 4.27621 9.91106 4.00004 10.5713 4H13.4287ZM8 18.5C8 18.6479 8.05644 18.7807 8.14258 18.8711C8.22713 18.9598 8.33125 19 8.42871 19H15.5713C15.6688 19 15.7729 18.9598 15.8574 18.8711C15.9436 18.7807 16 18.6479 16 18.5V9H8V18.5ZM10.5 10.5C11.0523 10.5 11.5 10.9477 11.5 11.5V16.5C11.5 17.0523 11.0523 17.5 10.5 17.5C9.94772 17.5 9.5 17.0523 9.5 16.5V11.5C9.5 10.9477 9.94772 10.5 10.5 10.5ZM13.5 10.5C14.0523 10.5 14.5 10.9477 14.5 11.5V16.5C14.5 17.0523 14.0523 17.5 13.5 17.5C12.9477 17.5 12.5 17.0523 12.5 16.5V11.5C12.5 10.9477 12.9477 10.5 13.5 10.5ZM10.5713 6C10.4738 6.00004 10.3697 6.04016 10.2852 6.12891C10.1991 6.21935 10.1426 6.35212 10.1426 6.5V7H13.8574V6.5C13.8574 6.35212 13.8009 6.21935 13.7148 6.12891C13.6303 6.04016 13.5262 6.00004 13.4287 6H10.5713Z" fill="white"/>
</svg>
