<svg width="191" height="84" viewBox="0 0 191 84" fill="none" xmlns="http://www.w3.org/2000/svg">
<path d="M191 6C191 2.68629 188.314 0 185 0H6C2.68629 0 0 2.68629 0 6V78C0 81.3137 2.68629 84 6 84H185C188.314 84 191 81.3137 191 78V6Z" fill="#1DA1F2"/>
<path d="M90.5682 42.392V40.3636H100.125V42.392H96.5625V52H94.1307V42.392H90.5682ZM102.535 52L100.16 43.2727H102.609L103.961 49.1364H104.041L105.45 43.2727H107.853L109.285 49.1023H109.359L110.688 43.2727H113.132L110.762 52H108.2L106.7 46.5114H106.592L105.092 52H102.535ZM114.583 52V43.2727H117.003V52H114.583ZM115.799 42.1477C115.439 42.1477 115.13 42.0284 114.873 41.7898C114.619 41.5473 114.492 41.2576 114.492 40.9205C114.492 40.5871 114.619 40.3011 114.873 40.0625C115.13 39.8201 115.439 39.6989 115.799 39.6989C116.159 39.6989 116.465 39.8201 116.719 40.0625C116.977 40.3011 117.106 40.5871 117.106 40.9205C117.106 41.2576 116.977 41.5473 116.719 41.7898C116.465 42.0284 116.159 42.1477 115.799 42.1477ZM123.744 43.2727V45.0909H118.489V43.2727H123.744ZM119.682 41.1818H122.102V49.3182C122.102 49.5417 122.136 49.7159 122.204 49.8409C122.273 49.9621 122.367 50.0473 122.489 50.0966C122.614 50.1458 122.757 50.1705 122.92 50.1705C123.034 50.1705 123.148 50.161 123.261 50.142C123.375 50.1193 123.462 50.1023 123.523 50.0909L123.903 51.892C123.782 51.9299 123.612 51.9735 123.392 52.0227C123.172 52.0758 122.905 52.108 122.591 52.1193C122.007 52.142 121.496 52.0644 121.057 51.8864C120.621 51.7083 120.282 51.4318 120.04 51.0568C119.797 50.6818 119.678 50.2083 119.682 49.6364V41.1818ZM130.123 43.2727V45.0909H124.867V43.2727H130.123ZM126.06 41.1818H128.481V49.3182C128.481 49.5417 128.515 49.7159 128.583 49.8409C128.651 49.9621 128.746 50.0473 128.867 50.0966C128.992 50.1458 129.136 50.1705 129.299 50.1705C129.413 50.1705 129.526 50.161 129.64 50.142C129.754 50.1193 129.841 50.1023 129.901 50.0909L130.282 51.892C130.161 51.9299 129.99 51.9735 129.771 52.0227C129.551 52.0758 129.284 52.108 128.97 52.1193C128.386 52.142 127.875 52.0644 127.435 51.8864C127 51.7083 126.661 51.4318 126.418 51.0568C126.176 50.6818 126.057 50.2083 126.06 49.6364V41.1818ZM135.743 52.1705C134.845 52.1705 134.073 51.9886 133.425 51.625C132.781 51.2576 132.285 50.7386 131.936 50.0682C131.588 49.3939 131.414 48.5966 131.414 47.6761C131.414 46.7784 131.588 45.9905 131.936 45.3125C132.285 44.6345 132.775 44.1061 133.408 43.7273C134.044 43.3485 134.791 43.1591 135.647 43.1591C136.222 43.1591 136.758 43.2519 137.255 43.4375C137.755 43.6193 138.19 43.8939 138.561 44.2614C138.936 44.6288 139.228 45.0909 139.436 45.6477C139.645 46.2008 139.749 46.8485 139.749 47.5909V48.2557H132.38V46.7557H137.47C137.47 46.4072 137.395 46.0985 137.243 45.8295C137.092 45.5606 136.881 45.3504 136.612 45.1989C136.347 45.0436 136.039 44.9659 135.686 44.9659C135.319 44.9659 134.993 45.0511 134.709 45.2216C134.429 45.3883 134.209 45.6136 134.05 45.8977C133.891 46.178 133.809 46.4905 133.806 46.8352V48.2614C133.806 48.6932 133.885 49.0663 134.044 49.3807C134.207 49.6951 134.436 49.9375 134.732 50.108C135.027 50.2784 135.378 50.3636 135.783 50.3636C136.052 50.3636 136.298 50.3258 136.522 50.25C136.745 50.1742 136.936 50.0606 137.095 49.9091C137.255 49.7576 137.376 49.572 137.459 49.3523L139.698 49.5C139.584 50.0379 139.351 50.5076 138.999 50.9091C138.65 51.3068 138.2 51.6174 137.647 51.8409C137.097 52.0606 136.463 52.1705 135.743 52.1705ZM141.488 52V43.2727H143.835V44.7955H143.926C144.085 44.2538 144.352 43.8447 144.727 43.5682C145.102 43.2879 145.534 43.1477 146.022 43.1477C146.144 43.1477 146.274 43.1553 146.415 43.1705C146.555 43.1856 146.678 43.2064 146.784 43.233V45.3807C146.67 45.3466 146.513 45.3163 146.312 45.2898C146.112 45.2633 145.928 45.25 145.761 45.25C145.405 45.25 145.087 45.3277 144.807 45.483C144.53 45.6345 144.31 45.8466 144.147 46.1193C143.988 46.392 143.909 46.7064 143.909 47.0625V52H141.488Z" fill="white"/>
<g clip-path="url(#clip0_4035_15810)">
<path d="M75.6845 35.4477C77.3925 34.235 78.8292 32.7212 80 30.9782V30.9765C78.4372 31.6607 76.7747 32.1157 75.0387 32.3362C76.8237 31.2705 78.187 29.5957 78.8275 27.578C77.1632 28.5702 75.3257 29.2702 73.3675 29.6622C71.7872 27.9787 69.535 26.9375 67.078 26.9375C62.311 26.9375 58.4732 30.8067 58.4732 35.5492C58.4732 36.2317 58.531 36.888 58.6727 37.5127C51.5152 37.1627 45.1802 33.7327 40.9242 28.5055C40.1822 29.7952 39.7447 31.2705 39.7447 32.8577C39.7447 35.8397 41.2795 38.4822 43.5702 40.0135C42.186 39.9872 40.8297 39.5847 39.68 38.953V39.0475C39.68 43.2317 42.6637 46.7072 46.5785 47.5087C45.8767 47.7012 45.1137 47.7922 44.321 47.7922C43.7697 47.7922 43.2132 47.7607 42.6917 47.6452C43.8065 51.0542 46.974 53.562 50.7365 53.6442C47.807 55.935 44.0865 57.3157 40.0597 57.3157C39.3545 57.3157 38.6772 57.2842 38 57.1985C41.815 59.6572 46.3335 61.0625 51.209 61.0625C66.4042 61.0625 76.3075 48.3855 75.6845 35.4477Z" fill="white"/>
</g>
<defs>
<clipPath id="clip0_4035_15810">
<rect width="42" height="42" fill="white" transform="translate(38 23)"/>
</clipPath>
</defs>
</svg>
