<svg width="128" height="128" viewBox="0 0 128 128" fill="none" xmlns="http://www.w3.org/2000/svg">
<circle cx="64.0001" cy="64.0001" r="64.0001" fill="url(#paint0_radial_22448_26215)"/>
<circle cx="64.0001" cy="64.0001" r="64.0001" fill="url(#paint1_linear_22448_26215)"/>
<mask id="mask0_22448_26215" style="mask-type:alpha" maskUnits="userSpaceOnUse" x="0" y="0" width="129" height="128">
<circle cx="64.0001" cy="64.0001" r="64.0001" fill="url(#paint2_linear_22448_26215)"/>
</mask>
<g mask="url(#mask0_22448_26215)">
<circle cx="48.9821" cy="64.5" r="35.2" transform="rotate(135 48.9821 64.5)" fill="url(#paint3_linear_22448_26215)"/>
<circle cx="78.2194" cy="64.1797" r="35.2" transform="rotate(135 78.2194 64.1797)" fill="url(#paint4_linear_22448_26215)"/>
<path opacity="0.7" d="M61.6245 66.3976C58.0762 66.3976 55.1135 69.3277 56.0837 72.7408C57.1553 76.5103 59.1745 79.9821 61.9949 82.8025C66.3458 87.1534 72.2468 89.5977 78.3998 89.5977C84.5529 89.5977 90.4539 87.1534 94.8047 82.8025C97.6251 79.9821 99.6443 76.5103 100.716 72.7408C101.686 69.3277 98.7234 66.3976 95.1751 66.3976L78.3998 66.3976L61.6245 66.3976Z" fill="url(#paint5_linear_22448_26215)"/>
</g>
<defs>
<radialGradient id="paint0_radial_22448_26215" cx="0" cy="0" r="1" gradientUnits="userSpaceOnUse" gradientTransform="translate(22.7994 11.6004) rotate(56.3097) scale(134.126 214602)">
<stop stop-color="#22DEE9"/>
<stop offset="0.25" stop-color="#18B6F9"/>
<stop offset="0.505208" stop-color="#3A81F5"/>
<stop offset="0.760417" stop-color="#616EFA"/>
<stop offset="1" stop-color="#985DF6"/>
</radialGradient>
<linearGradient id="paint1_linear_22448_26215" x1="-142.009" y1="371.195" x2="105.992" y2="14.3942" gradientUnits="userSpaceOnUse">
<stop stop-color="#22DEE9"/>
<stop offset="0.25" stop-color="#18B6F9"/>
<stop offset="0.363114" stop-color="#3A81F5"/>
<stop offset="0.635415" stop-color="#5243F9"/>
<stop offset="1" stop-color="#CF0DFF"/>
</linearGradient>
<linearGradient id="paint2_linear_22448_26215" x1="-4.80275" y1="217.199" x2="95.2008" y2="9.60032" gradientUnits="userSpaceOnUse">
<stop stop-color="#22DEE9"/>
<stop offset="0.25" stop-color="#18B6F9"/>
<stop offset="0.505208" stop-color="#3A81F5"/>
<stop offset="0.760417" stop-color="#616EFA"/>
<stop offset="1" stop-color="#985DF6"/>
</linearGradient>
<linearGradient id="paint3_linear_22448_26215" x1="57.2426" y1="100.621" x2="34.3323" y2="33.0211" gradientUnits="userSpaceOnUse">
<stop stop-color="#9FF8FF"/>
<stop offset="1" stop-color="#9FF8FF" stop-opacity="0"/>
</linearGradient>
<linearGradient id="paint4_linear_22448_26215" x1="77.9637" y1="29.1078" x2="84.1863" y2="92.4647" gradientUnits="userSpaceOnUse">
<stop stop-color="white"/>
<stop offset="1" stop-color="#9FF8FF" stop-opacity="0"/>
</linearGradient>
<linearGradient id="paint5_linear_22448_26215" x1="80.7998" y1="89.5977" x2="80.7998" y2="66.3976" gradientUnits="userSpaceOnUse">
<stop stop-color="white"/>
<stop offset="1" stop-color="#9EECFF"/>
</linearGradient>
</defs>
</svg>
