<svg width="128" height="128" viewBox="0 0 128 128" fill="none" xmlns="http://www.w3.org/2000/svg">
<circle cx="64.0003" cy="64.0001" r="64.0001" fill="url(#paint0_linear_22448_26150)"/>
<mask id="mask0_22448_26150" style="mask-type:alpha" maskUnits="userSpaceOnUse" x="0" y="0" width="129" height="128">
<circle cx="64.0001" cy="64.0001" r="64.0001" fill="url(#paint1_linear_22448_26150)"/>
</mask>
<g mask="url(#mask0_22448_26150)">
<circle cx="62.4014" cy="64" r="33.6" transform="rotate(135 62.4014 64)" fill="url(#paint2_linear_22448_26150)"/>
<rect x="105.956" y="53.248" width="46.4001" height="131.2" rx="23.2" transform="rotate(-135 105.956 53.248)" fill="url(#paint3_linear_22448_26150)"/>
<rect x="18.8438" y="74.75" width="46.4001" height="131.2" rx="23.2" transform="rotate(45 18.8438 74.75)" fill="url(#paint4_linear_22448_26150)"/>
<path opacity="0.7" d="M49.407 53.2716C46.898 50.7626 42.7311 50.7395 41.0038 53.839C39.096 57.2622 38.0689 61.1449 38.0689 65.1336C38.0689 71.2866 40.5132 77.1876 44.864 81.5385C49.2149 85.8893 55.1159 88.3336 61.2689 88.3336C65.2576 88.3336 69.1403 87.3065 72.5635 85.3987C75.663 83.6714 75.6399 79.5045 73.1308 76.9955L61.2689 65.1336L49.407 53.2716Z" fill="#19ECF9"/>
</g>
<defs>
<linearGradient id="paint0_linear_22448_26150" x1="-4.8025" y1="217.199" x2="95.201" y2="9.60032" gradientUnits="userSpaceOnUse">
<stop stop-color="#22DEE9"/>
<stop offset="0.25" stop-color="#18B6F9"/>
<stop offset="0.505208" stop-color="#3A81F5"/>
<stop offset="0.760417" stop-color="#616EFA"/>
<stop offset="1" stop-color="#985DF6"/>
</linearGradient>
<linearGradient id="paint1_linear_22448_26150" x1="-4.80275" y1="217.199" x2="95.2008" y2="9.60032" gradientUnits="userSpaceOnUse">
<stop stop-color="#22DEE9"/>
<stop offset="0.25" stop-color="#18B6F9"/>
<stop offset="0.505208" stop-color="#3A81F5"/>
<stop offset="0.760417" stop-color="#616EFA"/>
<stop offset="1" stop-color="#985DF6"/>
</linearGradient>
<linearGradient id="paint2_linear_22448_26150" x1="45.6014" y1="34.4551" x2="77.4635" y2="108.607" gradientUnits="userSpaceOnUse">
<stop stop-color="#9FF8FF"/>
<stop offset="1" stop-color="#9FF8FF" stop-opacity="0"/>
</linearGradient>
<linearGradient id="paint3_linear_22448_26150" x1="129.157" y1="53.248" x2="129.157" y2="90.8481" gradientUnits="userSpaceOnUse">
<stop stop-color="#19ECF9"/>
<stop offset="1" stop-color="#19ECF9" stop-opacity="0"/>
</linearGradient>
<linearGradient id="paint4_linear_22448_26150" x1="42.0438" y1="74.75" x2="42.0438" y2="112.35" gradientUnits="userSpaceOnUse">
<stop stop-color="#19ECF9"/>
<stop offset="1" stop-color="#19ECF9" stop-opacity="0"/>
</linearGradient>
</defs>
</svg>
