<svg width="128" height="128" viewBox="0 0 128 128" fill="none" xmlns="http://www.w3.org/2000/svg">
<circle cx="64.0001" cy="64.0001" r="64.0001" fill="url(#paint0_linear_22448_26167)"/>
<circle cx="64.0001" cy="64.0001" r="64.0001" fill="url(#paint1_linear_22448_26167)"/>
<mask id="mask0_22448_26167" style="mask-type:alpha" maskUnits="userSpaceOnUse" x="0" y="0" width="129" height="128">
<circle cx="64.0001" cy="64.0001" r="64.0001" fill="url(#paint2_linear_22448_26167)"/>
</mask>
<g mask="url(#mask0_22448_26167)">
<rect x="40.6179" y="99.998" width="46.4001" height="131.2" rx="23.2" fill="url(#paint3_linear_22448_26167)"/>
<rect opacity="0.4" x="99.8181" y="58.4004" width="47.2001" height="179.2" rx="23.6" fill="url(#paint4_linear_22448_26167)"/>
<circle cx="63.8179" cy="48.0008" r="23.2" fill="url(#paint5_linear_22448_26167)"/>
<path opacity="0.7" d="M47.0429 74.4015C43.4946 74.4015 40.5318 77.3316 41.5021 80.7447C42.5736 84.5142 44.5929 87.986 47.4133 90.8064C51.7641 95.1573 57.6651 97.6016 63.8182 97.6016C69.9712 97.6016 75.8722 95.1573 80.2231 90.8064C83.0435 87.986 85.0627 84.5142 86.1343 80.7447C87.1045 77.3316 84.1417 74.4015 80.5935 74.4015L63.8182 74.4015L47.0429 74.4015Z" fill="#19ECF9"/>
<path opacity="0.5" d="M25.3931 96.0008C28.9414 96.0008 31.9047 93.0691 30.9195 89.6604C29.8296 85.8898 27.7753 82.417 24.9056 79.5959C20.4797 75.2451 14.4769 72.8008 8.21783 72.8008C1.95871 72.8008 -4.04405 75.2451 -8.46991 79.5959C-11.3396 82.417 -13.394 85.8898 -14.4838 89.6604C-15.4691 93.0691 -12.5057 96.0008 -8.95746 96.0008L8.21783 96.0008H25.3931Z" fill="#9FF8FF"/>
<path opacity="0.4" d="M140.593 55.1981C144.142 55.1981 147.105 52.2664 146.12 48.8577C145.03 45.087 142.976 41.6142 140.106 38.7932C135.68 34.4423 129.677 31.998 123.418 31.998C117.159 31.998 111.156 34.4423 106.73 38.7932C103.861 41.6142 101.806 45.087 100.717 48.8577C99.7312 52.2664 102.695 55.1981 106.243 55.1981L123.418 55.1981H140.593Z" fill="#19ECF9"/>
<rect opacity="0.5" x="-15.3822" y="101.6" width="47.2001" height="131.2" rx="19.2742" fill="#19ECF9"/>
</g>
<defs>
<linearGradient id="paint0_linear_22448_26167" x1="9.60056" y1="112.8" x2="223.199" y2="-29.202" gradientUnits="userSpaceOnUse">
<stop stop-color="#22DEE9"/>
<stop offset="0.25" stop-color="#18B6F9"/>
<stop offset="0.505208" stop-color="#3A81F5"/>
<stop offset="0.760417" stop-color="#616EFA"/>
<stop offset="1" stop-color="#985DF6"/>
</linearGradient>
<linearGradient id="paint1_linear_22448_26167" x1="9.6052" y1="112.806" x2="275.605" y2="-93.1941" gradientUnits="userSpaceOnUse">
<stop stop-color="#00FFE0"/>
<stop offset="0.675166" stop-color="#0085FF"/>
<stop offset="0.804227" stop-color="#3A81F5"/>
<stop offset="0.899456" stop-color="#616EFA"/>
<stop offset="1" stop-color="#985DF6"/>
</linearGradient>
<linearGradient id="paint2_linear_22448_26167" x1="9.60056" y1="112.8" x2="223.199" y2="-29.202" gradientUnits="userSpaceOnUse">
<stop stop-color="#22DEE9"/>
<stop offset="0.25" stop-color="#18B6F9"/>
<stop offset="0.505208" stop-color="#3A81F5"/>
<stop offset="0.760417" stop-color="#616EFA"/>
<stop offset="1" stop-color="#985DF6"/>
</linearGradient>
<linearGradient id="paint3_linear_22448_26167" x1="63.8179" y1="99.998" x2="63.8179" y2="137.598" gradientUnits="userSpaceOnUse">
<stop stop-color="#19ECF9"/>
<stop offset="1" stop-color="#19ECF9" stop-opacity="0"/>
</linearGradient>
<linearGradient id="paint4_linear_22448_26167" x1="123.418" y1="58.4004" x2="123.418" y2="138.4" gradientUnits="userSpaceOnUse">
<stop stop-color="#19ECF9"/>
<stop offset="1" stop-color="#19ECF9" stop-opacity="0"/>
</linearGradient>
<linearGradient id="paint5_linear_22448_26167" x1="52.2179" y1="27.6008" x2="74.2179" y2="78.8008" gradientUnits="userSpaceOnUse">
<stop stop-color="#9FF8FF"/>
<stop offset="1" stop-color="#9FF8FF" stop-opacity="0"/>
</linearGradient>
</defs>
</svg>
