<svg width="128" height="128" viewBox="0 0 128 128" fill="none" xmlns="http://www.w3.org/2000/svg">
<circle cx="64" cy="64.0001" r="64.0001" fill="url(#paint0_linear_22448_26135)"/>
<mask id="mask0_22448_26135" style="mask-type:alpha" maskUnits="userSpaceOnUse" x="0" y="0" width="129" height="128">
<circle cx="64.0001" cy="64.0001" r="64.0001" fill="#22DEE9"/>
</mask>
<g mask="url(#mask0_22448_26135)">
<rect x="27" y="46.043" width="75.8449" height="81.9564" fill="url(#paint1_linear_22448_26135)"/>
<rect x="27" y="46.043" width="75.8449" height="81.9564" fill="url(#paint2_radial_22448_26135)"/>
</g>
<path opacity="0.2" d="M61.5648 56.497C63.6309 55.2161 66.2409 55.2159 68.3072 56.4962L101.334 76.9606C103.363 78.2178 103.363 81.1777 101.334 82.4353L68.2944 102.918C66.2284 104.199 63.6184 104.199 61.552 102.919L28.5255 82.4544C26.4966 81.1972 26.4963 78.2373 28.5249 76.9797L61.5648 56.497Z" fill="url(#paint3_linear_22448_26135)"/>
<path opacity="0.2" d="M61.5648 55.0907C63.6309 53.8099 66.2409 53.8096 68.3072 55.09L101.334 75.5544C103.363 76.8116 103.363 79.7715 101.334 81.0291L68.2944 101.512C66.2284 102.793 63.6184 102.793 61.552 101.513L28.5255 81.0482C26.4966 79.791 26.4963 76.8311 28.5249 75.5735L61.5648 55.0907Z" fill="url(#paint4_linear_22448_26135)"/>
<path opacity="0.6" d="M61.5648 40.4325C63.6309 39.1517 66.2409 39.1514 68.3072 40.4318L101.334 60.8962C103.363 62.1534 103.363 65.1133 101.334 66.3709L68.2944 86.8536C66.2284 88.1345 63.6184 88.1347 61.552 86.8544L28.5255 66.39C26.4966 65.1328 26.4963 62.1729 28.5249 60.9153L61.5648 40.4325Z" fill="url(#paint5_linear_22448_26135)"/>
<path opacity="0.6" d="M61.5648 39.0282C63.6309 37.7474 66.2409 37.7471 68.3072 39.0275L101.334 59.4919C103.363 60.7491 103.363 63.709 101.334 64.9666L68.2944 85.4493C66.2284 86.7302 63.6184 86.7304 61.552 85.4501L28.5255 64.9857C26.4966 63.7285 26.4963 60.7686 28.5249 59.511L61.5648 39.0282Z" fill="url(#paint6_linear_22448_26135)"/>
<path d="M61.5648 24.37C63.6309 23.0892 66.2409 23.0889 68.3072 24.3693L101.334 44.8337C103.363 46.0909 103.363 49.0508 101.334 50.3084L68.2944 70.7911C66.2284 72.072 63.6184 72.0722 61.552 70.7919L28.5255 50.3275C26.4966 49.0703 26.4963 46.1104 28.5249 44.8528L61.5648 24.37Z" fill="url(#paint7_linear_22448_26135)"/>
<path d="M61.5648 22.9657C63.6309 21.6849 66.2409 21.6846 68.3072 22.965L101.334 43.4294C103.363 44.6866 103.363 47.6465 101.334 48.9041L68.2944 69.3868C66.2284 70.6677 63.6184 70.6679 61.552 69.3876L28.5255 48.9232C26.4966 47.666 26.4963 44.7061 28.5249 43.4485L61.5648 22.9657Z" fill="url(#paint8_linear_22448_26135)"/>
<defs>
<linearGradient id="paint0_linear_22448_26135" x1="64" y1="19.2" x2="37.6" y2="143.6" gradientUnits="userSpaceOnUse">
<stop stop-color="#025FFF"/>
<stop offset="1" stop-color="#05D9FF"/>
</linearGradient>
<linearGradient id="paint1_linear_22448_26135" x1="64.9224" y1="46.043" x2="64.9224" y2="117.369" gradientUnits="userSpaceOnUse">
<stop stop-color="#6DD7FF"/>
<stop offset="1" stop-color="#6DD7FF" stop-opacity="0"/>
</linearGradient>
<radialGradient id="paint2_radial_22448_26135" cx="0" cy="0" r="1" gradientUnits="userSpaceOnUse" gradientTransform="translate(104.312 70.8662) rotate(157.7) scale(42.5739 39.3992)">
<stop stop-color="#6DD7FF"/>
<stop offset="1" stop-color="#6DD7FF" stop-opacity="0"/>
</radialGradient>
<linearGradient id="paint3_linear_22448_26135" x1="84.3627" y1="94.6555" x2="42.8861" y2="67.178" gradientUnits="userSpaceOnUse">
<stop stop-color="#96DEFF"/>
<stop offset="1" stop-color="#33C7FF"/>
</linearGradient>
<linearGradient id="paint4_linear_22448_26135" x1="84.3627" y1="93.2493" x2="42.8861" y2="65.7718" gradientUnits="userSpaceOnUse">
<stop stop-color="#CEF0FF"/>
<stop offset="0.0001" stop-color="#CEF0FF"/>
<stop offset="1" stop-color="#5ED3FF"/>
</linearGradient>
<linearGradient id="paint5_linear_22448_26135" x1="84.3627" y1="78.5911" x2="42.8861" y2="51.1136" gradientUnits="userSpaceOnUse">
<stop stop-color="#96DEFF"/>
<stop offset="1" stop-color="#33C7FF"/>
</linearGradient>
<linearGradient id="paint6_linear_22448_26135" x1="84.3627" y1="77.1868" x2="42.8861" y2="49.7093" gradientUnits="userSpaceOnUse">
<stop stop-color="#CEF0FF"/>
<stop offset="0.0001" stop-color="#CEF0FF"/>
<stop offset="1" stop-color="#5ED3FF"/>
</linearGradient>
<linearGradient id="paint7_linear_22448_26135" x1="84.3627" y1="62.5286" x2="42.8861" y2="35.0511" gradientUnits="userSpaceOnUse">
<stop stop-color="#96DEFF"/>
<stop offset="1" stop-color="#33C7FF"/>
</linearGradient>
<linearGradient id="paint8_linear_22448_26135" x1="84.3627" y1="61.1243" x2="42.8861" y2="33.6468" gradientUnits="userSpaceOnUse">
<stop stop-color="#CEF0FF"/>
<stop offset="0.0001" stop-color="#CEF0FF"/>
<stop offset="1" stop-color="#5ED3FF"/>
</linearGradient>
</defs>
</svg>
