<svg width="128" height="128" viewBox="0 0 128 128" fill="none" xmlns="http://www.w3.org/2000/svg">
<circle cx="64" cy="64.0001" r="64.0001" fill="url(#paint0_linear_22448_26113)"/>
<mask id="mask0_22448_26113" style="mask-type:alpha" maskUnits="userSpaceOnUse" x="0" y="0" width="129" height="128">
<circle cx="64.0001" cy="64.0001" r="64.0001" fill="url(#paint1_linear_22448_26113)"/>
</mask>
<g mask="url(#mask0_22448_26113)">
<path d="M30.841 72.4919C38.5964 101.436 68.3469 118.612 97.2905 110.857C126.234 103.101 143.411 73.3507 135.655 44.4071C127.9 15.4634 98.1492 -1.71299 69.2056 6.04244C40.262 13.7979 23.0855 43.5483 30.841 72.4919Z" stroke="url(#paint2_linear_22448_26113)" stroke-width="38.5484"/>
<path fill-rule="evenodd" clip-rule="evenodd" d="M53.9267 24.5897C35.2256 19.5788 16.0032 30.6768 10.9923 49.3779C5.98137 68.0789 17.0794 87.3013 35.7805 92.3122C54.4815 97.3231 73.7039 86.2251 78.7148 67.5241C83.7258 48.823 72.6277 29.6006 53.9267 24.5897ZM-26.0993 39.4392C-15.5994 0.253004 24.6792 -23.0018 63.8653 -12.5019C96.8164 -3.67268 118.503 26.2127 118.327 58.7989C118.293 64.9649 117.477 71.2277 115.806 77.4627C105.307 116.649 65.028 139.904 25.8418 129.404C-13.3444 118.904 -36.5992 78.6254 -26.0993 39.4392Z" fill="url(#paint3_linear_22448_26113)"/>
<path fill-rule="evenodd" clip-rule="evenodd" d="M79.464 52.5037C60.0587 45.8273 37.9766 47.2733 18.8088 58.3398C-16.3245 78.6241 -28.3621 123.549 -8.07785 158.682C12.2064 193.816 57.1313 205.853 92.2646 185.569C110.584 174.992 122.624 157.716 127.077 138.622L87.4551 136.457C84.5373 142.893 79.6515 148.511 73.0646 152.314C56.2977 161.994 34.8579 156.249 25.1776 139.482C15.4972 122.715 21.2419 101.276 38.0089 91.5952C46.3647 86.771 55.881 85.7776 64.5241 88.0703L64.503 88.0285C64.5772 87.9694 64.6528 87.9094 64.7297 87.8483C68.0168 85.2372 73.7961 80.6464 77.6394 70.8634C80.3068 64.0737 80.3159 57.5616 79.464 52.5037Z" fill="url(#paint4_linear_22448_26113)"/>
</g>
<defs>
<linearGradient id="paint0_linear_22448_26113" x1="-4.8028" y1="217.199" x2="95.2007" y2="9.60032" gradientUnits="userSpaceOnUse">
<stop stop-color="#22DEE9"/>
<stop offset="0.25" stop-color="#18B6F9"/>
<stop offset="0.505208" stop-color="#3A81F5"/>
<stop offset="0.760417" stop-color="#616EFA"/>
<stop offset="1" stop-color="#985DF6"/>
</linearGradient>
<linearGradient id="paint1_linear_22448_26113" x1="-4.80275" y1="217.199" x2="95.2008" y2="9.60032" gradientUnits="userSpaceOnUse">
<stop stop-color="#22DEE9"/>
<stop offset="0.25" stop-color="#18B6F9"/>
<stop offset="0.505208" stop-color="#3A81F5"/>
<stop offset="0.760417" stop-color="#616EFA"/>
<stop offset="1" stop-color="#985DF6"/>
</linearGradient>
<linearGradient id="paint2_linear_22448_26113" x1="107.2" y1="115.081" x2="16.8" y2="29.4813" gradientUnits="userSpaceOnUse">
<stop stop-color="white" stop-opacity="0"/>
<stop offset="1" stop-color="#1FE2F9"/>
</linearGradient>
<linearGradient id="paint3_linear_22448_26113" x1="57.6015" y1="23.6015" x2="65.6015" y2="88.2828" gradientUnits="userSpaceOnUse">
<stop offset="0.0198854" stop-color="#1EE7FF"/>
<stop offset="1" stop-color="white" stop-opacity="0"/>
</linearGradient>
<linearGradient id="paint4_linear_22448_26113" x1="51.2032" y1="73.1962" x2="86.0009" y2="80.799" gradientUnits="userSpaceOnUse">
<stop offset="0.0198854" stop-color="#1EE7FF"/>
<stop offset="1" stop-color="white" stop-opacity="0"/>
</linearGradient>
</defs>
</svg>
