<svg width="128" height="128" viewBox="0 0 128 128" fill="none" xmlns="http://www.w3.org/2000/svg">
<circle cx="64.0001" cy="64.0001" r="64.0001" fill="url(#paint0_linear_22448_26179)"/>
<mask id="mask0_22448_26179" style="mask-type:alpha" maskUnits="userSpaceOnUse" x="0" y="0" width="129" height="128">
<circle cx="64.0001" cy="64.0001" r="64.0001" fill="url(#paint1_linear_22448_26179)"/>
</mask>
<g mask="url(#mask0_22448_26179)">
<path d="M55.657 30.6725C59.3663 24.2477 68.6396 24.2477 72.3489 30.6725L99.1124 77.0282C102.822 83.4529 98.1851 91.4838 90.7664 91.4838L37.2395 91.4838C29.8208 91.4838 25.1842 83.4529 28.8935 77.0282L55.657 30.6725Z" fill="url(#paint2_linear_22448_26179)"/>
<path opacity="0.5" fill-rule="evenodd" clip-rule="evenodd" d="M94.5732 69.173L72.3428 30.6687C68.6334 24.244 59.3601 24.244 55.6508 30.6687L41.745 54.7543C57.1752 63.8378 77.1675 70.4824 94.5732 69.173Z" fill="url(#paint3_linear_22448_26179)"/>
</g>
<defs>
<linearGradient id="paint0_linear_22448_26179" x1="9.6052" y1="112.806" x2="275.605" y2="-93.1941" gradientUnits="userSpaceOnUse">
<stop stop-color="#00FFE0"/>
<stop offset="0.675166" stop-color="#0085FF"/>
<stop offset="0.804227" stop-color="#3A81F5"/>
<stop offset="0.899456" stop-color="#616EFA"/>
<stop offset="1" stop-color="#985DF6"/>
</linearGradient>
<linearGradient id="paint1_linear_22448_26179" x1="9.60401" y1="112.805" x2="244.004" y2="-66.7956" gradientUnits="userSpaceOnUse">
<stop stop-color="#00F1FF"/>
<stop offset="0.463655" stop-color="#18F964"/>
<stop offset="0.660903" stop-color="#3A81F5"/>
<stop offset="0.760417" stop-color="#616EFA"/>
<stop offset="1" stop-color="#985DF6"/>
</linearGradient>
<linearGradient id="paint2_linear_22448_26179" x1="20.3772" y1="37.2025" x2="75.8187" y2="85.544" gradientUnits="userSpaceOnUse">
<stop stop-color="white"/>
<stop offset="1" stop-color="white" stop-opacity="0"/>
</linearGradient>
<linearGradient id="paint3_linear_22448_26179" x1="40.3363" y1="25.8503" x2="60.3799" y2="76.3557" gradientUnits="userSpaceOnUse">
<stop stop-color="white"/>
<stop offset="1" stop-color="white" stop-opacity="0"/>
</linearGradient>
</defs>
</svg>
