<svg width="665" height="570" viewBox="0 0 665 570" fill="none" xmlns="http://www.w3.org/2000/svg">
<ellipse cx="377.682" cy="444.983" rx="230.013" ry="122.134" fill="url(#paint0_radial_4887_15422)"/>
<ellipse opacity="0.5" cx="464.67" cy="391.88" rx="153.758" ry="81.6435" fill="url(#paint1_radial_4887_15422)"/>
<path opacity="0.9" fill-rule="evenodd" clip-rule="evenodd" d="M261.794 403.778C263.008 404.483 264.986 404.481 266.197 403.773L273.971 399.228C275.166 398.53 275.163 397.406 273.964 396.71L268.345 393.446C267.13 392.741 265.152 392.743 263.942 393.451L256.167 397.996C254.973 398.694 254.976 399.818 256.175 400.514L261.794 403.778ZM286.917 404.231C288.122 404.931 288.117 406.062 286.908 406.759L279.077 411.269C277.864 411.968 275.898 411.966 274.69 411.264L269.063 407.994C267.859 407.294 267.863 406.163 269.073 405.467L276.903 400.956C278.117 400.257 280.083 400.26 281.291 400.962L286.917 404.231ZM287.537 418.933C288.751 419.638 290.727 419.636 291.938 418.929L299.896 414.285C301.092 413.587 301.09 412.462 299.89 411.766L294.271 408.502C293.058 407.797 291.081 407.798 289.87 408.505L281.912 413.15C280.716 413.848 280.718 414.972 281.918 415.669L287.537 418.933ZM305.791 429.317L302.804 427.593L296.316 423.83L294.989 423.057C293.787 422.357 293.792 421.228 295 420.532L302.828 416.02C304.042 415.32 306.01 415.323 307.218 416.026L308.538 416.794L315.026 420.558L317.998 422.291L327.986 428.092L330.958 429.826L340.947 435.627L343.934 437.352L353.931 443.158L356.894 444.887L366.891 450.693L369.863 452.426L379.852 458.228L390.634 464.497C391.838 465.197 391.834 466.327 390.625 467.024L382.81 471.528C381.598 472.227 379.633 472.226 378.424 471.525L367.638 465.269L357.656 459.453L354.669 457.729L344.681 451.927L341.709 450.194L331.72 444.392L328.733 442.668L318.736 436.861L315.773 435.133L305.791 429.317ZM391.391 479.059C392.599 479.761 394.565 479.764 395.778 479.065L403.609 474.554C404.818 473.858 404.823 472.727 403.618 472.027L398.001 468.762C396.793 468.06 394.827 468.058 393.613 468.757L385.783 473.267C384.573 473.964 384.569 475.095 385.773 475.795L391.391 479.059ZM416.581 479.561C417.786 480.261 417.782 481.392 416.572 482.089L408.743 486.6C407.53 487.299 405.564 487.296 404.356 486.595L398.737 483.331C397.532 482.631 397.536 481.5 398.745 480.803L406.575 476.292C407.788 475.593 409.754 475.596 410.962 476.298L416.581 479.561ZM417.324 494.119C418.532 494.821 420.498 494.823 421.711 494.124L429.542 489.614C430.751 488.917 430.756 487.786 429.551 487.086L423.934 483.822C422.726 483.12 420.76 483.117 419.546 483.816L411.716 488.327C410.506 489.023 410.502 490.154 411.706 490.854L417.324 494.119ZM209.139 434.037C210.344 434.736 210.34 435.867 209.131 436.564L201.301 441.075C200.088 441.774 198.122 441.772 196.914 441.07L191.295 437.806C190.09 437.107 190.094 435.976 191.304 435.279L199.133 430.768C200.346 430.069 202.312 430.071 203.52 430.773L209.139 434.037ZM209.863 448.596C211.071 449.298 213.037 449.301 214.251 448.602L222.081 444.091C223.291 443.395 223.295 442.264 222.091 441.564L216.473 438.299C215.265 437.597 213.299 437.595 212.086 438.294L204.255 442.804C203.046 443.501 203.041 444.632 204.246 445.332L209.863 448.596ZM235.058 449.103C236.263 449.803 236.258 450.934 235.049 451.63L227.218 456.141C226.005 456.84 224.039 456.837 222.831 456.135L217.213 452.871C216.009 452.171 216.013 451.04 217.223 450.343L225.053 445.833C226.267 445.134 228.233 445.136 229.441 445.839L235.058 449.103ZM235.799 463.659C237.007 464.361 238.973 464.364 240.186 463.665L248.015 459.154C249.225 458.457 249.229 457.326 248.024 456.626L242.405 453.362C241.197 452.661 239.231 452.658 238.018 453.357L230.188 457.868C228.979 458.565 228.975 459.696 230.18 460.396L235.799 463.659ZM260.998 464.169C262.203 464.869 262.199 466 260.99 466.697L253.16 471.207C251.947 471.906 249.981 471.904 248.773 471.202L243.145 467.934C241.94 467.234 241.944 466.103 243.154 465.406L250.983 460.895C252.196 460.196 254.162 460.198 255.37 460.9L260.998 464.169ZM261.731 478.734C262.939 479.436 264.905 479.438 266.119 478.739L273.949 474.229C275.159 473.532 275.163 472.402 273.959 471.702L268.333 468.432C267.124 467.73 265.158 467.727 263.945 468.426L256.115 472.937C254.905 473.634 254.901 474.764 256.105 475.464L261.731 478.734ZM286.92 479.24C288.125 479.939 288.121 481.07 286.911 481.767L279.082 486.278C277.869 486.977 275.903 486.975 274.695 486.273L269.075 483.009C267.871 482.31 267.875 481.179 269.084 480.482L276.914 475.971C278.127 475.272 280.093 475.274 281.301 475.976L286.92 479.24ZM287.651 493.806C288.859 494.507 290.825 494.51 292.038 493.811L299.868 489.3C301.078 488.603 301.082 487.472 299.877 486.772L294.258 483.509C293.049 482.807 291.084 482.805 289.87 483.504L282.041 488.014C280.831 488.711 280.827 489.842 282.032 490.542L287.651 493.806ZM312.859 494.3C314.063 495 314.059 496.131 312.849 496.828L305.019 501.338C303.806 502.037 301.84 502.034 300.631 501.332L295.014 498.068C293.81 497.368 293.814 496.237 295.024 495.54L302.854 491.03C304.068 490.331 306.034 490.333 307.242 491.036L312.859 494.3ZM313.597 508.873C314.805 509.574 316.771 509.577 317.984 508.878L325.814 504.367C327.023 503.67 327.027 502.539 325.823 501.839L320.203 498.576C318.995 497.874 317.029 497.872 315.816 498.571L307.987 503.081C306.777 503.778 306.773 504.909 307.978 505.609L313.597 508.873ZM338.777 509.368C339.981 510.068 339.977 511.199 338.767 511.896L330.937 516.406C329.723 517.105 327.757 517.103 326.549 516.401L320.932 513.136C319.727 512.436 319.732 511.305 320.941 510.609L328.772 506.098C329.985 505.399 331.951 505.402 333.159 506.104L338.777 509.368ZM339.517 523.94C340.725 524.642 342.691 524.644 343.904 523.945L351.735 519.435C352.944 518.738 352.949 517.607 351.744 516.908L346.127 513.643C344.919 512.941 342.953 512.938 341.739 513.637L333.909 518.148C332.699 518.845 332.695 519.975 333.899 520.675L339.517 523.94ZM364.725 524.439C365.93 525.139 365.926 526.27 364.716 526.967L356.887 531.477C355.673 532.176 353.708 532.174 352.499 531.472L346.88 528.209C345.675 527.509 345.679 526.378 346.889 525.681L354.719 521.17C355.932 520.471 357.898 520.474 359.106 521.175L364.725 524.439ZM187.137 446.708C188.346 447.409 190.311 447.412 191.525 446.713L192.925 445.906C194.135 445.209 194.139 444.078 192.934 443.378L187.315 440.115C186.106 439.413 184.141 439.41 182.927 440.109L181.527 440.916C180.317 441.613 180.313 442.744 181.518 443.444L187.137 446.708ZM205.873 450.901C207.078 451.601 207.074 452.731 205.864 453.428L204.463 454.235C203.25 454.934 201.285 454.932 200.076 454.23L194.448 450.961C193.243 450.262 193.247 449.131 194.457 448.434L195.858 447.627C197.071 446.928 199.036 446.93 200.245 447.632L205.873 450.901ZM213.052 461.774C214.26 462.476 216.226 462.479 217.44 461.78L218.84 460.973C220.05 460.276 220.055 459.146 218.85 458.446L213.233 455.181C212.025 454.479 210.059 454.477 208.845 455.176L207.445 455.982C206.235 456.679 206.23 457.81 207.435 458.51L213.052 461.774ZM231.827 465.973C233.032 466.672 233.028 467.803 231.819 468.5L230.418 469.307C229.205 470.006 227.239 470.004 226.031 469.302L220.412 466.038C219.207 465.339 219.211 464.208 220.421 463.511L221.821 462.704C223.034 462.005 225 462.007 226.208 462.709L231.827 465.973ZM238.996 476.84C240.205 477.542 242.17 477.544 243.383 476.845L244.784 476.038C245.994 475.341 245.998 474.21 244.793 473.511L239.165 470.242C237.956 469.54 235.991 469.538 234.778 470.237L233.377 471.044C232.167 471.741 232.163 472.871 233.368 473.571L238.996 476.84ZM257.764 481.034C258.969 481.734 258.965 482.865 257.756 483.562L256.355 484.369C255.142 485.068 253.176 485.066 251.968 484.364L246.349 481.1C245.144 480.4 245.148 479.27 246.358 478.573L247.758 477.766C248.971 477.067 250.937 477.069 252.145 477.771L257.764 481.034ZM264.918 491.893C266.126 492.595 268.092 492.598 269.305 491.899L270.706 491.092C271.916 490.395 271.92 489.264 270.716 488.564L265.09 485.295C263.881 484.593 261.915 484.59 260.702 485.289L259.301 486.096C258.092 486.793 258.087 487.923 259.292 488.623L264.918 491.893ZM283.686 496.105C284.891 496.805 284.887 497.936 283.677 498.633L282.277 499.44C281.064 500.139 279.098 500.136 277.89 499.434L272.271 496.171C271.066 495.471 271.07 494.34 272.279 493.643L273.68 492.836C274.893 492.137 276.859 492.14 278.067 492.841L283.686 496.105ZM290.859 506.957C292.068 507.66 294.033 507.662 295.247 506.963L296.648 506.156C297.857 505.459 297.862 504.329 296.657 503.629L291.04 500.364C289.832 499.662 287.866 499.66 286.652 500.359L285.252 501.166C284.042 501.862 284.038 502.993 285.242 503.693L290.859 506.957ZM309.625 511.168C310.829 511.868 310.825 512.999 309.615 513.695L308.215 514.502C307.001 515.201 305.035 515.199 303.827 514.497L298.21 511.232C297.005 510.532 297.01 509.402 298.219 508.705L299.62 507.898C300.833 507.199 302.799 507.201 304.007 507.904L309.625 511.168ZM316.786 522.031C317.994 522.733 319.96 522.735 321.173 522.036L322.574 521.23C323.784 520.533 323.788 519.402 322.584 518.702L316.966 515.438C315.758 514.735 313.792 514.733 312.579 515.432L311.178 516.239C309.968 516.936 309.964 518.066 311.168 518.766L316.786 522.031ZM335.554 526.243C336.759 526.942 336.755 528.073 335.545 528.77L334.145 529.577C332.932 530.276 330.966 530.274 329.758 529.572L324.138 526.308C322.934 525.609 322.938 524.478 324.147 523.781L325.548 522.974C326.761 522.275 328.727 522.277 329.935 522.979L335.554 526.243ZM348.526 533.767C349.731 534.466 349.727 535.597 348.517 536.294L347.117 537.101C345.903 537.8 343.938 537.798 342.729 537.096L337.11 533.832C335.905 533.133 335.909 532.002 337.119 531.305L338.52 530.498C339.733 529.799 341.698 529.801 342.907 530.503L348.526 533.767ZM361.481 503.804C362.686 504.504 362.681 505.635 361.472 506.332L353.641 510.842C352.428 511.541 350.462 511.539 349.254 510.836L343.636 507.572C342.432 506.872 342.436 505.741 343.646 505.044L351.476 500.534C352.69 499.835 354.656 499.837 355.864 500.54L361.481 503.804ZM336.286 503.297C337.494 503.999 339.46 504.002 340.674 503.303L348.504 498.792C349.714 498.096 349.718 496.965 348.514 496.265L342.896 493C341.688 492.298 339.722 492.296 338.509 492.995L330.678 497.505C329.469 498.202 329.464 499.333 330.669 500.033L336.286 503.297ZM335.54 488.728C336.745 489.428 336.741 490.559 335.531 491.256L327.702 495.767C326.489 496.465 324.523 496.463 323.315 495.761L317.696 492.498C316.491 491.798 316.495 490.667 317.704 489.97L325.534 485.459C326.747 484.76 328.713 484.763 329.921 485.464L335.54 488.728ZM310.36 488.224C311.568 488.926 313.534 488.929 314.747 488.23L322.578 483.719C323.787 483.022 323.792 481.892 322.587 481.192L316.97 477.927C315.762 477.225 313.796 477.223 312.582 477.922L304.752 482.432C303.542 483.129 303.538 484.259 304.742 484.959L310.36 488.224ZM309.613 473.666C310.818 474.366 310.813 475.497 309.604 476.194L301.773 480.704C300.56 481.403 298.594 481.401 297.386 480.699L291.759 477.429C290.555 476.729 290.559 475.598 291.769 474.902L299.599 470.391C300.813 469.692 302.779 469.695 303.987 470.397L309.613 473.666ZM284.421 473.167C285.629 473.869 287.595 473.871 288.808 473.172L296.638 468.661C297.848 467.964 297.852 466.833 296.647 466.133L291.028 462.87C289.819 462.168 287.854 462.166 286.64 462.865L278.811 467.376C277.601 468.073 277.597 469.203 278.802 469.903L284.421 473.167ZM283.672 458.602C284.876 459.302 284.872 460.433 283.662 461.129L275.832 465.64C274.618 466.339 272.652 466.336 271.444 465.634L265.827 462.37C264.622 461.67 264.627 460.539 265.836 459.842L273.667 455.332C274.88 454.633 276.846 454.635 278.054 455.337L283.672 458.602ZM258.501 458.091C259.709 458.793 261.675 458.796 262.888 458.097L270.719 453.587C271.928 452.89 271.933 451.759 270.728 451.059L265.111 447.795C263.903 447.093 261.937 447.09 260.723 447.789L252.893 452.299C251.683 452.996 251.679 454.127 252.883 454.827L258.501 458.091ZM257.744 443.534C258.949 444.234 258.945 445.364 257.735 446.061L249.906 450.572C248.693 451.271 246.727 451.269 245.519 450.567L239.9 447.304C238.695 446.604 238.699 445.473 239.908 444.776L247.738 440.265C248.951 439.566 250.917 439.568 252.125 440.27L257.744 443.534ZM232.562 443.034C233.771 443.736 235.736 443.739 236.949 443.04L244.779 438.529C245.989 437.832 245.993 436.701 244.788 436.001L239.169 432.737C237.96 432.036 235.995 432.033 234.782 432.732L226.952 437.243C225.742 437.94 225.738 439.071 226.943 439.771L232.562 443.034ZM232.26 428.723C233.464 429.423 233.46 430.554 232.25 431.251L224.42 435.761C223.206 436.46 221.24 436.458 220.032 435.756L207.477 428.459C206.272 427.759 206.277 426.628 207.486 425.932L215.317 421.421C216.53 420.722 218.496 420.725 219.704 421.427L232.26 428.723ZM368.375 507.803C367.167 507.099 365.2 507.096 363.986 507.795L356.153 512.304C354.943 513 354.937 514.13 356.14 514.831L360.895 517.6L368.703 522.135C369.911 522.837 371.877 522.839 373.091 522.14L380.918 517.627C382.127 516.93 382.131 515.8 380.926 515.1L373.117 510.565L368.375 507.803ZM371.198 490.698C372.402 491.397 372.399 492.528 371.189 493.225L363.359 497.736C362.146 498.435 360.18 498.433 358.972 497.731L353.353 494.467C352.148 493.768 352.152 492.637 353.362 491.94L361.191 487.429C362.404 486.73 364.37 486.732 365.578 487.434L371.198 490.698ZM345.999 490.198C347.207 490.9 349.173 490.902 350.387 490.203L358.217 485.693C359.427 484.996 359.431 483.865 358.227 483.165L352.609 479.901C351.401 479.199 349.435 479.196 348.222 479.895L340.391 484.406C339.182 485.102 339.177 486.233 340.382 486.933L345.999 490.198ZM345.268 475.631C346.472 476.331 346.468 477.462 345.258 478.159L337.428 482.669C336.214 483.368 334.248 483.366 333.04 482.664L327.423 479.399C326.218 478.699 326.223 477.568 327.433 476.872L335.263 472.361C336.476 471.662 338.442 471.665 339.651 472.367L345.268 475.631ZM320.07 475.131C321.278 475.833 323.243 475.835 324.457 475.136L332.286 470.626C333.496 469.929 333.5 468.798 332.295 468.098L326.676 464.834C325.468 464.133 323.502 464.13 322.289 464.829L314.459 469.34C313.249 470.037 313.245 471.168 314.45 471.868L320.07 475.131ZM319.326 460.567C320.531 461.267 320.526 462.397 319.317 463.094L311.486 467.605C310.273 468.304 308.307 468.301 307.099 467.599L301.481 464.335C300.277 463.635 300.281 462.504 301.491 461.807L309.321 457.297C310.535 456.598 312.501 456.6 313.709 457.302L319.326 460.567ZM294.131 460.06C295.339 460.762 297.305 460.765 298.519 460.066L306.349 455.555C307.559 454.858 307.563 453.728 306.359 453.028L300.741 449.763C299.533 449.061 297.567 449.059 296.354 449.758L288.523 454.268C287.314 454.965 287.309 456.095 288.514 456.795L294.131 460.06ZM293.401 445.503C294.606 446.203 294.602 447.334 293.393 448.031L285.563 452.542C284.35 453.241 282.384 453.239 281.176 452.537L275.557 449.273C274.352 448.573 274.356 447.443 275.566 446.746L283.395 442.235C284.608 441.536 286.574 441.538 287.782 442.24L293.401 445.503ZM268.19 444.996C269.398 445.698 271.364 445.7 272.577 445.001L280.407 440.491C281.617 439.794 281.622 438.663 280.417 437.963L274.8 434.699C273.592 433.997 271.626 433.994 270.412 434.693L262.582 439.204C261.372 439.9 261.368 441.031 262.572 441.731L268.19 444.996ZM267.458 430.429C268.663 431.129 268.658 432.26 267.449 432.957L259.618 437.467C258.405 438.166 256.439 438.164 255.231 437.461L249.605 434.192C248.4 433.492 248.405 432.361 249.614 431.664L257.445 427.154C258.658 426.455 260.624 426.457 261.832 427.16L267.458 430.429ZM242.272 429.927C243.48 430.629 245.446 430.632 246.66 429.933L254.49 425.423C255.7 424.726 255.704 423.595 254.5 422.895L248.882 419.631C247.674 418.929 245.708 418.926 244.495 419.625L236.664 424.135C235.455 424.832 235.45 425.963 236.655 426.663L242.272 429.927ZM393.881 485.13C395.086 485.83 395.081 486.961 393.872 487.658L386.041 492.168C384.828 492.867 382.862 492.865 381.654 492.163L376.036 488.898C374.832 488.198 374.836 487.067 376.046 486.371L383.876 481.86C385.09 481.161 387.056 481.164 388.264 481.866L393.881 485.13ZM368.698 484.625C369.907 485.327 371.872 485.329 373.086 484.63L380.915 480.119C382.125 479.422 382.129 478.291 380.924 477.591L375.305 474.328C374.097 473.626 372.131 473.624 370.918 474.323L363.088 478.834C361.878 479.531 361.874 480.662 363.079 481.361L368.698 484.625ZM367.964 470.062C369.168 470.762 369.164 471.893 367.954 472.59L360.124 477.1C358.91 477.799 356.944 477.796 355.736 477.094L350.119 473.83C348.914 473.13 348.919 471.999 350.128 471.302L357.959 466.792C359.172 466.093 361.138 466.095 362.346 466.798L367.964 470.062ZM342.787 469.699C343.997 470.397 345.96 470.397 347.17 469.699L354.992 465.183C356.202 464.484 356.202 463.352 354.992 462.653L349.356 459.399C348.145 458.701 346.183 458.701 344.973 459.399L337.151 463.915C335.941 464.613 335.941 465.746 337.151 466.445L342.787 469.699ZM342.022 454.992C343.227 455.692 343.223 456.822 342.013 457.519L334.183 462.03C332.97 462.729 331.004 462.727 329.796 462.025L324.177 458.762C322.972 458.062 322.976 456.931 324.186 456.234L332.015 451.723C333.229 451.024 335.194 451.026 336.403 451.728L342.022 454.992ZM316.831 454.487C318.039 455.189 320.005 455.192 321.218 454.493L329.047 449.982C330.257 449.285 330.261 448.154 329.056 447.454L323.428 444.185C322.22 443.484 320.254 443.481 319.041 444.18L311.212 448.691C310.002 449.388 309.998 450.519 311.203 451.219L316.831 454.487ZM316.089 439.938C317.294 440.638 317.289 441.769 316.08 442.466L308.249 446.976C307.036 447.675 305.07 447.673 303.862 446.971L298.244 443.706C297.04 443.006 297.044 441.875 298.254 441.179L306.084 436.668C307.298 435.969 309.264 435.972 310.472 436.674L316.089 439.938ZM290.901 439.417C292.109 440.12 294.075 440.122 295.288 439.423L303.119 434.913C304.328 434.216 304.333 433.085 303.128 432.385L297.502 429.116C296.294 428.414 294.328 428.411 293.114 429.11L285.284 433.62C284.074 434.317 284.07 435.448 285.274 436.148L290.901 439.417ZM290.147 424.868C291.352 425.568 291.348 426.699 290.139 427.396L282.309 431.907C281.096 432.606 279.13 432.603 277.922 431.902L272.303 428.638C271.098 427.938 271.102 426.807 272.312 426.11L280.141 421.6C281.354 420.901 283.32 420.903 284.528 421.605L290.147 424.868ZM264.955 424.356C266.163 425.059 268.129 425.061 269.343 424.362L277.174 419.852C278.384 419.156 278.389 418.025 277.185 417.325L271.569 414.06C270.361 413.357 268.395 413.354 267.181 414.054L259.35 418.563C258.14 419.26 258.135 420.391 259.339 421.091L264.955 424.356ZM393.303 498.932L388.547 496.162C387.345 495.462 387.351 494.332 388.56 493.636L396.393 489.127C397.608 488.428 399.575 488.431 400.782 489.134L405.525 491.896L413.334 496.432C414.538 497.132 414.535 498.262 413.325 498.959L405.498 503.471C404.285 504.171 402.319 504.168 401.11 503.467L393.303 498.932ZM246.183 415.99C247.397 415.291 249.363 415.293 250.571 415.995L252.896 417.347C253.865 417.906 255.435 417.906 256.405 417.347L265.117 412.325C266.081 411.769 266.082 410.867 265.118 410.311L252.117 402.76C250.909 402.059 248.944 402.056 247.731 402.754L243.818 405.007L237.706 408.525L223.693 416.597C222.483 417.294 222.479 418.425 223.684 419.125L229.989 422.786C231.198 423.488 233.163 423.49 234.376 422.791L246.183 415.99ZM366.318 501.997C365.113 501.297 365.117 500.167 366.326 499.47L374.154 494.958C375.367 494.258 377.333 494.261 378.542 494.963L385.768 499.161L397.131 505.766C398.335 506.466 398.331 507.596 397.122 508.293L389.295 512.805C388.082 513.504 386.115 513.502 384.907 512.8L373.546 506.197L366.318 501.997Z" fill="white"/>
<path fill-rule="evenodd" clip-rule="evenodd" d="M123.245 334.577L123.017 334.543L163.774 444.682L163.959 444.738C164.412 446.092 165.547 447.386 167.364 448.435L329.817 542.219C334.658 545.014 342.507 545.014 347.348 542.219L433.971 492.212C436.395 490.813 437.605 488.978 437.602 487.144L480.215 388.047C397.789 422.851 265.291 422.664 183.402 387.487C148.839 372.639 128.786 353.919 123.245 334.577Z" fill="url(#paint2_linear_4887_15422)"/>
<path d="M469.691 264.215C481.941 282.447 480.879 310.986 479.454 322.025C479.091 325.709 478.604 325.206 478.604 328.036C478.604 330.866 468.416 337.309 455.241 346.244C442.066 355.178 411.389 370.616 405.755 372.494C399.884 375.006 396.345 374.889 392.197 373.515C389.669 372.678 384.253 367.752 384.12 365.977C382.36 355.773 388.877 353.323 396.642 351.598C406.12 349.492 432.178 337.908 437.79 329.147C436.247 329.74 430.248 331.188 422.899 330.454C414.711 329.635 402.738 324.19 395.389 303.172C387.27 279.953 392.404 251.676 419.693 243.231C438.413 237.438 454.378 241.424 469.691 264.215Z" fill="#D75070"/>
<path fill-rule="evenodd" clip-rule="evenodd" d="M314.532 225.013C312.2 235.272 305.072 252.749 300.329 261.956C299.227 264.096 297.811 266.535 296.468 268.847C294.236 272.691 292.209 276.183 292.169 277.361C290.671 277.373 288.07 277.127 284.81 276.819C280.794 276.439 275.775 275.965 270.579 275.76C270.608 275.741 270.636 275.725 270.663 275.711C235.466 274.611 226.741 277.885 222.956 281.866C214.897 290.34 210.967 294.976 209.691 306.37C210.325 312.647 210.308 315.832 219.877 318.564C228.457 318.563 233.358 317.259 237.749 310.563C242.868 300.994 248.779 298.643 253.46 299.273C253.757 299.313 254.055 299.312 254.353 299.273C264.612 300.861 279.588 302.044 289.439 302.675C300.895 303.408 308.336 302.778 314.532 301.642C319.386 298.544 339.941 276.189 346.486 266.784C347.025 266.01 347.626 265.158 348.276 264.236C357.496 251.165 376.535 224.173 366.448 208.889C355.649 192.527 321.075 194.384 314.532 225.013Z" fill="url(#paint3_linear_4887_15422)"/>
<path d="M327.787 64.7107C318.194 48.3493 313.091 49.0536 312.352 51.2472C308.671 61.643 313.232 84.8795 315.361 95.402C316.224 97.5795 319.336 104.006 324.882 112.292C330.427 120.578 342.204 130.646 347.05 134.098C346.945 131.482 346.716 125.767 345.796 119.198C344.383 109.099 339.779 85.1625 327.787 64.7107Z" fill="url(#paint4_linear_4887_15422)"/>
<path d="M323.768 69.963C316.549 56.5889 312.734 57.1472 312.187 58.934C309.462 67.4009 312.937 86.3663 314.557 94.9547C315.209 96.7334 317.554 101.984 321.724 108.76C325.895 115.535 335.368 125.956 339.002 128.787C338.916 126.653 338.092 119.818 337.387 114.458C336.302 106.217 332.793 86.6806 323.768 69.963Z" fill="url(#paint5_linear_4887_15422)"/>
<path d="M549.317 338.104C521.821 329.756 515.272 306.101 514.531 297.051C513.273 285.845 514.832 287.635 516.619 284.269C519.348 293.242 531.908 310.71 560.317 308.793C588.726 306.876 597.755 286.899 598.717 277.151C600.419 278.157 604.577 282 607.596 289.32C610.615 296.639 610.547 302.862 610.136 305.059C610.362 304.875 610.998 304.261 611.728 303.27C612.458 302.279 613.199 300.359 613.478 299.524C614.234 302.057 614.674 308.895 610.385 315.979C606.096 323.063 600.328 326.871 597.98 327.89C598.552 328.24 600.081 328.802 601.56 329.01C603.683 329.307 605.198 329.01 606.366 328.821C599.339 336.092 577.241 346.582 549.317 338.104Z" fill="url(#paint6_linear_4887_15422)"/>
<path d="M532.13 321.351C508.919 304.41 513.95 296.606 513.209 287.556C511.951 276.35 514.831 287.635 516.619 284.268C519.347 293.242 531.907 310.71 560.317 308.793C581.904 307.337 592.3 295.452 596.471 285.551C596.991 285.376 598.286 290.43 597.507 295.033C596.829 299.035 596.101 301.306 594.062 303.922C594.856 303.986 595.947 303.928 596.815 303.699C597.83 303.431 599.565 302.526 600.099 302.184C599.745 306.82 596.957 317.523 585.064 321.351C585.635 321.701 586.499 321.92 588.567 321.998C590.635 322.076 592.591 322.084 593.571 321.998C586.544 329.268 557.365 339.77 532.13 321.351Z" fill="url(#paint7_linear_4887_15422)"/>
<path d="M406.59 186.039C410.322 196.242 428.416 208.016 434.534 210.401L483.153 275.282C480.031 296.034 484.551 333.972 470.117 331.234C452.073 327.812 429.61 320.739 413.124 312.962C396.637 305.185 357.439 308.607 333.796 287.453C310.154 266.299 318.904 236.55 323.783 218.255C328.661 199.961 325.322 191.468 320.626 171.458C316.869 155.45 306.613 127.917 301.955 116.152C303.622 110.384 308.338 97.4638 313.875 91.9266C320.797 85.0051 339.447 81.5443 357.904 86.1587C376.361 90.773 385.013 109.23 388.474 119.228C391.935 129.226 396.482 147.52 398.138 152.057C400.656 158.957 405.413 163.097 407.282 164.578C406.987 164.722 406.464 165.956 403.599 165.956C402.298 165.956 400.903 165.226 400.368 164.885C400.887 167.684 402.857 175.835 406.59 186.039Z" fill="url(#paint8_linear_4887_15422)"/>
<path fill-rule="evenodd" clip-rule="evenodd" d="M322.785 189.119C322.46 182.897 319.707 174.605 318.37 171.237C337.65 166.683 355.447 175.542 357.25 177.826C356.972 177.805 356.542 177.744 355.992 177.667L355.992 177.667C354.064 177.395 350.667 176.917 347.235 177.224C342.823 177.619 340.41 177.896 339.251 178.516L339.313 178.515C339.803 178.509 341.514 178.487 343.489 179.543C345.559 180.65 345.936 181.078 346.289 181.768C343.544 181.254 339.999 181.854 336.778 182.738C333.558 183.621 331.682 184.604 330.497 185.429C331.357 188.653 332.528 195.561 330.033 203.592C330.253 203.391 330.948 202.876 331.968 202.42C332.987 201.964 334.308 201.548 334.841 201.396C332.924 205.954 328.42 217.225 325.738 225.848C322.395 236.597 322.325 255.381 325.791 264.518C325.989 263.623 326.278 262.828 326.488 262.364C326.531 262.798 326.67 263.893 326.881 264.799C327.091 265.705 327.538 266.813 327.736 267.254C328.07 267.059 329.129 266.042 330.695 263.531C332.261 261.019 332.996 258.12 333.167 256.985C333.365 257.303 333.932 258.283 334.617 259.658C335.302 261.033 335.673 262.006 335.774 262.32C336.18 261.969 337.265 260.682 338.014 258.347C338.885 255.63 339.47 253.557 339.419 251.739C341.903 257.035 339.107 263.976 335.285 268.552C335.285 268.523 335.287 268.482 335.289 268.428C335.305 268.013 335.348 266.875 334.915 265.689C334.651 264.963 334.554 264.749 334.426 264.465C334.367 264.337 334.303 264.193 334.212 263.981C334.191 264.045 334.166 264.122 334.137 264.212C333.927 264.862 333.507 266.163 332.543 267.78C331.763 269.089 330.564 270.874 329.485 272.083C334.954 281.104 342.341 286.311 347.175 289.413C347.025 289.021 346.66 287.895 346.401 286.503C346.143 285.111 346.19 282.203 346.401 281.559C346.542 281.695 346.695 281.844 346.861 282.005C349.878 284.94 357.002 291.869 363.939 295.685C370.807 299.464 380.553 301.691 395.146 305.024C399.988 306.13 405.363 307.358 411.344 308.805C421.827 311.341 435.683 316.263 447.175 321.342C447.107 320.965 447.039 320.564 446.974 320.139C446.389 316.366 447.571 313.208 448.235 312.101C448.235 315.275 451.167 321.011 452.926 323.994C459.834 327.329 465.287 330.564 467.647 333.065L459.682 334.694C457.45 332.591 454.82 331.365 449.11 328.703C445.878 327.197 441.658 325.23 435.965 322.383C426.5 317.651 412.101 314.503 396.62 311.119C380.713 307.643 363.664 303.916 349.645 297.963C334.027 291.331 326.519 283.226 321.252 275.703C317.282 270.033 315.01 261.176 314.248 258.208L314.248 258.208C314.201 258.026 314.16 257.866 314.125 257.73C313.719 258.672 312.862 260.897 312.686 262.265C312.511 263.632 312.441 265.814 312.428 266.735C311.43 265.807 308.345 261.526 308.312 245.849C308.28 230.51 318.144 213.16 323.802 206.894C323.305 207.29 321.831 208.159 319.908 208.468C317.985 208.777 316.319 208.349 315.726 208.096C316.406 207.543 318.191 205.873 319.898 203.614C322.031 200.789 323.19 196.897 322.785 189.119Z" fill="url(#paint9_linear_4887_15422)"/>
<path d="M275.551 139.669C276.397 138.966 277.865 137.679 278.296 136.904C278.724 136.92 279.279 137.07 279.856 138.202C280.235 138.945 280.184 139.953 280.053 140.392C279.053 141.532 275.794 143.703 273.937 144.207C269.714 145.353 265.355 145.157 261.227 142.072C257.925 139.604 257.083 135.552 257.363 134.775C257.585 134.928 257.823 136.427 259.549 138.202C261.05 139.744 264.144 141.943 267.931 141.943C270.83 141.943 273.743 141.17 275.551 139.669Z" fill="#020202"/>
<path d="M508.433 249.987C481.573 217.936 447.727 221.461 418.788 199.455C416.992 198.089 414.472 196.53 413.326 195.476C413.041 201.037 412.886 211.662 405.738 222.899C398.589 234.136 389.349 238.407 381.885 241.121C387.521 244.542 389.321 245.231 395.047 245.549C401.397 245.902 404.445 244.454 405.738 243.291C405.385 246.113 404.501 250.205 401.608 253.451C397.846 257.671 394.668 259.821 391.475 260.46C393.024 263.456 399.794 266.406 401.728 276.295C403.522 285.462 404.093 290.914 404.846 295.214L409.856 284.864C413.686 289.014 422.715 297.67 448.957 305.523C475.198 313.377 515.893 311.132 531.456 302.353C530.418 294.531 527.183 272.362 508.433 249.987Z" fill="url(#paint10_linear_4887_15422)"/>
<path d="M357.485 305.454C352.1 278.527 350.406 268.61 357.485 256C366.581 239.799 377.685 245.128 389.034 250.884C401.027 256.965 406.634 300.405 405.855 321.743C405.26 332.305 400.976 357.512 396.61 377.626C392.243 397.739 393.154 406.91 393.154 408.509C391.551 409.612 391.385 412.446 387.276 415.456C385.559 416.714 381.182 419.603 377.415 421.096C372.706 422.961 364.112 426.542 355.846 425.81C350.687 425.353 345.135 423.198 341.893 418.234C340.699 415.479 341.021 412.332 341.893 409.483C342.984 405.92 348.622 401.869 353.049 402.022C356.59 402.144 367.974 400.736 370.545 397.269C371.507 395.666 372.289 393.152 372.289 381.311C372.289 340.866 364.218 339.112 357.485 305.454Z" fill="url(#paint11_linear_4887_15422)"/>
<path d="M522.267 276.311C534.517 294.544 533.454 323.082 532.03 334.122C531.667 337.805 531.179 337.303 531.179 340.133C531.179 342.963 520.991 349.406 507.816 358.34C494.641 367.275 463.965 382.712 458.33 384.591C452.46 387.103 448.921 386.986 444.773 385.612C442.244 384.775 436.829 379.849 436.696 378.074C434.936 367.87 441.452 365.42 449.217 363.694C458.696 361.589 484.754 350.005 490.366 341.244C488.823 341.837 482.823 343.285 475.475 342.55C467.287 341.731 455.314 336.287 447.964 315.269C439.846 292.05 444.98 263.773 472.269 255.328C490.988 249.534 506.954 253.521 522.267 276.311Z" fill="url(#paint12_linear_4887_15422)"/>
<path d="M363.861 56.4806C354.237 40.4402 348.712 40.8859 347.821 42.9466C343.41 52.7045 347.32 75.083 349.158 85.2197C349.993 87.3361 353.067 93.6075 358.681 101.761C364.296 109.915 376.543 120.047 381.611 123.556C381.611 121.055 381.611 115.591 380.904 109.28C379.817 99.5796 375.891 76.5312 363.861 56.4806Z" fill="url(#paint13_linear_4887_15422)"/>
<path d="M359.306 61.3277C352.109 48.2435 347.977 48.6071 347.311 50.288C344.012 58.2475 346.936 76.5016 348.311 84.77C348.935 86.4964 351.234 91.6119 355.433 98.263C359.631 104.914 369.383 115.28 373.173 118.143C373.173 116.103 372.581 109.543 372.052 104.396C371.239 96.4833 368.303 77.6828 359.306 61.3277Z" fill="url(#paint14_linear_4887_15422)"/>
<path d="M300.017 161.954C308.165 159.599 314.319 154.642 316.377 152.457L336.185 139.149C335.789 143.585 334.26 153.812 331.313 159.231C327.629 166.005 320.143 170.401 313.37 173.015C306.597 175.629 302.535 177.639 299.083 184.348C296.019 190.302 292.859 195.395 284.436 193.428C278.12 191.952 280.099 181.333 282.119 176.936C284.139 172.54 289.832 164.898 300.017 161.954Z" fill="#DF5A6F"/>
<path d="M266.337 131.098C267.872 129.491 274.198 127.594 277.17 126.846C287.175 131.125 288.963 142.193 288.606 147.192C286.003 148.65 279.446 150.182 272.751 147.66C266.733 145.394 264.963 137.354 264.694 135.747C264.329 133.566 264.42 133.107 266.337 131.098Z" fill="#88B6D0"/>
<path d="M306.57 159.289C311.174 157.463 314.447 152.053 315.638 149.474C319.627 145.911 329.617 142.894 334.113 141.831C335.087 143.184 336.824 146.913 335.98 151.005C334.925 156.119 333.22 159.494 327.781 166.83C323.429 172.699 314.863 174.125 311.124 174.105C310.861 171.564 313.35 168.628 316.518 166.83C323.33 162.964 324.288 160.768 324.288 159.494C323.826 159.88 320.474 162.368 317.73 163.443C313.817 164.975 311.446 165.744 304.519 167.35C293.956 169.8 289.263 179.901 287.768 184.157C287.687 183.308 287.863 177.715 289.995 174.105C293.523 168.129 298.354 165.471 301.488 163.975C301.488 163.975 300.277 163.783 297.637 163.975C294.996 164.167 293.89 164.53 293.89 164.53C294.064 164.395 295.225 163.692 297.442 162.676C300.213 161.406 300.816 161.57 306.57 159.289Z" fill="#B3313C"/>
<path d="M296.467 166.361C293.841 163.527 292.853 158.852 292.687 156.868C295.738 156.464 298.89 156.823 300.085 157.052C299.737 160.042 299.064 166.192 299.155 166.878C299.269 167.737 299.75 169.904 296.467 166.361Z" fill="url(#paint15_linear_4887_15422)"/>
<path d="M279.544 158.16C276.918 155.326 275.93 150.65 275.764 148.667C278.815 148.263 281.968 148.622 283.163 148.851C282.815 151.841 282.142 157.991 282.233 158.677C282.346 159.535 282.827 161.703 279.544 158.16Z" fill="url(#paint16_linear_4887_15422)"/>
<path d="M306.521 93.5311C313.663 84.9378 330.321 83.8931 337.757 84.4448C337.757 102.928 350.268 114.803 360.534 138.757C368.747 157.92 365.424 173.841 362.736 179.407C359.455 177.994 352.02 174.911 348.528 173.879C344.163 172.589 326.008 171.597 316.704 176.394C309.262 180.232 303.871 180.599 301.439 180.255C301.721 179.721 302.967 177.94 304.752 176.266C309.519 171.798 320.644 168.61 327.061 163.588C333.478 158.566 334.084 147.765 329.253 146.099C327.168 145.381 323.079 151.046 317.499 154.534C311.919 158.021 303.033 159.515 294.524 159.096C287.716 158.762 282.492 154.989 281.283 152.757C279.469 153.733 276.333 154.325 273.878 151.982C270.809 149.052 268.298 141.938 267.182 136.776C266.29 132.647 267.554 130.964 268.298 130.638C269.646 129.522 273.599 126.676 278.621 124.221C283.643 121.766 292.06 118.734 295.64 117.525C296.291 113.108 299.379 102.124 306.521 93.5311Z" fill="#D2702E"/>
<path d="M286.231 135.28C285.785 133.175 278.776 130.275 276.763 129.894C266.498 128.872 268.707 136.622 271.3 140.16C274.719 144.826 280.207 145.424 282.867 143.535C285.528 141.647 286.789 137.912 286.231 135.28Z" fill="#220503"/>
<path d="M324.045 89.6758C312.034 89.6757 303.393 91.5814 301.301 92.7765C292.811 100.881 293.229 109.307 293.228 120.569L293.259 120.551C294.217 119.996 296.357 118.757 300.553 119.555C321.598 123.557 332.323 143.002 332.323 143.002C357.524 134.128 362.46 102.31 360.713 94.7335C353.468 92.8661 336.056 89.6758 324.045 89.6758Z" fill="#519BC4"/>
<path d="M294.616 148.513C284.993 141.955 288.246 131.521 272.351 131.521C268.226 131.521 266.555 132.341 265.687 133.654C265.113 134.889 265.71 138.557 267.281 141.672C268.851 144.786 269.255 144.769 269.999 145.702C270.116 145.957 270.533 146.857 270.596 147.016C269.365 146.249 266.95 143.355 265.811 139.991C264.673 136.628 264.103 134.185 265.033 132.695C268.232 126.23 286.743 119.935 292.352 118.307C296.338 116.522 302.859 117.736 308.804 120.098C322.732 126.777 332.651 141.464 324.418 146.838C316.186 152.213 305.419 155.875 294.616 148.513Z" fill="#519BC3"/>
<path d="M323 88.751C311.361 88.7509 302.988 90.5974 300.962 91.7555C292.735 99.6083 293.14 107.773 293.139 118.686C294.052 118.157 295.845 117.541 299.939 118.406C318.425 122.312 331.226 141.324 331.226 141.324C355.645 132.725 360.303 101.521 358.61 94.1793C351.589 92.3699 334.639 88.751 323 88.751Z" fill="url(#paint17_linear_4887_15422)"/>
<path d="M343 103.08C349.652 105.559 352.07 110.764 352.448 113.057C339.206 122.308 325.069 117.998 319.375 113.816C319.274 112.833 317.268 111.692 317.404 107.288C317.583 101.503 321.334 100.411 322.845 100.008C326.524 99.227 336.349 100.601 343 103.08Z" fill="url(#paint18_linear_4887_15422)"/>
<path d="M294.154 103.207C294.097 103.251 293.303 106.905 293.303 109.632C299.608 116.278 304.818 113.03 308.121 110.732C310.781 109.402 312.075 106.7 312.322 103.91C312.648 100.244 308.347 100.733 307.58 100.387C305.698 99.6711 297.208 100.84 294.154 103.207Z" fill="url(#paint19_linear_4887_15422)"/>
<path d="M336.872 99.4741C345.78 101.517 350.444 108.357 351.638 110.632C340.722 99.6652 329.168 102.502 324.839 104.993C320.511 107.484 318.244 105.466 318.549 103.139C318.833 100.978 325.5 96.8666 336.872 99.4741Z" fill="#020202"/>
<path d="M304.786 99.0676C307.823 99.261 309.83 99.9455 311.409 101.135C312.77 102.161 312.927 104.489 311.434 105.072C308.288 106.3 307.486 103.305 302.845 102.38C297.161 101.248 294.149 103.43 294.149 103.43C293.88 103.27 293.561 102.869 293.849 102.039C294.055 101.444 294.385 101.123 294.743 100.954C294.743 100.954 297.979 98.6341 304.786 99.0676Z" fill="#020202"/>
<ellipse cx="329.468" cy="114.853" rx="11.0144" ry="3.10051" transform="rotate(14.0622 329.468 114.853)" fill="#020202"/>
<ellipse cx="301.013" cy="109.822" rx="7.59584" ry="2.77329" transform="rotate(0.58374 301.013 109.822)" fill="#020202"/>
<path d="M272.661 130.08C266.23 130.08 264.26 132.997 264.587 135.019C262.742 128.018 286.655 117.974 293.038 116.121C297.017 114.34 303.525 115.552 309.459 117.91C323.36 124.576 331.417 140.437 325.043 144.599C318.669 148.76 309.467 155.152 296.482 148.1C286.249 142.543 288.525 130.08 272.661 130.08Z" fill="url(#paint20_linear_4887_15422)"/>
<ellipse cx="297.98" cy="139.158" rx="1.50364" ry="2.27092" transform="rotate(12.2517 297.98 139.158)" fill="#D2702E"/>
<path d="M301.024 139.668C300.177 138.965 298.709 137.678 298.278 136.903C297.85 136.919 297.295 137.069 296.718 138.201C296.339 138.944 296.39 139.952 296.521 140.391C297.521 141.531 300.78 143.702 302.637 144.206C306.86 145.352 311.22 145.156 315.347 142.071C318.649 139.603 319.491 135.551 319.211 134.774C318.989 134.927 318.751 136.426 317.025 138.201C315.524 139.743 312.43 141.942 308.643 141.942C305.744 141.942 302.831 141.169 301.024 139.668Z" fill="#020202"/>
<path d="M325.111 124.63C321.881 121.774 319.321 117.836 318.444 116.223C318.112 115.612 317.154 115.455 316.498 116.212C316.068 116.708 316.151 117.714 316.39 118.262C316.828 119.269 318.829 122.122 323.322 125.475C327.815 128.827 334.348 129.728 337.053 129.76C334.419 129.24 328.342 127.486 325.111 124.63Z" fill="url(#paint21_linear_4887_15422)"/>
<path opacity="0.6" fill-rule="evenodd" clip-rule="evenodd" d="M223.734 58.4404C209.315 62.1689 195.71 66.7046 183.272 72.0474C138.09 91.4567 117.705 117.484 122.117 142.866H121.534V322.639C121.978 299.716 142.557 276.852 183.272 259.362C196.562 253.653 211.186 248.865 226.712 244.999V60.516L223.734 58.4404Z" fill="url(#paint22_radial_4887_15422)"/>
<path fill-rule="evenodd" clip-rule="evenodd" d="M226.712 247.783L223.78 245.731C209.343 249.462 195.723 254.002 183.272 259.35C100.946 294.715 100.946 352.054 183.272 387.419C265.214 422.619 397.83 422.784 480.245 387.912L476.894 386.401C395.825 419.626 266.28 419.24 185.998 385.286C104.931 351.001 104.792 295.472 185.687 261.26C198.269 255.939 212.07 251.447 226.712 247.783Z" fill="url(#paint23_linear_4887_15422)"/>
<path fill-rule="evenodd" clip-rule="evenodd" d="M480.25 200.616C397.835 235.489 265.216 235.326 183.274 200.125C141.99 182.39 121.409 159.13 121.53 135.887H121.527V323.395H121.529C121.532 346.569 142.114 369.742 183.273 387.423C265.216 422.624 397.835 422.788 480.25 387.915V200.616Z" fill="url(#paint24_linear_4887_15422)"/>
<path fill-rule="evenodd" clip-rule="evenodd" d="M226.67 60.5027L223.757 58.4463C209.329 62.1759 195.716 66.7135 183.272 72.0591C100.946 107.424 100.946 164.763 183.272 200.128C265.22 235.331 397.851 235.493 480.264 200.613V200.509L476.985 199.073C395.922 232.335 266.31 231.961 185.998 197.995C104.931 163.71 104.792 108.181 185.687 73.9688C198.257 68.6527 212.044 64.1641 226.67 60.5027Z" fill="url(#paint25_linear_4887_15422)"/>
<path opacity="0.5" d="M476.987 199.048L480.265 200.497V387.899L476.987 386.45V199.048Z" fill="#B5E4FF"/>
<path d="M183.271 225.427C114.548 195.905 103.193 151.072 149.205 116.49" stroke="url(#paint26_linear_4887_15422)" stroke-width="2.53035" stroke-linecap="round"/>
<path d="M183.273 242.293C166.943 235.279 153.853 227.399 144.001 218.999M149.207 133.356C119.119 155.97 113.561 182.968 132.535 207.201" stroke="url(#paint27_linear_4887_15422)" stroke-width="2.53035" stroke-linecap="round"/>
<path d="M183.27 259.165C157.61 248.141 139.947 234.983 130.283 221.021" stroke="url(#paint28_linear_4887_15422)" stroke-width="2.53035" stroke-linecap="round"/>
<path opacity="0.8" d="M146.193 348.319V268.273C166.903 250.843 171.777 279.904 196.981 283.851C213.6 286.454 219.757 262.222 232.904 249.796C248.461 235.093 266.726 235.506 276.088 237.178V396.434C253.234 394.372 235.75 390.705 203.974 380.179C166.075 367.625 155.53 355.278 146.193 348.319Z" fill="url(#paint29_linear_4887_15422)"/>
<path d="M276.022 237.525V395.87M146.28 268.347V348.617M175.519 274.177V365.872M218.242 270.537V381.872" stroke="white" stroke-width="1.6869" stroke-linecap="round" stroke-dasharray="6.75 6.75"/>
<path d="M146.193 268.273C166.903 250.843 171.777 279.904 196.981 283.851C213.6 286.454 219.757 262.222 232.904 249.796C248.461 235.093 266.726 235.506 276.088 237.178" stroke="white" stroke-width="2.53035" stroke-linecap="round"/>
<path opacity="0.3" d="M146.194 311.905C163.791 306.571 159.819 336.112 185.74 333.313C201.74 331.586 203.706 312.891 218.655 316.004C241.301 320.721 238.515 360.441 276.087 371.86" stroke="white" stroke-width="2.53035" stroke-linecap="round"/>
<ellipse opacity="0.7" cx="195.219" cy="263.309" rx="6.02992" ry="7.81437" fill="white"/>
<ellipse cx="195.22" cy="263.318" rx="3.32303" ry="4.30642" fill="white"/>
<ellipse opacity="0.7" cx="195.219" cy="245.605" rx="6.02992" ry="7.81437" fill="white"/>
<ellipse cx="195.22" cy="245.599" rx="3.32303" ry="4.30642" fill="white"/>
<ellipse opacity="0.7" cx="195.219" cy="227.885" rx="6.02992" ry="7.81437" fill="white"/>
<ellipse cx="195.22" cy="227.883" rx="3.32303" ry="4.30642" fill="white"/>
<path d="M296.363 392.548V381.426C296.363 379.634 297.076 377.915 298.345 376.649L305.116 369.894C306.381 368.632 308.094 367.924 309.881 367.924H316.026H327.45C331.176 367.924 334.196 370.945 334.196 374.671V393.035C334.196 396.762 331.176 399.783 327.45 399.783H319.137C313.845 399.783 307.512 399.497 302.588 399.207C299.072 398.999 296.363 396.07 296.363 392.548Z" stroke="white" stroke-width="1.6869" stroke-linecap="round"/>
<path d="M346.97 392.538V381.109C346.97 379.5 347.545 377.944 348.591 376.722L354.065 370.326C355.347 368.828 357.217 367.918 359.184 367.791C360.864 367.682 363.293 367.522 366.703 367.311C371.057 367.043 374.928 366.656 378.079 366.345C381.787 365.98 384.803 368.857 384.803 372.584V389.624C384.803 393.351 381.82 396.826 378.132 397.361C376.046 397.664 373.31 398.011 369.658 398.367C364.399 398.879 358.107 399.039 353.204 398.994C349.682 398.963 346.97 396.06 346.97 392.538Z" stroke="white" stroke-width="1.6869" stroke-linecap="round"/>
<path d="M334.087 373.964L308.658 399.393" stroke="white" stroke-width="1.6869" stroke-linecap="round"/>
<path d="M317.695 367.98L296.416 389.259" stroke="white" stroke-width="1.6869" stroke-linecap="round"/>
<path d="M328.623 368.24L298.963 397.9" stroke="white" stroke-width="1.6869" stroke-linecap="round"/>
<path d="M334.231 383.846L318.698 399.776" stroke="white" stroke-width="1.6869" stroke-linecap="round"/>
<path d="M384.158 369.816L360.488 399.003" stroke="white" stroke-width="1.6869" stroke-linecap="round"/>
<path d="M364.885 367.866L346.939 389.995" stroke="white" stroke-width="1.6869" stroke-linecap="round"/>
<path d="M376.416 366.501L350.959 397.892" stroke="white" stroke-width="1.6869" stroke-linecap="round"/>
<path d="M384.803 380.511L371.056 397.895" stroke="white" stroke-width="1.6869" stroke-linecap="round"/>
<defs>
<radialGradient id="paint0_radial_4887_15422" cx="0" cy="0" r="1" gradientUnits="userSpaceOnUse" gradientTransform="translate(377.682 435.351) rotate(78.2003) scale(114.931 216.447)">
<stop stop-color="#D591FF"/>
<stop offset="1" stop-color="#E4CEFF" stop-opacity="0"/>
</radialGradient>
<radialGradient id="paint1_radial_4887_15422" cx="0" cy="0" r="1" gradientUnits="userSpaceOnUse" gradientTransform="translate(464.67 391.88) rotate(75.0883) scale(61.7305 116.256)">
<stop stop-color="#7727B6" stop-opacity="0.6"/>
<stop offset="0.974768" stop-color="#B075EC" stop-opacity="0"/>
</radialGradient>
<linearGradient id="paint2_linear_4887_15422" x1="314.404" y1="388.14" x2="314.404" y2="456.681" gradientUnits="userSpaceOnUse">
<stop stop-color="#C67DFF" stop-opacity="0.38"/>
<stop offset="1" stop-color="#C67DFF" stop-opacity="0"/>
</linearGradient>
<linearGradient id="paint3_linear_4887_15422" x1="320.628" y1="242.505" x2="282.74" y2="350.288" gradientUnits="userSpaceOnUse">
<stop stop-color="#F7A02C"/>
<stop offset="1" stop-color="#E15D84"/>
</linearGradient>
<linearGradient id="paint4_linear_4887_15422" x1="327.033" y1="49.4908" x2="337.006" y2="104.675" gradientUnits="userSpaceOnUse">
<stop stop-color="#EE4346"/>
<stop offset="1" stop-color="#8C4414"/>
</linearGradient>
<linearGradient id="paint5_linear_4887_15422" x1="314.691" y1="56.945" x2="323.257" y2="90.9602" gradientUnits="userSpaceOnUse">
<stop stop-color="#EC912D"/>
<stop offset="1" stop-color="#D2702E"/>
</linearGradient>
<linearGradient id="paint6_linear_4887_15422" x1="605.133" y1="299.464" x2="523.744" y2="319.962" gradientUnits="userSpaceOnUse">
<stop stop-color="#D2702E"/>
<stop offset="1" stop-color="#F0972C"/>
</linearGradient>
<linearGradient id="paint7_linear_4887_15422" x1="592.836" y1="279.679" x2="522.898" y2="313.83" gradientUnits="userSpaceOnUse">
<stop stop-color="#EC4344"/>
<stop offset="1" stop-color="#582106"/>
</linearGradient>
<linearGradient id="paint8_linear_4887_15422" x1="337.865" y1="177.62" x2="435.185" y2="340.887" gradientUnits="userSpaceOnUse">
<stop offset="0.0583122" stop-color="#D2702E"/>
<stop offset="0.456819" stop-color="#FFAA2C"/>
<stop offset="1" stop-color="#DF5E7D"/>
</linearGradient>
<linearGradient id="paint9_linear_4887_15422" x1="343.457" y1="165.933" x2="451.995" y2="350.304" gradientUnits="userSpaceOnUse">
<stop offset="0.0643896" stop-color="#BB3341"/>
<stop offset="0.240604" stop-color="#E92F2F"/>
<stop offset="0.937479" stop-color="#5C2209"/>
</linearGradient>
<linearGradient id="paint10_linear_4887_15422" x1="368.568" y1="195.476" x2="491.808" y2="273.048" gradientUnits="userSpaceOnUse">
<stop offset="0.250261" stop-color="#E62F2F"/>
<stop offset="1" stop-color="#4E1F00"/>
</linearGradient>
<linearGradient id="paint11_linear_4887_15422" x1="378.629" y1="271.946" x2="386.065" y2="362.495" gradientUnits="userSpaceOnUse">
<stop stop-color="#F7A02C"/>
<stop offset="1" stop-color="#E15D84"/>
</linearGradient>
<linearGradient id="paint12_linear_4887_15422" x1="476.526" y1="240.995" x2="510.225" y2="362.663" gradientUnits="userSpaceOnUse">
<stop stop-color="#D2702E"/>
<stop offset="1" stop-color="#E15C88"/>
</linearGradient>
<linearGradient id="paint13_linear_4887_15422" x1="377.486" y1="127.723" x2="335.376" y2="37.3403" gradientUnits="userSpaceOnUse">
<stop stop-color="#7B3709"/>
<stop offset="1" stop-color="#FF454E"/>
</linearGradient>
<linearGradient id="paint14_linear_4887_15422" x1="357.812" y1="73.0752" x2="361.145" y2="92.0322" gradientUnits="userSpaceOnUse">
<stop stop-color="#EC912D"/>
<stop offset="1" stop-color="#D2702E"/>
</linearGradient>
<linearGradient id="paint15_linear_4887_15422" x1="296.303" y1="156.389" x2="298.039" y2="166.219" gradientUnits="userSpaceOnUse">
<stop stop-color="#CEEDFF"/>
<stop offset="1" stop-color="#F9FDFF"/>
</linearGradient>
<linearGradient id="paint16_linear_4887_15422" x1="279.381" y1="148.188" x2="281.116" y2="158.018" gradientUnits="userSpaceOnUse">
<stop stop-color="#CEEDFF"/>
<stop offset="1" stop-color="#F9FDFF"/>
</linearGradient>
<linearGradient id="paint17_linear_4887_15422" x1="294.133" y1="106.362" x2="344.763" y2="122.064" gradientUnits="userSpaceOnUse">
<stop stop-color="#E7F4FB"/>
<stop offset="1" stop-color="white"/>
</linearGradient>
<linearGradient id="paint18_linear_4887_15422" x1="333.722" y1="102.495" x2="332.76" y2="114.128" gradientUnits="userSpaceOnUse">
<stop stop-color="#CDE2EF"/>
<stop offset="1" stop-color="#E9F2F8" stop-opacity="0"/>
</linearGradient>
<linearGradient id="paint19_linear_4887_15422" x1="305.009" y1="103.715" x2="304.188" y2="107.172" gradientUnits="userSpaceOnUse">
<stop stop-color="#CDE2EF"/>
<stop offset="1" stop-color="#E9F2F8" stop-opacity="0"/>
</linearGradient>
<linearGradient id="paint20_linear_4887_15422" x1="312.201" y1="136.925" x2="301.793" y2="117.626" gradientUnits="userSpaceOnUse">
<stop stop-color="#F7FCFF"/>
<stop offset="0.596186" stop-color="white"/>
<stop offset="1" stop-color="#E8F4FB"/>
</linearGradient>
<linearGradient id="paint21_linear_4887_15422" x1="317.054" y1="117.475" x2="339.337" y2="129.894" gradientUnits="userSpaceOnUse">
<stop stop-color="#E9F2F8" stop-opacity="0.963542"/>
<stop offset="1" stop-color="#F7FCFF"/>
</linearGradient>
<radialGradient id="paint22_radial_4887_15422" cx="0" cy="0" r="1" gradientUnits="userSpaceOnUse" gradientTransform="translate(101.136 248.156) rotate(-71.8321) scale(156.599 178.575)">
<stop stop-color="#9D95FF"/>
<stop offset="1" stop-color="#FF62EF" stop-opacity="0"/>
</radialGradient>
<linearGradient id="paint23_linear_4887_15422" x1="235.582" y1="204.732" x2="311.38" y2="397.161" gradientUnits="userSpaceOnUse">
<stop stop-color="white" stop-opacity="0"/>
<stop offset="0.5" stop-color="#E09FFF"/>
<stop offset="1" stop-color="white"/>
</linearGradient>
<linearGradient id="paint24_linear_4887_15422" x1="121.527" y1="256.217" x2="480.25" y2="258.278" gradientUnits="userSpaceOnUse">
<stop offset="0.0001" stop-color="#5B40FF" stop-opacity="0.62"/>
<stop offset="0.140625" stop-color="#9E7BFF" stop-opacity="0.69"/>
<stop offset="0.646191" stop-color="#644AFF" stop-opacity="0.25"/>
<stop offset="0.996388" stop-color="#9D61FF" stop-opacity="0.76"/>
</linearGradient>
<linearGradient id="paint25_linear_4887_15422" x1="336.584" y1="100.804" x2="350.614" y2="230.339" gradientUnits="userSpaceOnUse">
<stop stop-color="#9745FF" stop-opacity="0"/>
<stop offset="1" stop-color="#AA83FF" stop-opacity="0.9"/>
</linearGradient>
<linearGradient id="paint26_linear_4887_15422" x1="221.119" y1="147.383" x2="186.92" y2="226.995" gradientUnits="userSpaceOnUse">
<stop stop-color="white" stop-opacity="0"/>
<stop offset="1" stop-color="white"/>
</linearGradient>
<linearGradient id="paint27_linear_4887_15422" x1="221.121" y1="164.249" x2="186.922" y2="243.861" gradientUnits="userSpaceOnUse">
<stop stop-color="white" stop-opacity="0"/>
<stop offset="1" stop-color="white"/>
</linearGradient>
<linearGradient id="paint28_linear_4887_15422" x1="221.119" y1="181.121" x2="186.92" y2="260.732" gradientUnits="userSpaceOnUse">
<stop stop-color="white" stop-opacity="0"/>
<stop offset="1" stop-color="white"/>
</linearGradient>
<linearGradient id="paint29_linear_4887_15422" x1="211.14" y1="255.671" x2="211.14" y2="370.218" gradientUnits="userSpaceOnUse">
<stop stop-color="white"/>
<stop offset="1" stop-color="white" stop-opacity="0"/>
</linearGradient>
</defs>
</svg>
